P3
# Created by GIMP version 2.10.38 PNM plug-in
64 64
255
90
90
90
123
123
123
123
123
123
115
115
115
106
106
106
115
115
115
123
123
123
115
115
115
123
123
123
115
115
115
123
123
123
115
115
115
123
123
123
115
115
115
123
123
123
115
115
115
123
123
123
123
123
123
115
115
115
106
106
106
115
115
115
106
106
106
123
123
123
123
123
123
123
123
123
123
123
123
106
106
106
115
115
115
123
123
123
123
123
123
123
123
123
106
106
106
106
106
106
115
115
115
115
115
115
106
106
106
115
115
115
98
98
98
106
106
106
115
115
115
115
115
115
106
106
106
115
115
115
123
123
123
123
123
123
123
123
123
106
106
106
106
106
106
106
106
106
115
115
115
123
123
123
106
106
106
123
123
123
123
123
123
115
115
115
115
115
115
115
115
115
106
106
106
123
123
123
106
106
106
115
115
115
123
123
123
123
123
123
90
90
90
82
82
82
115
115
115
123
123
123
115
115
115
106
106
106
115
115
115
106
106
106
82
82
82
106
106
106
82
82
82
106
106
106
82
82
82
82
82
82
82
82
82
106
106
106
82
82
82
115
115
115
115
115
115
115
115
115
106
106
106
115
115
115
106
106
106
115
115
115
123
123
123
123
123
123
106
106
106
106
106
106
90
90
90
123
123
123
123
123
123
123
123
123
106
106
106
106
106
106
106
106
106
106
106
106
98
98
98
115
115
115
98
98
98
106
106
106
115
115
115
115
115
115
106
106
106
115
115
115
123
123
123
115
115
115
106
106
106
98
98
98
106
106
106
123
123
123
106
106
106
123
123
123
98
98
98
115
74
41
123
24
24
123
24
24
123
24
24
90
90
90
106
106
106
123
123
123
106
106
106
115
115
115
123
123
123
115
115
115
82
82
82
65
65
65
115
115
115
115
115
115
106
106
106
98
98
98
106
106
106
98
98
98
90
90
90
98
98
98
90
90
90
98
98
98
90
90
90
90
90
90
90
90
90
98
98
98
90
90
90
106
106
106
106
106
106
106
106
106
106
106
106
106
106
106
106
106
106
106
106
106
106
106
106
106
106
106
106
106
106
98
98
98
90
90
90
123
123
123
123
123
123
123
123
123
106
106
106
98
98
98
98
98
98
98
98
98
90
90
90
98
98
98
82
82
82
90
90
90
98
98
98
98
98
98
106
106
106
106
106
106
115
115
115
115
115
115
90
90
90
90
90
90
90
90
90
123
123
123
106
106
106
123
123
123
106
106
106
106
106
106
98
98
98
90
90
90
90
90
90
115
115
115
106
106
106
123
123
123
106
106
106
106
106
106
115
115
115
115
115
115
65
65
65
82
82
82
106
106
106
106
106
106
98
98
98
106
106
106
123
123
123
106
106
106
90
90
90
106
106
106
90
90
90
106
106
106
90
90
90
90
90
90
90
90
90
106
106
106
90
90
90
115
115
115
115
115
115
115
115
115
115
115
115
115
115
115
106
106
106
115
115
115
115
115
115
115
115
115
115
115
115
106
106
106
90
90
90
123
123
123
123
123
123
123
123
123
115
115
115
90
90
90
90
90
90
90
90
90
90
90
90
90
90
90
82
82
82
90
90
90
90
90
90
90
90
90
106
106
106
98
98
98
106
106
106
106
106
106
115
115
115
106
106
106
123
123
123
123
123
123
106
106
106
123
123
123
98
98
98
115
74
41
123
24
24
123
24
24
123
24
24
90
90
90
106
106
106
123
123
123
106
106
106
98
98
98
106
106
106
106
106
106
82
82
82
65
65
65
115
115
115
115
115
115
115
115
115
98
98
98
106
106
106
98
98
98
90
90
90
98
98
98
90
90
90
98
98
98
90
90
90
90
90
90
90
90
90
98
98
98
90
90
90
106
106
106
106
106
106
106
106
106
106
106
106
106
106
106
98
98
98
106
106
106
106
106
106
106
106
106
106
106
106
98
98
98
82
82
82
98
98
98
98
98
98
98
98
98
90
90
90
98
98
98
115
115
115
115
115
115
115
115
115
115
115
115
106
106
106
106
106
106
115
115
115
115
115
115
123
123
123
115
115
115
115
115
115
115
115
115
106
106
106
106
106
106
123
123
123
123
123
123
106
106
106
123
123
123
106
106
106
106
106
106
98
98
98
90
90
90
90
90
90
115
115
115
106
106
106
123
123
123
106
106
106
115
115
115
115
115
115
115
115
115
65
65
65
82
82
82
106
106
106
98
98
98
115
115
115
106
106
106
115
115
115
106
106
106
90
90
90
106
106
106
90
90
90
106
106
106
90
90
90
90
90
90
90
90
90
106
106
106
90
90
90
115
115
115
123
123
123
123
123
123
106
106
106
115
115
115
98
98
98
98
98
98
90
90
90
90
90
90
90
90
90
90
90
90
82
82
82
98
98
98
98
98
98
98
98
98
90
90
90
106
106
106
106
106
106
106
106
106
106
106
106
106
106
106
98
98
98
98
98
98
98
98
98
106
106
106
98
98
98
98
98
98
98
98
98
106
106
106
106
106
106
106
106
106
123
123
123
123
123
123
106
106
106
123
123
123
98
98
98
115
74
41
123
24
24
123
24
24
123
24
24
90
90
90
106
106
106
123
123
123
106
106
106
115
115
115
98
98
98
106
106
106
82
82
82
82
82
82
98
98
98
106
106
106
98
98
98
106
106
106
115
115
115
115
115
115
106
106
106
115
115
115
106
106
106
115
115
115
106
106
106
90
90
90
98
98
98
115
115
115
106
106
106
115
115
115
123
123
123
123
123
123
98
98
98
98
98
98
106
106
106
106
106
106
106
106
106
106
106
106
106
106
106
106
106
106
106
106
106
123
123
123
123
123
123
123
123
123
115
115
115
106
106
106
106
106
106
98
98
98
106
106
106
98
98
98
106
106
106
90
90
90
106
106
106
98
98
98
106
106
106
90
90
90
106
106
106
98
98
98
115
115
115
115
115
115
106
106
106
106
106
106
115
115
115
123
123
123
106
106
106
98
98
98
98
98
98
90
90
90
90
90
90
106
106
106
106
106
106
123
123
123
106
106
106
98
98
98
106
106
106
98
98
98
82
82
82
57
57
57
65
65
65
65
65
65
65
65
65
82
82
82
65
65
65
82
82
82
82
82
82
82
82
82
82
82
82
82
82
82
82
82
82
65
65
65
65
65
65
82
82
82
82
82
82
65
65
65
82
82
82
82
82
82
65
65
65
65
65
65
65
65
65
65
65
65
82
82
82
82
82
82
82
82
82
82
82
82
82
82
82
82
82
82
82
82
82
82
82
82
82
82
82
82
82
82
65
65
65
65
65
65
65
65
65
65
65
65
65
65
65
65
65
65
65
65
65
65
65
65
65
65
65
65
65
65
65
65
65
65
65
65
82
82
82
82
82
82
82
82
82
65
65
65
82
82
82
82
82
82
82
82
82
82
82
82
82
82
82
82
82
82
82
82
82
82
82
82
82
82
82
82
82
82
82
82
82
65
65
65
65
65
65
65
65
65
57
57
57
49
49
49
57
57
57
57
57
57
57
57
57
82
82
82
82
82
82
90
90
90
82
82
82
82
82
82
82
82
82
90
90
90
82
82
82
65
65
65
82
82
82
90
90
90
82
82
82
82
82
82
90
90
90
82
82
82
82
82
82
82
82
82
82
82
82
90
90
90
90
90
90
65
65
65
65
65
65
82
82
82
82
82
82
82
82
82
90
90
90
90
90
90
90
90
90
82
82
82
82
82
82
82
82
82
90
90
90
82
82
82
90
90
90
90
90
90
65
65
65
90
90
90
82
82
82
82
82
82
82
82
82
82
82
82
90
90
90
90
90
90
90
90
90
57
57
57
90
90
90
82
82
82
82
82
82
90
90
90
82
82
82
90
90
90
65
65
65
82
82
82
90
90
90
90
90
90
90
90
90
65
65
65
65
65
65
65
65
65
49
49
49
65
49
24
82
82
82
82
82
82
82
82
82
106
106
106
106
106
106
106
106
106
106
106
106
106
106
106
106
106
106
106
106
106
106
106
106
82
82
82
90
90
90
115
115
115
106
106
106
106
106
106
90
90
90
82
82
82
82
82
82
65
65
65
82
82
82
90
90
90
90
90
90
65
65
65
65
65
65
65
65
65
82
82
82
82
82
82
90
90
90
82
82
82
90
90
90
82
82
82
82
82
82
90
90
90
106
106
106
98
98
98
106
106
106
123
123
123
90
90
90
115
115
115
82
82
82
82
82
82
82
82
82
82
82
82
90
90
90
90
90
90
115
115
115
82
82
82
115
115
115
106
106
106
106
106
106
115
115
115
106
106
106
98
98
98
82
82
82
90
90
90
115
115
115
106
106
106
156
123
106
82
82
82
82
82
82
90
90
90
65
49
24
65
49
24
65
65
65
65
65
65
82
82
82
106
106
106
82
82
82
106
106
106
106
106
106
115
115
115
115
115
115
98
98
98
82
82
82
82
82
82
98
98
98
115
115
115
82
82
82
82
82
82
57
57
57
49
49
49
49
49
49
49
49
49
49
49
49
57
57
57
57
57
57
49
49
49
49
49
49
49
49
49
49
49
49
49
49
49
49
49
49
49
49
49
49
49
49
49
49
49
57
57
57
90
90
90
106
106
106
106
106
106
106
106
106
123
123
123
90
90
90
115
115
115
65
65
65
49
49
49
49
49
49
49
49
49
57
57
57
82
82
82
115
115
115
82
82
82
115
115
115
123
123
123
123
123
123
90
90
90
98
98
98
90
90
90
90
90
90
90
90
90
115
115
115
90
90
90
123
123
123
82
82
82
65
65
65
65
65
65
65
49
24
65
49
24
57
57
57
65
65
65
82
82
82
106
106
106
98
98
98
106
106
106
106
106
106
115
115
115
98
98
98
106
106
106
90
90
90
90
90
90
82
82
82
98
98
98
65
65
65
65
65
65
82
82
82
82
82
82
82
82
82
65
65
65
82
82
82
82
82
82
65
65
65
65
65
65
65
65
65
65
65
65
65
65
65
65
65
65
82
82
82
82
82
82
82
82
82
82
82
82
82
82
82
90
90
90
106
106
106
106
106
106
106
106
106
123
123
123
90
90
90
115
115
115
90
90
90
65
65
65
82
82
82
82
82
82
82
82
82
90
90
90
115
115
115
82
82
82
90
90
90
82
82
82
82
57
24
90
90
90
106
106
106
82
82
82
82
82
82
90
90
90
115
115
115
98
98
98
123
123
123
82
82
82
82
82
82
65
65
65
65
49
24
65
49
24
65
65
65
65
65
65
82
82
82
106
106
106
106
106
106
106
106
106
98
98
98
115
115
115
90
90
90
106
106
106
90
90
90
131
82
49
90
90
90
65
65
65
57
57
57
82
82
82
90
90
90
90
90
90
90
90
90
82
82
82
98
98
98
98
98
98
98
98
98
90
90
90
82
82
82
98
98
98
98
98
98
98
98
98
106
106
106
106
106
106
115
115
115
90
90
90
82
82
82
90
90
90
106
106
106
106
106
106
106
106
106
123
123
123
90
90
90
115
115
115
90
90
90
82
82
82
90
90
90
98
98
98
90
90
90
90
90
90
115
115
115
82
82
82
82
82
82
65
65
65
82
82
82
74
49
24
82
82
82
90
90
90
82
82
82
82
82
82
115
115
115
106
106
106
123
123
123
82
82
82
82
82
82
65
65
65
49
49
49
65
49
24
90
90
90
82
82
82
82
82
82
106
106
106
90
90
90
106
106
106
90
90
90
90
90
90
90
90
90
106
106
106
90
90
90
90
65
32
65
65
65
65
65
65
65
65
65
90
90
90
106
106
106
106
106
106
98
98
98
82
82
82
106
106
106
106
106
106
106
106
106
98
98
98
90
90
90
106
106
106
106
106
106
106
106
106
115
115
115
106
106
106
115
115
115
98
98
98
82
82
82
90
90
90
106
106
106
106
106
106
106
106
106
123
123
123
90
90
90
115
115
115
90
90
90
82
82
82
90
90
90
106
106
106
90
90
90
90
90
90
115
115
115
82
82
82
90
90
90
65
65
65
65
65
65
115
74
41
90
65
32
90
90
90
98
98
98
98
98
98
115
115
115
90
90
90
123
123
123
82
82
82
82
82
82
90
90
90
65
49
24
65
49
24
65
65
65
65
65
65
82
82
82
106
106
106
98
98
98
106
106
106
90
90
90
90
90
90
90
90
90
98
98
98
90
90
90
90
65
32
65
65
65
90
90
90
82
82
82
98
98
98
106
106
106
90
90
90
90
90
90
82
82
82
106
106
106
106
106
106
106
106
106
98
98
98
90
90
90
106
106
106
106
106
106
156
123
106
106
106
106
98
98
98
115
115
115
98
98
98
82
82
82
90
90
90
106
106
106
106
106
106
106
106
106
115
115
115
90
90
90
115
115
115
90
90
90
82
82
82
90
90
90
106
106
106
90
90
90
90
90
90
115
115
115
82
82
82
90
90
90
65
65
65
49
49
49
90
65
32
82
82
82
106
106
106
90
90
90
106
106
106
115
115
115
98
98
98
123
123
123
82
82
82
65
65
65
65
65
65
65
49
24
65
49
24
65
65
65
65
65
65
82
82
82
106
106
106
106
106
106
106
106
106
90
90
90
98
98
98
98
98
98
106
106
106
82
82
82
65
49
24
82
82
82
90
90
90
90
90
90
106
106
106
106
106
106
98
98
98
90
90
90
90
90
90
106
106
106
106
106
106
106
106
106
98
98
98
90
90
90
106
106
106
106
106
106
115
115
115
106
106
106
106
106
106
106
106
106
98
98
98
82
82
82
98
98
98
106
106
106
106
106
106
106
106
106
115
115
115
98
98
98
115
115
115
90
90
90
82
82
82
98
98
98
106
106
106
90
90
90
98
98
98
115
115
115
82
82
82
90
90
90
82
82
82
49
49
49
65
49
24
57
57
57
90
90
90
98
98
98
106
106
106
115
115
115
106
106
106
123
123
123
82
82
82
82
82
82
65
65
65
74
49
24
65
49
24
82
82
82
82
82
82
82
82
82
106
106
106
90
90
90
106
106
106
98
98
98
106
106
106
65
65
65
82
82
82
57
57
57
57
57
57
90
90
90
98
98
98
90
90
90
106
106
106
106
106
106
98
98
98
98
98
98
90
90
90
106
106
106
106
106
106
106
106
106
106
106
106
90
90
90
106
106
106
106
106
106
115
115
115
106
106
106
106
106
106
106
106
106
98
98
98
82
82
82
98
98
98
106
106
106
106
106
106
106
106
106
115
115
115
98
98
98
115
115
115
90
90
90
82
82
82
98
98
98
106
106
106
90
90
90
90
90
90
115
115
115
82
82
82
90
90
90
82
82
82
57
57
57
49
41
16
57
57
57
90
90
90
90
90
90
106
106
106
115
115
115
90
90
90
115
115
115
82
82
82
82
82
82
82
82
82
74
49
24
74
49
24
90
90
90
82
82
82
82
82
82
106
106
106
106
106
106
106
106
106
90
90
90
98
98
98
65
65
65
65
65
65
57
57
57
65
65
65
98
98
98
106
106
106
106
106
106
115
115
115
115
115
115
106
106
106
106
106
106
98
98
98
115
115
115
115
115
115
106
106
106
106
106
106
90
90
90
106
106
106
106
106
106
106
106
106
106
106
106
106
106
106
106
106
106
98
98
98
82
82
82
106
106
106
106
106
106
106
106
106
106
106
106
115
115
115
98
98
98
115
115
115
90
90
90
82
82
82
106
106
106
106
106
106
90
90
90
90
90
90
115
115
115
82
82
82
90
90
90
82
82
82
82
82
82
65
49
24
65
49
24
57
57
57
82
82
82
106
106
106
115
115
115
106
106
106
115
115
115
82
82
82
82
82
82
90
90
90
74
49
24
65
49
24
57
57
57
65
65
65
82
82
82
106
106
106
106
106
106
106
106
106
90
90
90
82
82
82
57
57
57
57
57
57
57
57
57
82
82
82
98
98
98
106
106
106
98
98
98
98
98
98
106
106
106
90
90
90
82
82
82
82
82
82
90
90
90
106
106
106
106
106
106
115
115
115
90
90
90
106
106
106
106
106
106
106
106
106
106
106
106
106
106
106
106
106
106
98
98
98
82
82
82
106
106
106
106
106
106
106
106
106
106
106
106
115
115
115
98
98
98
115
115
115
90
90
90
82
82
82
106
106
106
106
106
106
90
90
90
57
57
57
98
98
98
82
82
82
90
90
90
90
90
90
98
98
98
90
65
32
65
49
24
65
49
24
57
57
57
98
98
98
115
115
115
106
106
106
115
115
115
82
82
82
65
65
65
57
57
57
65
49
24
65
49
24
65
65
65
82
82
82
82
82
82
106
106
106
82
82
82
106
106
106
82
82
82
65
65
65
57
57
57
82
82
82
65
65
65
82
82
82
98
98
98
106
106
106
98
98
98
115
115
115
115
115
115
106
106
106
106
106
106
106
106
106
115
115
115
115
115
115
106
106
106
115
115
115
90
90
90
106
106
106
106
106
106
106
106
106
106
106
106
98
98
98
106
106
106
98
98
98
82
82
82
106
106
106
106
106
106
106
106
106
106
106
106
115
115
115
106
106
106
115
115
115
90
90
90
82
82
82
106
106
106
115
115
115
82
82
82
57
57
57
115
115
115
82
82
82
90
90
90
90
90
90
98
98
98
106
65
32
90
65
32
57
57
57
65
49
24
82
82
82
115
115
115
90
90
90
115
115
115
82
82
82
82
82
82
82
82
82
74
49
24
74
49
24
90
90
90
82
82
82
82
82
82
106
106
106
98
98
98
106
106
106
90
90
90
65
65
65
65
65
65
90
90
90
82
82
82
82
82
82
98
98
98
106
106
106
98
98
98
98
98
98
106
106
106
90
90
90
90
90
90
82
82
82
90
90
90
106
106
106
106
106
106
115
115
115
90
90
90
106
106
106
115
115
115
115
115
115
115
115
115
106
106
106
115
115
115
98
98
98
82
82
82
106
106
106
106
106
106
106
106
106
106
106
106
115
115
115
106
106
106
115
115
115
90
90
90
82
82
82
106
106
106
115
115
115
82
82
82
82
82
82
106
106
106
82
82
82
90
90
90
90
90
90
98
98
98
106
65
32
82
82
82
82
82
82
57
57
57
82
82
82
115
115
115
98
98
98
115
115
115
82
82
82
82
82
82
90
90
90
74
49
24
65
49
24
65
65
65
65
65
65
82
82
82
106
106
106
98
98
98
106
106
106
90
90
90
82
82
82
82
82
82
90
90
90
82
82
82
82
82
82
98
98
98
106
106
106
90
90
90
106
106
106
106
106
106
90
90
90
90
90
90
106
106
106
106
106
106
106
106
106
82
82
82
82
82
82
82
82
82
82
82
82
82
82
82
82
82
82
82
82
82
82
82
82
82
82
82
65
65
65
82
82
82
106
106
106
106
106
106
106
106
106
106
106
106
115
115
115
106
106
106
115
115
115
90
90
90
90
90
90
106
106
106
115
115
115
90
90
90
90
90
90
106
106
106
90
90
90
90
90
90
90
90
90
106
106
106
123
82
41
82
82
82
106
106
106
82
82
82
90
90
90
115
115
115
106
106
106
115
115
115
82
82
82
65
65
65
65
65
65
65
49
24
74
49
24
65
65
65
65
65
65
82
82
82
98
98
98
82
82
82
106
106
106
90
90
90
90
90
90
90
90
90
90
90
90
90
90
90
82
82
82
106
106
106
106
106
106
90
90
90
106
106
106
106
106
106
106
106
106
115
115
115
106
106
106
123
123
123
123
123
123
115
115
115
98
98
98
65
65
65
90
90
90
90
90
90
90
90
90
98
98
98
82
82
82
65
65
65
74
49
24
82
82
82
106
106
106
106
106
106
106
106
106
106
106
106
115
115
115
115
115
115
115
115
115
90
90
90
90
90
90
106
106
106
115
115
115
90
90
90
82
82
82
106
106
106
82
82
82
90
90
90
98
98
98
156
123
106
115
74
41
82
82
82
106
106
106
82
82
82
90
90
90
115
115
115
82
82
82
115
115
115
82
82
82
82
82
82
65
65
65
74
49
24
74
49
24
82
82
82
82
82
82
82
82
82
98
98
98
90
90
90
106
106
106
90
90
90
90
90
90
90
90
90
98
98
98
90
90
90
82
82
82
106
106
106
106
106
106
90
90
90
106
106
106
106
106
106
98
98
98
106
106
106
98
98
98
106
106
106
123
123
123
123
123
123
98
98
98
90
90
90
106
106
106
115
115
115
115
115
115
115
115
115
98
98
98
82
82
82
90
65
32
82
82
82
106
106
106
106
106
106
106
106
106
106
106
106
115
115
115
106
106
106
115
115
115
90
90
90
90
90
90
106
106
106
115
115
115
90
90
90
90
90
90
115
115
115
82
82
82
90
90
90
90
90
90
98
98
98
106
65
32
82
82
82
106
106
106
82
82
82
90
90
90
115
115
115
90
90
90
115
115
115
82
82
82
82
82
82
82
82
82
74
49
24
57
57
57
90
90
90
82
82
82
82
82
82
98
98
98
98
98
98
106
106
106
90
90
90
90
90
90
115
115
115
131
131
131
131
131
131
98
98
98
106
106
106
106
106
106
123
123
123
115
115
115
123
123
123
123
123
123
115
115
115
123
123
123
106
106
106
115
115
115
115
115
115
98
98
98
156
123
106
123
123
123
123
123
123
106
106
106
123
123
123
106
106
106
82
82
82
90
65
32
82
82
82
106
106
106
106
106
106
106
106
106
106
106
106
115
115
115
106
106
106
115
115
115
90
90
90
90
90
90
106
106
106
115
115
115
90
90
90
90
90
90
115
115
115
82
82
82
90
90
90
90
90
90
98
98
98
90
65
32
98
98
98
106
106
106
90
90
90
90
90
90
115
115
115
98
98
98
115
115
115
82
82
82
82
82
82
90
90
90
57
57
57
57
57
57
57
57
57
65
65
65
82
82
82
98
98
98
82
82
82
106
106
106
90
90
90
90
90
90
90
90
90
123
123
123
148
148
148
123
123
123
106
106
106
115
115
115
148
148
148
115
115
115
131
131
131
148
148
148
148
148
148
131
131
131
106
106
106
106
106
106
106
106
106
106
106
106
106
106
106
106
106
106
98
98
98
106
106
106
123
123
123
106
106
106
82
82
82
90
65
32
82
82
82
106
106
106
106
106
106
106
106
106
106
106
106
115
115
115
106
106
106
115
115
115
90
90
90
90
90
90
106
106
106
115
115
115
90
90
90
90
90
90
115
115
115
90
90
90
90
90
90
90
90
90
106
106
106
115
74
41
90
90
90
90
90
90
90
90
90
90
90
90
115
115
115
82
82
82
115
115
115
82
82
82
65
65
65
57
57
57
57
57
57
57
57
57
82
82
82
82
82
82
82
82
82
98
98
98
90
90
90
106
106
106
90
90
90
90
90
90
90
90
90
90
90
90
106
106
106
106
106
106
98
98
98
106
106
106
106
106
106
98
98
98
106
106
106
115
115
115
106
106
106
115
115
115
106
106
106
106
106
106
106
106
106
90
90
90
82
82
82
90
90
90
90
90
90
106
106
106
123
123
123
106
106
106
82
82
82
90
65
32
82
82
82
106
106
106
106
106
106
106
106
106
106
106
106
115
115
115
106
106
106
115
115
115
90
90
90
90
90
90
106
106
106
115
115
115
90
90
90
90
90
90
115
115
115
90
90
90
90
90
90
90
90
90
106
106
106
115
74
41
106
106
106
98
98
98
82
82
82
90
90
90
115
115
115
90
90
90
115
115
115
82
82
82
82
82
82
82
82
82
57
57
57
57
57
57
90
90
90
82
82
82
82
82
82
98
98
98
106
106
106
106
106
106
90
90
90
90
90
90
90
90
90
90
90
90
106
106
106
106
106
106
98
98
98
106
106
106
106
106
106
98
98
98
106
106
106
115
115
115
106
106
106
115
115
115
98
98
98
82
82
82
82
82
82
90
90
90
82
82
82
90
90
90
90
90
90
106
106
106
123
123
123
106
106
106
82
82
82
90
65
32
82
82
82
106
106
106
106
106
106
106
106
106
106
106
106
115
115
115
106
106
106
115
115
115
90
90
90
90
90
90
106
106
106
115
115
115
90
90
90
90
90
90
115
115
115
90
90
90
90
90
90
90
90
90
106
106
106
115
74
41
90
90
90
82
82
82
90
90
90
90
90
90
115
115
115
106
106
106
115
115
115
82
82
82
82
82
82
90
90
90
57
57
57
57
57
57
65
65
65
65
65
65
82
82
82
98
98
98
90
90
90
106
106
106
90
90
90
98
98
98
90
90
90
90
90
90
106
106
106
115
115
115
106
106
106
115
115
115
98
98
98
49
49
49
49
49
49
65
65
65
106
106
106
115
115
115
115
115
115
90
90
90
90
90
90
106
106
106
82
82
82
98
98
98
90
90
90
106
106
106
123
123
123
106
106
106
82
82
82
90
65
32
82
82
82
106
106
106
106
106
106
106
106
106
106
106
106
115
115
115
106
106
106
115
115
115
90
90
90
90
90
90
106
106
106
115
115
115
90
90
90
90
90
90
115
115
115
90
90
90
90
90
90
90
90
90
106
106
106
82
82
82
82
82
82
106
106
106
90
90
90
90
90
90
115
115
115
98
98
98
115
115
115
82
82
82
65
65
65
65
65
65
57
57
57
57
57
57
65
65
65
65
65
65
82
82
82
106
106
106
115
115
115
106
106
106
98
98
98
123
123
123
148
148
148
131
131
131
131
131
131
115
115
115
106
106
106
106
106
106
98
98
98
74
0
0
74
49
24
82
82
82
106
106
106
106
106
106
90
90
90
82
82
82
82
82
82
82
82
82
82
82
82
98
98
98
90
90
90
106
106
106
123
123
123
106
106
106
82
82
82
90
65
32
82
82
82
106
106
106
106
106
106
98
98
98
106
106
106
115
115
115
106
106
106
115
115
115
90
90
90
90
90
90
106
106
106
115
115
115
90
90
90
90
90
90
115
115
115
90
90
90
90
90
90
90
90
90
106
106
106
82
82
82
82
82
82
106
106
106
90
90
90
90
90
90
115
115
115
115
115
115
115
115
115
82
82
82
82
82
82
65
65
65
57
57
57
57
57
57
82
82
82
65
65
65
82
82
82
106
106
106
115
115
115
106
106
106
106
106
106
98
98
98
106
106
106
115
115
115
115
115
115
106
106
106
106
106
106
106
106
106
106
106
106
74
49
24
74
49
24
82
82
82
106
106
106
106
106
106
65
65
65
49
49
49
57
57
57
65
65
65
90
90
90
98
98
98
90
90
90
115
115
115
123
123
123
115
115
115
106
106
106
123
82
41
90
90
90
106
106
106
106
106
106
115
115
115
123
123
123
115
115
115
106
106
106
115
115
115
90
90
90
98
98
98
98
98
98
123
123
123
106
106
106
90
90
90
115
115
115
90
90
90
90
90
90
106
106
106
115
115
115
98
98
98
90
90
90
98
98
98
90
90
90
90
90
90
115
115
115
115
115
115
115
115
115
82
82
82
82
82
82
82
82
82
57
57
57
57
57
57
90
90
90
82
82
82
82
82
82
106
106
106
98
98
98
106
106
106
106
106
106
90
90
90
106
106
106
115
115
115
115
115
115
106
106
106
106
106
106
106
106
106
98
98
98
65
49
24
74
49
24
82
82
82
106
106
106
106
106
106
82
82
82
90
90
90
90
90
90
82
82
82
90
90
90
98
98
98
106
106
106
148
148
148
164
164
164
148
148
148
123
123
123
189
123
74
123
123
123
106
106
106
106
106
106
106
106
106
90
90
90
98
98
98
106
106
106
115
115
115
106
106
106
131
131
131
123
123
123
164
164
164
148
148
148
106
106
106
115
115
115
90
90
90
106
106
106
148
148
148
156
123
106
156
123
106
156
123
106
131
131
131
123
123
123
106
106
106
115
115
115
98
98
98
115
115
115
82
82
82
82
82
82
90
90
90
57
57
57
57
57
57
57
57
57
65
65
65
82
82
82
106
106
106
115
115
115
106
106
106
98
98
98
82
82
82
82
82
82
90
90
90
98
98
98
106
106
106
106
106
106
106
106
106
98
98
98
106
8
8
74
49
24
82
82
82
106
106
106
106
106
106
82
82
82
106
106
106
106
106
106
82
82
82
90
90
90
98
98
98
106
106
106
115
115
115
106
106
106
106
106
106
90
90
90
90
65
32
106
106
106
106
106
106
106
106
106
82
82
82
90
90
90
82
82
82
82
82
82
115
115
115
106
106
106
106
106
106
106
106
106
115
115
115
115
115
115
106
106
106
115
115
115
90
90
90
106
106
106
106
106
106
90
90
90
98
98
98
156
123
106
106
106
106
98
98
98
98
98
98
115
115
115
115
115
115
106
106
106
82
82
82
65
65
65
57
57
57
57
57
57
57
57
57
65
65
65
65
65
65
82
82
82
106
106
106
115
115
115
106
106
106
90
90
90
82
82
82
82
82
82
90
90
90
90
90
90
106
106
106
106
106
106
106
106
106
98
98
98
57
57
57
74
49
24
82
82
82
106
106
106
106
106
106
82
82
82
106
106
106
106
106
106
82
82
82
90
90
90
98
98
98
90
90
90
82
82
82
82
82
82
82
82
82
65
65
65
74
49
24
82
82
82
106
106
106
106
106
106
90
90
90
106
106
106
98
98
98
106
106
106
115
115
115
90
90
90
82
82
82
82
82
82
90
90
90
90
90
90
90
90
90
115
115
115
90
90
90
90
90
90
82
82
82
65
65
65
82
82
82
90
90
90
82
82
82
82
82
82
82
82
82
115
115
115
106
106
106
106
106
106
82
82
82
82
82
82
82
82
82
57
57
57
57
57
57
90
90
90
82
82
82
82
82
82
106
106
106
90
90
90
106
106
106
90
90
90
90
90
90
90
90
90
90
90
90
90
90
90
98
98
98
82
82
82
82
82
82
82
82
82
57
57
57
74
49
24
82
82
82
106
106
106
106
106
106
82
82
82
106
106
106
106
106
106
82
82
82
90
90
90
98
98
98
90
90
90
57
57
57
49
49
49
57
57
57
49
49
49
49
49
49
82
82
82
106
106
106
106
106
106
98
98
98
106
106
106
98
98
98
106
106
106
115
115
115
90
90
90
65
65
65
49
49
49
49
49
49
65
65
65
90
90
90
115
115
115
90
90
90
90
90
90
65
65
65
41
41
41
41
41
41
41
41
41
49
49
49
49
49
49
90
90
90
115
115
115
90
90
90
106
106
106
82
82
82
82
82
82
90
90
90
57
57
57
57
57
57
65
65
65
65
65
65
82
82
82
106
106
106
115
115
115
106
106
106
90
90
90
90
90
90
90
90
90
90
90
90
98
98
98
90
90
90
65
49
24
49
41
16
49
41
16
74
49
24
74
49
24
82
82
82
106
106
106
106
106
106
82
82
82
106
106
106
106
106
106
82
82
82
90
90
90
98
98
98
90
90
90
98
98
98
98
98
98
106
106
106
98
98
98
82
82
82
90
90
90
106
106
106
106
106
106
106
106
106
115
115
115
106
106
106
106
106
106
115
115
115
90
90
90
90
90
90
98
98
98
106
106
106
90
90
90
90
90
90
115
115
115
90
90
90
90
90
90
90
90
90
65
65
65
65
65
65
82
82
82
82
82
82
82
82
82
90
90
90
106
106
106
106
106
106
98
98
98
82
82
82
65
65
65
65
65
65
57
57
57
57
57
57
65
65
65
65
65
65
82
82
82
106
106
106
115
115
115
106
106
106
98
98
98
115
115
115
115
115
115
90
90
90
106
106
106
90
90
90
65
49
24
49
41
16
49
41
16
65
49
24
65
49
24
82
82
82
106
106
106
106
106
106
82
82
82
106
106
106
106
106
106
82
82
82
90
90
90
98
98
98
98
98
98
115
115
115
115
115
115
123
123
123
115
115
115
106
106
106
98
98
98
106
106
106
106
106
106
106
106
106
115
115
115
115
115
115
106
106
106
115
115
115
106
106
106
123
123
123
131
131
131
131
131
131
123
123
123
106
106
106
115
115
115
106
106
106
106
106
106
123
123
123
98
98
98
98
98
98
156
123
106
123
123
123
123
123
123
123
123
123
106
106
106
106
106
106
98
98
98
82
82
82
82
82
82
65
65
65
57
57
57
57
57
57
82
82
82
82
82
82
82
82
82
106
106
106
98
98
98
115
115
115
115
115
115
131
131
131
148
148
148
123
123
123
98
98
98
90
90
90
74
0
0
65
0
0
74
0
0
90
0
0
74
49
24
82
82
82
106
106
106
106
106
106
82
82
82
106
106
106
106
106
106
82
82
82
90
90
90
106
106
106
148
148
148
131
131
131
131
131
131
123
123
123
156
123
106
156
123
106
131
131
131
106
106
106
98
98
98
82
82
82
90
90
90
98
98
98
106
106
106
106
106
106
148
148
148
148
148
148
148
148
148
156
156
156
148
148
148
131
131
131
115
115
115
106
106
106
148
148
148
156
156
156
156
131
98
156
123
106
213
139
90
131
131
131
123
123
123
148
148
148
106
106
106
90
90
90
90
90
90
82
82
82
82
82
82
82
82
82
57
57
57
57
57
57
90
90
90
82
82
82
82
82
82
106
106
106
115
115
115
115
115
115
98
98
98
90
90
90
115
115
115
115
115
115
106
106
106
106
106
106
106
106
106
90
90
90
98
98
98
90
90
90
115
115
115
106
106
106
106
106
106
106
106
106
90
90
90
106
106
106
106
106
106
82
82
82
90
90
90
115
115
115
123
123
123
106
106
106
106
106
106
90
90
90
106
106
106
82
82
82
106
106
106
115
115
115
98
98
98
90
90
90
98
98
98
106
106
106
106
106
106
106
106
106
115
115
115
106
106
106
115
115
115
115
115
115
115
115
115
115
115
115
115
115
115
106
106
106
106
106
106
106
106
106
156
98
57
131
82
49
106
106
106
98
98
98
82
82
82
98
98
98
123
123
123
98
98
98
90
90
90
82
82
82
82
82
82
90
90
90
57
57
57
57
57
57
57
57
57
65
65
65
82
82
82
115
115
115
123
123
123
115
115
115
98
98
98
90
90
90
115
115
115
115
115
115
106
106
106
106
106
106
106
106
106
90
90
90
106
106
106
98
98
98
115
115
115
106
106
106
106
106
106
106
106
106
90
90
90
106
106
106
106
106
106
82
82
82
98
98
98
115
115
115
123
123
123
106
106
106
106
106
106
82
82
82
98
98
98
82
82
82
106
106
106
115
115
115
106
106
106
98
98
98
106
106
106
106
106
106
98
98
98
98
98
98
106
106
106
98
98
98
106
106
106
106
106
106
106
106
106
106
106
106
115
115
115
106
106
106
106
106
106
106
106
106
156
98
57
131
82
49
106
106
106
90
90
90
82
82
82
90
90
90
115
115
115
98
98
98
90
90
90
82
82
82
65
65
65
57
57
57
57
57
57
57
57
57
65
65
65
65
65
65
82
82
82
106
106
106
106
106
106
106
106
106
98
98
98
82
82
82
106
106
106
106
106
106
98
98
98
98
98
98
98
98
98
82
82
82
98
98
98
90
90
90
98
98
98
106
106
106
106
106
106
106
106
106
90
90
90
106
106
106
106
106
106
82
82
82
98
98
98
115
115
115
123
123
123
106
106
106
106
106
106
90
90
90
98
98
98
82
82
82
106
106
106
115
115
115
106
106
106
98
98
98
106
106
106
106
106
106
106
106
106
98
98
98
106
106
106
106
106
106
106
106
106
106
106
106
106
106
106
98
98
98
115
115
115
106
106
106
106
106
106
106
106
106
156
98
57
131
82
49
106
106
106
90
90
90
82
82
82
90
90
90
115
115
115
106
106
106
90
90
90
82
82
82
82
82
82
82
82
82
57
57
57
57
57
57
90
90
90
82
82
82
82
82
82
115
115
115
123
123
123
106
106
106
98
98
98
90
90
90
98
98
98
106
106
106
98
98
98
98
98
98
106
106
106
90
90
90
98
98
98
98
98
98
106
106
106
90
90
90
106
106
106
106
106
106
90
90
90
106
106
106
106
106
106
82
82
82
98
98
98
115
115
115
123
123
123
106
106
106
106
106
106
90
90
90
106
106
106
90
90
90
106
106
106
115
115
115
106
106
106
98
98
98
106
106
106
106
106
106
106
106
106
106
106
106
115
115
115
115
115
115
115
115
115
115
115
115
115
115
115
115
115
115
115
115
115
115
115
115
106
106
106
106
106
106
106
106
106
139
90
49
106
106
106
90
90
90
82
82
82
90
90
90
115
115
115
106
106
106
90
90
90
82
82
82
82
82
82
90
90
90
57
57
57
57
57
57
65
65
65
65
65
65
82
82
82
115
115
115
106
106
106
90
90
90
82
82
82
82
82
82
90
90
90
90
90
90
90
90
90
90
90
90
98
98
98
106
106
106
98
98
98
98
98
98
106
106
106
98
98
98
106
106
106
106
106
106
82
82
82
90
90
90
90
90
90
82
82
82
106
106
106
115
115
115
115
115
115
106
106
106
115
115
115
90
90
90
106
106
106
90
90
90
106
106
106
115
115
115
106
106
106
98
98
98
106
106
106
106
106
106
106
106
106
106
106
106
106
106
106
90
90
90
98
98
98
90
90
90
98
98
98
90
90
90
115
115
115
98
98
98
115
115
115
106
106
106
106
106
106
139
90
49
106
106
106
90
90
90
82
82
82
90
90
90
115
115
115
115
115
115
98
98
98
82
82
82
65
65
65
65
65
65
57
57
57
57
57
57
65
65
65
65
65
65
82
82
82
115
115
115
106
106
106
106
106
106
90
90
90
82
82
82
106
106
106
106
106
106
115
115
115
115
115
115
106
106
106
98
98
98
90
90
90
90
90
90
98
98
98
98
98
98
106
106
106
106
106
106
82
82
82
65
65
65
65
65
65
90
90
90
106
106
106
115
115
115
115
115
115
106
106
106
115
115
115
90
90
90
106
106
106
90
90
90
106
106
106
115
115
115
106
106
106
90
90
90
90
90
90
98
98
98
98
98
98
106
106
106
98
98
98
82
82
82
98
98
98
82
82
82
90
90
90
82
82
82
115
115
115
106
106
106
115
115
115
106
106
106
90
90
90
131
82
49
98
98
98
90
90
90
82
82
82
90
90
90
115
115
115
115
115
115
98
98
98
82
82
82
82
82
82
65
65
65
57
57
57
57
57
57
82
82
82
82
82
82
82
82
82
115
115
115
98
98
98
90
90
90
82
82
82
82
82
82
98
98
98
98
98
98
106
106
106
98
98
98
98
98
98
98
98
98
90
90
90
90
90
90
98
98
98
98
98
98
106
106
106
106
106
106
82
82
82
98
98
98
90
90
90
90
90
90
106
106
106
98
98
98
65
65
65
49
49
49
57
57
57
49
49
49
49
49
49
49
49
49
65
65
65
90
90
90
106
106
106
90
90
90
90
90
90
106
106
106
106
106
106
106
106
106
65
65
65
57
57
57
57
57
57
49
49
49
57
57
57
82
82
82
98
98
98
106
106
106
82
82
82
82
82
82
82
82
82
82
82
82
82
82
82
82
82
82
65
65
65
82
82
82
90
90
90
90
90
90
98
98
98
82
82
82
82
82
82
82
82
82
57
57
57
57
57
57
90
90
90
82
82
82
82
82
82
115
115
115
106
106
106
82
82
82
82
82
82
82
82
82
98
98
98
98
98
98
106
106
106
98
98
98
106
106
106
106
106
106
106
106
106
98
98
98
106
106
106
98
98
98
106
106
106
106
106
106
82
82
82
65
65
65
65
65
65
90
90
90
106
106
106
106
106
106
82
82
82
65
65
65
57
57
57
57
57
57
57
57
57
57
57
57
65
65
65
82
82
82
82
82
82
82
82
82
82
82
82
82
82
82
82
82
82
82
82
82
65
65
65
65
65
65
57
57
57
57
57
57
82
82
82
90
90
90
98
98
98
106
106
106
90
90
90
65
65
65
41
41
41
82
57
24
90
65
32
41
41
41
32
32
32
74
49
24
98
98
98
90
90
90
98
98
98
82
82
82
82
82
82
90
90
90
57
57
57
57
57
57
57
57
57
65
65
65
82
82
82
115
115
115
98
98
98
82
82
82
82
82
82
82
82
82
98
98
98
98
98
98
106
106
106
98
98
98
106
106
106
106
106
106
106
106
106
98
98
98
106
106
106
98
98
98
106
106
106
106
106
106
82
82
82
98
98
98
90
90
90
90
90
90
106
106
106
106
106
106
82
82
82
90
90
90
98
98
98
90
90
90
90
90
90
82
82
82
65
65
65
49
49
49
49
49
49
49
49
49
49
49
49
49
49
49
49
49
49
49
49
49
65
65
65
65
65
65
90
90
90
90
90
90
90
90
90
90
90
90
98
98
98
106
106
106
90
90
90
65
65
65
139
90
49
172
123
24
131
82
49
49
49
49
139
90
49
139
90
49
106
106
106
90
90
90
106
106
106
82
82
82
65
65
65
57
57
57
57
57
57
57
57
57
82
82
82
82
82
82
82
82
82
115
115
115
115
115
115
98
98
98
90
90
90
82
82
82
98
98
98
98
98
98
106
106
106
106
106
106
115
115
115
115
115
115
106
106
106
98
98
98
106
106
106
98
98
98
106
106
106
106
106
106
82
82
82
65
65
65
65
65
65
90
90
90
106
106
106
106
106
106
82
82
82
106
106
106
115
115
115
106
106
106
106
106
106
82
82
82
82
82
82
65
65
65
65
65
65
65
65
65
65
65
65
65
65
65
65
65
65
65
65
65
65
65
65
82
82
82
98
98
98
106
106
106
90
90
90
90
90
90
98
98
98
106
106
106
90
90
90
90
90
90
139
90
49
115
74
41
82
82
82
115
74
41
139
90
49
90
65
32
98
98
98
90
90
90
106
106
106
82
82
82
82
82
82
82
82
82
57
57
57
57
57
57
82
82
82
90
90
90
82
82
82
115
115
115
115
115
115
106
106
106
90
90
90
90
90
90
106
106
106
106
106
106
106
106
106
106
106
106
115
115
115
98
98
98
98
98
98
98
98
98
98
98
98
98
98
98
106
106
106
106
106
106
90
90
90
115
115
115
106
106
106
90
90
90
106
106
106
106
106
106
82
82
82
106
106
106
115
115
115
106
106
106
98
98
98
90
90
90
106
106
106
106
106
106
98
98
98
90
90
90
90
90
90
98
98
98
90
90
90
90
90
90
90
90
90
106
106
106
106
106
106
106
106
106
90
90
90
90
90
90
98
98
98
106
106
106
90
90
90
106
106
106
106
106
106
115
115
115
123
123
123
115
115
115
106
106
106
106
106
106
115
115
115
90
90
90
106
106
106
90
90
90
82
82
82
82
82
82
57
57
57
57
57
57
82
82
82
82
82
82
82
82
82
98
98
98
115
115
115
106
106
106
90
90
90
90
90
90
98
98
98
106
106
106
106
106
106
98
98
98
98
98
98
98
98
98
98
98
98
106
106
106
98
98
98
98
98
98
106
106
106
106
106
106
90
90
90
115
115
115
106
106
106
90
90
90
106
106
106
106
106
106
82
82
82
106
106
106
115
115
115
106
106
106
106
106
106
98
98
98
106
106
106
106
106
106
115
115
115
90
90
90
90
90
90
106
106
106
106
106
106
90
90
90
90
90
90
115
115
115
106
106
106
106
106
106
90
90
90
90
90
90
98
98
98
106
106
106
90
90
90
90
90
90
90
90
90
106
106
106
123
123
123
106
106
106
90
90
90
98
98
98
90
90
90
90
90
90
90
90
90
90
90
90
82
82
82
82
82
82
57
57
57
57
57
57
90
90
90
82
82
82
65
65
65
123
24
24
106
65
32
90
90
90
90
90
90
98
98
98
98
98
98
90
90
90
98
98
98
106
106
106
106
106
106
90
90
90
106
106
106
106
106
106
106
106
106
106
106
106
106
106
106
106
106
106
82
82
82
123
24
24
123
24
24
90
90
90
106
106
106
106
106
106
82
82
82
106
106
106
115
115
115
106
106
106
106
106
106
82
82
82
106
106
106
98
98
98
106
106
106
90
90
90
90
90
90
82
82
82
90
90
90
90
90
90
90
90
90
115
115
115
106
106
106
115
115
115
98
98
98
90
90
90
98
98
98
106
106
106
90
90
90
90
90
90
98
98
98
106
106
106
123
123
123
106
106
106
90
90
90
98
98
98
65
65
65
123
24
24
106
65
32
82
82
82
82
82
82
90
90
90
57
57
57
57
57
57
65
65
65
65
65
65
65
65
65
131
82
49
98
98
98
98
98
98
98
98
98
115
115
115
115
115
115
106
106
106
115
115
115
106
106
106
106
106
106
98
98
98
115
115
115
106
106
106
106
106
106
106
106
106
106
106
106
106
106
106
90
90
90
106
106
106
98
98
98
90
90
90
106
106
106
106
106
106
82
82
82
106
106
106
115
115
115
106
106
106
106
106
106
98
98
98
98
98
98
106
106
106
106
106
106
90
90
90
90
90
90
98
98
98
106
106
106
90
90
90
98
98
98
115
115
115
115
115
115
131
131
131
148
148
148
115
115
115
98
98
98
106
106
106
90
90
90
90
90
90
106
106
106
106
106
106
123
123
123
106
106
106
90
90
90
82
82
82
65
65
65
115
74
41
131
82
49
82
82
82
82
82
82
65
65
65
57
57
57
57
57
57
65
65
65
82
82
82
65
65
65
82
82
82
90
90
90
106
106
106
106
106
106
82
82
82
115
115
115
82
82
82
115
115
115
82
82
82
106
106
106
98
98
98
115
115
115
98
98
98
106
106
106
106
106
106
106
106
106
106
106
106
123
123
123
131
131
131
106
106
106
90
90
90
106
106
106
106
106
106
82
82
82
106
106
106
115
115
115
106
106
106
106
106
106
90
90
90
98
98
98
106
106
106
106
106
106
90
90
90
90
90
90
106
106
106
106
106
106
90
90
90
106
106
106
131
131
131
148
148
148
156
156
156
148
148
148
131
131
131
98
98
98
106
106
106
90
90
90
90
90
90
106
106
106
106
106
106
123
123
123
106
106
106
90
90
90
82
82
82
98
98
98
65
65
65
82
82
82
82
82
82
82
82
82
65
65
65
57
57
57
57
57
57
82
82
82
82
82
82
57
57
57
106
106
106
115
115
115
115
115
115
106
106
106
82
82
82
115
115
115
82
82
82
115
115
115
82
82
82
106
106
106
98
98
98
115
115
115
106
106
106
106
106
106
106
106
106
106
106
106
123
123
123
148
148
148
156
156
156
131
131
131
98
98
98
106
106
106
106
106
106
82
82
82
106
106
106
115
115
115
106
106
106
106
106
106
90
90
90
98
98
98
106
106
106
106
106
106
90
90
90
98
98
98
98
98
98
106
106
106
123
123
123
131
131
131
131
131
131
156
123
106
131
131
131
115
115
115
115
115
115
98
98
98
106
106
106
90
90
90
98
98
98
106
106
106
106
106
106
115
115
115
106
106
106
90
90
90
98
98
98
115
115
115
90
90
90
98
98
98
65
65
65
82
82
82
82
82
82
57
57
57
57
57
57
82
82
82
49
49
49
74
49
24
106
106
106
115
115
115
115
115
115
106
106
106
82
82
82
115
115
115
90
90
90
115
115
115
82
82
82
106
106
106
98
98
98
115
115
115
98
98
98
106
106
106
106
106
106
106
106
106
106
106
106
123
123
123
148
148
148
156
156
156
123
123
123
106
106
106
106
106
106
98
98
98
131
131
131
131
131
131
131
131
131
123
123
123
123
123
123
156
123
106
131
131
131
123
123
123
115
115
115
131
131
131
131
131
131
123
123
123
148
148
148
131
131
131
131
131
131
123
123
123
98
98
98
106
106
106
90
90
90
106
106
106
106
106
106
90
90
90
106
106
106
106
106
106
106
106
106
115
115
115
115
115
115
98
98
98
98
98
98
115
115
115
90
90
90
115
115
115
57
57
57
65
65
65
82
82
82
57
57
57
57
57
57
82
82
82
90
90
90
65
65
65
106
106
106
115
115
115
115
115
115
106
106
106
82
82
82
115
115
115
90
90
90
115
115
115
90
90
90
106
106
106
98
98
98
115
115
115
106
106
106
106
106
106
106
106
106
106
106
106
106
106
106
106
106
106
106
106
106
123
123
123
131
131
131
106
106
106
106
106
106
148
148
148
156
156
156
148
148
148
148
148
148
148
148
148
131
131
131
164
164
164
156
156
156
148
148
148
123
123
123
148
148
148
148
148
148
123
123
123
115
115
115
106
106
106
115
115
115
82
82
82
65
65
65
90
90
90
82
82
82
90
90
90
106
106
106
82
82
82
82
82
82
82
82
82
90
90
90
90
90
90
90
90
90
82
82
82
82
82
82
90
90
90
90
90
90
115
115
115
82
82
82
82
82
82
82
82
82
57
57
57
65
65
65
106
106
106
90
90
90
82
82
82
90
90
90
90
90
90
90
90
90
82
82
82
65
65
65
82
82
82
65
65
65
82
82
82
65
65
65
82
82
82
90
90
90
90
90
90
90
90
90
90
90
90
90
90
90
90
90
90
90
90
90
90
90
90
90
90
90
90
90
90
90
90
90
90
90
90
90
90
90
98
98
98
98
98
98
90
90
90
90
90
90
90
90
90
90
90
90
98
98
98
90
90
90
90
90
90
90
90
90
90
90
90
90
90
90
90
90
90
90
90
90
90
90
90
106
106
106
98
98
98
82
82
82
82
82
82
90
90
90
90
90
90
90
90
90
82
82
82
82
82
82
65
65
65
65
65
65
90
90
90
90
90
90
90
90
90
90
90
90
90
90
90
90
90
90
90
90
90
82
82
82
82
82
82
82
82
82
65
65
65
82
82
82
148
148
148
156
156
156
156
156
156
156
156
156
148
148
148
131
131
131
115
115
115
90
90
90
106
106
106
90
90
90
98
98
98
139
90
49
106
106
106
115
115
115
148
148
148
148
148
148
156
156
156
164
164
164
156
156
156
148
148
148
156
156
156
164
164
164
164
164
164
148
148
148
115
115
115
123
123
123
156
156
156
156
156
156
123
123
123
123
123
123
123
123
123
115
115
115
156
123
106
123
123
123
148
148
148
98
98
98
123
123
123
148
148
148
106
106
106
106
106
106
115
115
115
148
148
148
164
164
164
148
148
148
115
115
115
98
98
98
123
123
123
156
156
156
156
123
106
115
115
115
156
98
57
139
90
49
156
123
106
148
148
148
123
123
123
131
131
131
156
156
156
156
156
156
156
156
156
131
131
131
131
131
131
131
131
131
90
90
90
65
65
65
106
106
106
65
65
65
82
82
82
65
65
65
82
82
82
115
115
115
98
98
98
65
65
65
82
82
82
65
65
65
82
82
82
65
65
65
82
82
82
82
82
82
90
90
90
82
82
82
82
82
82
82
82
82
90
90
90
82
82
82
82
82
82
90
90
90
90
90
90
106
106
106
106
106
106
106
106
106
123
123
123
115
115
115
106
106
106
106
106
106
115
115
115
90
90
90
115
115
115
115
115
115
115
115
115
98
98
98
115
115
115
115
115
115
90
90
90
82
82
82
82
82
82
90
90
90
90
90
90
90
90
90
82
82
82
65
65
65
65
65
65
90
90
90
65
65
65
82
82
82
65
65
65
65
65
65
82
82
82
82
82
82
65
65
65
82
82
82
106
106
106
82
82
82
65
65
65
82
82
82
65
65
65
98
98
98
57
57
57
65
65
65
106
106
106
98
98
98
98
98
98
98
98
98
98
98
98
115
115
115
115
115
115
82
82
82
106
65
32
106
65
32
115
74
41
41
41
41
106
65
32
139
90
49
115
74
41
41
41
41
90
65
32
123
82
41
115
74
41
49
49
49
106
65
32
139
90
49
106
106
106
115
115
115
106
106
106
98
98
98
98
98
98
98
98
98
90
90
90
98
98
98
98
98
98
82
82
82
106
106
106
106
106
106
98
98
98
90
90
90
98
98
98
115
115
115
106
106
106
115
115
115
82
82
82
106
65
32
139
90
49
115
74
41
41
41
41
90
65
32
123
82
41
115
74
41
41
41
41
106
65
32
123
82
41
90
65
32
49
49
49
106
65
32
123
82
41
106
106
106
115
115
115
98
98
98
98
98
98
98
98
98
98
98
98
106
106
106
57
57
57
65
65
65
106
106
106
123
24
24
65
65
65
123
24
24
115
74
41
106
106
106
106
106
106
131
131
131
172
106
65
115
74
41
49
49
49
90
65
32
172
123
24
139
90
49
57
57
57
115
74
41
139
90
49
123
82
41
57
57
57
115
74
41
172
123
24
156
123
106
123
123
123
115
115
115
98
98
98
98
98
98
98
98
98
98
98
98
82
82
82
98
98
98
90
90
90
82
82
82
90
90
90
106
106
106
98
98
98
90
90
90
98
98
98
106
106
106
106
106
106
115
115
115
131
131
131
172
106
65
139
90
49
57
57
57
115
74
41
139
90
49
123
82
41
57
57
57
90
65
32
172
123
24
139
90
49
49
49
49
115
74
41
172
123
24
115
115
115
123
123
123
106
106
106
115
74
41
123
24
24
65
65
65
123
24
24
98
98
98
57
57
57
65
65
65
106
106
106
74
49
24
65
65
65
74
49
24
82
82
82
90
90
90
65
65
65
115
115
115
131
131
131
90
90
90
123
123
123
156
131
98
156
131
98
131
131
131
131
131
131
156
123
106
156
123
106
106
106
106
131
131
131
148
148
148
156
123
106
123
123
123
115
115
115
98
98
98
65
65
65
57
57
57
57
57
57
57
57
57
57
57
57
57
57
57
57
57
57
49
49
49
57
57
57
57
57
57
57
57
57
49
49
49
57
57
57
57
57
57
82
82
82
106
106
106
115
115
115
131
131
131
131
131
131
131
131
131
148
148
148
156
131
98
98
98
98
123
123
123
156
123
106
156
123
106
115
115
115
98
98
98
148
148
148
148
148
148
98
98
98
65
65
65
90
90
90
82
82
82
74
49
24
65
65
65
74
49
24
98
98
98
57
57
57
65
65
65
115
115
115
115
115
115
115
115
115
115
115
115
115
115
115
115
115
115
115
115
115
115
115
115
106
106
106
90
90
90
115
115
115
106
106
106
115
115
115
123
123
123
123
123
123
123
123
123
106
106
106
106
106
106
123
123
123
123
123
123
115
115
115
115
115
115
98
98
98
65
65
65
49
49
49
65
65
65
106
106
106
98
98
98
98
98
98
98
98
98
98
98
98
82
82
82
106
106
106
98
98
98
106
106
106
90
90
90
82
82
82
65
65
65
49
49
49
82
82
82
106
106
106
115
115
115
123
123
123
123
123
123
123
123
123
115
115
115
98
98
98
123
123
123
106
106
106
115
115
115
98
98
98
98
98
98
123
123
123
115
115
115
90
90
90
115
115
115
106
106
106
106
106
106
106
106
106
106
106
106
106
106
106
106
106
106
57
57
57
41
41
41
49
49
49
41
41
41
49
49
49
41
41
41
49
49
49
49
49
49
49
49
49
49
49
49
49
49
49
49
49
49
49
49
49
49
49
49
49
49
49
49
49
49
49
49
49
49
49
49
49
49
49
49
49
49
49
49
49
49
49
49
49
49
49
49
49
49
49
49
49
41
41
41
32
32
32
41
41
41
41
41
41
41
41
41
41
41
41
41
41
41
41
41
41
41
41
41
41
41
41
41
41
41
41
41
41
41
41
41
41
41
41
41
41
41
32
32
32
41
41
41
49
49
49
49
49
49
49
49
49
49
49
49
49
49
49
49
49
49
49
49
49
49
49
49
49
49
49
49
49
49
49
49
49
49
49
49
49
49
49
49
49
49
49
49
49
49
49
49
41
41
41
41
41
41
41
41
41
41
41
41
41
41
41
41
41
41
41
41
41
