P3
# Created by GIMP version 2.10.38 PNM plug-in
64 64
255
24
24
24
57
65
41
24
24
24
24
24
24
24
24
24
24
24
24
57
65
41
49
49
49
57
57
57
49
49
49
65
74
49
57
65
41
57
57
57
57
65
41
49
57
32
65
74
49
49
41
16
57
65
41
57
65
41
32
32
32
49
57
32
57
57
57
24
24
24
57
65
41
82
82
57
82
82
57
90
98
65
65
74
49
65
74
49
65
74
49
41
41
41
24
24
24
16
16
16
49
49
49
74
74
74
82
82
82
49
57
32
24
24
24
49
49
49
57
57
57
24
24
24
57
65
41
49
49
49
82
82
57
57
57
57
49
49
49
90
90
90
98
82
57
98
82
57
65
74
49
82
82
57
90
98
65
98
82
57
82
82
57
82
82
57
82
82
57
82
82
57
90
90
90
82
82
82
82
82
82
65
74
49
65
74
49
41
41
41
24
24
24
32
32
32
57
57
57
41
41
41
32
32
32
32
32
32
8
8
8
65
74
49
65
74
49
57
65
41
65
74
49
65
74
49
57
65
41
57
57
57
90
90
90
82
82
57
82
82
57
41
32
8
65
74
49
65
74
49
57
65
41
41
41
41
90
98
65
49
57
32
82
82
57
90
98
65
82
82
57
98
106
74
106
115
82
123
123
98
98
106
74
49
57
32
32
32
32
0
0
0
57
57
57
98
106
74
90
98
65
65
49
24
24
16
8
49
57
32
65
74
49
57
65
41
49
57
32
57
65
41
90
98
65
90
98
65
82
82
57
98
106
74
123
123
98
106
115
82
98
106
74
82
82
57
82
82
57
90
98
65
106
115
82
98
106
74
90
90
90
98
106
74
98
106
74
90
98
65
90
98
65
123
123
98
98
106
74
49
57
32
32
32
32
49
57
32
57
65
41
49
57
32
49
49
49
24
24
24
24
24
24
49
57
32
32
32
32
8
8
8
57
65
41
82
82
57
49
57
32
57
65
41
49
49
49
74
74
74
82
82
57
65
74
49
49
57
32
65
74
49
82
82
57
41
41
41
82
82
57
82
82
57
90
98
65
82
82
57
57
65
41
90
98
65
90
98
65
90
98
65
90
98
65
82
82
57
32
32
32
0
0
0
49
49
49
106
115
82
82
82
57
49
41
16
24
24
24
49
57
32
65
74
49
65
74
49
57
65
41
24
24
24
65
74
49
98
106
74
65
74
49
82
82
57
90
98
65
90
98
65
98
106
74
98
106
74
82
82
57
98
106
74
106
115
82
106
115
82
106
115
82
98
106
74
106
115
82
98
106
74
82
82
57
98
106
74
90
98
65
90
98
65
32
32
32
49
41
16
82
82
57
90
98
65
82
82
57
57
57
57
57
65
41
57
65
41
16
16
16
32
32
32
90
98
65
90
98
65
106
115
82
82
82
82
65
74
49
32
32
32
57
65
41
90
98
65
57
65
41
65
74
49
41
41
41
41
41
41
49
57
32
57
65
41
57
65
41
32
82
24
49
57
32
82
82
57
24
24
24
82
82
57
82
82
57
57
65
41
16
16
16
8
8
8
57
57
57
106
115
82
90
98
65
49
57
32
57
57
57
49
57
32
82
82
57
65
74
49
65
74
49
57
41
16
65
74
49
82
82
57
82
82
57
65
74
49
90
98
65
98
106
74
98
106
74
106
115
82
82
82
57
98
106
74
106
115
82
106
115
82
98
106
74
98
106
74
106
115
82
98
106
74
82
82
57
90
98
65
82
82
57
82
82
57
24
24
24
49
41
16
57
65
41
82
82
57
65
74
49
65
74
49
41
41
41
41
32
8
32
32
32
32
32
32
57
65
41
82
82
57
90
98
65
98
106
74
90
98
65
57
65
41
82
82
57
90
98
65
82
82
82
65
74
49
49
57
32
49
41
16
41
32
8
49
57
32
49
41
16
16
49
8
24
24
24
41
32
8
41
32
8
65
74
49
82
82
82
49
41
16
16
16
16
32
32
32
82
82
57
90
90
90
90
98
65
82
82
57
65
74
49
57
65
41
82
82
57
65
74
49
57
65
41
65
74
49
82
82
82
82
82
57
65
74
49
65
74
49
82
82
57
90
98
65
106
115
82
98
106
74
82
82
57
98
106
74
106
115
82
106
115
82
98
106
74
98
106
74
90
98
65
90
98
65
90
98
65
82
82
57
82
82
57
82
82
82
24
24
24
57
65
41
82
82
57
82
82
57
49
57
32
57
57
57
90
98
65
57
65
41
24
24
24
16
16
16
24
24
24
49
57
32
82
82
57
98
106
74
65
74
49
65
74
49
57
65
41
65
74
49
65
74
49
65
49
24
41
32
8
49
41
16
49
41
16
41
32
8
41
41
41
41
41
41
24
24
24
49
57
32
49
57
32
82
82
57
65
74
49
49
41
16
16
16
16
49
57
32
82
82
57
98
106
74
98
106
74
82
82
57
57
65
41
82
82
57
65
74
49
65
74
49
65
74
49
65
74
49
65
74
49
65
74
49
65
74
49
65
74
49
82
82
57
82
82
57
98
106
74
90
98
65
90
98
65
98
106
74
98
106
74
106
115
82
98
106
74
90
98
65
82
82
57
82
82
57
82
82
57
90
98
65
90
98
65
65
74
49
16
16
16
74
74
74
82
82
57
82
82
57
49
57
32
49
57
32
90
98
65
90
98
65
41
41
41
16
16
16
24
24
24
65
74
49
65
74
49
82
82
57
90
98
65
57
65
41
65
74
49
32
32
32
32
32
32
49
41
16
41
41
41
49
57
32
24
24
24
57
65
41
57
65
41
49
57
32
57
57
57
82
82
82
65
74
49
82
82
57
49
57
32
24
24
24
16
16
16
49
57
32
82
82
57
106
115
82
90
98
65
74
74
74
65
74
49
57
57
57
57
65
41
65
74
49
65
74
49
82
82
57
82
82
57
65
74
49
82
82
57
65
74
49
65
74
49
65
74
49
98
106
74
82
82
57
98
106
74
98
106
74
106
115
82
98
106
74
106
115
82
90
98
65
82
82
57
65
74
49
65
74
49
82
82
57
57
65
41
41
32
8
16
16
16
82
82
57
82
82
57
65
74
49
65
74
49
49
57
32
82
82
57
82
82
57
82
82
57
49
57
32
57
65
41
57
65
41
49
57
32
82
82
57
98
106
74
90
98
65
74
74
74
65
74
49
57
57
57
82
82
57
106
115
82
123
123
98
82
82
57
65
74
49
65
74
49
49
49
49
82
82
57
82
82
57
82
82
57
49
57
32
41
41
41
41
41
41
16
16
16
24
24
24
74
74
74
90
90
90
65
74
49
65
74
49
90
98
65
65
74
49
65
74
49
57
65
41
65
74
49
82
82
57
82
82
57
82
82
57
82
82
57
65
74
49
65
74
49
82
82
57
82
82
57
65
74
49
123
123
98
106
115
82
98
106
74
106
115
82
106
115
82
82
82
57
98
106
74
90
98
65
65
74
49
57
57
57
41
41
41
41
41
41
16
16
16
82
82
57
90
98
65
32
32
32
90
98
65
65
74
49
49
57
32
90
98
65
106
115
82
90
98
65
82
82
57
82
82
57
82
82
57
90
98
65
98
106
74
98
106
74
82
82
57
82
82
57
74
74
74
90
98
65
98
106
74
106
115
82
90
98
65
65
74
49
65
74
49
65
74
49
82
82
57
82
82
57
82
82
57
49
57
32
57
57
57
65
74
49
41
41
41
41
41
41
82
82
57
90
98
65
65
74
49
57
65
41
82
82
57
65
74
49
65
74
49
65
74
49
90
98
65
82
82
57
82
82
57
82
82
57
82
82
57
90
98
65
82
82
57
82
82
57
65
74
49
65
74
49
106
115
82
106
115
82
98
106
74
98
106
74
98
106
74
82
82
57
98
106
74
90
98
65
65
74
49
57
57
57
57
57
57
65
74
49
41
41
41
90
98
65
90
98
65
82
82
57
82
82
57
82
82
57
65
74
49
90
98
65
106
115
82
98
106
74
90
98
65
90
98
65
82
82
57
90
98
65
90
98
65
90
98
65
82
82
82
90
98
65
90
98
65
82
82
57
90
98
65
123
123
98
106
115
82
98
106
74
90
98
65
82
82
57
82
82
57
90
98
65
90
98
65
82
82
57
82
82
57
82
82
57
49
57
32
57
65
41
82
82
57
82
82
82
82
82
57
65
74
49
65
74
49
57
57
57
65
74
49
65
74
49
82
82
57
90
98
65
90
98
65
98
106
74
90
98
65
82
82
57
65
74
49
90
98
65
82
82
57
57
65
41
106
115
82
106
115
82
98
106
74
106
115
82
98
106
74
82
82
57
90
98
65
82
82
57
98
106
74
90
98
65
82
82
57
82
82
57
49
57
32
90
98
65
82
82
57
82
82
57
82
82
57
65
74
49
82
82
57
82
82
57
82
82
57
90
98
65
82
82
57
82
82
57
65
74
49
90
98
65
90
98
65
90
98
65
90
98
65
90
98
65
90
98
65
82
82
57
98
106
74
106
115
82
123
123
98
123
123
98
98
106
74
98
106
74
82
82
57
82
82
57
82
82
57
98
106
74
90
98
65
90
98
65
41
41
41
49
49
49
82
82
57
90
98
65
65
74
49
65
74
49
65
74
49
57
65
41
65
74
49
82
82
57
82
82
57
82
82
57
82
82
57
90
98
65
82
82
57
65
74
49
82
82
57
90
98
65
90
98
65
82
82
57
98
106
74
98
106
74
90
98
65
98
106
74
98
106
74
90
98
65
90
98
65
65
74
49
90
98
65
98
106
74
90
98
65
90
98
65
41
41
41
90
98
65
82
82
57
82
82
57
82
82
57
65
74
49
82
82
57
82
82
57
82
82
57
65
74
49
65
74
49
90
98
65
82
82
57
90
98
65
82
82
82
90
98
65
98
106
74
90
98
65
82
82
57
82
82
57
98
106
74
123
123
98
148
123
98
148
123
98
123
123
98
123
123
98
98
106
74
65
74
49
82
82
57
90
98
65
90
98
65
90
98
65
49
57
32
57
65
41
90
98
65
90
98
65
82
82
57
82
82
57
65
74
49
49
57
32
65
74
49
65
74
49
82
82
57
74
74
74
82
82
57
82
82
57
82
82
57
82
82
57
90
98
65
90
98
65
82
82
57
90
98
65
90
98
65
98
106
74
98
106
74
106
115
82
98
106
74
98
106
74
90
98
65
65
74
49
82
82
57
90
98
65
90
98
65
90
98
65
49
57
32
82
82
57
82
82
57
65
74
49
82
82
82
57
57
57
49
57
32
57
65
41
41
41
41
82
82
57
90
98
65
65
74
49
82
82
57
82
82
57
65
74
49
65
74
49
57
57
57
82
82
57
65
74
49
65
74
49
82
82
57
90
98
65
98
106
74
98
106
74
98
106
74
90
98
65
82
82
57
82
82
57
82
82
57
82
82
57
82
82
57
82
82
57
49
57
32
82
82
57
90
98
65
82
82
57
82
82
82
74
74
74
65
74
49
57
65
41
49
57
32
65
74
49
90
98
65
65
74
49
82
82
57
82
82
57
65
74
49
65
74
49
82
82
82
65
74
49
65
74
49
82
82
57
82
82
57
90
98
65
82
82
57
90
98
65
90
98
65
82
82
57
74
74
74
82
82
57
82
82
57
82
82
57
82
82
57
82
82
57
49
57
32
49
57
32
49
57
32
32
32
32
41
41
41
32
32
32
24
24
24
32
32
32
24
24
24
32
32
32
49
57
32
49
57
32
41
41
41
41
41
41
32
32
32
32
32
32
32
32
32
41
41
41
49
57
32
41
41
41
41
41
41
49
57
32
49
57
32
49
57
32
41
41
41
41
41
41
41
41
41
49
57
32
57
65
41
49
57
32
41
41
41
41
41
41
32
32
32
49
57
32
49
57
32
32
32
32
41
41
41
32
32
32
24
24
24
32
32
32
24
24
24
32
32
32
49
57
32
49
57
32
41
41
41
41
41
41
32
32
32
32
32
32
32
32
32
41
41
41
49
57
32
41
41
41
41
41
41
49
57
32
41
41
41
49
57
32
41
41
41
41
41
41
41
41
41
49
57
32
49
57
32
49
57
32
41
41
41
41
41
41
32
32
32
98
106
74
98
106
74
98
106
74
90
98
65
90
98
65
98
106
74
90
98
65
32
32
32
82
82
57
90
98
65
106
115
82
106
115
82
98
106
74
131
106
74
106
115
82
98
106
74
98
106
74
106
115
82
82
82
57
82
82
57
82
82
57
82
82
57
82
82
57
82
82
57
106
115
82
106
115
82
106
115
82
148
123
98
106
115
82
98
106
74
90
98
65
98
106
74
98
106
74
98
106
74
98
106
74
90
98
65
90
98
65
90
98
65
90
98
65
32
32
32
82
82
57
90
98
65
98
106
74
98
106
74
98
106
74
131
106
74
98
106
74
98
106
74
106
115
82
106
115
82
90
98
65
90
98
65
90
98
65
90
98
65
90
98
65
90
98
65
106
115
82
106
115
82
98
106
74
106
115
82
90
98
65
82
82
57
90
98
65
106
115
82
98
106
74
106
115
82
98
106
74
98
106
74
98
106
74
98
106
74
90
98
65
24
24
24
82
82
57
90
98
65
98
106
74
106
115
82
106
115
82
98
106
74
106
115
82
106
115
82
106
115
82
106
115
82
82
82
57
65
74
49
65
74
49
65
74
49
82
82
57
82
82
57
90
98
65
98
106
74
106
115
82
123
123
98
98
106
74
82
82
57
82
82
57
90
98
65
98
106
74
106
115
82
98
106
74
90
98
65
90
98
65
90
98
65
82
82
57
24
24
24
65
74
49
82
82
57
82
82
57
90
98
65
98
106
74
90
98
65
90
98
65
90
98
65
98
106
74
90
98
65
98
106
74
90
98
65
90
98
65
90
98
65
82
82
57
98
106
74
90
98
65
90
98
65
82
82
57
82
82
57
65
74
49
65
74
49
82
82
57
90
98
65
98
106
74
90
98
65
98
106
74
98
106
74
98
106
74
106
115
82
82
82
82
24
24
24
82
82
57
90
98
65
98
106
74
106
115
82
106
115
82
106
115
82
106
115
82
82
82
57
98
106
74
90
98
65
82
82
57
65
74
49
65
74
49
82
82
57
82
82
57
82
82
57
82
82
57
90
98
65
123
123
98
123
123
98
106
115
82
82
82
57
82
82
57
98
106
74
98
106
74
90
98
65
90
98
65
98
106
74
90
98
65
90
98
65
90
98
65
24
24
24
65
74
49
65
74
49
82
82
57
90
98
65
82
82
57
82
82
57
90
98
65
90
98
65
90
98
65
82
82
57
90
98
65
82
82
57
90
98
65
82
82
57
82
82
57
98
106
74
65
74
49
90
98
65
82
82
57
82
82
57
65
74
49
82
82
57
82
82
57
98
106
74
90
98
65
90
98
65
90
98
65
98
106
74
98
106
74
106
106
106
82
82
82
24
24
24
65
74
49
90
98
65
106
115
82
106
115
82
106
115
82
106
115
82
106
115
82
90
98
65
98
106
74
90
98
65
65
74
49
57
65
41
82
82
57
90
98
65
90
98
65
82
82
57
82
82
57
82
82
57
106
115
82
123
123
98
98
106
74
82
82
57
65
74
49
90
98
65
82
82
57
82
82
57
82
82
57
90
98
65
90
98
65
82
82
57
90
98
65
24
24
24
57
65
41
65
74
49
82
82
57
82
82
57
82
82
57
82
82
57
106
115
82
90
98
65
82
82
57
82
82
57
82
82
57
82
82
57
90
98
65
90
98
65
82
82
57
82
82
57
82
82
57
82
82
57
82
82
57
82
82
57
65
74
49
65
74
49
65
74
49
98
106
74
82
82
57
90
98
65
90
98
65
98
106
74
90
90
90
90
98
65
82
82
57
41
41
41
65
74
49
98
106
74
106
115
82
106
115
82
106
115
82
106
115
82
90
98
65
90
98
65
98
106
74
98
106
74
82
82
57
65
74
49
65
74
49
65
74
49
90
98
65
90
98
65
82
82
57
90
98
65
106
115
82
123
123
98
98
106
74
82
82
57
65
74
49
82
82
57
82
82
57
82
82
57
90
98
65
90
98
65
98
106
74
90
98
65
90
98
65
49
57
32
57
65
41
65
74
49
65
74
49
82
82
57
82
82
57
82
82
57
98
106
74
82
82
57
82
82
57
90
98
65
90
98
65
90
98
65
90
98
65
90
98
65
82
82
57
82
82
57
90
98
65
82
82
57
82
82
57
82
82
57
65
74
49
65
74
49
82
82
57
82
82
57
82
82
57
98
106
74
90
98
65
82
82
57
90
98
65
90
98
65
82
82
57
32
32
32
82
82
57
106
115
82
106
115
82
106
115
82
106
115
82
106
115
82
98
106
74
90
98
65
106
115
82
98
106
74
90
98
65
82
82
57
90
98
65
90
98
65
90
98
65
98
106
74
98
106
74
106
115
82
106
115
82
106
115
82
90
98
65
82
82
57
82
82
57
90
98
65
82
82
57
90
98
65
90
98
65
82
82
57
90
98
65
90
98
65
90
98
65
41
41
41
65
74
49
82
82
57
82
82
57
90
98
65
82
82
57
82
82
57
82
82
57
90
98
65
82
82
57
90
98
65
98
106
74
90
98
65
90
98
65
90
98
65
82
82
57
90
98
65
90
98
65
82
82
57
65
74
49
90
98
65
65
74
49
82
82
57
82
82
57
90
98
65
82
82
57
90
98
65
90
98
65
98
106
74
82
82
57
90
98
65
90
98
65
49
57
32
90
98
65
98
106
74
98
106
74
98
106
74
106
115
82
90
98
65
106
115
82
106
115
82
106
115
82
106
115
82
98
106
74
90
98
65
98
106
74
106
115
82
106
115
82
106
115
82
98
106
74
90
98
65
106
115
82
106
115
82
106
115
82
115
115
115
98
106
74
90
98
65
82
82
57
98
106
74
90
98
65
90
98
65
90
98
65
90
98
65
90
98
65
49
57
32
65
74
49
65
74
49
82
82
57
65
74
49
82
82
57
82
82
57
82
82
57
82
82
57
90
98
65
90
98
65
98
106
74
90
98
65
98
106
74
98
106
74
90
98
65
90
98
65
82
82
57
90
98
65
82
82
57
90
98
65
65
74
49
82
82
57
82
82
57
98
106
74
90
98
65
90
98
65
90
98
65
98
106
74
90
98
65
98
106
74
90
98
65
49
57
32
82
82
57
98
106
74
98
106
74
106
115
82
164
164
164
156
49
49
164
139
115
106
115
82
106
115
82
98
106
74
106
115
82
98
106
74
98
106
74
106
115
82
106
115
82
106
115
82
106
115
82
90
98
65
90
98
65
139
139
139
189
189
189
238
148
148
189
164
139
123
123
98
82
82
57
90
98
65
90
98
65
98
106
74
90
98
65
98
106
74
90
98
65
49
57
32
65
74
49
65
74
49
65
74
49
82
82
57
82
82
57
82
82
57
82
82
57
90
98
65
90
98
65
98
106
74
98
106
74
90
98
65
98
106
74
98
106
74
90
98
65
82
82
57
82
82
57
90
98
65
90
98
65
82
82
57
65
74
49
90
98
65
90
98
65
98
106
74
98
106
74
90
98
65
98
106
74
98
106
74
90
98
65
98
106
74
90
98
65
49
57
32
82
82
57
98
106
74
98
106
74
98
106
74
123
123
123
189
164
139
189
164
139
164
139
115
123
123
98
98
106
74
98
106
74
98
106
74
106
115
82
106
115
82
106
115
82
106
115
82
106
115
82
106
115
82
90
98
65
123
98
74
131
82
49
156
90
16
139
90
49
172
148
123
98
106
74
90
98
65
98
106
74
98
106
74
90
98
65
98
106
74
90
98
65
49
57
32
57
65
41
65
74
49
65
74
49
172
148
123
98
82
57
156
131
98
123
98
74
98
106
74
90
98
65
98
106
74
90
98
65
90
98
65
90
98
65
98
106
74
90
98
65
82
82
57
90
98
65
90
98
65
82
82
57
90
98
65
82
82
57
90
98
65
90
98
65
98
106
74
90
98
65
90
98
65
90
98
65
90
98
65
90
98
65
90
98
65
90
98
65
49
57
32
65
74
49
82
82
57
90
98
65
98
106
74
65
74
49
90
74
49
131
106
74
156
131
98
164
164
164
172
148
123
131
131
131
98
106
74
98
106
74
106
115
82
106
115
82
106
115
82
98
106
74
106
115
82
123
123
123
82
57
41
49
41
16
57
41
16
57
41
16
82
65
49
139
139
139
148
148
148
106
115
82
90
98
65
90
98
65
90
98
65
90
98
65
57
65
41
82
82
57
123
123
98
131
131
131
172
148
123
189
164
139
238
148
148
115
90
74
98
106
74
98
106
74
98
106
74
98
106
74
98
106
74
90
98
65
90
98
65
90
98
65
90
98
65
90
98
65
90
98
65
90
98
65
82
82
57
82
82
57
90
98
65
90
98
65
90
98
65
82
82
57
90
98
65
90
98
65
90
98
65
90
98
65
90
98
65
90
98
65
49
57
32
57
65
41
65
74
49
82
82
57
90
98
65
90
98
65
65
0
0
41
32
8
98
82
49
123
98
74
172
148
123
156
131
106
156
131
106
172
148
123
180
180
180
139
139
139
123
123
98
131
131
131
180
180
180
148
148
148
98
82
57
49
41
16
74
49
24
57
41
16
90
74
49
139
115
90
172
148
123
148
123
98
90
98
65
90
98
65
123
123
98
156
131
106
189
164
139
189
189
189
189
164
139
148
123
98
82
57
41
115
90
57
82
57
41
82
82
57
90
98
65
90
98
65
90
98
65
82
82
57
82
82
57
90
98
65
90
98
65
90
98
65
98
106
74
90
98
65
90
98
65
82
82
57
82
82
57
82
65
49
65
74
49
82
82
57
90
98
65
57
65
41
49
57
32
49
49
49
49
57
32
49
57
32
49
57
32
49
57
32
32
32
32
49
57
32
49
57
32
49
57
32
49
57
32
49
57
32
57
41
16
32
32
32
24
24
24
49
41
16
65
49
24
82
57
41
139
115
90
131
106
74
172
148
123
164
139
115
139
115
90
139
115
90
189
164
139
98
82
57
65
49
24
41
32
8
57
41
16
49
41
16
65
49
24
123
98
74
123
98
74
41
41
41
139
115
90
148
148
148
189
189
189
164
139
115
189
164
139
139
139
139
115
90
74
49
57
32
32
32
32
65
0
0
57
41
16
49
49
49
49
57
32
49
57
32
41
41
41
49
57
32
49
57
32
49
57
32
49
57
32
49
57
32
57
65
41
57
65
41
57
65
41
49
57
32
49
49
49
49
49
49
49
57
32
49
57
32
49
57
32
24
24
24
41
41
41
24
24
24
41
41
41
32
32
32
49
57
32
57
57
57
90
98
65
82
82
57
65
74
49
49
49
49
57
57
57
82
82
57
65
49
24
90
74
49
82
82
57
82
82
57
57
65
41
24
24
24
24
24
24
41
32
8
24
16
8
24
16
8
65
49
24
115
90
74
123
123
123
49
41
16
82
57
24
57
41
16
65
0
0
41
32
8
57
41
16
49
57
32
49
57
32
65
74
49
41
32
8
115
90
74
90
98
65
90
65
32
65
49
24
49
41
16
24
24
24
49
57
32
65
74
49
65
49
24
82
57
41
82
82
57
90
98
65
98
106
74
82
82
57
90
98
65
82
82
57
90
98
65
82
82
57
90
98
65
90
98
65
106
115
82
82
82
57
82
82
57
98
106
74
90
98
65
98
106
74
106
115
82
49
57
32
8
8
8
24
16
8
16
8
0
32
32
32
32
32
32
24
24
24
49
57
32
82
82
57
41
41
41
82
82
57
49
57
32
24
24
24
49
57
32
90
65
32
90
74
49
57
65
41
65
74
49
82
82
57
49
41
16
49
49
49
49
57
32
32
32
32
49
57
32
98
82
57
98
82
57
32
32
32
74
49
24
139
90
49
156
98
57
156
49
49
156
98
57
115
74
41
57
41
16
74
49
24
41
32
8
8
8
8
24
16
8
57
65
41
49
41
16
65
74
49
65
74
49
65
74
49
82
82
57
90
98
65
74
49
24
82
57
24
90
98
65
98
106
74
90
98
65
90
98
65
98
106
74
82
82
57
90
98
65
65
74
49
90
98
65
98
106
74
82
82
57
82
82
57
65
74
49
90
98
65
106
115
82
106
115
82
90
98
65
49
57
32
0
0
0
16
16
16
24
24
24
49
49
49
41
41
41
49
57
32
82
82
57
65
74
49
49
57
32
90
98
65
82
82
57
49
41
16
57
65
41
90
65
32
98
82
49
65
74
49
49
49
49
65
74
49
82
82
57
57
65
41
74
74
74
57
65
41
74
74
74
49
57
32
49
57
32
65
74
49
24
16
8
90
65
32
115
74
41
106
65
32
123
82
41
106
65
32
24
16
8
41
32
8
16
8
0
8
8
8
8
8
8
24
16
8
65
74
49
90
98
65
90
98
65
65
74
49
82
82
57
90
98
65
57
65
41
82
57
41
98
106
74
90
98
65
82
82
57
90
98
65
90
98
65
82
82
57
90
98
65
82
82
57
90
98
65
82
82
57
82
82
57
90
98
65
90
98
65
82
82
57
90
98
65
98
106
74
65
74
49
32
32
32
16
16
16
16
16
16
49
57
32
57
65
41
57
41
16
65
74
49
82
82
57
65
74
49
90
98
65
65
74
49
98
106
74
82
82
57
82
82
57
90
74
49
115
90
57
90
98
65
82
82
57
82
82
82
98
106
74
90
98
65
82
82
57
82
82
57
82
82
57
41
41
41
41
41
41
41
41
41
0
0
0
16
8
0
24
16
8
24
16
8
65
0
0
16
8
0
16
8
0
0
0
0
0
0
0
0
0
0
32
32
32
24
16
8
16
8
0
49
57
32
82
82
57
65
74
49
82
82
57
82
82
57
82
65
49
82
65
49
98
106
74
82
82
57
82
82
57
106
115
82
98
106
74
90
98
65
98
106
74
82
82
57
82
82
57
90
98
65
90
98
65
90
98
65
98
106
74
90
98
65
82
82
57
82
82
57
57
65
41
16
16
16
32
32
32
24
24
24
41
41
41
74
74
74
65
74
49
65
74
49
90
98
65
82
82
57
82
82
57
82
82
57
82
82
57
90
98
65
90
98
65
90
74
49
98
82
57
90
98
65
90
98
65
82
82
57
98
106
74
106
115
82
98
106
74
90
98
65
82
82
57
32
32
32
57
65
41
16
16
16
0
0
0
0
0
0
16
8
0
24
16
8
41
32
8
16
8
0
0
0
0
0
0
0
0
0
0
0
0
0
8
8
8
49
41
16
57
41
16
24
16
8
57
65
41
65
74
49
82
82
57
82
82
57
82
65
49
82
65
49
90
98
65
82
82
57
90
98
65
106
115
82
106
115
82
82
82
57
90
98
65
90
98
65
82
82
57
90
98
65
90
98
65
65
74
49
98
106
74
90
98
65
90
98
65
82
82
57
65
74
49
32
32
32
32
32
32
32
32
32
65
74
49
82
82
57
65
74
49
74
74
74
82
82
57
82
82
57
65
74
49
82
82
57
82
82
57
65
74
49
82
82
57
98
82
57
90
98
65
90
98
65
90
98
65
82
82
57
98
106
74
106
115
82
106
115
82
98
106
74
82
82
57
24
24
24
49
57
32
8
8
8
0
0
0
0
0
0
0
0
0
0
0
0
24
16
8
0
0
0
0
0
0
0
0
0
24
16
8
41
32
8
49
41
16
65
49
24
57
65
41
82
65
49
65
74
49
82
82
57
82
82
57
82
82
57
90
74
49
82
65
49
82
82
57
82
82
57
90
98
65
98
106
74
106
115
82
82
82
57
98
106
74
90
98
65
90
98
65
90
98
65
82
82
57
65
74
49
82
82
57
98
106
74
90
98
65
82
82
57
82
82
57
41
41
41
32
32
32
49
41
16
57
65
41
82
82
57
65
74
49
90
98
65
82
82
57
82
82
57
82
82
57
82
82
57
82
82
57
82
82
57
82
82
57
98
82
57
90
98
65
90
98
65
90
98
65
90
98
65
98
106
74
106
115
82
106
115
82
106
115
82
98
106
74
49
49
49
32
32
32
0
0
0
0
0
0
0
0
0
0
0
0
0
0
0
0
0
0
0
0
0
8
8
8
41
32
8
41
32
8
41
41
41
49
41
16
49
41
16
65
49
24
57
65
41
65
74
49
65
74
49
82
82
57
82
82
57
82
82
57
65
74
49
82
82
57
90
98
65
90
98
65
98
106
74
98
106
74
98
106
74
98
106
74
98
106
74
82
82
57
82
82
57
82
82
57
90
98
65
82
82
57
90
98
65
90
98
65
82
82
57
82
82
57
41
41
41
41
41
41
65
74
49
65
74
49
82
82
57
65
74
49
82
82
57
82
82
57
82
82
57
82
82
57
90
98
65
82
82
57
82
82
57
90
98
65
90
98
65
90
98
65
90
98
65
90
98
65
90
98
65
90
98
65
106
115
82
123
123
98
106
115
82
98
106
74
32
32
32
82
82
82
0
0
0
0
0
0
0
0
0
0
0
0
0
0
0
0
0
0
0
0
0
41
41
41
41
41
41
49
41
16
49
57
32
49
57
32
41
41
41
49
41
16
65
49
24
57
65
41
65
74
49
65
74
49
82
82
57
82
65
49
82
82
57
90
98
65
90
98
65
98
106
74
106
115
82
90
98
65
90
98
65
98
106
74
98
106
74
90
98
65
82
82
57
82
82
57
74
74
74
82
82
57
98
106
74
90
98
65
82
82
57
82
82
57
32
32
32
41
41
41
65
74
49
65
74
49
65
74
49
57
57
57
82
82
57
82
82
57
82
82
57
82
82
57
90
98
65
90
98
65
106
115
82
90
98
65
106
115
82
90
98
65
90
98
65
90
98
65
90
98
65
90
98
65
106
115
82
106
115
82
106
115
82
98
106
74
49
41
16
74
74
74
16
16
16
0
0
0
0
0
0
0
0
0
16
8
0
16
8
0
0
0
0
49
41
16
57
65
41
65
49
24
57
65
41
57
65
41
65
49
24
49
41
16
49
57
32
49
41
16
65
74
49
82
82
57
82
82
57
82
65
49
82
82
57
98
106
74
90
98
65
106
115
82
106
115
82
90
98
65
90
98
65
90
98
65
90
98
65
90
98
65
82
82
57
82
82
57
82
82
57
90
98
65
98
106
74
106
115
82
82
82
57
65
74
49
32
32
32
49
49
49
65
74
49
57
65
41
65
74
49
49
49
49
74
74
74
82
82
57
82
82
57
82
82
57
82
82
57
90
98
65
98
106
74
98
106
74
106
115
82
90
98
65
90
98
65
90
98
65
90
98
65
90
98
65
106
115
82
123
123
98
123
123
98
106
115
82
32
32
32
32
32
32
0
0
0
0
0
0
0
0
0
0
0
0
0
0
0
8
8
8
0
0
0
24
24
24
41
41
41
65
49
24
57
65
41
57
65
41
65
49
24
49
41
16
49
41
16
41
32
8
57
65
41
82
82
57
82
82
57
82
82
57
90
98
65
98
106
74
98
106
74
106
115
82
98
106
74
98
106
74
98
106
74
90
98
65
98
106
74
98
106
74
90
98
65
90
98
65
90
98
65
90
98
65
90
98
65
106
115
82
90
98
65
82
82
57
32
32
32
65
74
49
82
82
57
65
74
49
65
74
49
65
74
49
65
74
49
82
82
57
82
82
57
98
106
74
90
98
65
82
82
57
82
82
57
90
98
65
90
98
65
82
82
57
90
98
65
90
98
65
90
98
65
82
82
57
98
106
74
123
123
98
106
115
82
106
115
82
98
106
74
41
41
41
0
0
0
24
16
8
8
8
8
0
0
0
24
16
8
16
16
16
24
16
8
8
8
8
24
24
24
49
57
32
65
74
49
65
74
49
65
74
49
57
65
41
49
57
32
24
24
24
49
57
32
82
82
57
82
82
57
82
82
57
82
82
57
90
98
65
98
106
74
98
106
74
106
115
82
98
106
74
98
106
74
90
98
65
98
106
74
98
106
74
98
106
74
90
98
65
90
98
65
90
98
65
90
98
65
98
106
74
90
98
65
82
82
57
49
57
32
65
74
49
90
98
65
65
74
49
65
74
49
82
82
57
74
74
74
82
82
57
82
82
57
82
82
57
106
115
82
90
98
65
82
82
57
82
82
57
82
82
57
82
82
57
82
82
57
82
82
57
82
82
57
82
82
57
90
98
65
123
123
98
106
115
82
106
115
82
106
115
82
49
57
32
8
8
8
16
16
16
16
16
16
16
8
0
16
8
0
24
16
8
8
8
8
24
24
24
49
41
16
49
49
49
49
49
49
65
74
49
57
65
41
57
65
41
32
32
32
24
24
24
49
57
32
65
74
49
65
74
49
82
82
57
82
82
57
90
98
65
98
106
74
98
106
74
98
106
74
106
115
82
90
98
65
82
82
57
90
98
65
90
98
65
90
98
65
90
98
65
90
98
65
90
98
65
90
98
65
90
98
65
90
98
65
90
98
65
49
57
32
57
65
41
82
82
57
82
82
57
65
74
49
65
74
49
57
57
57
65
74
49
82
82
57
82
82
57
98
106
74
82
82
57
74
74
74
82
82
57
82
82
57
65
74
49
74
74
74
65
74
49
82
82
57
82
82
57
82
82
57
90
98
65
98
106
74
106
115
82
106
115
82
65
74
49
8
8
8
24
16
8
24
16
8
24
16
8
16
8
0
8
8
8
24
16
8
41
32
8
82
82
57
65
74
49
65
74
49
65
74
49
57
65
41
57
65
41
41
41
41
32
32
32
65
49
24
65
49
24
65
74
49
82
82
57
90
98
65
90
98
65
82
82
57
90
98
65
82
82
57
82
82
57
82
82
57
82
82
57
90
98
65
90
98
65
90
98
65
90
98
65
90
98
65
90
98
65
90
98
65
82
82
57
82
82
57
82
82
57
41
41
41
32
32
32
57
65
41
65
74
49
57
57
57
41
41
41
24
24
24
57
65
41
49
57
32
41
41
41
82
82
57
65
74
49
57
65
41
65
74
49
65
74
49
49
49
49
57
65
41
57
65
41
57
65
41
57
57
57
57
57
57
57
65
41
57
65
41
65
74
49
82
82
57
65
74
49
0
0
0
24
16
8
24
16
8
49
57
32
41
32
8
24
16
8
24
16
8
24
16
8
57
65
41
65
74
49
57
57
57
41
41
41
24
24
24
57
65
41
41
41
41
24
24
24
41
32
8
49
41
16
49
57
32
65
74
49
65
74
49
57
57
57
49
57
32
49
57
32
49
57
32
49
57
32
57
65
41
57
65
41
57
65
41
65
74
49
82
82
57
65
74
49
65
74
49
82
82
57
65
74
49
65
74
49
57
57
57
82
82
57
32
32
32
82
82
57
65
74
49
82
82
57
98
82
57
82
82
57
65
74
49
82
82
57
82
82
57
82
82
57
82
82
57
82
82
57
65
74
49
65
74
49
65
74
49
65
74
49
74
74
74
57
57
57
49
57
32
49
49
49
49
57
32
49
49
49
57
65
41
74
74
74
49
49
49
49
57
32
8
8
8
8
8
8
24
16
8
24
16
8
8
16
0
24
16
8
8
8
8
65
74
49
65
74
49
65
74
49
82
82
57
90
98
65
82
82
57
82
82
57
98
82
57
65
74
49
65
74
49
65
74
49
65
74
49
65
74
49
57
57
57
82
82
57
82
82
57
82
82
57
82
82
57
98
82
57
82
82
57
82
82
57
82
82
57
82
82
57
57
65
41
32
32
32
65
74
49
65
74
49
65
74
49
82
82
57
82
82
57
82
82
57
82
82
57
90
98
65
90
98
65
90
98
65
90
98
65
90
98
65
98
106
74
90
98
65
98
106
74
90
98
65
90
98
65
90
98
65
90
98
65
82
82
57
82
82
57
65
74
49
65
74
49
57
65
41
65
49
24
49
57
32
32
32
32
41
41
41
49
57
32
65
74
49
57
65
41
24
24
24
32
32
32
0
0
0
0
0
0
0
0
0
0
0
0
0
0
0
24
24
24
82
82
57
65
74
49
82
82
57
82
82
57
90
98
65
90
98
65
98
106
74
98
106
74
98
106
74
90
98
65
98
106
74
90
98
65
90
98
65
98
106
74
98
106
74
106
115
82
90
98
65
90
98
65
106
115
82
98
106
74
90
98
65
90
98
65
82
82
57
65
74
49
32
32
32
90
98
65
90
98
65
90
98
65
90
98
65
98
106
74
106
115
82
98
106
74
82
82
57
65
74
49
90
98
65
90
98
65
90
98
65
82
82
57
82
82
57
90
98
65
90
98
65
82
82
57
90
98
65
82
82
57
65
74
49
82
82
57
65
74
49
65
74
49
65
74
49
49
41
16
32
32
32
49
41
16
57
65
41
57
65
41
82
82
57
57
65
41
16
16
16
32
32
32
0
0
0
0
0
0
0
0
0
0
0
0
0
0
0
8
8
8
82
82
57
65
74
49
65
74
49
65
74
49
82
82
57
82
82
57
90
98
65
82
82
57
106
115
82
82
82
57
82
82
57
90
98
65
82
82
57
90
98
65
90
98
65
98
106
74
90
98
65
90
98
65
82
82
57
98
106
74
90
98
65
82
82
57
65
74
49
57
65
41
24
24
24
90
98
65
90
98
65
98
106
74
98
106
74
98
106
74
98
106
74
98
106
74
90
98
65
82
82
57
82
82
57
90
98
65
90
98
65
90
98
65
90
98
65
82
82
57
82
82
57
82
82
57
82
82
57
82
82
57
82
82
57
65
74
49
65
74
49
82
82
57
57
65
41
57
65
41
32
32
32
49
57
32
65
49
24
65
74
49
82
82
57
65
74
49
16
16
16
32
32
32
0
0
0
0
0
0
0
0
0
0
0
0
0
0
0
16
32
8
82
82
57
82
82
57
82
82
57
82
82
57
82
82
57
82
82
57
82
82
57
82
82
57
82
82
57
82
82
57
90
98
65
90
98
65
82
82
57
82
82
57
82
82
57
90
98
65
90
98
65
90
98
65
82
82
57
82
82
57
82
82
57
82
82
57
65
74
49
57
65
41
24
24
24
82
82
57
82
82
57
98
106
74
98
106
74
90
98
65
90
98
65
90
98
65
82
82
57
82
82
57
82
82
57
90
98
65
90
98
65
98
106
74
98
106
74
82
82
57
90
98
65
82
82
57
82
82
57
82
82
57
82
82
57
82
82
57
65
74
49
65
74
49
65
49
24
49
57
32
49
41
16
49
41
16
65
49
24
57
65
41
82
82
57
57
65
41
32
32
32
41
41
41
0
0
0
0
0
0
0
0
0
0
0
0
0
0
0
32
32
32
65
74
49
65
74
49
82
82
57
90
98
65
82
82
57
82
82
57
82
82
57
90
98
65
82
82
57
82
82
57
98
106
74
90
98
65
90
98
65
90
98
65
90
98
65
82
82
57
82
82
57
106
115
82
82
82
57
82
82
57
82
82
57
82
82
57
65
74
49
57
65
41
41
41
41
90
98
65
90
98
65
90
98
65
90
98
65
90
98
65
82
82
57
82
82
57
82
82
57
82
82
57
82
82
57
98
106
74
98
106
74
98
106
74
90
98
65
90
98
65
90
98
65
65
74
49
82
82
57
65
74
49
82
82
57
82
82
57
57
65
41
32
32
32
49
41
16
41
41
41
41
41
41
57
65
41
57
65
41
57
65
41
82
82
57
57
65
41
32
32
32
49
57
32
8
8
8
0
0
0
0
0
0
0
0
0
24
16
8
49
57
32
82
82
57
82
82
57
82
82
57
82
82
57
82
82
57
65
74
49
82
82
57
98
106
74
82
82
57
82
82
57
90
98
65
90
98
65
90
98
65
98
106
74
90
98
65
82
82
57
90
98
65
90
98
65
82
82
57
82
82
57
82
82
57
65
74
49
82
82
57
57
65
41
41
41
41
90
98
65
98
106
74
90
98
65
90
98
65
90
98
65
90
98
65
82
82
57
90
98
65
82
82
57
90
98
65
98
106
74
98
106
74
90
98
65
98
106
74
90
98
65
90
98
65
82
82
57
82
82
57
82
82
57
65
74
49
57
65
41
49
41
16
49
41
16
65
49
24
65
49
24
49
41
16
65
74
49
57
65
41
65
74
49
65
74
49
57
57
57
49
41
16
57
65
41
32
32
32
16
8
0
16
8
0
65
0
0
16
32
8
57
65
41
82
82
57
82
82
57
82
82
57
65
74
49
90
98
65
65
74
49
90
98
65
82
82
57
90
98
65
90
98
65
98
106
74
90
98
65
90
98
65
98
106
74
90
98
65
90
98
65
82
82
57
82
82
57
82
82
57
82
82
57
82
82
57
82
82
57
65
74
49
65
74
49
49
57
32
90
98
65
90
98
65
90
98
65
90
98
65
90
98
65
90
98
65
82
82
57
98
106
74
90
98
65
90
98
65
106
115
82
90
98
65
90
98
65
98
106
74
98
106
74
98
106
74
90
98
65
82
82
57
82
82
57
65
74
49
41
32
8
41
41
41
49
57
32
82
57
41
65
49
24
57
41
16
57
65
41
65
74
49
82
82
57
82
82
57
57
65
41
49
57
32
57
65
41
57
41
16
65
0
0
65
0
0
65
0
0
49
57
32
57
65
41
90
98
65
90
98
65
90
98
65
82
82
57
90
98
65
82
82
57
98
106
74
82
82
57
82
82
57
82
82
57
98
106
74
98
106
74
90
98
65
90
98
65
90
98
65
90
98
65
82
82
57
65
74
49
82
82
57
82
82
57
65
74
49
82
82
57
65
74
49
82
65
49
49
57
32
90
98
65
98
106
74
90
98
65
98
106
74
90
98
65
98
106
74
90
98
65
98
106
74
98
106
74
90
98
65
98
106
74
90
98
65
98
106
74
98
106
74
98
106
74
98
106
74
82
82
57
82
82
57
82
82
57
57
65
41
24
24
24
49
57
32
57
65
41
82
65
49
82
57
41
41
32
8
32
32
32
82
82
57
90
98
65
90
98
65
82
82
57
49
57
32
57
65
41
57
65
41
41
32
8
65
0
0
41
32
8
57
65
41
65
74
49
90
98
65
98
106
74
98
106
74
90
98
65
90
98
65
90
98
65
90
98
65
82
82
57
82
82
57
90
98
65
98
106
74
90
98
65
90
98
65
98
106
74
106
115
82
90
98
65
90
98
65
82
82
57
82
82
57
82
82
57
82
82
57
65
74
49
65
74
49
65
74
49
49
57
32
90
98
65
98
106
74
90
98
65
98
106
74
90
98
65
90
98
65
98
106
74
90
98
65
90
98
65
90
98
65
90
98
65
98
106
74
106
115
82
98
106
74
90
98
65
98
106
74
90
98
65
82
82
57
82
82
57
57
65
41
24
24
24
57
65
41
65
74
49
82
65
49
82
65
49
41
41
41
49
57
32
82
82
57
90
98
65
106
115
82
90
98
65
49
57
32
57
65
41
57
65
41
49
41
16
65
0
0
49
41
16
57
65
41
57
65
41
90
98
65
90
98
65
98
106
74
90
98
65
90
98
65
90
98
65
90
98
65
90
98
65
82
82
57
90
98
65
90
98
65
90
98
65
90
98
65
98
106
74
98
106
74
98
106
74
98
106
74
90
98
65
82
82
57
82
82
57
82
82
57
65
74
49
57
65
41
49
57
32
49
57
32
90
98
65
90
98
65
90
98
65
98
106
74
98
106
74
90
98
65
90
98
65
90
98
65
90
98
65
90
98
65
90
98
65
98
106
74
98
106
74
98
106
74
106
115
82
90
98
65
90
98
65
82
82
57
82
82
57
65
74
49
49
57
32
82
82
57
82
82
57
82
82
57
65
74
49
65
49
24
82
82
57
82
82
57
98
106
74
106
115
82
90
98
65
49
41
16
57
65
41
57
65
41
65
49
24
41
32
8
49
57
32
57
65
41
57
65
41
82
82
57
90
98
65
90
98
65
90
98
65
90
98
65
90
98
65
90
98
65
90
98
65
98
106
74
98
106
74
90
98
65
90
98
65
98
106
74
90
98
65
90
98
65
98
106
74
90
98
65
90
98
65
90
98
65
90
98
65
90
98
65
82
82
57
82
82
57
57
65
41
49
57
32
90
98
65
90
98
65
90
98
65
90
98
65
90
98
65
90
98
65
82
82
57
57
57
57
65
74
49
82
82
57
82
82
57
82
82
57
82
82
57
82
82
57
82
82
57
82
82
57
65
74
49
65
74
49
49
57
32
49
41
16
49
57
32
65
74
49
65
74
49
57
65
41
57
65
41
49
49
49
65
74
49
65
74
49
82
82
57
90
98
65
65
74
49
32
32
32
49
57
32
49
57
32
49
57
32
41
32
8
41
41
41
49
57
32
49
57
32
65
74
49
65
74
49
65
74
49
65
74
49
65
74
49
65
74
49
82
65
49
65
74
49
65
74
49
65
74
49
65
74
49
65
74
49
65
74
49
65
74
49
65
74
49
82
82
57
65
74
49
82
82
57
82
82
57
82
82
57
65
74
49
65
74
49
57
65
41
57
65
41
32
32
32
82
82
57
82
82
57
65
74
49
82
82
57
82
82
57
65
74
49
65
74
49
65
74
49
57
57
57
49
57
32
41
41
41
41
41
41
32
32
32
41
41
41
41
41
41
32
32
32
49
49
49
82
82
57
82
82
82
82
82
57
82
82
57
82
82
57
82
82
82
82
82
57
82
82
57
90
98
65
90
98
65
115
90
74
82
82
57
82
82
57
82
82
57
82
82
57
82
82
57
82
82
82
82
82
57
82
82
57
65
74
49
82
82
82
74
74
74
74
74
74
65
74
49
57
57
57
82
82
57
82
82
57
82
82
57
82
82
57
82
82
57
41
41
41
82
82
82
82
82
57
57
65
41
82
82
57
65
74
49
57
65
41
57
65
41
49
49
49
57
65
41
65
74
49
65
74
49
65
74
49
65
74
49
65
74
49
65
74
49
65
74
49
90
98
65
82
82
57
90
98
65
90
98
65
82
82
57
65
74
49
57
65
41
82
82
57
49
57
32
24
24
24
24
24
24
16
16
16
0
0
0
24
16
8
16
16
16
32
32
32
65
74
49
82
82
57
82
82
57
82
82
57
82
82
57
82
82
57
98
106
74
98
106
74
98
106
74
98
106
74
106
115
82
106
115
82
82
82
57
90
98
65
98
106
74
106
115
82
106
115
82
98
106
74
106
115
82
90
98
65
82
82
57
98
106
74
41
41
41
74
49
24
49
57
32
32
32
32
65
74
49
82
82
57
98
106
74
106
115
82
90
98
65
49
57
32
98
106
74
98
106
74
98
106
74
90
98
65
98
106
74
98
106
74
106
115
82
98
106
74
106
115
82
123
123
98
106
115
82
106
115
82
106
115
82
106
115
82
106
115
82
106
115
82
106
115
82
98
106
74
106
115
82
106
115
82
106
115
82
65
74
49
90
98
65
82
82
57
65
74
49
32
32
32
41
41
41
41
41
41
24
16
8
24
16
8
8
8
8
24
24
24
49
57
32
57
65
41
82
82
57
82
82
57
65
74
49
90
98
65
90
98
65
98
106
74
90
98
65
90
98
65
98
106
74
98
106
74
82
82
57
98
106
74
106
115
82
106
115
82
106
115
82
106
115
82
106
115
82
98
106
74
65
74
49
82
82
57
65
49
24
57
65
41
49
57
32
57
57
57
65
74
49
90
98
65
98
106
74
90
98
65
115
90
74
41
41
41
82
82
57
106
115
82
106
115
82
90
98
65
98
106
74
98
106
74
57
65
41
65
74
49
82
82
57
98
106
74
106
115
82
106
115
82
123
123
98
123
123
98
106
115
82
90
98
65
98
106
74
98
106
74
90
98
65
90
98
65
82
82
57
82
82
57
106
115
82
65
74
49
82
82
57
57
65
41
41
32
8
49
49
49
41
41
41
16
16
16
8
8
8
16
16
16
24
16
8
41
41
41
65
74
49
65
74
49
82
82
57
82
82
57
82
82
57
98
106
74
98
106
74
98
106
74
98
106
74
98
106
74
57
65
41
82
82
57
98
106
74
106
115
82
106
115
82
98
106
74
98
106
74
82
82
57
65
74
49
65
74
49
65
74
49
65
74
49
57
65
41
65
74
49
90
98
65
98
106
74
90
98
65
106
115
82
90
98
65
24
24
24
65
74
49
90
98
65
82
82
57
82
82
57
106
115
82
82
82
57
57
65
41
65
74
49
98
106
74
106
115
82
106
115
82
123
123
98
123
123
98
123
123
98
106
115
82
90
98
65
123
123
98
123
123
98
123
123
98
90
98
65
65
74
49
90
98
65
98
106
74
82
82
57
90
98
65
65
74
49
57
65
41
74
74
74
49
57
32
24
16
8
16
16
16
16
16
16
24
24
24
24
24
24
24
24
24
49
57
32
65
74
49
82
82
57
82
82
57
90
98
65
98
106
74
90
98
65
90
98
65
98
106
74
65
74
49
82
82
57
90
98
65
98
106
74
106
115
82
98
106
74
82
82
57
82
82
57
82
82
57
82
82
57
82
82
57
57
65
41
65
74
49
82
82
57
82
82
57
98
106
74
98
106
74
82
82
57
90
98
65
24
24
24
57
65
41
82
82
57
82
82
57
90
98
65
106
115
82
65
74
49
65
74
49
82
82
57
106
115
82
106
115
82
106
115
82
106
115
82
123
123
98
123
123
98
106
115
82
98
106
74
123
123
98
106
115
82
106
115
82
82
65
49
65
74
49
65
74
49
82
82
57
82
82
57
90
98
65
65
74
49
82
82
57
74
74
74
57
65
41
32
32
32
41
41
41
16
16
16
24
16
8
24
24
24
16
16
16
24
24
24
65
74
49
82
82
57
82
82
57
82
82
57
90
98
65
90
98
65
106
115
82
123
123
98
82
82
57
90
98
65
98
106
74
106
115
82
106
115
82
98
106
74
57
65
41
82
82
57
82
82
57
82
82
57
82
82
57
65
74
49
65
74
49
65
74
49
82
82
57
90
98
65
90
98
65
90
98
65
90
98
65
49
57
32
65
74
49
82
82
57
90
98
65
98
106
74
106
115
82
65
74
49
49
57
32
65
74
49
82
82
57
98
106
74
106
115
82
106
115
82
123
123
98
123
123
98
98
106
74
106
115
82
106
115
82
106
115
82
82
82
57
82
82
57
57
65
41
82
82
57
82
82
57
82
82
57
82
82
57
74
74
74
65
74
49
82
82
57
57
65
41
24
24
24
24
24
24
16
16
16
49
57
32
65
74
49
49
57
32
57
65
41
49
49
49
65
74
49
82
82
57
82
82
57
82
82
57
82
82
57
98
106
74
106
115
82
90
98
65
82
82
57
98
106
74
106
115
82
106
115
82
98
106
74
90
98
65
82
82
57
82
82
57
90
98
65
82
82
57
82
82
57
57
65
41
65
74
49
90
98
65
98
106
74
90
98
65
90
98
65
82
82
57
49
57
32
82
82
57
82
82
57
82
82
57
98
106
74
106
115
82
65
74
49
65
74
49
57
65
41
57
65
41
90
98
65
98
106
74
106
115
82
106
115
82
106
115
82
106
115
82
98
106
74
90
98
65
98
106
74
82
82
57
65
74
49
82
82
57
82
82
57
65
74
49
82
82
57
82
82
57
90
98
65
65
74
49
82
82
57
57
65
41
57
65
41
41
41
41
32
32
32
49
57
32
82
82
57
49
57
32
90
98
65
57
65
41
41
41
41
65
74
49
82
82
57
82
82
57
65
74
49
90
98
65
82
82
57
82
82
57
82
82
57
90
98
65
106
115
82
106
115
82
98
106
74
90
98
65
82
82
57
82
82
57
82
82
57
65
74
49
82
82
57
65
74
49
82
82
57
90
98
65
98
106
74
90
98
65
90
98
65
65
74
49
41
41
41
82
82
57
82
82
57
90
98
65
90
98
65
90
98
65
57
65
41
82
82
57
65
74
49
65
74
49
90
98
65
98
106
74
123
123
98
90
98
65
106
115
82
106
115
82
90
98
65
65
74
49
90
98
65
65
74
49
90
98
65
65
74
49
82
82
57
65
74
49
82
82
57
82
82
57
82
82
57
65
74
49
82
82
57
82
82
57
65
74
49
49
57
32
49
57
32
82
82
57
82
82
57
82
82
57
90
98
65
82
82
57
57
65
41
82
82
57
82
82
57
98
106
74
82
82
57
90
98
65
90
98
65
90
98
65
90
98
65
90
98
65
98
106
74
98
106
74
98
106
74
90
98
65
82
82
57
90
98
65
82
82
57
90
98
65
90
98
65
82
82
57
90
98
65
90
98
65
98
106
74
90
98
65
90
98
65
82
82
57
32
32
32
65
74
49
65
74
49
90
98
65
98
106
74
123
123
98
98
106
74
57
65
41
82
82
57
98
106
74
106
115
82
65
74
49
106
115
82
106
115
82
106
115
82
106
115
82
106
115
82
82
82
57
65
74
49
90
98
65
65
74
49
82
82
57
82
82
57
82
82
57
82
82
57
82
82
57
74
74
74
49
49
49
65
74
49
65
74
49
65
74
49
41
41
41
49
57
32
82
82
57
90
98
65
90
98
65
90
98
65
82
82
57
82
82
57
90
98
65
90
98
65
90
98
65
90
98
65
90
98
65
106
115
82
98
106
74
90
98
65
98
106
74
98
106
74
98
106
74
106
115
82
90
98
65
90
98
65
90
98
65
90
98
65
98
106
74
98
106
74
90
98
65
98
106
74
98
106
74
98
106
74
98
106
74
98
106
74
90
98
65
32
32
32
65
74
49
90
98
65
106
115
82
98
106
74
106
115
82
98
106
74
82
82
57
90
98
65
82
82
57
98
106
74
82
82
57
90
98
65
123
123
98
106
115
82
123
123
98
106
115
82
49
57
32
65
74
49
82
82
57
82
82
57
82
82
57
82
82
57
90
98
65
90
98
65
82
82
57
65
74
49
57
65
41
65
74
49
65
74
49
82
82
57
57
65
41
49
57
32
90
98
65
90
98
65
90
98
65
90
98
65
90
98
65
90
98
65
98
106
74
90
98
65
90
98
65
90
98
65
90
98
65
106
115
82
106
115
82
98
106
74
98
106
74
98
106
74
98
106
74
98
106
74
90
98
65
106
115
82
98
106
74
98
106
74
98
106
74
98
106
74
98
106
74
106
115
82
106
115
82
98
106
74
98
106
74
106
115
82
90
98
65
41
41
41
82
82
57
90
98
65
98
106
74
90
98
65
98
106
74
98
106
74
82
82
57
98
106
74
82
82
57
90
98
65
90
98
65
98
106
74
106
115
82
98
106
74
123
123
98
106
115
82
57
65
41
82
82
57
82
82
57
82
82
57
65
74
49
82
82
57
98
106
74
57
65
41
57
65
41
49
57
32
49
57
32
57
57
57
65
74
49
65
74
49
49
57
32
32
32
32
82
82
57
82
82
57
82
82
57
82
82
57
82
82
57
82
82
57
82
82
57
82
82
57
82
82
57
82
82
57
82
82
57
90
98
65
82
82
57
90
98
65
90
98
65
90
98
65
90
98
65
82
82
57
82
82
57
90
98
65
82
82
57
90
98
65
90
98
65
82
82
57
90
98
65
82
82
57
90
98
65
82
82
57
90
98
65
90
98
65
65
74
49
32
32
32
65
74
49
65
74
49
82
82
57
82
82
57
82
82
57
82
82
57
65
74
49
57
65
41
49
57
32
65
74
49
82
82
57
82
82
57
82
82
57
82
82
57
82
82
57
82
82
57
65
74
49
65
74
49
65
74
49
65
74
49
65
74
49
65
74
49
65
74
49
