P3
# Created by GIMP version 2.10.38 PNM plug-in
64 64
255
24
16
8
41
41
41
41
49
24
49
57
32
49
57
32
49
57
32
49
49
49
49
49
49
49
49
49
49
57
32
41
41
41
49
57
32
49
57
32
41
41
41
49
49
49
49
49
49
49
57
32
49
57
32
49
49
49
49
49
49
49
49
49
41
41
41
41
41
41
57
41
16
41
41
41
41
41
41
41
41
41
41
41
41
49
49
49
49
57
32
49
57
32
49
57
32
49
57
32
49
57
32
49
57
32
49
57
32
49
57
32
49
57
32
41
49
24
41
49
24
57
41
16
41
49
24
41
49
24
41
49
24
41
49
24
41
49
24
41
41
41
57
41
16
41
41
41
49
57
32
41
49
24
41
41
41
41
41
41
41
41
41
49
57
32
49
57
32
41
49
24
49
57
32
49
57
32
57
41
16
41
49
24
49
57
32
41
49
24
49
57
32
24
16
8
41
41
41
24
24
24
41
41
41
123
82
41
255
255
65
255
255
65
255
255
65
255
255
65
255
255
65
255
255
65
255
255
106
255
255
106
255
255
139
255
255
106
255
255
139
255
255
139
255
255
106
255
255
139
255
255
106
255
255
139
255
255
106
255
255
139
255
255
106
255
255
139
255
255
106
255
255
139
255
255
106
255
255
139
255
255
106
255
255
139
255
255
106
255
255
139
255
255
106
255
255
139
255
255
106
255
255
139
255
255
106
255
255
139
255
255
106
255
255
139
255
255
106
255
255
139
255
255
106
255
255
139
255
255
106
255
255
139
255
255
106
255
255
139
255
255
106
255
255
139
255
255
106
255
255
139
255
255
106
255
255
106
255
255
65
255
255
65
255
255
65
255
255
65
255
255
65
123
82
41
41
41
41
24
24
24
41
41
41
24
16
8
41
41
41
24
24
24
41
41
41
139
90
49
255
255
65
255
255
65
255
255
65
255
255
65
255
255
65
255
255
65
255
255
139
255
255
106
255
255
180
255
255
106
255
255
180
255
255
180
255
255
139
255
255
213
255
255
139
255
255
213
255
255
139
255
255
213
255
255
139
255
255
180
255
255
180
255
255
213
255
255
180
255
255
213
255
255
180
255
255
213
255
255
213
255
255
213
255
255
180
255
255
213
255
255
180
255
255
213
255
255
180
255
255
213
255
255
180
255
255
180
255
255
139
255
255
213
255
255
139
255
255
213
255
255
139
255
255
213
255
255
139
255
255
180
255
255
106
255
255
180
255
255
106
255
255
180
255
255
106
255
255
139
255
255
65
255
255
65
255
255
65
255
255
65
255
255
65
139
90
49
41
41
41
24
24
24
41
41
41
24
16
8
41
41
41
24
24
24
41
41
41
139
90
49
255
255
65
255
255
65
255
255
65
255
255
65
255
255
65
255
255
65
255
255
139
255
255
106
255
255
180
255
255
106
255
255
180
255
255
180
255
255
139
255
255
213
255
255
139
255
255
213
255
255
139
255
255
213
255
255
139
255
255
180
255
255
180
255
255
213
255
255
180
255
255
213
255
255
180
255
255
213
255
255
213
255
255
213
255
255
180
255
255
213
255
255
180
255
255
213
255
255
180
255
255
213
255
255
180
255
255
180
255
255
139
255
255
213
255
255
139
255
255
213
255
255
139
255
255
213
255
255
139
255
255
180
255
255
106
255
255
180
255
255
106
255
255
180
255
255
106
255
255
139
255
255
65
255
255
65
255
255
65
255
255
65
255
255
65
139
90
49
41
41
41
24
24
24
41
41
41
24
16
8
41
41
41
24
24
24
41
41
41
139
90
49
255
255
65
255
255
65
255
255
65
255
255
65
255
255
65
255
255
65
255
255
139
255
255
106
255
255
180
255
255
106
255
255
180
255
255
180
255
255
139
255
255
213
255
255
139
255
255
213
255
255
139
255
255
213
255
255
139
255
255
180
255
255
180
255
255
213
255
255
180
255
255
213
255
255
180
255
255
213
255
255
213
255
255
213
255
255
180
255
255
213
255
255
180
255
255
213
255
255
180
255
255
213
255
255
180
255
255
180
255
255
139
255
255
213
255
255
139
255
255
213
255
255
139
255
255
213
255
255
139
255
255
180
255
255
106
255
255
180
255
255
106
255
255
180
255
255
106
255
255
139
255
255
65
255
255
65
255
255
65
255
255
65
255
255
65
139
90
49
41
41
41
24
24
24
41
41
41
24
16
8
41
41
41
24
24
24
41
41
41
123
82
41
255
255
65
255
255
65
255
255
65
255
255
65
255
255
65
255
255
65
255
255
106
255
255
106
255
255
139
255
255
106
255
255
139
255
255
139
255
255
106
255
255
139
255
255
106
255
255
139
255
255
106
255
255
139
255
255
106
255
255
139
255
255
106
255
255
139
255
255
106
255
255
139
255
255
106
255
255
139
255
255
106
255
255
139
255
255
106
255
255
139
255
255
106
255
255
139
255
255
106
255
255
139
255
255
106
255
255
139
255
255
106
255
255
139
255
255
106
255
255
139
255
255
106
255
255
139
255
255
106
255
255
139
255
255
106
255
255
139
255
255
106
255
255
139
255
255
106
255
255
106
255
255
65
255
255
65
255
255
65
255
255
65
255
255
65
123
82
41
41
41
41
24
24
24
41
41
41
24
16
8
41
41
41
24
24
24
24
24
24
41
41
41
41
41
41
41
41
41
41
41
41
41
41
41
41
41
41
41
41
41
41
32
8
41
41
41
41
41
41
41
41
41
41
41
41
41
41
41
41
41
41
41
41
41
41
41
41
41
41
41
41
32
8
41
41
41
41
41
41
41
41
41
41
41
41
41
32
8
41
41
41
41
41
41
41
41
41
41
32
8
41
32
8
41
32
8
41
32
8
41
41
41
41
41
41
41
41
41
41
41
41
41
41
41
41
41
41
41
49
24
41
32
8
41
49
24
41
41
41
41
41
41
41
41
41
41
41
41
41
41
41
41
41
41
41
41
41
41
32
8
41
41
41
41
41
41
41
32
8
41
49
24
41
32
8
41
32
8
41
49
24
41
32
8
41
41
41
41
41
41
41
32
8
24
16
8
41
41
41
24
16
8
41
41
41
41
41
41
41
49
24
41
41
41
41
41
41
41
41
41
41
41
41
41
41
41
41
41
41
41
41
41
41
49
24
41
41
41
41
41
41
41
41
41
41
41
41
41
41
41
41
41
41
41
41
41
41
41
41
41
41
41
24
24
24
41
41
41
41
49
24
41
41
41
41
41
41
41
41
41
41
41
41
41
41
41
41
49
24
41
49
24
41
49
24
24
16
8
41
49
24
41
41
41
41
41
41
41
41
41
41
41
41
41
49
24
41
49
24
41
49
24
41
49
24
41
49
24
41
32
8
41
49
24
41
49
24
41
41
41
41
41
41
41
41
41
41
41
41
41
49
24
41
41
41
24
24
24
24
24
24
41
41
41
41
49
24
41
49
24
41
41
41
41
41
41
41
41
41
41
41
41
41
41
41
41
41
41
41
41
41
24
16
8
41
41
41
41
41
41
41
32
8
41
49
24
41
41
41
41
41
41
41
41
41
41
41
41
41
41
41
41
41
41
41
41
41
41
41
41
41
32
8
41
41
41
41
41
41
41
41
41
41
41
41
41
41
41
41
41
41
41
41
41
41
41
41
41
41
41
41
32
8
41
41
41
41
32
8
41
41
41
41
41
41
41
41
41
41
41
41
41
41
41
32
41
8
24
16
8
32
41
8
32
41
8
41
41
41
41
32
8
41
41
41
41
41
41
41
41
41
41
41
41
41
41
41
41
41
41
41
41
41
41
32
8
41
32
8
41
32
8
41
32
8
41
41
41
41
41
41
41
41
41
41
41
41
41
41
41
41
41
41
41
41
41
41
32
8
41
41
41
41
41
41
41
41
41
41
41
41
41
41
41
41
41
41
41
41
41
41
41
41
24
16
8
41
41
41
41
41
41
41
41
41
41
32
8
41
41
41
41
41
41
41
41
41
41
41
41
41
41
41
41
41
41
41
41
41
41
41
41
41
41
41
41
41
41
41
41
41
41
41
41
41
41
41
41
41
41
41
41
41
41
49
24
41
32
8
41
41
41
41
41
41
41
41
41
41
41
41
41
32
8
41
41
41
41
41
41
41
41
41
41
32
8
41
32
8
24
16
8
41
49
24
57
41
16
41
41
41
41
41
41
41
41
41
41
41
41
41
32
8
41
41
41
41
41
41
41
32
8
41
32
8
41
32
8
41
41
41
41
32
8
41
32
8
41
41
41
41
41
41
41
41
41
41
41
41
41
41
41
41
41
41
41
32
8
41
32
8
41
41
41
41
41
41
41
41
41
41
41
41
41
41
41
41
41
41
41
41
41
41
41
41
24
16
8
41
41
41
41
41
41
41
41
41
41
32
8
41
41
41
41
41
41
41
41
41
41
41
41
41
41
41
41
41
41
41
41
41
41
41
41
41
41
41
41
41
41
41
41
41
41
41
41
41
41
41
41
41
41
41
41
41
41
32
8
41
49
24
41
41
41
41
41
41
41
41
41
41
41
41
41
41
41
41
41
41
41
41
41
41
41
41
41
32
8
41
32
8
24
16
8
49
57
32
57
41
16
57
41
16
41
41
41
41
41
41
41
41
41
41
41
41
41
41
41
41
32
8
41
41
41
41
41
41
41
41
41
41
41
41
41
41
41
41
41
41
41
41
41
41
41
41
41
41
41
41
41
41
41
41
41
41
41
41
41
32
8
41
32
8
41
41
41
41
41
41
41
41
41
41
41
41
41
41
41
41
41
41
41
41
41
41
41
41
24
16
8
41
41
41
41
41
41
41
41
41
41
41
41
41
41
41
41
41
41
41
41
41
41
41
41
41
41
41
41
41
41
41
41
41
41
41
41
41
41
41
41
41
41
41
41
41
41
41
41
41
41
41
41
41
41
41
41
41
41
41
41
41
41
41
41
41
41
41
41
41
41
41
41
41
41
41
41
41
41
41
41
41
41
41
41
41
32
8
41
41
41
32
41
8
24
16
8
49
57
32
65
49
24
57
41
16
41
41
41
41
32
8
41
41
41
41
41
41
41
41
41
41
32
8
41
32
8
41
41
41
41
41
41
41
41
41
41
41
41
41
32
8
41
41
41
41
41
41
41
41
41
41
41
41
41
41
41
41
41
41
41
41
41
41
41
41
41
41
41
41
41
41
41
41
41
41
41
41
41
41
41
41
41
41
41
41
41
41
41
41
24
16
8
41
41
41
41
41
41
41
41
41
41
41
41
41
41
41
41
41
41
41
41
41
41
41
41
41
32
8
41
32
8
41
41
41
41
41
41
41
41
41
41
41
41
41
41
41
41
41
41
41
41
41
41
41
41
41
41
41
41
41
41
41
41
41
41
32
8
41
32
8
41
41
41
41
41
41
41
41
41
41
41
41
24
24
24
41
32
8
41
41
41
32
41
8
24
16
8
41
32
8
57
41
16
57
41
16
41
41
41
41
41
41
24
24
24
41
32
8
41
41
41
41
41
41
41
41
41
41
41
41
41
41
41
41
41
41
41
41
41
41
41
41
41
32
8
41
32
8
41
32
8
41
32
8
41
41
41
41
41
41
41
41
41
41
41
41
41
41
41
41
41
41
41
41
41
41
41
41
41
41
41
41
41
41
41
41
41
41
41
41
24
16
8
41
41
41
41
41
41
57
41
16
41
32
8
57
41
16
41
32
8
57
41
16
41
41
41
41
41
41
41
41
41
41
41
41
41
41
41
41
41
41
41
41
41
41
41
41
41
32
8
41
41
41
41
41
41
41
41
41
41
41
41
41
41
41
41
32
8
41
32
8
41
32
8
41
41
41
24
24
24
24
24
24
24
24
24
41
41
41
41
41
41
32
41
8
24
16
8
57
41
16
41
32
8
57
41
16
41
32
8
57
41
16
41
32
8
57
41
16
41
41
41
41
41
41
41
41
41
41
41
41
41
41
41
41
41
41
41
41
41
41
41
41
41
41
41
41
41
41
41
32
8
41
41
41
41
41
41
41
41
41
41
32
8
41
41
41
41
41
41
41
41
41
41
41
41
41
41
41
41
41
41
41
41
41
41
41
41
41
41
41
24
16
8
32
41
8
41
41
41
41
41
41
41
41
41
41
41
41
41
49
24
41
32
8
41
32
8
41
41
41
41
41
41
41
41
41
41
41
41
41
41
41
41
41
41
41
41
41
41
41
41
41
41
41
41
41
41
41
41
41
41
41
41
41
41
41
41
32
8
41
41
41
41
41
41
41
41
41
41
41
41
41
32
8
41
41
41
41
41
41
41
32
8
41
32
8
24
16
8
41
32
8
41
41
41
41
41
41
57
41
16
41
49
24
41
41
41
41
41
41
41
41
41
41
32
8
41
41
41
41
41
41
41
41
41
41
41
41
41
41
41
41
32
8
41
32
8
41
32
8
41
41
41
41
41
41
41
32
8
41
41
41
41
41
41
41
41
41
41
41
41
41
41
41
41
41
41
49
49
49
41
41
41
41
41
41
41
41
41
41
41
41
24
16
8
57
41
16
41
32
8
41
41
41
41
41
41
41
41
41
41
41
41
41
41
41
41
32
8
41
32
8
41
41
41
41
41
41
41
41
41
41
32
8
41
49
24
41
32
8
41
41
41
41
41
41
41
41
41
41
41
41
41
41
41
41
41
41
41
32
8
41
41
41
41
32
8
41
41
41
41
32
8
41
41
41
41
41
41
41
41
41
41
41
41
32
41
8
24
16
8
41
32
8
41
32
8
41
41
41
41
41
41
41
41
41
41
41
41
41
41
41
41
41
41
41
41
41
41
41
41
41
32
8
41
41
41
41
41
41
57
41
16
41
32
8
41
32
8
41
32
8
41
32
8
41
41
41
41
41
41
41
32
8
41
41
41
41
41
41
41
41
41
41
41
41
41
41
41
41
41
41
41
41
41
41
41
41
41
41
41
41
41
41
24
16
8
41
41
41
41
41
41
41
32
8
41
41
41
41
41
41
41
41
41
41
41
41
41
32
8
41
41
41
41
41
41
41
41
41
41
41
41
41
41
41
41
41
41
41
41
41
41
49
24
41
32
8
41
41
41
41
41
41
41
41
41
41
41
41
41
41
41
41
32
8
41
32
8
41
32
8
41
41
41
41
41
41
41
41
41
41
41
41
41
41
41
32
41
8
24
16
8
32
41
8
41
41
41
41
41
41
41
41
41
41
41
41
41
41
41
41
41
41
41
41
41
41
41
41
41
32
8
41
41
41
41
32
8
41
41
41
41
32
8
41
49
24
41
32
8
41
32
8
41
32
8
41
41
41
41
41
41
41
41
41
41
41
41
41
41
41
41
41
41
41
41
41
41
41
41
41
41
41
41
41
41
41
32
8
41
41
41
41
41
41
24
16
8
41
41
41
41
41
41
41
32
8
41
41
41
41
41
41
41
41
41
41
41
41
41
41
41
41
41
41
41
41
41
41
41
41
41
41
41
41
41
41
41
41
41
41
41
41
41
41
41
41
41
41
41
41
41
41
32
8
41
32
8
41
41
41
41
41
41
41
41
41
41
32
8
41
41
41
41
41
41
41
41
41
41
41
41
41
41
41
41
41
41
41
41
41
24
16
8
32
41
8
41
41
41
41
41
41
41
41
41
41
41
41
41
32
8
41
41
41
41
41
41
41
41
41
41
41
41
41
41
41
41
41
41
41
32
8
41
32
8
41
32
8
41
49
24
41
32
8
41
32
8
41
32
8
41
41
41
41
41
41
41
41
41
41
41
41
41
41
41
41
41
41
41
41
41
41
41
41
41
41
41
41
41
41
41
41
41
57
41
16
24
16
8
41
41
41
41
41
41
41
41
41
41
41
41
41
41
41
41
41
41
41
41
41
41
41
41
41
41
41
41
41
41
41
41
41
41
41
41
41
41
41
41
41
41
41
41
41
41
41
41
41
41
41
41
41
41
41
41
41
41
32
8
41
32
8
41
41
41
41
41
41
41
32
8
41
32
8
41
32
8
41
49
24
41
41
41
41
41
41
41
41
41
41
41
41
24
16
8
57
41
16
41
32
8
41
41
41
41
41
41
41
41
41
41
32
8
41
32
8
41
41
41
41
41
41
41
41
41
41
41
41
41
41
41
41
41
41
41
32
8
41
41
41
41
41
41
41
32
8
41
41
41
41
41
41
41
41
41
41
41
41
41
41
41
41
41
41
41
41
41
41
41
41
41
41
41
41
41
41
24
24
24
41
41
41
41
41
41
41
41
41
24
16
8
41
41
41
41
41
41
41
41
41
24
24
24
24
24
24
24
24
24
41
41
41
41
32
8
41
32
8
41
32
8
41
41
41
41
41
41
41
41
41
41
32
8
41
32
8
41
41
41
41
41
41
41
41
41
41
41
41
41
32
8
41
41
41
41
41
41
41
41
41
41
41
41
41
41
41
24
24
24
24
24
24
24
24
24
41
41
41
41
41
41
41
49
24
24
24
24
41
41
41
41
41
41
41
32
8
41
32
8
57
41
16
41
32
8
41
41
41
41
32
8
41
32
8
41
41
41
41
41
41
41
41
41
41
41
41
41
32
8
41
41
41
41
41
41
41
32
8
41
41
41
41
32
8
41
41
41
41
41
41
41
41
41
41
41
41
41
41
41
41
41
41
24
24
24
24
24
24
24
24
24
41
41
41
41
41
41
41
41
41
24
16
8
41
32
8
41
32
8
41
49
24
41
32
8
41
41
41
41
41
41
41
41
41
41
32
8
41
41
41
41
41
41
41
41
41
41
41
41
41
41
41
41
32
8
41
32
8
41
49
24
41
32
8
41
32
8
41
49
24
41
32
8
41
41
41
41
41
41
41
41
41
41
41
41
41
41
41
41
41
41
41
32
8
41
32
8
41
41
41
41
41
41
32
41
8
24
16
8
41
49
24
41
41
41
41
49
24
41
49
24
57
41
16
41
32
8
41
32
8
41
32
8
41
41
41
41
41
41
41
41
41
41
41
41
41
41
41
41
41
41
41
32
8
41
32
8
41
32
8
41
32
8
41
41
41
41
41
41
41
41
41
41
41
41
41
41
41
41
41
41
41
32
8
41
41
41
41
41
41
41
41
41
41
41
41
41
41
41
57
41
16
24
16
8
41
41
41
41
41
41
41
41
41
41
32
8
41
32
8
41
32
8
41
32
8
41
41
41
41
41
41
41
41
41
41
41
41
41
41
41
41
41
41
41
41
41
41
41
41
41
32
8
41
32
8
41
32
8
41
32
8
41
32
8
41
32
8
41
41
41
41
41
41
41
32
8
41
41
41
41
41
41
41
32
8
41
41
41
41
41
41
41
41
41
32
41
8
24
16
8
41
32
8
41
32
8
41
49
24
41
32
8
41
41
41
41
41
41
41
49
24
41
32
8
41
41
41
41
41
41
41
41
41
41
41
41
41
41
41
41
41
41
41
49
24
41
32
8
41
32
8
41
41
41
41
41
41
41
41
41
41
41
41
41
41
41
41
32
8
41
41
41
41
41
41
41
41
41
41
41
41
41
41
41
41
41
41
41
41
41
41
41
41
24
16
8
41
32
8
41
32
8
41
41
41
41
41
41
41
41
41
41
32
8
41
32
8
41
49
24
41
32
8
41
41
41
41
41
41
41
41
41
41
41
41
41
41
41
41
41
41
41
41
41
41
41
41
41
41
41
41
41
41
41
49
24
41
32
8
41
41
41
41
41
41
41
41
41
41
41
41
41
41
41
41
32
8
41
32
8
41
32
8
41
32
8
41
32
8
24
16
8
41
32
8
41
32
8
41
41
41
41
41
41
41
41
41
41
41
41
41
41
41
41
41
41
41
41
41
41
41
41
41
41
41
41
41
41
41
41
41
41
41
41
41
32
8
41
32
8
41
32
8
41
41
41
41
41
41
41
41
41
41
41
41
41
41
41
41
41
41
41
32
8
41
41
41
41
41
41
41
41
41
41
41
41
41
41
41
41
32
8
41
41
41
24
16
8
41
41
41
41
41
41
41
41
41
41
41
41
41
41
41
41
41
41
41
41
41
41
41
41
41
41
41
41
41
41
41
41
41
41
41
41
41
41
41
41
41
41
41
41
41
41
41
41
41
32
8
41
41
41
41
41
41
41
41
41
41
32
8
41
41
41
41
41
41
41
41
41
41
41
41
41
41
41
41
41
41
41
49
24
41
32
8
41
32
8
41
32
8
24
16
8
41
32
8
41
32
8
41
32
8
41
32
8
41
41
41
41
41
41
41
41
41
41
41
41
41
41
41
41
41
41
41
41
41
41
41
41
41
41
41
41
41
41
41
41
41
41
32
8
41
32
8
41
41
41
41
41
41
41
41
41
41
41
41
41
41
41
41
41
41
41
41
41
41
41
41
41
41
41
41
41
41
41
32
8
41
41
41
41
41
41
41
41
41
24
16
8
41
41
41
41
41
41
41
32
8
24
16
8
24
24
24
24
24
24
41
41
41
41
41
41
41
41
41
41
41
41
41
41
41
41
41
41
41
32
8
41
41
41
41
41
41
41
41
41
41
41
41
41
41
41
41
41
41
41
41
41
41
32
8
41
41
41
41
32
8
41
41
41
41
41
41
24
24
24
24
24
24
24
24
24
41
41
41
41
41
41
41
32
8
24
16
8
41
32
8
41
32
8
41
41
41
24
24
24
41
49
24
24
24
24
41
41
41
41
41
41
41
41
41
41
41
41
41
41
41
41
32
8
41
41
41
41
41
41
41
41
41
41
32
8
41
41
41
41
41
41
41
32
8
41
41
41
41
32
8
41
32
8
41
32
8
41
41
41
57
41
16
24
16
8
41
49
24
24
16
8
57
41
16
41
41
41
41
41
41
24
16
8
41
41
41
41
41
41
41
41
41
57
41
16
57
41
16
57
41
16
41
41
41
41
41
41
41
41
41
41
41
41
41
41
41
41
41
41
41
32
8
41
41
41
41
41
41
41
41
41
41
41
41
41
41
41
41
41
41
41
41
41
41
41
41
41
41
41
41
41
41
41
41
41
41
41
41
41
32
8
41
41
41
41
41
41
41
41
41
41
41
41
32
41
8
24
16
8
41
41
41
41
41
41
41
41
41
41
41
41
24
24
24
24
24
24
41
49
24
41
41
41
41
41
41
41
41
41
41
41
41
41
41
41
41
32
8
41
41
41
41
41
41
41
41
41
41
41
41
41
32
8
41
32
8
41
41
41
41
41
41
41
32
8
41
41
41
41
41
41
41
41
41
57
41
16
57
41
16
57
41
16
57
41
16
41
41
41
41
41
41
24
16
8
41
41
41
41
41
41
41
41
41
41
41
41
41
41
41
41
41
41
41
41
41
41
32
8
41
41
41
41
41
41
41
41
41
41
41
41
41
41
41
41
41
41
41
41
41
41
41
41
41
41
41
41
41
41
41
41
41
41
41
41
41
41
41
41
41
41
41
41
41
41
41
41
41
41
41
41
41
41
41
32
8
41
41
41
41
41
41
41
41
41
41
41
41
24
24
24
41
41
41
41
41
41
41
41
41
41
32
8
41
32
8
41
41
41
41
32
8
41
41
41
41
32
8
41
41
41
41
41
41
41
41
41
41
41
41
41
41
41
41
41
41
41
41
41
41
41
41
41
32
8
41
41
41
41
32
8
41
32
8
41
32
8
41
41
41
41
41
41
41
41
41
41
41
41
41
32
8
41
41
41
41
41
41
41
41
41
57
41
16
24
16
8
41
41
41
41
41
41
41
41
41
41
41
41
41
32
8
41
32
8
41
41
41
41
41
41
41
41
41
41
41
41
41
41
41
41
41
41
41
41
41
41
41
41
41
41
41
41
41
41
41
41
41
41
41
41
41
41
41
41
41
41
41
32
8
41
32
8
41
41
41
41
41
41
41
41
41
41
41
41
41
41
41
41
41
41
41
41
41
41
41
41
41
41
41
24
24
24
41
41
41
41
41
41
41
41
41
41
32
8
41
32
8
41
41
41
41
41
41
41
41
41
41
32
8
41
49
24
41
32
8
41
41
41
41
41
41
41
41
41
41
41
41
41
41
41
41
41
41
41
32
8
41
41
41
41
49
24
41
32
8
41
41
41
41
41
41
41
41
41
41
41
41
41
32
8
41
41
41
41
41
41
41
41
41
41
41
41
41
41
41
24
16
8
41
41
41
41
41
41
41
41
41
41
41
41
41
41
41
41
41
41
41
41
41
41
41
41
41
41
41
41
41
41
41
41
41
41
41
41
41
41
41
41
41
41
41
41
41
41
41
41
41
41
41
41
41
41
41
41
41
41
41
41
41
41
41
41
41
41
41
41
41
41
41
41
41
41
41
41
41
41
41
41
41
41
41
41
41
41
41
41
41
41
41
49
24
24
24
24
41
41
41
41
41
41
41
41
41
41
41
41
41
41
41
41
41
41
41
32
8
41
41
41
41
41
41
41
32
8
41
41
41
41
41
41
41
41
41
41
32
8
41
32
8
41
41
41
41
41
41
41
41
41
41
41
41
41
32
8
41
41
41
41
32
8
41
41
41
41
41
41
41
41
41
41
41
41
41
41
41
41
41
41
41
41
41
41
41
41
41
41
41
24
16
8
41
41
41
41
41
41
41
32
8
24
24
24
41
41
41
41
41
41
41
41
41
41
41
41
41
32
8
41
32
8
41
41
41
41
41
41
41
32
8
41
41
41
41
41
41
41
41
41
41
41
41
41
41
41
41
41
41
41
41
41
41
32
8
41
32
8
41
32
8
41
41
41
41
41
41
41
41
41
41
41
41
41
41
41
41
41
41
41
32
8
41
32
8
24
24
24
49
49
49
41
41
41
41
41
41
41
41
41
41
49
24
41
32
8
41
41
41
41
41
41
41
32
8
41
49
24
41
41
41
41
41
41
41
41
41
41
32
8
24
24
24
41
41
41
41
32
8
41
41
41
41
41
41
41
41
41
41
41
41
41
41
41
41
32
8
41
41
41
41
32
8
41
32
8
41
41
41
41
41
41
41
41
41
41
41
41
41
41
41
24
16
8
41
41
41
41
41
41
41
49
24
41
32
8
24
24
24
24
24
24
41
41
41
41
41
41
41
41
41
41
41
41
41
41
41
41
41
41
41
41
41
41
41
41
24
24
24
24
24
24
41
32
8
41
32
8
41
41
41
41
41
41
41
32
8
41
32
8
41
32
8
41
41
41
41
41
41
24
24
24
24
24
24
24
24
24
41
41
41
41
41
41
41
32
8
24
16
8
41
41
41
41
41
41
41
41
41
24
24
24
41
32
8
24
24
24
41
41
41
41
41
41
41
41
41
41
32
8
41
41
41
41
41
41
41
41
41
41
41
41
24
24
24
24
24
24
24
24
24
41
32
8
41
41
41
41
41
41
41
41
41
41
41
41
41
41
41
41
41
41
41
41
41
24
24
24
24
24
24
24
24
24
41
41
41
41
41
41
41
41
41
24
16
8
32
41
8
32
41
8
32
41
8
32
41
8
32
41
8
32
41
8
32
41
8
32
41
8
32
41
8
32
41
8
32
41
8
32
41
8
32
41
8
32
41
8
41
32
8
41
32
8
32
41
8
41
32
8
41
32
8
41
32
8
41
32
8
41
32
8
41
32
8
32
41
8
32
41
8
32
41
8
32
41
8
32
41
8
32
41
8
32
41
8
32
41
8
24
16
8
41
32
8
32
41
8
32
41
8
32
41
8
41
32
8
41
32
8
32
41
8
32
41
8
32
41
8
32
41
8
32
41
8
32
41
8
41
32
8
32
41
8
32
41
8
32
41
8
32
41
8
32
41
8
32
41
8
32
41
8
41
32
8
32
41
8
32
41
8
32
41
8
32
41
8
32
41
8
32
41
8
32
41
8
41
32
8
32
41
8
32
41
8
24
16
8
49
57
32
41
41
41
41
41
41
41
41
41
41
41
41
41
32
8
41
32
8
41
41
41
41
41
41
57
41
16
41
49
24
49
57
32
41
49
24
57
41
16
41
41
41
41
32
8
41
41
41
41
41
41
41
49
24
41
32
8
41
49
24
41
32
8
57
41
16
41
41
41
41
41
41
41
32
8
41
49
24
41
49
24
41
49
24
57
41
16
41
32
8
24
16
8
49
57
32
49
57
32
41
41
41
41
41
41
41
41
41
41
32
8
41
32
8
41
41
41
41
49
24
41
49
24
41
49
24
41
49
24
41
49
24
41
49
24
41
49
24
57
41
16
41
49
24
41
49
24
41
49
24
41
32
8
41
49
24
41
32
8
57
41
16
41
41
41
41
41
41
41
41
41
41
41
41
41
49
24
41
32
8
41
41
41
49
57
32
24
16
8
49
49
49
41
41
41
41
41
41
24
24
24
41
49
24
24
16
8
41
32
8
41
41
41
41
32
8
41
41
41
41
41
41
41
49
24
41
32
8
41
49
24
24
24
24
41
41
41
24
24
24
41
41
41
41
41
41
41
41
41
41
41
41
41
41
41
41
41
41
41
41
41
41
41
41
24
24
24
41
41
41
24
16
8
41
32
8
41
41
41
41
41
41
24
24
24
49
57
32
41
41
41
41
41
41
24
24
24
41
49
24
24
16
8
41
32
8
41
41
41
41
32
8
41
41
41
41
41
41
41
41
41
41
32
8
41
32
8
24
16
8
41
41
41
41
32
8
57
41
16
41
49
24
41
41
41
41
41
41
41
41
41
41
41
41
41
41
41
41
41
41
24
24
24
41
41
41
24
24
24
41
41
41
41
41
41
41
41
41
24
16
8
41
41
41
41
41
41
41
32
8
41
41
41
41
32
8
41
41
41
41
41
41
41
41
41
41
41
41
41
41
41
41
41
41
41
41
41
41
41
41
41
41
41
41
41
41
41
41
41
41
41
41
41
41
41
41
41
41
41
41
41
41
32
8
41
32
8
41
32
8
41
41
41
41
41
41
41
41
41
41
41
41
41
41
41
41
49
24
41
32
8
41
49
24
24
24
24
49
57
32
41
41
41
41
32
8
41
41
41
41
32
8
41
41
41
41
41
41
41
41
41
41
41
41
41
41
41
41
41
41
41
41
41
41
41
41
41
49
24
57
41
16
57
41
16
57
41
16
57
41
16
41
41
41
41
41
41
41
32
8
41
32
8
41
32
8
41
49
24
41
32
8
57
41
16
57
41
16
57
41
16
41
32
8
41
41
41
41
41
41
24
16
8
41
41
41
41
41
41
41
41
41
41
41
41
41
41
41
41
41
41
41
32
8
41
41
41
41
41
41
41
32
8
41
32
8
41
41
41
41
41
41
41
41
41
41
41
41
41
41
41
41
41
41
41
41
41
41
41
41
41
32
8
41
32
8
41
32
8
41
41
41
41
41
41
41
41
41
41
41
41
41
41
41
41
41
41
41
32
8
41
32
8
41
32
8
24
16
8
49
57
32
41
41
41
41
41
41
41
41
41
41
41
41
41
41
41
41
32
8
41
41
41
41
41
41
41
32
8
41
32
8
41
41
41
41
41
41
41
41
41
41
41
41
41
41
41
41
41
41
41
41
41
41
41
41
41
32
8
41
32
8
41
32
8
41
41
41
41
32
8
41
32
8
41
41
41
41
41
41
41
41
41
41
41
41
41
41
41
41
41
41
24
16
8
41
49
24
41
41
41
41
41
41
41
41
41
41
41
41
41
41
41
41
41
41
41
41
41
41
41
41
41
32
8
41
41
41
41
32
8
41
41
41
41
41
41
41
41
41
41
41
41
41
32
8
41
41
41
41
41
41
41
41
41
41
41
41
41
41
41
41
32
8
41
32
8
41
32
8
41
41
41
41
41
41
41
41
41
41
41
41
41
49
24
57
41
16
24
16
8
65
49
24
41
41
41
41
41
41
41
41
41
41
41
41
41
41
41
41
41
41
41
41
41
41
41
41
41
32
8
41
41
41
41
32
8
41
41
41
41
41
41
41
41
41
41
41
41
41
32
8
41
41
41
41
41
41
41
41
41
41
41
41
41
41
41
41
32
8
41
41
41
41
32
8
41
41
41
41
41
41
41
32
8
41
41
41
41
41
41
41
41
41
24
16
8
41
32
8
41
32
8
41
41
41
41
41
41
41
41
41
41
41
41
41
41
41
41
41
41
41
41
41
41
32
8
41
32
8
41
32
8
41
41
41
41
41
41
41
41
41
41
41
41
41
32
8
41
32
8
41
41
41
41
41
41
41
41
41
41
41
41
41
41
41
41
32
8
41
41
41
41
41
41
41
41
41
41
41
41
41
41
41
41
32
8
41
32
8
24
16
8
65
49
24
41
32
8
41
41
41
41
41
41
41
41
41
41
41
41
41
41
41
41
41
41
41
41
41
41
32
8
41
32
8
41
32
8
41
41
41
41
41
41
41
41
41
41
41
41
41
32
8
41
32
8
41
41
41
41
41
41
41
41
41
41
41
41
41
41
41
41
41
41
41
41
41
41
41
41
41
41
41
41
41
41
41
32
8
41
49
24
57
41
16
24
16
8
41
41
41
41
41
41
41
41
41
41
41
41
41
41
41
41
41
41
41
41
41
41
41
41
41
41
41
41
41
41
41
41
41
41
41
41
41
41
41
41
41
41
41
41
41
41
41
41
41
49
24
41
32
8
41
32
8
41
32
8
41
41
41
41
41
41
41
41
41
41
41
41
41
41
41
41
41
41
41
41
41
41
41
41
41
32
8
41
41
41
32
41
8
24
16
8
57
41
16
41
41
41
41
41
41
41
41
41
41
41
41
41
41
41
41
41
41
41
41
41
41
41
41
41
41
41
41
41
41
41
41
41
41
41
41
41
41
41
41
41
41
41
41
41
41
49
24
41
32
8
41
32
8
41
32
8
41
41
41
41
41
41
41
41
41
41
41
41
41
41
41
41
41
41
41
41
41
41
41
41
41
41
41
41
32
8
41
41
41
24
16
8
41
41
41
41
41
41
41
41
41
24
24
24
41
41
41
24
24
24
41
49
24
41
41
41
41
41
41
41
32
8
41
49
24
41
32
8
41
41
41
41
32
8
41
32
8
41
32
8
41
41
41
41
41
41
41
41
41
41
41
41
41
41
41
41
41
41
41
41
41
41
41
41
41
49
24
24
24
24
41
41
41
24
24
24
41
41
41
41
41
41
41
49
24
24
24
24
41
41
41
41
41
41
41
41
41
24
24
24
24
24
24
24
24
24
41
49
24
41
41
41
41
41
41
41
32
8
41
49
24
41
32
8
41
41
41
41
32
8
41
32
8
41
32
8
41
41
41
41
41
41
41
41
41
41
41
41
41
41
41
41
41
41
41
41
41
41
41
41
57
41
16
24
16
8
41
49
24
24
16
8
57
41
16
41
41
41
41
41
41
24
16
8
41
41
41
41
41
41
41
41
41
41
41
41
41
41
41
41
41
41
41
41
41
41
41
41
41
41
41
41
41
41
41
41
41
41
41
41
41
32
8
41
32
8
41
32
8
41
41
41
41
41
41
41
41
41
41
41
41
41
32
8
41
41
41
41
49
24
41
32
8
41
49
24
41
49
24
41
32
8
41
41
41
41
41
41
41
41
41
41
41
41
41
41
41
24
24
24
41
41
41
41
41
41
41
41
41
41
41
41
41
41
41
41
41
41
41
41
41
41
41
41
41
41
41
41
41
41
41
41
41
41
41
41
41
32
8
41
32
8
41
32
8
41
41
41
41
41
41
41
41
41
41
41
41
41
32
8
41
41
41
41
49
24
41
32
8
41
41
41
41
41
41
57
41
16
57
41
16
57
41
16
57
41
16
41
41
41
41
41
41
24
16
8
41
41
41
41
41
41
41
41
41
41
41
41
41
41
41
41
41
41
41
41
41
41
32
8
41
41
41
41
41
41
41
41
41
41
41
41
41
41
41
41
32
8
41
32
8
41
41
41
41
41
41
41
49
24
41
32
8
41
41
41
41
41
41
41
32
8
41
32
8
41
41
41
41
32
8
41
32
8
41
32
8
41
41
41
41
41
41
41
41
41
41
41
41
24
24
24
41
41
41
41
41
41
41
41
41
41
41
41
41
41
41
41
41
41
41
41
41
41
32
8
41
41
41
41
41
41
41
41
41
41
41
41
41
41
41
41
32
8
41
32
8
41
41
41
41
41
41
41
49
24
41
32
8
41
41
41
41
41
41
41
32
8
41
32
8
41
41
41
41
41
41
41
32
8
41
41
41
41
41
41
41
41
41
41
41
41
41
41
41
24
16
8
41
41
41
41
41
41
41
32
8
41
41
41
41
41
41
41
41
41
41
41
41
41
41
41
41
41
41
41
32
8
41
41
41
41
41
41
41
41
41
41
41
41
41
32
8
41
32
8
41
32
8
41
32
8
41
49
24
41
32
8
41
32
8
41
49
24
41
32
8
41
41
41
41
41
41
41
41
41
41
32
8
41
41
41
41
41
41
41
41
41
41
49
24
24
24
24
41
41
41
41
41
41
41
32
8
41
41
41
41
41
41
41
41
41
41
41
41
41
41
41
41
41
41
41
32
8
41
41
41
41
41
41
41
41
41
41
41
41
41
32
8
41
32
8
41
32
8
41
32
8
41
32
8
41
32
8
41
32
8
41
49
24
41
32
8
41
41
41
41
41
41
41
32
8
41
32
8
41
41
41
41
41
41
41
41
41
57
41
16
24
16
8
57
41
16
41
32
8
41
41
41
41
41
41
41
41
41
41
41
41
41
41
41
41
41
41
41
32
8
41
41
41
41
41
41
41
41
41
41
41
41
41
41
41
41
41
41
41
32
8
41
32
8
41
32
8
41
41
41
41
32
8
41
41
41
41
32
8
41
32
8
41
32
8
41
41
41
41
41
41
41
41
41
41
41
41
41
41
41
41
49
24
41
32
8
24
16
8
57
41
16
41
32
8
41
41
41
41
41
41
41
41
41
41
41
41
41
41
41
41
41
41
41
32
8
41
41
41
41
41
41
41
41
41
41
41
41
41
41
41
41
41
41
41
32
8
41
32
8
41
32
8
41
41
41
41
32
8
41
41
41
41
32
8
41
32
8
41
41
41
41
32
8
41
41
41
41
41
41
41
41
41
41
41
41
41
41
41
57
41
16
24
16
8
41
32
8
41
49
24
41
49
24
41
32
8
41
41
41
41
41
41
41
41
41
41
41
41
41
41
41
41
32
8
41
41
41
41
41
41
41
32
8
41
41
41
41
41
41
41
49
24
41
32
8
41
32
8
41
41
41
41
41
41
41
41
41
41
32
8
41
41
41
41
41
41
41
41
41
41
32
8
41
41
41
41
41
41
41
41
41
41
41
41
41
32
8
24
16
8
41
32
8
41
41
41
41
41
41
41
32
8
41
41
41
41
41
41
41
41
41
41
41
41
41
41
41
41
32
8
41
41
41
41
41
41
41
32
8
41
41
41
41
41
41
41
49
24
41
32
8
41
32
8
41
41
41
41
41
41
41
41
41
41
32
8
41
41
41
41
41
41
41
41
41
24
24
24
41
41
41
41
41
41
41
41
41
41
41
41
41
41
41
24
16
8
41
41
41
41
41
41
57
41
16
41
32
8
57
41
16
41
32
8
57
41
16
41
41
41
41
41
41
41
49
24
41
32
8
41
41
41
41
41
41
41
41
41
41
41
41
41
41
41
41
41
41
41
41
41
41
41
41
41
49
24
41
32
8
41
32
8
41
41
41
41
41
41
41
32
8
24
24
24
24
24
24
41
32
8
41
41
41
41
41
41
41
41
41
24
24
24
41
41
41
41
41
41
41
41
41
24
24
24
24
24
24
24
24
24
41
41
41
41
41
41
41
41
41
41
49
24
41
32
8
41
41
41
41
41
41
41
41
41
41
41
41
41
41
41
41
41
41
41
41
41
41
41
41
41
49
24
41
32
8
41
32
8
41
41
41
41
41
41
41
41
41
24
24
24
41
32
8
24
24
24
41
41
41
41
32
8
41
41
41
24
16
8
41
32
8
41
41
41
41
41
41
41
41
41
57
41
16
57
41
16
41
49
24
41
49
24
41
32
8
41
32
8
41
41
41
41
41
41
41
41
41
41
41
41
41
41
41
41
41
41
41
41
41
41
41
41
41
41
41
41
41
41
41
41
41
41
41
41
41
41
41
41
32
8
41
41
41
41
41
41
41
41
41
41
41
41
41
41
41
41
32
8
41
41
41
24
16
8
41
32
8
41
41
41
41
41
41
41
41
41
41
32
8
41
41
41
41
41
41
41
41
41
41
32
8
41
32
8
41
41
41
41
41
41
41
41
41
41
41
41
41
41
41
41
41
41
41
41
41
41
41
41
41
41
41
41
41
41
41
41
41
41
41
41
41
41
41
41
41
41
41
41
41
41
32
8
41
49
24
41
32
8
41
41
41
41
41
41
41
41
41
24
16
8
41
32
8
41
32
8
41
41
41
41
41
41
41
41
41
41
41
41
41
41
41
41
32
8
41
32
8
41
32
8
41
32
8
41
41
41
41
41
41
41
41
41
41
41
41
41
41
41
41
41
41
41
41
41
41
41
41
41
41
41
41
32
8
41
41
41
41
41
41
41
41
41
41
41
41
41
41
41
41
41
41
41
41
41
41
32
8
41
41
41
41
41
41
24
16
8
41
32
8
41
32
8
41
41
41
41
41
41
41
41
41
41
41
41
41
41
41
41
32
8
41
32
8
41
32
8
41
32
8
41
41
41
41
41
41
41
41
41
41
41
41
41
41
41
41
41
41
41
41
41
41
41
41
41
41
41
41
32
8
41
41
41
41
41
41
41
41
41
41
41
41
41
41
41
41
41
41
41
41
41
41
41
41
41
41
41
41
41
41
24
16
8
41
32
8
41
32
8
41
41
41
41
32
8
41
32
8
41
32
8
41
41
41
41
41
41
41
41
41
41
41
41
41
32
8
41
41
41
41
41
41
41
32
8
41
41
41
41
41
41
41
41
41
41
41
41
41
41
41
41
32
8
41
41
41
41
41
41
41
41
41
41
32
8
41
41
41
41
41
41
41
32
8
41
41
41
41
41
41
41
41
41
41
41
41
24
16
8
41
32
8
41
32
8
41
41
41
41
32
8
41
32
8
41
32
8
41
41
41
41
41
41
41
41
41
41
41
41
41
32
8
41
41
41
41
41
41
41
32
8
41
41
41
41
41
41
41
41
41
41
41
41
41
41
41
41
32
8
41
41
41
41
41
41
41
41
41
41
41
41
41
41
41
41
41
41
41
41
41
41
41
41
41
41
41
41
41
41
41
41
41
24
16
8
32
41
8
41
41
41
41
41
41
41
49
24
41
32
8
41
49
24
41
41
41
41
32
8
41
49
24
41
41
41
41
41
41
41
41
41
41
41
41
41
41
41
41
32
8
41
32
8
41
32
8
41
49
24
41
41
41
41
41
41
41
41
41
41
41
41
41
32
8
41
32
8
41
32
8
41
41
41
41
41
41
41
41
41
41
41
41
41
41
41
41
41
41
24
16
8
32
41
8
41
41
41
41
41
41
41
49
24
41
32
8
41
49
24
41
41
41
41
32
8
41
49
24
41
41
41
41
41
41
41
41
41
41
41
41
41
41
41
41
32
8
41
32
8
41
32
8
41
49
24
41
41
41
41
41
41
41
41
41
41
41
41
41
32
8
41
32
8
41
49
24
41
32
8
41
41
41
41
41
41
41
41
41
41
41
41
41
41
41
24
16
8
32
41
8
41
49
24
41
41
41
41
32
8
41
49
24
41
41
41
41
41
41
41
41
41
41
49
24
41
49
24
41
41
41
41
41
41
41
32
8
41
41
41
41
32
8
41
32
8
41
41
41
41
41
41
41
49
24
41
32
8
41
41
41
41
41
41
41
41
41
41
32
8
41
32
8
24
24
24
41
41
41
41
32
8
41
32
8
41
32
8
32
41
8
24
16
8
32
41
8
41
49
24
41
41
41
41
32
8
41
49
24
24
24
24
41
41
41
41
41
41
41
49
24
41
49
24
41
41
41
41
41
41
41
32
8
41
41
41
41
32
8
41
32
8
41
41
41
41
41
41
41
49
24
41
32
8
41
41
41
41
41
41
41
41
41
41
41
41
41
41
41
41
32
8
41
41
41
41
32
8
41
32
8
41
41
41
41
41
41
24
16
8
41
32
8
41
32
8
41
41
41
24
24
24
41
32
8
24
24
24
41
41
41
41
41
41
41
32
8
41
41
41
41
41
41
41
41
41
41
41
41
41
41
41
41
32
8
41
32
8
41
32
8
41
41
41
41
41
41
41
41
41
41
41
41
41
32
8
41
41
41
41
41
41
57
41
16
41
32
8
57
41
16
41
32
8
57
41
16
41
41
41
41
41
41
24
16
8
41
32
8
41
32
8
41
41
41
41
32
8
57
41
16
41
32
8
41
41
41
41
41
41
41
32
8
41
41
41
41
41
41
41
41
41
41
41
41
41
41
41
41
32
8
41
32
8
41
32
8
41
41
41
41
41
41
41
41
41
41
41
41
41
32
8
41
41
41
41
41
41
41
41
41
41
32
8
41
32
8
24
24
24
41
41
41
41
41
41
41
41
41
24
16
8
32
41
8
41
41
41
41
41
41
41
41
41
41
32
8
41
41
41
41
32
8
41
41
41
41
41
41
41
41
41
41
41
41
41
49
24
41
32
8
41
32
8
41
32
8
41
41
41
41
41
41
41
32
8
41
41
41
41
41
41
41
41
41
41
32
8
41
41
41
41
41
41
41
41
41
41
49
24
57
41
16
41
49
24
41
41
41
41
41
41
41
41
41
24
16
8
32
41
8
41
41
41
41
41
41
41
49
24
57
41
16
41
49
24
41
32
8
41
41
41
41
41
41
41
41
41
41
41
41
41
49
24
41
32
8
41
32
8
41
32
8
41
41
41
41
41
41
41
32
8
41
41
41
41
41
41
41
41
41
41
32
8
41
41
41
41
41
41
41
41
41
41
49
24
41
32
8
41
49
24
41
32
8
41
49
24
41
32
8
24
16
8
41
41
41
41
41
41
41
32
8
41
41
41
41
41
41
41
41
41
41
41
41
41
41
41
41
41
41
41
41
41
41
32
8
41
49
24
41
41
41
41
41
41
41
41
41
41
41
41
41
41
41
41
32
8
41
41
41
41
41
41
41
41
41
41
41
41
41
41
41
41
41
41
41
32
8
41
32
8
41
49
24
41
32
8
41
41
41
41
41
41
41
41
41
24
24
24
41
41
41
41
41
41
41
32
8
41
41
41
41
41
41
41
41
41
41
41
41
41
41
41
41
41
41
41
41
41
41
32
8
41
49
24
41
41
41
41
41
41
41
41
41
41
41
41
41
41
41
41
32
8
41
41
41
41
41
41
41
41
41
41
41
41
41
49
24
41
32
8
41
32
8
41
32
8
41
41
41
41
41
41
41
41
41
41
32
8
41
32
8
24
16
8
41
49
24
41
41
41
41
32
8
41
41
41
41
41
41
41
41
41
41
41
41
41
41
41
41
41
41
41
41
41
41
41
41
41
41
41
41
49
24
41
32
8
41
41
41
41
41
41
41
32
8
41
32
8
41
41
41
41
41
41
41
32
8
41
49
24
41
41
41
41
41
41
41
41
41
41
32
8
41
41
41
41
41
41
41
41
41
41
41
41
41
41
41
24
24
24
41
49
24
41
41
41
41
32
8
41
41
41
41
41
41
41
41
41
41
41
41
41
41
41
41
41
41
41
41
41
41
41
41
41
41
41
41
49
24
41
32
8
41
41
41
41
41
41
41
32
8
41
32
8
41
41
41
41
41
41
41
32
8
41
49
24
41
49
24
41
32
8
41
41
41
41
41
41
41
41
41
41
41
41
41
41
41
41
32
8
57
41
16
24
16
8
57
41
16
41
41
41
41
41
41
41
41
41
41
41
41
41
41
41
41
41
41
41
41
41
41
32
8
41
41
41
41
41
41
41
41
41
41
41
41
41
41
41
41
41
41
41
41
41
41
41
41
41
41
41
41
41
41
41
41
41
41
41
41
41
41
41
41
32
8
41
41
41
41
41
41
41
41
41
41
41
41
41
32
8
41
32
8
41
49
24
41
32
8
24
16
8
57
41
16
41
41
41
41
41
41
41
41
41
57
41
16
41
49
24
41
41
41
41
41
41
41
32
8
41
41
41
41
41
41
41
41
41
41
41
41
41
41
41
41
41
41
41
41
41
41
41
41
41
41
41
41
41
41
41
41
41
41
41
41
41
41
41
41
32
8
41
41
41
41
41
41
41
41
41
41
41
41
41
41
41
41
41
41
41
49
24
57
41
16
24
16
8
57
41
16
41
32
8
41
32
8
24
16
8
41
49
24
24
24
24
41
41
41
41
41
41
41
41
41
41
41
41
41
41
41
41
41
41
41
41
41
41
32
8
41
41
41
41
41
41
41
41
41
41
41
41
41
41
41
41
41
41
41
41
41
41
41
41
41
32
8
41
41
41
41
49
24
24
24
24
41
49
24
24
16
8
41
32
8
41
32
8
41
32
8
24
16
8
57
41
16
41
32
8
41
32
8
41
32
8
24
24
24
41
32
8
65
49
24
41
41
41
41
41
41
41
41
41
41
41
41
41
41
41
41
41
41
41
32
8
41
41
41
41
41
41
41
41
41
41
41
41
41
41
41
41
41
41
41
41
41
41
41
41
41
32
8
41
41
41
41
41
41
24
24
24
24
24
24
24
24
24
41
41
41
41
41
41
41
41
41
24
16
8
41
32
8
41
32
8
41
41
41
41
41
41
41
41
41
41
32
8
41
32
8
41
41
41
41
32
8
41
41
41
41
41
41
41
41
41
41
41
41
41
32
8
41
41
41
41
41
41
41
41
41
41
41
41
41
41
41
41
41
41
41
41
41
41
41
41
41
32
8
41
41
41
41
41
41
41
41
41
41
32
8
41
49
24
41
32
8
41
41
41
41
49
24
24
16
8
41
32
8
41
32
8
41
49
24
41
49
24
57
41
16
57
41
16
57
41
16
41
41
41
41
32
8
41
41
41
41
41
41
41
41
41
41
41
41
41
32
8
41
41
41
41
41
41
41
41
41
41
41
41
41
41
41
41
41
41
41
41
41
41
41
41
41
32
8
41
41
41
41
41
41
41
32
8
41
41
41
41
41
41
41
41
41
41
41
41
41
32
8
24
16
8
32
41
8
41
41
41
41
41
41
41
41
41
41
41
41
41
32
8
41
49
24
41
32
8
41
41
41
41
41
41
41
41
41
41
41
41
41
41
41
41
32
8
41
41
41
41
41
41
41
41
41
41
41
41
41
32
8
41
41
41
41
41
41
41
41
41
41
41
41
41
41
41
41
41
41
41
41
41
41
41
41
41
49
24
41
32
8
41
41
41
41
41
41
24
16
8
32
41
8
41
41
41
41
41
41
41
41
41
41
41
41
41
32
8
41
32
8
41
32
8
41
41
41
41
41
41
41
41
41
41
41
41
41
41
41
41
32
8
41
41
41
41
41
41
41
41
41
41
41
41
41
32
8
41
41
41
41
41
41
41
41
41
41
41
41
41
32
8
41
41
41
41
41
41
41
41
41
41
41
41
41
41
41
41
41
41
57
41
16
24
16
8
32
41
8
41
41
41
41
32
8
41
32
8
41
32
8
41
49
24
41
32
8
41
49
24
41
41
41
41
41
41
41
41
41
41
41
41
41
32
8
41
32
8
41
32
8
41
41
41
41
41
41
41
41
41
41
32
8
41
41
41
41
41
41
41
41
41
41
41
41
41
32
8
41
41
41
41
41
41
41
41
41
41
32
8
41
32
8
41
49
24
32
41
8
24
16
8
41
49
24
41
41
41
41
32
8
41
32
8
41
32
8
41
49
24
41
41
41
41
41
41
41
41
41
41
41
41
41
41
41
41
41
41
41
41
41
41
49
24
41
32
8
41
41
41
41
41
41
41
41
41
41
32
8
41
41
41
41
41
41
41
41
41
41
41
41
41
32
8
41
32
8
41
41
41
41
41
41
41
41
41
41
41
41
41
41
41
41
41
41
24
16
8
41
49
24
41
32
8
41
32
8
41
41
41
41
41
41
41
41
41
41
41
41
41
41
41
41
41
41
41
41
41
41
41
41
41
41
41
41
41
41
41
41
41
41
41
41
41
41
41
41
41
41
41
41
41
41
41
41
41
41
41
41
32
8
41
32
8
41
32
8
41
41
41
41
41
41
41
41
41
41
41
41
41
32
8
41
41
41
41
41
41
32
41
8
24
16
8
41
41
41
41
32
8
41
41
41
41
41
41
41
41
41
41
32
8
41
49
24
41
32
8
41
41
41
41
41
41
41
41
41
41
41
41
41
49
24
41
32
8
41
41
41
41
41
41
41
32
8
41
49
24
41
32
8
41
41
41
41
41
41
41
41
41
41
32
8
41
41
41
41
41
41
41
41
41
41
32
8
41
41
41
41
41
41
41
41
41
41
41
41
24
16
8
41
32
8
41
41
41
41
41
41
41
41
41
41
49
24
41
32
8
41
41
41
41
41
41
41
32
8
41
41
41
41
41
41
41
41
41
41
41
41
41
32
8
24
24
24
41
49
24
41
41
41
41
41
41
41
41
41
41
41
41
41
41
41
41
41
41
41
41
41
41
41
41
41
41
41
41
32
8
41
41
41
41
32
8
41
41
41
41
41
41
41
41
41
24
24
24
41
41
41
41
41
41
41
41
41
41
41
41
41
41
41
41
32
8
41
41
41
41
41
41
41
41
41
41
41
41
41
41
41
41
41
41
41
32
8
41
32
8
41
32
8
41
49
24
41
32
8
41
41
41
41
32
8
41
41
41
41
32
8
41
41
41
41
32
8
41
41
41
41
32
8
24
24
24
41
41
41
41
32
8
41
41
41
41
41
41
57
41
16
24
16
8
41
32
8
41
41
41
41
41
41
24
24
24
41
32
8
24
24
24
41
41
41
41
41
41
41
49
24
41
49
24
41
32
8
41
41
41
41
41
41
41
41
41
24
24
24
24
24
24
24
24
24
41
41
41
41
41
41
41
41
41
41
41
41
41
49
24
41
32
8
41
41
41
41
41
41
24
24
24
24
24
24
24
24
24
41
41
41
41
41
41
41
41
41
24
24
24
41
49
24
41
41
41
41
41
41
41
32
8
24
24
24
41
32
8
41
41
41
41
41
41
41
41
41
41
41
41
41
32
8
41
41
41
41
41
41
41
41
41
41
32
8
57
41
16
41
32
8
41
32
8
41
32
8
41
41
41
41
32
8
41
32
8
41
41
41
41
32
8
41
49
24
24
24
24
24
24
24
24
24
24
41
41
41
41
41
41
49
57
32
32
41
8
32
41
8
32
41
8
32
41
8
32
41
8
32
41
8
32
41
8
32
41
8
32
41
8
32
41
8
32
41
8
32
41
8
41
32
8
32
41
8
32
41
8
32
41
8
32
41
8
32
41
8
32
41
8
32
41
8
32
41
8
32
41
8
41
32
8
41
32
8
32
41
8
32
41
8
32
41
8
41
32
8
41
32
8
41
32
8
41
32
8
41
32
8
24
16
8
41
49
24
41
49
24
41
49
24
41
32
8
41
32
8
41
32
8
32
41
8
32
41
8
32
41
8
32
41
8
41
32
8
32
41
8
32
41
8
32
41
8
41
32
8
41
32
8
41
32
8
41
32
8
32
41
8
32
41
8
32
41
8
32
41
8
41
32
8
32
41
8
32
41
8
41
32
8
32
41
8
32
41
8
32
41
8
32
41
8
32
41
8
