P3
# Created by GIMP version 2.10.38 PNM plug-in
64 64
255
82
82
82
82
82
82
82
82
82
82
82
82
90
90
90
82
82
82
82
82
82
82
82
82
90
90
90
82
82
82
82
82
82
82
82
82
82
82
82
82
82
82
82
82
82
82
82
82
82
82
82
82
82
82
82
82
82
82
82
82
82
82
82
82
82
82
82
82
82
82
82
82
82
82
82
82
82
82
82
82
82
82
82
82
82
82
82
82
82
82
82
82
82
82
82
82
82
82
82
82
82
82
82
82
82
82
82
82
82
82
82
82
82
82
82
82
82
90
90
90
82
82
82
82
82
82
82
82
82
82
82
82
82
82
82
82
82
82
82
82
82
82
82
82
82
82
82
82
82
82
82
82
82
82
82
82
82
82
82
82
82
82
82
82
82
82
82
82
82
82
82
82
82
82
82
82
82
82
82
82
82
82
82
82
82
82
82
82
82
82
82
82
123
123
98
139
139
139
123
123
98
123
123
98
123
123
98
123
123
98
123
123
98
123
123
98
123
123
98
123
123
98
123
123
123
123
123
98
123
123
98
98
106
74
90
98
65
57
131
41
90
98
65
98
106
74
98
106
74
123
123
98
123
123
98
123
123
98
131
131
131
123
123
98
123
123
98
123
123
123
65
148
49
123
123
98
98
106
74
98
106
74
123
123
98
123
123
98
123
123
98
123
123
98
123
123
98
98
106
74
90
98
65
90
98
65
90
98
65
90
98
65
123
123
98
123
123
98
98
106
74
57
131
41
98
106
74
123
123
98
123
123
98
123
123
98
123
123
98
123
123
98
123
123
98
123
123
98
123
123
98
123
123
98
123
123
98
123
123
98
123
123
98
123
123
98
90
98
65
90
98
65
90
98
65
123
123
98
139
139
139
123
123
98
98
106
74
123
123
123
98
106
74
98
106
74
106
115
82
98
106
74
123
123
98
106
115
82
106
115
82
98
106
74
90
98
65
90
98
65
98
106
74
90
98
65
65
74
49
41
98
32
82
82
57
90
98
65
90
98
65
106
115
82
98
106
74
106
115
82
98
106
74
98
106
74
98
106
74
90
98
65
41
98
32
98
106
74
65
74
49
82
82
57
98
106
74
106
115
82
123
123
98
98
106
74
98
106
74
98
106
74
82
82
57
65
74
49
65
74
49
90
98
65
98
106
74
98
106
74
82
82
57
49
115
41
82
82
57
98
106
74
98
106
74
123
123
98
106
115
82
98
106
74
106
115
82
98
106
74
123
123
98
98
106
74
98
106
74
98
106
74
90
98
65
106
115
82
82
82
57
57
65
41
82
82
57
98
106
74
123
123
123
98
106
74
106
115
82
123
123
123
106
115
82
98
106
74
106
115
82
98
106
74
106
115
82
106
115
82
123
123
98
98
106
74
98
106
74
90
98
65
90
98
65
90
98
65
65
74
49
41
98
32
82
82
57
90
98
65
90
98
65
98
106
74
98
106
74
106
115
82
98
106
74
98
106
74
98
106
74
98
106
74
41
98
32
98
106
74
65
74
49
82
82
57
98
106
74
106
115
82
123
123
98
106
115
82
98
106
74
98
106
74
82
82
57
65
74
49
65
74
49
90
98
65
98
106
74
98
106
74
82
82
57
41
98
32
82
82
57
98
106
74
98
106
74
123
123
98
106
115
82
98
106
74
98
106
74
98
106
74
123
123
98
98
106
74
98
106
74
98
106
74
98
106
74
106
115
82
82
82
57
65
74
49
82
82
57
98
106
74
123
123
123
98
106
74
106
115
82
123
123
123
98
106
74
98
106
74
106
115
82
98
106
74
123
123
98
106
115
82
123
123
98
98
106
74
98
106
74
98
106
74
90
98
65
90
98
65
65
74
49
41
98
32
82
82
57
90
98
65
90
98
65
98
106
74
90
98
65
106
115
82
106
115
82
98
106
74
90
98
65
106
115
82
41
98
32
98
106
74
65
74
49
82
82
57
98
106
74
106
115
82
106
115
82
98
106
74
98
106
74
98
106
74
82
82
57
65
74
49
65
74
49
90
98
65
98
106
74
98
106
74
82
82
57
32
82
24
82
82
57
90
98
65
98
106
74
106
115
82
98
106
74
98
106
74
98
106
74
98
106
74
123
123
98
106
115
82
98
106
74
90
98
65
106
115
82
106
115
82
82
82
57
65
74
49
82
82
57
98
106
74
123
123
123
106
115
82
123
123
98
123
123
123
123
123
98
98
106
74
106
115
82
98
106
74
106
115
82
106
115
82
106
115
82
98
106
74
98
106
74
98
106
74
90
98
65
98
106
74
65
74
49
41
98
32
82
82
57
90
98
65
90
98
65
98
106
74
90
98
65
106
115
82
98
106
74
106
115
82
90
98
65
106
115
82
41
98
32
90
98
65
82
82
57
82
82
57
98
106
74
98
106
74
106
115
82
106
115
82
98
106
74
98
106
74
82
82
57
65
74
49
65
74
49
90
98
65
98
106
74
98
106
74
82
82
57
65
74
49
82
82
57
90
98
65
98
106
74
123
123
98
98
106
74
98
106
74
98
106
74
98
106
74
123
123
98
98
106
74
106
115
82
90
98
65
106
115
82
106
115
82
82
82
57
65
74
49
82
82
57
98
106
74
115
115
115
106
115
82
106
115
82
123
123
123
106
115
82
106
115
82
106
115
82
98
106
74
106
115
82
106
115
82
106
115
82
106
115
82
98
106
74
90
98
65
90
98
65
98
106
74
65
74
49
41
98
32
82
82
57
90
98
65
90
98
65
98
106
74
90
98
65
98
106
74
98
106
74
106
115
82
90
98
65
106
115
82
41
98
32
90
98
65
82
82
57
82
82
57
90
98
65
98
106
74
123
123
98
106
115
82
106
115
82
98
106
74
82
82
57
65
74
49
65
74
49
90
98
65
106
115
82
98
106
74
82
82
57
65
74
49
82
82
57
90
98
65
98
106
74
123
123
98
106
115
82
106
115
82
98
106
74
98
106
74
106
115
82
98
106
74
106
115
82
90
98
65
106
115
82
106
115
82
82
82
57
65
74
49
82
82
57
90
98
65
123
123
123
106
115
82
106
115
82
123
123
123
106
115
82
98
106
74
106
115
82
98
106
74
106
115
82
123
123
98
123
123
98
98
106
74
98
106
74
82
82
57
90
98
65
98
106
74
65
74
49
41
98
32
82
82
57
90
98
65
106
115
82
98
106
74
90
98
65
98
106
74
98
106
74
98
106
74
90
98
65
106
115
82
41
98
32
98
106
74
82
82
57
82
82
57
90
98
65
98
106
74
123
123
98
106
115
82
98
106
74
98
106
74
82
82
57
65
74
49
65
74
49
90
98
65
98
106
74
98
106
74
90
98
65
98
106
74
90
98
65
90
98
65
98
106
74
106
115
82
98
106
74
106
115
82
98
106
74
98
106
74
106
115
82
98
106
74
98
106
74
90
98
65
98
106
74
106
115
82
82
82
57
65
74
49
82
82
57
90
98
65
123
123
123
106
115
82
106
115
82
123
123
123
106
115
82
98
106
74
106
115
82
106
115
82
106
115
82
123
123
98
123
123
98
98
106
74
98
106
74
90
98
65
90
98
65
90
98
65
65
74
49
41
98
32
82
82
57
90
98
65
98
106
74
90
98
65
90
98
65
98
106
74
98
106
74
98
106
74
90
98
65
106
115
82
41
98
32
106
115
82
82
82
57
82
82
57
98
106
74
98
106
74
106
115
82
106
115
82
98
106
74
98
106
74
82
82
57
65
74
49
65
74
49
90
98
65
98
106
74
98
106
74
82
82
57
57
65
41
82
82
57
98
106
74
98
106
74
106
115
82
98
106
74
98
106
74
90
98
65
98
106
74
98
106
74
98
106
74
98
106
74
90
98
65
98
106
74
98
106
74
82
82
57
65
74
49
82
82
57
98
106
74
123
123
123
98
106
74
98
106
74
123
123
123
98
106
74
106
115
82
106
115
82
98
106
74
106
115
82
123
123
98
106
115
82
98
106
74
98
106
74
98
106
74
98
106
74
90
98
65
65
74
49
41
98
32
82
82
57
90
98
65
90
98
65
90
98
65
98
106
74
98
106
74
98
106
74
98
106
74
98
106
74
106
115
82
41
98
32
106
115
82
82
82
57
82
82
57
98
106
74
98
106
74
123
123
98
106
115
82
106
115
82
98
106
74
82
82
57
65
74
49
65
74
49
90
98
65
98
106
74
98
106
74
57
65
41
24
24
24
57
65
41
98
106
74
98
106
74
123
123
98
98
106
74
90
98
65
90
98
65
98
106
74
106
115
82
98
106
74
98
106
74
98
106
74
98
106
74
98
106
74
82
82
57
65
74
49
82
82
57
98
106
74
123
123
123
98
106
74
106
115
82
123
123
123
106
115
82
123
123
98
106
115
82
98
106
74
106
115
82
123
123
98
98
106
74
90
98
65
90
98
65
90
98
65
90
98
65
98
106
74
82
82
57
41
98
32
82
82
57
90
98
65
98
106
74
106
115
82
106
115
82
98
106
74
106
115
82
106
115
82
98
106
74
106
115
82
41
98
32
98
106
74
82
82
57
82
82
57
98
106
74
106
115
82
123
123
98
106
115
82
123
123
98
98
106
74
82
82
57
65
74
49
65
74
49
90
98
65
106
115
82
98
106
74
65
74
49
57
65
41
65
74
49
98
106
74
98
106
74
123
123
98
98
106
74
106
115
82
106
115
82
98
106
74
106
115
82
98
106
74
98
106
74
98
106
74
98
106
74
98
106
74
82
82
57
65
74
49
82
82
57
90
98
65
123
123
123
98
106
74
123
123
98
123
123
123
98
106
74
123
123
98
106
115
82
123
123
98
106
115
82
98
106
74
106
115
82
90
98
65
90
98
65
90
98
65
98
106
74
98
106
74
82
82
57
41
98
32
82
82
57
90
98
65
98
106
74
106
115
82
123
123
98
98
106
74
106
115
82
106
115
82
98
106
74
123
123
98
41
98
32
98
106
74
82
82
57
82
82
57
98
106
74
90
98
65
106
115
82
106
115
82
123
123
98
98
106
74
82
82
57
65
74
49
65
74
49
90
98
65
106
115
82
98
106
74
65
74
49
82
82
57
65
74
49
98
106
74
98
106
74
106
115
82
98
106
74
106
115
82
106
115
82
98
106
74
106
115
82
98
106
74
98
106
74
98
106
74
98
106
74
98
106
74
90
98
65
82
82
57
90
98
65
90
98
65
123
123
123
106
115
82
106
115
82
115
115
115
98
106
74
106
115
82
106
115
82
106
115
82
123
123
98
98
106
74
106
115
82
90
98
65
106
115
82
98
106
74
98
106
74
106
115
82
82
82
57
41
98
32
90
98
65
90
98
65
98
106
74
98
106
74
106
115
82
98
106
74
98
106
74
98
106
74
106
115
82
123
123
98
41
98
32
98
106
74
82
82
57
82
82
57
98
106
74
90
98
65
106
115
82
106
115
82
106
115
82
98
106
74
90
98
65
65
74
49
65
74
49
90
98
65
106
115
82
98
106
74
82
82
57
65
74
49
82
82
57
98
106
74
106
115
82
123
123
98
98
106
74
106
115
82
106
115
82
106
115
82
123
123
98
106
115
82
98
106
74
98
106
74
90
98
65
106
115
82
90
98
65
82
82
57
90
98
65
98
106
74
123
123
123
106
115
82
123
123
98
115
115
115
98
106
74
106
115
82
106
115
82
123
123
98
123
123
98
98
106
74
106
115
82
90
98
65
98
106
74
98
106
74
98
106
74
106
115
82
65
74
49
41
98
32
82
82
57
90
98
65
98
106
74
98
106
74
106
115
82
98
106
74
98
106
74
98
106
74
106
115
82
123
123
98
41
98
32
98
106
74
65
74
49
90
98
65
106
115
82
98
106
74
123
123
98
106
115
82
106
115
82
98
106
74
98
106
74
65
74
49
65
74
49
90
98
65
106
115
82
98
106
74
82
82
57
65
74
49
82
82
57
98
106
74
98
106
74
106
115
82
98
106
74
106
115
82
106
115
82
106
115
82
123
123
98
106
115
82
98
106
74
106
115
82
90
98
65
106
115
82
90
98
65
82
82
57
90
98
65
106
115
82
123
123
123
98
106
74
106
115
82
123
123
123
98
106
74
123
123
98
98
106
74
106
115
82
123
123
98
98
106
74
106
115
82
106
115
82
98
106
74
98
106
74
98
106
74
106
115
82
65
74
49
41
98
32
82
82
57
90
98
65
98
106
74
106
115
82
106
115
82
98
106
74
98
106
74
106
115
82
106
115
82
123
123
98
41
98
32
106
115
82
65
74
49
90
98
65
106
115
82
98
106
74
106
115
82
106
115
82
106
115
82
98
106
74
90
98
65
65
74
49
65
74
49
90
98
65
106
115
82
98
106
74
82
82
57
65
74
49
82
82
57
98
106
74
98
106
74
106
115
82
98
106
74
115
115
115
98
106
74
106
115
82
123
123
98
106
115
82
98
106
74
98
106
74
90
98
65
123
123
98
98
106
74
82
82
57
98
106
74
106
115
82
123
123
123
106
115
82
98
106
74
115
115
115
106
115
82
98
106
74
106
115
82
106
115
82
123
123
98
98
106
74
106
115
82
106
115
82
98
106
74
98
106
74
98
106
74
98
106
74
65
74
49
41
98
32
82
82
57
90
98
65
90
98
65
115
115
115
106
115
82
106
115
82
98
106
74
123
123
98
106
115
82
123
123
98
49
115
41
106
115
82
65
74
49
90
98
65
106
115
82
106
115
82
106
115
82
98
106
74
98
106
74
98
106
74
90
98
65
82
82
57
65
74
49
90
98
65
106
115
82
98
106
74
82
82
57
65
74
49
82
82
57
98
106
74
98
106
74
106
115
82
98
106
74
115
115
115
98
106
74
106
115
82
123
123
98
106
115
82
106
115
82
98
106
74
98
106
74
123
123
98
98
106
74
82
82
57
98
106
74
106
115
82
123
123
123
106
115
82
106
115
82
115
115
115
98
106
74
98
106
74
106
115
82
106
115
82
123
123
98
98
106
74
106
115
82
106
115
82
106
115
82
98
106
74
106
115
82
90
98
65
65
74
49
41
98
32
82
82
57
90
98
65
90
98
65
115
115
115
106
115
82
106
115
82
98
106
74
106
115
82
98
106
74
123
123
98
49
115
41
106
115
82
82
82
57
90
98
65
106
115
82
98
106
74
123
123
98
98
106
74
98
106
74
98
106
74
90
98
65
82
82
57
65
74
49
90
98
65
123
123
123
98
106
74
82
82
57
65
74
49
82
82
57
98
106
74
106
115
82
106
115
82
106
115
82
115
115
115
98
106
74
106
115
82
123
123
98
106
115
82
123
123
98
106
115
82
98
106
74
106
115
82
98
106
74
90
98
65
98
106
74
106
115
82
123
123
123
106
115
82
106
115
82
115
115
115
98
106
74
98
106
74
106
115
82
106
115
82
123
123
98
98
106
74
106
115
82
106
115
82
106
115
82
98
106
74
106
115
82
90
98
65
90
98
65
98
106
74
90
98
65
90
98
65
90
98
65
98
106
74
106
115
82
106
115
82
115
115
115
123
123
98
98
106
74
123
123
98
49
115
41
106
115
82
82
82
57
90
98
65
98
106
74
98
106
74
123
123
98
106
115
82
123
123
98
98
106
74
90
98
65
65
74
49
65
74
49
90
98
65
123
123
123
106
115
82
82
82
57
65
74
49
82
82
57
98
106
74
98
106
74
98
106
74
123
123
98
123
123
123
106
115
82
106
115
82
123
123
98
106
115
82
98
106
74
98
106
74
90
98
65
106
115
82
106
115
82
90
98
65
98
106
74
106
115
82
123
123
123
106
115
82
106
115
82
123
123
123
106
115
82
106
115
82
106
115
82
123
123
98
123
123
98
90
98
65
98
106
74
98
106
74
106
115
82
106
115
82
106
115
82
106
115
82
82
82
57
57
65
41
82
82
57
90
98
65
98
106
74
98
106
74
106
115
82
106
115
82
106
106
106
98
106
74
90
98
65
123
123
98
49
115
41
106
115
82
65
74
49
90
98
65
98
106
74
98
106
74
106
115
82
98
106
74
123
123
98
98
106
74
90
98
65
65
74
49
65
74
49
90
98
65
123
123
123
106
115
82
82
82
57
65
74
49
82
82
57
98
106
74
106
115
82
98
106
74
106
115
82
131
131
131
106
115
82
106
115
82
123
123
98
98
106
74
98
106
74
98
106
74
90
98
65
106
115
82
106
115
82
90
98
65
98
106
74
106
115
82
123
123
123
106
115
82
98
106
74
123
123
123
123
123
98
106
115
82
98
106
74
123
123
98
123
123
98
90
98
65
98
106
74
98
106
74
106
115
82
106
115
82
106
115
82
106
115
82
57
65
41
24
24
24
57
65
41
90
98
65
98
106
74
106
115
82
106
115
82
106
115
82
106
106
106
106
115
82
98
106
74
123
123
98
98
106
74
98
106
74
82
82
57
90
98
65
98
106
74
106
115
82
98
106
74
98
106
74
106
115
82
98
106
74
90
98
65
82
82
57
65
74
49
98
106
74
123
123
123
106
115
82
90
98
65
65
74
49
82
82
57
98
106
74
106
115
82
106
115
82
123
123
98
123
123
123
98
106
74
123
123
98
98
106
74
98
106
74
106
115
82
98
106
74
106
106
106
98
106
74
106
115
82
90
98
65
106
115
82
106
115
82
123
123
123
106
115
82
98
106
74
123
123
123
106
115
82
98
106
74
98
106
74
106
115
82
123
123
98
98
106
74
98
106
74
98
106
74
106
115
82
106
115
82
106
115
82
123
123
98
57
65
41
0
0
0
57
65
41
90
98
65
98
106
74
106
115
82
106
115
82
106
115
82
90
98
65
106
115
82
90
98
65
131
131
131
98
106
74
98
106
74
65
74
49
90
98
65
98
106
74
106
115
82
106
115
82
90
98
65
106
115
82
98
106
74
90
98
65
82
82
57
65
74
49
98
106
74
123
123
123
106
115
82
90
98
65
65
74
49
82
82
57
98
106
74
106
115
82
98
106
74
106
115
82
123
123
123
106
115
82
106
115
82
123
123
98
98
106
74
106
115
82
98
106
74
115
115
115
98
106
74
106
115
82
90
98
65
106
115
82
106
115
82
123
123
123
106
115
82
106
115
82
123
123
123
123
123
98
98
106
74
98
106
74
106
115
82
123
123
98
123
123
98
90
98
65
106
115
82
106
115
82
106
115
82
106
115
82
123
123
98
65
74
49
49
115
41
65
74
49
98
106
74
98
106
74
106
115
82
106
115
82
106
115
82
98
106
74
98
106
74
90
98
65
131
131
131
106
115
82
98
106
74
82
82
57
90
98
65
98
106
74
98
106
74
106
115
82
106
115
82
106
115
82
98
106
74
90
98
65
82
82
57
65
74
49
98
106
74
123
123
123
106
115
82
90
98
65
65
74
49
82
82
57
98
106
74
106
115
82
123
123
98
106
115
82
115
115
115
98
106
74
123
123
98
123
123
98
106
115
82
106
115
82
98
106
74
106
106
106
106
115
82
106
115
82
98
106
74
123
123
98
106
115
82
123
123
123
106
115
82
106
115
82
123
123
123
98
106
74
98
106
74
98
106
74
106
115
82
123
123
98
106
115
82
90
98
65
106
115
82
106
115
82
106
115
82
106
115
82
123
123
98
65
74
49
41
98
32
82
82
57
98
106
74
98
106
74
106
115
82
106
115
82
106
115
82
98
106
74
98
106
74
90
98
65
131
131
131
98
106
74
98
106
74
82
82
57
90
98
65
98
106
74
106
115
82
106
115
82
106
115
82
98
106
74
90
98
65
90
98
65
82
82
57
82
82
57
106
115
82
123
123
123
106
115
82
90
98
65
65
74
49
82
82
57
98
106
74
98
106
74
123
123
98
106
115
82
115
115
115
98
106
74
98
106
74
123
123
98
106
115
82
123
123
98
106
115
82
106
106
106
98
106
74
106
115
82
98
106
74
106
115
82
106
115
82
123
123
123
98
106
74
106
115
82
123
123
123
106
115
82
106
115
82
98
106
74
106
115
82
123
123
98
106
115
82
98
106
74
106
115
82
106
115
82
106
115
82
106
115
82
123
123
98
82
82
82
82
82
57
90
98
65
90
98
65
98
106
74
106
115
82
106
115
82
106
115
82
98
106
74
98
106
74
90
98
65
131
131
131
98
106
74
98
106
74
82
82
57
90
98
65
98
106
74
106
115
82
106
115
82
106
115
82
98
106
74
90
98
65
90
98
65
82
82
57
82
82
57
106
115
82
123
123
123
106
115
82
90
98
65
65
74
49
82
82
57
98
106
74
98
106
74
123
123
98
106
115
82
123
123
123
98
106
74
98
106
74
123
123
98
106
115
82
123
123
98
123
123
98
115
115
115
98
106
74
106
115
82
98
106
74
106
115
82
106
115
82
123
123
123
98
106
74
98
106
74
123
123
123
106
115
82
98
106
74
106
115
82
98
106
74
123
123
98
106
115
82
98
106
74
106
115
82
106
115
82
106
115
82
106
115
82
123
123
98
82
82
82
82
82
57
90
98
65
82
82
57
98
106
74
98
106
74
123
123
98
123
123
98
98
106
74
106
115
82
98
106
74
123
123
123
90
98
65
98
106
74
65
74
49
98
106
74
98
106
74
106
115
82
123
123
98
98
106
74
106
115
82
98
106
74
90
98
65
82
82
57
90
98
65
106
115
82
123
123
123
106
115
82
98
106
74
65
74
49
82
82
57
90
98
65
98
106
74
123
123
98
106
115
82
123
123
123
98
106
74
106
115
82
123
123
98
123
123
123
106
115
82
98
106
74
123
123
123
90
98
65
106
115
82
106
115
82
106
115
82
106
115
82
123
123
123
106
115
82
98
106
74
115
115
115
98
106
74
106
115
82
106
115
82
98
106
74
123
123
98
106
115
82
98
106
74
98
106
74
98
106
74
98
106
74
98
106
74
123
123
98
82
82
82
82
82
57
90
98
65
90
98
65
106
115
82
106
115
82
123
123
98
123
123
98
98
106
74
90
98
65
90
98
65
123
123
123
106
115
82
98
106
74
82
82
57
98
106
74
98
106
74
98
106
74
123
123
123
98
106
74
98
106
74
90
98
65
98
106
74
65
74
49
90
98
65
106
115
82
115
115
115
106
115
82
98
106
74
65
74
49
82
82
57
90
98
65
98
106
74
123
123
98
106
115
82
123
123
123
98
106
74
106
115
82
123
123
98
123
123
123
131
131
131
98
106
74
123
123
123
123
123
98
106
115
82
123
123
98
98
106
74
106
115
82
123
123
123
106
115
82
98
106
74
115
115
115
98
106
74
106
115
82
106
115
82
98
106
74
123
123
98
106
115
82
98
106
74
123
123
123
90
98
65
98
106
74
98
106
74
123
123
98
82
82
82
82
82
57
90
98
65
90
98
65
106
115
82
123
123
98
106
115
82
106
115
82
98
106
74
90
98
65
98
106
74
123
123
123
98
106
74
98
106
74
82
82
57
90
98
65
98
106
74
98
106
74
131
131
131
106
115
82
98
106
74
90
98
65
98
106
74
82
82
57
90
98
65
106
115
82
115
115
115
106
115
82
98
106
74
65
74
49
82
82
57
98
106
74
98
106
74
123
123
98
98
106
74
123
123
123
106
115
82
106
115
82
123
123
98
123
123
123
123
123
123
98
106
74
123
123
123
106
115
82
106
115
82
106
115
82
98
106
74
106
115
82
123
123
123
106
115
82
98
106
74
123
123
123
98
106
74
98
106
74
98
106
74
98
106
74
106
115
82
106
115
82
98
106
74
115
115
115
98
106
74
98
106
74
106
115
82
106
115
82
82
82
82
82
82
57
90
98
65
82
82
57
106
115
82
123
123
98
98
106
74
98
106
74
98
106
74
98
106
74
98
106
74
123
123
123
98
106
74
98
106
74
82
82
57
90
98
65
106
115
82
98
106
74
131
131
131
98
106
74
90
98
65
82
82
57
98
106
74
82
82
57
90
98
65
115
115
115
115
115
115
106
115
82
98
106
74
65
74
49
82
82
57
98
106
74
106
115
82
123
123
98
98
106
74
123
123
123
106
115
82
106
115
82
123
123
98
123
123
123
123
123
123
98
106
74
123
123
123
106
115
82
106
115
82
98
106
74
90
98
65
98
106
74
123
123
123
123
123
98
106
115
82
115
115
115
98
106
74
98
106
74
106
115
82
106
115
82
106
115
82
106
115
82
90
98
65
115
115
115
106
115
82
98
106
74
106
115
82
98
106
74
82
82
82
82
82
57
90
98
65
90
98
65
106
115
82
123
123
98
106
115
82
106
115
82
106
115
82
98
106
74
98
106
74
131
131
131
98
106
74
98
106
74
90
98
65
106
106
106
106
115
82
98
106
74
123
123
123
98
106
74
98
106
74
90
98
65
106
115
82
65
74
49
90
98
65
115
115
115
115
115
115
106
115
82
98
106
74
65
74
49
82
82
57
98
106
74
123
123
98
123
123
98
106
115
82
123
123
123
106
115
82
98
106
74
123
123
98
115
115
115
123
123
123
98
106
74
115
115
115
106
115
82
106
115
82
123
123
98
98
106
74
98
106
74
123
123
123
90
98
65
106
115
82
115
115
115
98
106
74
90
98
65
106
115
82
106
115
82
106
115
82
123
123
98
90
98
65
115
115
115
106
115
82
90
98
65
98
106
74
106
115
82
82
82
82
90
98
65
90
98
65
90
98
65
106
115
82
123
123
98
123
123
123
106
115
82
106
115
82
98
106
74
98
106
74
131
131
131
98
106
74
98
106
74
90
90
90
106
106
106
106
115
82
106
115
82
123
123
123
98
106
74
98
106
74
90
98
65
106
115
82
65
74
49
90
98
65
115
115
115
115
115
115
106
115
82
98
106
74
65
74
49
82
82
57
98
106
74
106
115
82
123
123
98
106
115
82
123
123
123
123
123
123
106
115
82
123
123
98
115
115
115
123
123
123
90
98
65
123
123
123
98
106
74
106
115
82
123
123
98
106
115
82
98
106
74
123
123
123
98
106
74
106
115
82
123
123
123
98
106
74
106
115
82
106
115
82
98
106
74
106
115
82
106
115
82
90
98
65
115
115
115
106
115
82
98
106
74
106
115
82
123
123
98
82
82
82
90
98
65
90
98
65
82
82
57
106
115
82
106
115
82
115
115
115
98
106
74
106
115
82
106
115
82
98
106
74
131
131
131
106
115
82
106
115
82
90
90
90
106
106
106
106
115
82
106
115
82
123
123
123
98
106
74
106
115
82
90
98
65
98
106
74
65
74
49
90
98
65
115
115
115
115
115
115
98
106
74
98
106
74
65
74
49
82
82
57
98
106
74
106
115
82
123
123
98
106
115
82
123
123
123
123
123
123
106
115
82
123
123
98
123
123
123
115
115
115
90
98
65
106
106
106
106
115
82
106
115
82
123
123
98
106
115
82
98
106
74
123
123
123
98
106
74
106
115
82
123
123
123
98
106
74
98
106
74
98
106
74
98
106
74
106
115
82
106
115
82
98
106
74
115
115
115
123
123
123
90
98
65
98
106
74
123
123
98
82
82
82
82
82
57
90
98
65
98
106
74
106
115
82
106
115
82
123
123
123
106
115
82
106
115
82
106
115
82
98
106
74
131
131
131
106
115
82
106
115
82
90
90
90
106
106
106
106
115
82
106
115
82
123
123
123
98
106
74
98
106
74
82
82
57
98
106
74
65
74
49
90
98
65
115
115
115
115
115
115
98
106
74
98
106
74
65
74
49
82
82
57
98
106
74
106
115
82
123
123
98
98
106
74
115
115
115
115
115
115
106
115
82
123
123
98
115
115
115
115
115
115
90
98
65
115
115
115
106
115
82
106
115
82
123
123
98
106
115
82
98
106
74
123
123
123
98
106
74
106
115
82
123
123
123
98
106
74
106
115
82
98
106
74
98
106
74
106
115
82
106
115
82
98
106
74
98
106
74
115
115
115
98
106
74
98
106
74
123
123
123
82
82
82
82
82
57
90
98
65
98
106
74
106
115
82
106
115
82
123
123
123
123
123
123
106
115
82
106
115
82
98
106
74
131
131
131
106
115
82
106
115
82
90
90
90
106
106
106
106
115
82
106
115
82
123
123
123
98
106
74
115
115
115
82
82
57
98
106
74
82
82
57
90
98
65
115
115
115
106
106
106
106
115
82
98
106
74
65
74
49
82
82
57
98
106
74
106
115
82
123
123
98
98
106
74
115
115
115
115
115
115
123
123
98
123
123
98
123
123
123
115
115
115
98
106
74
106
106
106
98
106
74
106
115
82
106
115
82
106
115
82
106
115
82
123
123
123
98
106
74
106
115
82
123
123
123
98
106
74
98
106
74
106
115
82
98
106
74
106
115
82
98
106
74
98
106
74
106
106
106
123
123
123
115
115
115
106
115
82
123
123
123
82
82
82
82
82
57
90
98
65
106
115
82
106
115
82
115
115
115
115
115
115
115
115
115
106
115
82
106
115
82
98
106
74
131
131
131
98
106
74
106
115
82
106
106
106
115
115
115
98
106
74
115
115
115
115
115
115
106
115
82
115
115
115
98
106
74
98
106
74
65
74
49
90
98
65
115
115
115
115
115
115
115
115
115
98
106
74
65
74
49
82
82
57
98
106
74
106
115
82
106
115
82
98
106
74
115
115
115
115
115
115
106
115
82
123
123
98
123
123
123
115
115
115
98
106
74
115
115
115
98
106
74
106
115
82
106
115
82
106
115
82
123
123
98
123
123
123
106
115
82
98
106
74
123
123
123
98
106
74
98
106
74
106
115
82
123
123
98
106
115
82
98
106
74
106
115
82
106
106
106
123
123
123
115
115
115
106
115
82
123
123
123
90
90
90
82
82
57
90
98
65
98
106
74
106
115
82
115
115
115
115
115
115
115
115
115
106
115
82
106
115
82
98
106
74
131
131
131
98
106
74
106
115
82
106
106
106
115
115
115
106
115
82
123
123
123
115
115
115
98
106
74
115
115
115
90
98
65
123
123
98
65
74
49
90
98
65
115
115
115
115
115
115
115
115
115
98
106
74
65
74
49
82
82
57
98
106
74
98
106
74
123
123
98
106
115
82
115
115
115
115
115
115
106
115
82
123
123
98
123
123
123
115
115
115
90
98
65
106
106
106
98
106
74
106
115
82
106
115
82
106
115
82
106
115
82
123
123
123
106
115
82
98
106
74
123
123
123
98
106
74
98
106
74
98
106
74
123
123
98
106
115
82
106
115
82
98
106
74
106
106
106
131
131
131
115
115
115
106
115
82
123
123
123
90
90
90
82
82
57
90
98
65
98
106
74
106
115
82
123
123
123
115
115
115
115
115
115
106
115
82
106
115
82
98
106
74
131
131
131
106
115
82
106
115
82
106
106
106
115
115
115
106
115
82
123
123
123
115
115
115
98
106
74
115
115
115
90
98
65
123
123
98
82
82
57
90
98
65
115
115
115
115
115
115
115
115
115
98
106
74
82
82
57
82
82
57
98
106
74
98
106
74
123
123
98
106
115
82
115
115
115
123
123
123
123
123
98
106
115
82
123
123
123
115
115
115
98
106
74
106
106
106
106
115
82
106
115
82
98
106
74
98
106
74
106
115
82
123
123
123
106
115
82
106
115
82
123
123
123
98
106
74
98
106
74
98
106
74
123
123
98
106
115
82
98
106
74
98
106
74
115
115
115
131
131
131
115
115
115
106
115
82
123
123
123
90
90
90
82
82
57
90
98
65
98
106
74
106
115
82
115
115
115
123
123
123
123
123
123
106
115
82
106
115
82
90
98
65
123
123
123
106
115
82
106
115
82
106
106
106
123
123
123
106
115
82
123
123
123
123
123
123
98
106
74
123
123
123
90
98
65
123
123
98
82
82
57
90
98
65
115
115
115
123
123
123
115
115
115
98
106
74
82
82
57
82
82
57
98
106
74
98
106
74
123
123
98
106
115
82
115
115
115
123
123
123
123
123
98
106
115
82
115
115
115
115
115
115
98
106
74
106
106
106
98
106
74
106
115
82
98
106
74
98
106
74
106
115
82
123
123
123
106
115
82
106
115
82
123
123
123
98
106
74
98
106
74
106
115
82
123
123
98
106
115
82
115
115
115
98
106
74
115
115
115
123
123
123
115
115
115
106
115
82
123
123
123
90
90
90
82
82
57
90
98
65
98
106
74
106
115
82
115
115
115
115
115
115
115
115
115
106
115
82
106
115
82
90
98
65
123
123
123
106
115
82
106
115
82
106
106
106
123
123
123
98
106
74
115
115
115
115
115
115
98
106
74
115
115
115
98
106
74
123
123
98
90
98
65
90
98
65
115
115
115
123
123
123
115
115
115
98
106
74
82
82
57
82
82
57
98
106
74
106
115
82
123
123
98
106
115
82
123
123
123
123
123
123
123
123
98
98
106
74
115
115
115
115
115
115
106
115
82
106
106
106
98
106
74
106
115
82
106
115
82
98
106
74
106
115
82
131
131
131
106
115
82
106
115
82
115
115
115
98
106
74
98
106
74
98
106
74
106
115
82
106
115
82
115
115
115
106
115
82
115
115
115
123
123
123
115
115
115
98
106
74
123
123
123
106
106
106
90
98
65
98
106
74
106
115
82
123
123
98
115
115
115
115
115
115
115
115
115
106
115
82
98
106
74
106
106
106
131
131
131
98
106
74
98
106
74
106
106
106
123
123
123
106
115
82
123
123
123
115
115
115
98
106
74
115
115
115
90
98
65
106
115
82
90
98
65
90
98
65
115
115
115
123
123
123
123
123
123
98
106
74
82
82
57
82
82
57
98
106
74
123
123
123
123
123
98
106
115
82
123
123
123
115
115
115
106
115
82
98
106
74
115
115
115
115
115
115
98
106
74
106
106
106
98
106
74
106
115
82
98
106
74
98
106
74
98
106
74
123
123
123
106
115
82
106
115
82
115
115
115
98
106
74
98
106
74
98
106
74
98
106
74
106
115
82
115
115
115
90
98
65
106
106
106
115
115
115
115
115
115
98
106
74
123
123
123
90
90
90
82
82
57
98
106
74
106
115
82
106
115
82
115
115
115
115
115
115
115
115
115
106
115
82
98
106
74
123
123
123
131
131
131
98
106
74
98
106
74
106
106
106
123
123
123
115
115
115
123
123
123
115
115
115
106
115
82
123
123
123
90
98
65
98
106
74
90
98
65
90
98
65
106
106
106
115
115
115
115
115
115
98
106
74
82
82
82
82
82
57
98
106
74
115
115
115
123
123
98
106
115
82
123
123
123
115
115
115
106
115
82
98
106
74
106
106
106
115
115
115
98
106
74
106
106
106
98
106
74
106
115
82
98
106
74
98
106
74
106
115
82
123
123
123
106
115
82
106
115
82
123
123
123
115
115
115
98
106
74
98
106
74
98
106
74
123
123
123
115
115
115
90
98
65
90
90
90
115
115
115
115
115
115
115
115
115
123
123
123
90
90
90
82
82
57
98
106
74
106
115
82
123
123
98
115
115
115
115
115
115
115
115
115
123
123
123
106
115
82
123
123
123
131
131
131
98
106
74
98
106
74
106
106
106
123
123
123
115
115
115
123
123
123
123
123
123
98
106
74
123
123
123
90
98
65
98
106
74
90
98
65
90
98
65
106
106
106
106
106
106
115
115
115
98
106
74
90
90
90
82
82
57
98
106
74
115
115
115
123
123
98
106
115
82
123
123
123
115
115
115
106
115
82
98
106
74
106
106
106
123
123
123
98
106
74
106
106
106
106
115
82
106
115
82
90
98
65
98
106
74
106
115
82
123
123
123
98
106
74
106
115
82
123
123
123
115
115
115
98
106
74
98
106
74
98
106
74
123
123
123
123
123
123
98
106
74
106
106
106
115
115
115
123
123
123
123
123
123
123
123
123
90
90
90
90
98
65
98
106
74
106
115
82
123
123
98
123
123
123
123
123
123
123
123
123
123
123
123
106
115
82
123
123
123
131
131
131
98
106
74
98
106
74
106
106
106
123
123
123
115
115
115
123
123
123
123
123
123
98
106
74
123
123
123
90
98
65
98
106
74
90
98
65
98
106
74
115
115
115
115
115
115
115
115
115
106
115
82
90
90
90
82
82
57
98
106
74
123
123
123
123
123
98
106
115
82
123
123
123
123
123
123
106
115
82
98
106
74
123
123
123
123
123
123
98
106
74
106
106
106
106
115
82
98
106
74
90
98
65
98
106
74
123
123
98
123
123
123
98
106
74
106
115
82
123
123
123
115
115
115
98
106
74
115
115
115
98
106
74
123
123
123
123
123
123
98
106
74
115
115
115
115
115
115
123
123
123
90
90
90
123
123
123
106
106
106
90
90
90
98
106
74
106
115
82
123
123
98
123
123
123
123
123
123
123
123
123
123
123
123
106
115
82
123
123
123
131
131
131
90
98
65
98
106
74
106
106
106
123
123
123
115
115
115
123
123
123
131
131
131
98
106
74
123
123
123
90
98
65
98
106
74
90
98
65
98
106
74
115
115
115
123
123
123
115
115
115
106
115
82
90
90
90
82
82
57
90
98
65
123
123
123
123
123
98
106
115
82
123
123
123
123
123
123
106
115
82
98
106
74
123
123
123
123
123
123
106
115
82
106
106
106
106
115
82
98
106
74
123
123
98
98
106
74
123
123
98
131
131
131
106
115
82
98
106
74
123
123
123
115
115
115
115
115
115
115
115
115
115
115
115
123
123
123
123
123
123
98
106
74
115
115
115
106
106
106
115
115
115
106
106
106
123
123
123
106
106
106
106
106
106
106
106
106
98
106
74
106
115
82
123
123
123
123
123
123
123
123
123
123
123
123
106
115
82
123
123
123
131
131
131
90
98
65
98
106
74
106
106
106
123
123
123
123
123
123
131
131
131
148
148
148
131
131
131
123
123
123
90
98
65
98
106
74
90
98
65
98
106
74
115
115
115
123
123
123
106
106
106
90
98
65
90
90
90
82
82
57
106
115
82
123
123
123
123
123
98
98
106
74
123
123
123
123
123
123
106
115
82
98
106
74
123
123
123
123
123
123
106
115
82
106
106
106
98
106
74
106
115
82
98
106
74
106
115
82
123
123
98
123
123
123
123
123
98
98
106
74
123
123
123
123
123
123
115
115
115
123
123
123
115
115
115
123
123
123
123
123
123
106
115
82
115
115
115
106
106
106
115
115
115
115
115
115
123
123
123
106
106
106
90
90
90
106
106
106
98
106
74
98
106
74
123
123
123
123
123
123
123
123
123
123
123
123
106
115
82
123
123
123
131
131
131
106
106
106
90
98
65
106
106
106
123
123
123
123
123
123
139
139
139
156
131
106
139
139
139
123
123
123
98
106
74
98
106
74
90
98
65
106
115
82
123
123
123
123
123
123
106
106
106
90
98
65
90
90
90
82
82
57
106
115
82
123
123
123
123
123
98
115
115
115
123
123
123
123
123
123
123
123
98
98
106
74
123
123
123
123
123
123
106
115
82
106
106
106
98
106
74
90
98
65
98
106
74
106
115
82
123
123
98
131
131
131
106
115
82
106
115
82
123
123
123
123
123
123
115
115
115
123
123
123
115
115
115
123
123
123
123
123
123
106
115
82
115
115
115
106
106
106
115
115
115
115
115
115
123
123
123
106
106
106
106
106
106
106
106
106
98
106
74
98
106
74
123
123
123
123
123
123
123
123
123
123
123
123
106
115
82
123
123
123
131
131
131
115
115
115
90
98
65
106
106
106
123
123
123
123
123
123
131
106
82
57
57
57
131
106
82
123
123
123
98
106
74
98
106
74
90
98
65
106
115
82
123
123
123
123
123
123
106
106
106
106
106
106
90
90
90
82
82
57
98
106
74
123
123
123
123
123
98
115
115
115
123
123
123
123
123
123
123
123
98
98
106
74
115
115
115
123
123
123
106
115
82
106
106
106
98
106
74
90
98
65
98
106
74
106
115
82
123
123
98
123
123
123
123
123
98
98
106
74
115
115
115
123
123
123
123
123
123
123
123
123
115
115
115
123
123
123
123
123
123
106
115
82
106
106
106
115
115
115
115
115
115
115
115
115
115
115
115
115
115
115
90
90
90
106
106
106
98
106
74
98
106
74
123
123
123
115
115
115
115
115
115
123
123
123
106
115
82
123
123
123
131
131
131
115
115
115
106
106
106
106
106
106
123
123
123
123
123
123
131
131
131
90
90
90
131
131
131
123
123
123
115
115
115
98
106
74
90
98
65
106
115
82
123
123
123
115
115
115
115
115
115
106
106
106
90
90
90
82
82
57
115
115
115
115
115
115
123
123
98
115
115
115
123
123
123
123
123
123
123
123
98
98
106
74
123
123
123
123
123
123
106
115
82
106
106
106
106
115
82
98
106
74
106
115
82
106
115
82
123
123
98
123
123
123
98
106
74
98
106
74
115
115
115
123
123
123
123
123
123
131
131
131
123
123
123
123
123
123
123
123
123
98
106
74
115
115
115
115
115
115
123
123
123
115
115
115
115
115
115
115
115
115
90
90
90
106
106
106
98
106
74
98
106
74
115
115
115
115
115
115
115
115
115
115
115
115
106
115
82
123
123
123
131
131
131
115
115
115
115
115
115
106
106
106
123
123
123
115
115
115
139
139
139
164
164
164
139
139
139
123
123
123
115
115
115
106
115
82
98
106
74
106
115
82
115
115
115
123
123
123
115
115
115
115
115
115
106
106
106
82
82
57
115
115
115
123
123
123
123
123
98
115
115
115
115
115
115
115
115
115
123
123
98
106
115
82
123
123
123
123
123
123
106
115
82
106
106
106
106
115
82
98
106
74
106
115
82
98
106
74
123
123
98
123
123
123
98
106
74
106
115
82
115
115
115
123
123
123
123
123
123
123
123
123
123
123
123
123
123
123
123
123
123
106
115
82
106
106
106
115
115
115
123
123
123
115
115
115
115
115
115
115
115
115
90
90
90
106
106
106
106
115
82
106
115
82
115
115
115
123
123
123
123
123
123
123
123
123
106
115
82
123
123
123
131
131
131
115
115
115
115
115
115
106
106
106
123
123
123
123
123
123
123
123
123
139
139
139
123
123
123
123
123
123
115
115
115
123
123
98
98
106
74
123
123
98
123
123
123
123
123
123
115
115
115
115
115
115
106
106
106
82
82
57
115
115
115
123
123
123
123
123
98
123
123
123
115
115
115
115
115
115
123
123
98
106
115
82
131
131
131
123
123
123
106
115
82
106
106
106
106
115
82
106
115
82
98
106
74
98
106
74
123
123
98
123
123
123
106
115
82
106
115
82
123
123
123
123
123
123
123
123
123
123
123
123
123
123
123
123
123
123
123
123
123
106
115
82
106
106
106
115
115
115
123
123
123
115
115
115
106
106
106
115
115
115
90
90
90
106
106
106
106
115
82
106
115
82
106
106
106
123
123
123
123
123
123
123
123
123
106
115
82
123
123
123
131
131
131
115
115
115
115
115
115
115
115
115
123
123
123
123
123
123
123
123
123
123
123
123
123
123
123
123
123
123
123
123
123
123
123
123
106
115
82
123
123
98
123
123
123
131
131
131
115
115
115
115
115
115
106
106
106
82
82
57
115
115
115
115
115
115
123
123
98
123
123
123
123
123
123
115
115
115
123
123
98
123
123
98
123
123
123
123
123
123
106
115
82
106
106
106
106
115
82
106
115
82
98
106
74
98
106
74
123
123
98
123
123
123
123
123
98
106
115
82
123
123
123
123
123
123
123
123
123
131
131
131
123
123
123
123
123
123
123
123
123
123
123
98
106
106
106
115
115
115
123
123
123
123
123
123
106
106
106
115
115
115
90
90
90
106
106
106
106
115
82
98
106
74
106
106
106
123
123
123
123
123
123
123
123
123
106
115
82
123
123
123
131
131
131
115
115
115
115
115
115
115
115
115
123
123
123
123
123
123
123
123
123
123
123
123
106
106
106
123
123
123
115
115
115
123
123
123
106
115
82
123
123
98
131
131
131
131
131
131
115
115
115
115
115
115
106
106
106
90
98
65
115
115
115
115
115
115
123
123
98
123
123
123
115
115
115
115
115
115
106
115
82
106
115
82
131
131
131
115
115
115
98
106
74
106
106
106
106
115
82
90
98
65
98
106
74
98
106
74
131
131
131
123
123
123
106
115
82
106
115
82
123
123
123
123
123
123
123
123
123
123
123
123
123
123
123
123
123
123
123
123
123
123
123
98
106
106
106
106
106
106
123
123
123
123
123
123
106
106
106
115
115
115
90
90
90
106
106
106
123
123
123
115
115
115
106
106
106
123
123
123
123
123
123
123
123
123
106
115
82
115
115
115
123
123
123
115
115
115
123
123
123
115
115
115
123
123
123
115
115
115
123
123
123
123
123
123
115
115
115
123
123
123
115
115
115
123
123
123
106
115
82
123
123
98
131
131
131
123
123
123
115
115
115
115
115
115
106
106
106
90
98
65
115
115
115
115
115
115
98
106
74
123
123
123
115
115
115
123
123
123
106
115
82
106
115
82
123
123
123
115
115
115
98
106
74
106
106
106
106
115
82
98
106
74
106
115
82
98
106
74
123
123
123
115
115
115
106
115
82
123
123
123
123
123
123
123
123
123
123
123
123
123
123
123
123
123
123
123
123
123
123
123
123
123
123
123
90
90
90
90
90
90
115
115
115
123
123
123
115
115
115
115
115
115
90
90
90
106
106
106
115
115
115
115
115
115
106
106
106
123
123
123
123
123
123
115
115
115
106
115
82
123
123
123
131
131
131
123
123
123
123
123
123
115
115
115
123
123
123
115
115
115
123
123
123
123
123
123
115
115
115
123
123
123
123
123
123
123
123
123
106
115
82
123
123
98
123
123
123
115
115
115
106
106
106
106
106
106
106
106
106
90
98
65
123
123
123
123
123
123
123
123
123
115
115
115
123
123
123
148
148
148
123
123
123
106
115
82
123
123
123
115
115
115
106
115
82
90
90
90
106
115
82
98
106
74
98
106
74
106
115
82
123
123
123
115
115
115
106
115
82
123
123
123
123
123
123
123
123
123
123
123
123
131
131
131
123
123
123
123
123
123
123
123
123
123
123
123
90
90
90
106
106
106
115
115
115
123
123
123
106
106
106
115
115
115
90
90
90
106
106
106
115
115
115
123
123
123
106
106
106
123
123
123
123
123
123
115
115
115
98
106
74
123
123
123
123
123
123
123
123
123
123
123
123
115
115
115
123
123
123
123
123
123
123
123
123
123
123
123
115
115
115
123
123
123
115
115
115
123
123
123
106
115
82
123
123
98
123
123
123
115
115
115
115
115
115
106
106
106
90
90
90
106
106
106
123
123
123
123
123
123
123
123
123
115
115
115
115
115
115
90
90
90
123
123
123
106
115
82
123
123
123
115
115
115
106
115
82
90
90
90
106
115
82
90
98
65
98
106
74
106
115
82
131
131
131
115
115
115
106
115
82
123
123
123
123
123
123
115
115
115
115
115
115
123
123
123
123
123
123
123
123
123
123
123
123
123
123
123
106
106
106
106
106
106
115
115
115
123
123
123
106
106
106
115
115
115
90
90
90
106
106
106
115
115
115
123
123
123
106
106
106
123
123
123
131
131
131
123
123
123
106
115
82
115
115
115
115
115
115
123
123
123
123
123
123
115
115
115
123
123
123
123
123
123
123
123
123
123
123
123
115
115
115
115
115
115
115
115
115
123
123
123
106
115
82
123
123
98
123
123
123
115
115
115
115
115
115
106
106
106
90
90
90
106
106
106
123
123
123
123
123
123
123
123
123
115
115
115
115
115
115
90
90
90
115
115
115
123
123
98
123
123
123
123
123
123
106
115
82
106
106
106
106
115
82
90
98
65
98
106
74
106
115
82
123
123
123
115
115
115
98
106
74
123
123
123
123
123
123
115
115
115
115
115
115
123
123
123
123
123
123
123
123
123
123
123
123
123
123
123
90
90
90
115
115
115
115
115
115
123
123
123
106
106
106
115
115
115
106
106
106
106
106
106
123
123
123
123
123
123
106
106
106
123
123
123
123
123
123
123
123
123
106
115
82
123
123
123
123
123
123
123
123
123
115
115
115
115
115
115
123
123
123
123
123
123
123
123
123
123
123
123
115
115
115
115
115
115
115
115
115
123
123
123
106
115
82
123
123
98
123
123
123
106
106
106
123
123
123
106
106
106
90
90
90
106
106
106
123
123
123
115
115
115
115
115
115
123
123
123
115
115
115
106
106
106
115
115
115
106
115
82
123
123
123
123
123
123
123
123
123
106
106
106
123
123
98
90
98
65
98
106
74
106
115
82
123
123
123
115
115
115
106
115
82
115
115
115
123
123
123
115
115
115
123
123
123
123
123
123
123
123
123
123
123
123
123
123
123
123
123
123
90
90
90
123
123
123
115
115
115
123
123
123
106
106
106
115
115
115
106
106
106
115
115
115
115
115
115
115
115
115
106
106
106
123
123
123
131
131
131
123
123
123
106
115
82
123
123
123
123
123
123
123
123
123
115
115
115
115
115
115
123
123
123
123
123
123
123
123
123
123
123
123
123
123
123
123
123
123
115
115
115
123
123
123
106
115
82
123
123
98
123
123
123
106
106
106
123
123
123
106
106
106
90
90
90
106
106
106
123
123
123
123
123
123
115
115
115
115
115
115
123
123
123
115
115
115
123
123
123
123
123
98
123
123
123
123
123
123
123
123
123
106
106
106
123
123
123
98
106
74
106
115
82
98
106
74
123
123
123
115
115
115
123
123
123
115
115
115
123
123
123
115
115
115
123
123
123
131
131
131
123
123
123
123
123
123
123
123
123
123
123
123
106
106
106
115
115
115
115
115
115
123
123
123
106
106
106
115
115
115
115
115
115
115
115
115
115
115
115
123
123
123
106
106
106
123
123
123
123
123
123
123
123
123
106
115
82
115
115
115
115
115
115
123
123
123
115
115
115
115
115
115
123
123
123
123
123
123
123
123
123
123
123
123
123
123
123
123
123
123
115
115
115
123
123
123
98
106
74
123
123
98
123
123
123
115
115
115
123
123
123
106
106
106
90
90
90
106
106
106
123
123
123
123
123
123
115
115
115
115
115
115
123
123
123
131
131
131
123
123
123
123
123
123
123
123
123
123
123
123
123
123
123
106
106
106
123
123
123
98
106
74
106
115
82
98
106
74
123
123
123
115
115
115
115
115
115
123
123
123
123
123
123
123
123
123
123
123
123
123
123
123
123
123
123
123
123
123
123
123
123
115
115
115
106
106
106
115
115
115
123
123
123
123
123
123
106
106
106
115
115
115
115
115
115
115
115
115
115
115
115
123
123
123
106
106
106
115
115
115
123
123
123
115
115
115
123
123
123
115
115
115
115
115
115
123
123
123
115
115
115
115
115
115
123
123
123
123
123
123
123
123
123
123
123
123
123
123
123
123
123
123
115
115
115
123
123
123
98
106
74
106
115
82
123
123
123
123
123
123
123
123
123
106
106
106
106
106
106
115
115
115
123
123
123
123
123
123
115
115
115
115
115
115
115
115
115
123
123
123
115
115
115
123
123
123
123
123
123
115
115
115
115
115
115
106
106
106
123
123
123
115
115
115
106
115
82
98
106
74
131
131
131
123
123
123
115
115
115
123
123
123
123
123
123
123
123
123
123
123
123
115
115
115
115
115
115
123
123
123
123
123
123
123
123
123
106
106
106
115
115
115
123
123
123
123
123
123
106
106
106
115
115
115
115
115
115
115
115
115
115
115
115
115
115
115
106
106
106
115
115
115
123
123
123
106
106
106
115
115
115
115
115
115
115
115
115
123
123
123
115
115
115
115
115
115
123
123
123
123
123
123
123
123
123
131
131
131
123
123
123
123
123
123
115
115
115
123
123
123
123
123
98
106
115
82
115
115
115
115
115
115
115
115
115
115
115
115
115
115
115
115
115
115
131
131
131
115
115
115
131
131
131
115
115
115
115
115
115
131
131
131
123
123
123
123
123
123
123
123
123
115
115
115
115
115
115
90
90
90
115
115
115
106
106
106
98
106
74
98
106
74
131
131
131
123
123
123
115
115
115
123
123
123
123
123
123
123
123
123
123
123
123
123
123
123
115
115
115
123
123
123
123
123
123
123
123
123
106
106
106
115
115
115
123
123
123
123
123
123
106
106
106
123
123
123
115
115
115
123
123
123
115
115
115
115
115
115
106
106
106
123
123
123
123
123
123
106
106
106
115
115
115
123
123
123
123
123
123
123
123
123
115
115
115
115
115
115
123
123
123
123
123
123
123
123
123
123
123
123
123
123
123
123
123
123
115
115
115
131
131
131
123
123
98
106
115
82
115
115
115
115
115
115
115
115
115
115
115
115
115
115
115
115
115
115
123
123
123
123
123
123
115
115
115
123
123
123
115
115
115
123
123
123
115
115
115
123
123
123
123
123
123
115
115
115
115
115
115
90
90
90
115
115
115
115
115
115
106
115
82
115
115
115
131
131
131
123
123
123
123
123
123
123
123
123
123
123
123
123
123
123
123
123
123
123
123
123
115
115
115
123
123
123
115
115
115
123
123
123
106
106
106
115
115
115
123
123
123
123
123
123
106
106
106
123
123
123
115
115
115
123
123
123
115
115
115
115
115
115
106
106
106
123
123
123
123
123
123
106
106
106
115
115
115
115
115
115
115
115
115
123
123
123
115
115
115
115
115
115
123
123
123
123
123
123
123
123
123
131
131
131
115
115
115
131
131
131
106
106
106
131
131
131
123
123
123
106
115
82
123
123
123
115
115
115
115
115
115
115
115
115
115
115
115
115
115
115
123
123
123
115
115
115
115
115
115
123
123
123
123
123
123
131
131
131
115
115
115
123
123
123
123
123
123
123
123
123
115
115
115
106
106
106
115
115
115
123
123
123
123
123
123
115
115
115
131
131
131
123
123
123
123
123
123
123
123
123
123
123
123
123
123
123
123
123
123
123
123
123
123
123
123
123
123
123
123
123
123
123
123
123
115
115
115
115
115
115
115
115
115
123
123
123
106
106
106
123
123
123
123
123
123
123
123
123
115
115
115
115
115
115
106
106
106
123
123
123
115
115
115
115
115
115
115
115
115
115
115
115
115
115
115
123
123
123
106
106
106
115
115
115
123
123
123
123
123
123
123
123
123
131
131
131
115
115
115
123
123
123
115
115
115
131
131
131
123
123
123
123
123
123
123
123
123
115
115
115
123
123
123
115
115
115
106
106
106
115
115
115
123
123
123
115
115
115
115
115
115
123
123
123
115
115
115
123
123
123
115
115
115
123
123
123
123
123
123
123
123
123
115
115
115
106
106
106
115
115
115
123
123
123
123
123
123
123
123
123
131
131
131
123
123
123
123
123
123
82
82
82
90
90
90
82
82
82
82
82
82
82
82
82
82
82
82
90
90
90
82
82
82
82
82
82
82
82
82
82
82
82
82
82
82
82
82
82
82
82
82
90
90
90
82
82
82
90
90
90
82
82
82
82
82
82
82
82
82
82
82
82
82
82
82
82
82
82
90
90
90
82
82
82
82
82
82
82
82
82
82
82
82
82
82
82
90
90
90
82
82
82
82
82
82
82
82
82
82
82
82
90
90
90
82
82
82
82
82
82
82
82
82
82
82
82
82
82
82
82
82
82
82
82
82
82
82
82
82
82
82
82
82
82
90
90
90
82
82
82
82
82
82
82
82
82
90
90
90
82
82
82
82
82
82
82
82
82
82
82
82
82
82
82
82
82
82
82
82
82
82
82
82
82
82
82
82
82
82
90
90
90
90
90
90
82
82
82
82
82
82
