P3
# Created by GIMP version 2.10.38 PNM plug-in
64 64
255
106
106
106
98
98
98
98
98
98
106
106
106
98
98
98
98
98
98
98
98
98
98
98
98
98
98
98
98
98
98
98
98
98
98
98
98
98
98
98
98
98
98
98
98
98
98
98
98
98
98
98
98
98
98
98
98
98
106
106
106
98
98
98
98
98
98
98
98
98
98
98
98
98
98
98
98
98
98
98
98
98
98
98
98
98
98
98
98
98
98
98
98
98
98
98
98
98
98
98
98
98
98
98
98
98
106
106
106
98
98
98
98
98
98
98
98
98
98
98
98
98
98
98
98
98
98
98
98
98
98
98
98
98
98
98
98
98
98
98
98
98
98
98
98
98
98
98
98
98
98
98
98
98
106
106
106
98
98
98
98
98
98
98
98
98
98
98
98
98
98
98
98
98
98
98
98
98
98
98
98
98
98
98
98
98
98
98
98
98
106
106
106
106
106
106
98
98
98
106
106
106
106
106
106
123
123
123
98
98
98
106
106
106
106
106
106
106
106
106
98
98
98
123
123
123
123
123
123
98
98
98
106
106
106
98
98
98
106
106
106
106
106
106
98
98
98
106
106
106
106
106
106
98
98
98
106
106
106
90
90
90
106
106
106
106
106
106
106
106
106
98
98
98
98
98
98
106
106
106
98
98
98
106
106
106
98
98
98
106
106
106
123
123
123
106
106
106
106
106
106
106
106
106
123
123
123
106
106
106
98
98
98
106
106
106
106
106
106
98
98
98
106
106
106
98
98
98
106
106
106
123
123
123
98
98
98
106
106
106
106
106
106
98
98
98
106
106
106
106
106
106
106
106
106
98
98
98
98
98
98
106
106
106
106
106
106
106
106
106
98
98
98
106
106
106
106
106
106
106
106
106
123
123
123
106
106
106
98
98
98
106
106
106
123
123
123
106
106
106
98
98
98
106
106
106
106
106
106
98
98
98
106
106
106
98
98
98
106
106
106
106
106
106
106
106
106
106
106
106
106
106
106
106
106
106
98
98
98
106
106
106
98
98
98
106
106
106
106
106
106
106
106
106
106
106
106
98
98
98
106
106
106
106
106
106
106
106
106
106
106
106
98
98
98
106
106
106
98
98
98
98
98
98
106
106
106
106
106
106
106
106
106
106
106
106
106
106
106
106
106
106
98
98
98
98
98
98
106
106
106
98
98
98
106
106
106
98
98
98
106
106
106
106
106
106
106
106
106
106
106
106
98
98
98
106
106
106
98
98
98
106
106
106
98
98
98
106
106
106
98
98
98
106
106
106
106
106
106
106
106
106
106
106
106
98
98
98
106
106
106
106
106
106
123
123
123
106
106
106
98
98
98
106
106
106
106
106
106
106
106
106
98
98
98
106
106
106
98
98
98
98
98
98
106
106
106
106
106
106
106
106
106
106
106
106
106
106
106
106
106
106
98
98
98
106
106
106
106
106
106
98
98
98
106
106
106
106
106
106
106
106
106
106
106
106
106
106
106
106
106
106
98
98
98
106
106
106
106
106
106
98
98
98
106
106
106
106
106
106
106
106
106
106
106
106
98
98
98
106
106
106
98
98
98
98
98
98
106
106
106
106
106
106
98
98
98
106
106
106
98
98
98
98
98
98
106
106
106
98
98
98
106
106
106
106
106
106
98
98
98
106
106
106
98
98
98
106
106
106
106
106
106
98
98
98
106
106
106
106
106
106
98
98
98
98
98
98
106
106
106
98
98
98
98
98
98
106
106
106
106
106
106
106
106
106
123
123
123
106
106
106
98
98
98
98
98
98
106
106
106
106
106
106
98
98
98
106
106
106
106
106
106
98
98
98
106
106
106
106
106
106
106
106
106
98
98
98
106
106
106
106
106
106
106
106
106
98
98
98
106
106
106
106
106
106
106
106
106
106
106
106
106
106
106
106
106
106
123
123
123
98
98
98
123
123
123
106
106
106
98
98
98
123
123
123
106
106
106
106
106
106
98
98
98
98
98
98
106
106
106
106
106
106
106
106
106
98
98
98
106
106
106
106
106
106
106
106
106
98
98
98
106
106
106
106
106
106
106
106
106
106
106
106
98
98
98
106
106
106
106
106
106
106
106
106
106
106
106
123
123
123
98
98
98
106
106
106
98
98
98
106
106
106
98
98
98
106
106
106
106
106
106
106
106
106
106
106
106
106
106
106
106
106
106
98
98
98
123
123
123
106
106
106
98
98
98
106
106
106
106
106
106
106
106
106
106
106
106
106
106
106
106
106
106
98
98
98
106
106
106
98
98
98
123
123
123
106
106
106
98
98
98
106
106
106
106
106
106
106
106
106
106
106
106
98
98
98
106
106
106
106
106
106
106
106
106
98
98
98
106
106
106
106
106
106
106
106
106
106
106
106
106
106
106
106
106
106
106
106
106
123
123
123
106
106
106
106
106
106
106
106
106
106
106
106
106
106
106
106
106
106
106
106
106
106
106
106
106
106
106
106
106
106
123
123
123
106
106
106
106
106
106
106
106
106
106
106
106
98
98
98
106
106
106
106
106
106
106
106
106
98
98
98
106
106
106
106
106
106
98
98
98
106
106
106
106
106
106
98
98
98
106
106
106
98
98
98
98
98
98
106
106
106
106
106
106
106
106
106
123
123
123
106
106
106
98
98
98
106
106
106
106
106
106
106
106
106
106
106
106
106
106
106
98
98
98
123
123
123
106
106
106
106
106
106
106
106
106
106
106
106
123
123
123
98
98
98
106
106
106
98
98
98
98
98
98
106
106
106
106
106
106
123
123
123
106
106
106
106
106
106
106
106
106
106
106
106
106
106
106
98
98
98
106
106
106
106
106
106
98
98
98
98
98
98
98
98
98
106
106
106
106
106
106
106
106
106
98
98
98
106
106
106
98
98
98
98
98
98
106
106
106
106
106
106
106
106
106
106
106
106
106
106
106
98
98
98
106
106
106
106
106
106
106
106
106
106
106
106
106
106
106
106
106
106
106
106
106
98
98
98
106
106
106
106
106
106
98
98
98
98
98
98
98
98
98
106
106
106
106
106
106
106
106
106
106
106
106
106
106
106
123
123
123
106
106
106
98
98
98
106
106
106
98
98
98
106
106
106
106
106
106
98
98
98
106
106
106
106
106
106
106
106
106
106
106
106
106
106
106
106
106
106
98
98
98
106
106
106
106
106
106
106
106
106
98
98
98
98
98
98
106
106
106
106
106
106
106
106
106
98
98
98
106
106
106
98
98
98
106
106
106
106
106
106
106
106
106
98
98
98
106
106
106
106
106
106
106
106
106
106
106
106
123
123
123
98
98
98
106
106
106
106
106
106
123
123
123
98
98
98
106
106
106
106
106
106
106
106
106
106
106
106
106
106
106
106
106
106
98
98
98
106
106
106
106
106
106
98
98
98
106
106
106
106
106
106
106
106
106
106
106
106
106
106
106
123
123
123
106
106
106
106
106
106
98
98
98
98
98
98
123
123
123
106
106
106
106
106
106
98
98
98
123
123
123
106
106
106
98
98
98
106
106
106
106
106
106
106
106
106
106
106
106
106
106
106
106
106
106
106
106
106
98
98
98
106
106
106
106
106
106
106
106
106
98
98
98
106
106
106
106
106
106
106
106
106
106
106
106
106
106
106
106
106
106
106
106
106
98
98
98
106
106
106
98
98
98
106
106
106
106
106
106
98
98
98
106
106
106
106
106
106
98
98
98
106
106
106
106
106
106
98
98
98
106
106
106
106
106
106
106
106
106
98
98
98
106
106
106
98
98
98
106
106
106
98
98
98
106
106
106
106
106
106
98
98
98
106
106
106
106
106
106
123
123
123
106
106
106
106
106
106
98
98
98
106
106
106
106
106
106
98
98
98
106
106
106
106
106
106
98
98
98
98
98
98
98
98
98
106
106
106
106
106
106
90
90
90
106
106
106
98
98
98
123
123
123
106
106
106
98
98
98
106
106
106
106
106
106
106
106
106
106
106
106
98
98
98
106
106
106
98
98
98
106
106
106
98
98
98
106
106
106
98
98
98
106
106
106
106
106
106
106
106
106
98
98
98
106
106
106
123
123
123
106
106
106
98
98
98
106
106
106
106
106
106
106
106
106
106
106
106
106
106
106
106
106
106
106
106
106
106
106
106
106
106
106
98
98
98
98
98
98
106
106
106
98
98
98
106
106
106
98
98
98
90
90
90
106
106
106
106
106
106
106
106
106
98
98
98
106
106
106
106
106
106
98
98
98
106
106
106
98
98
98
106
106
106
106
106
106
106
106
106
106
106
106
98
98
98
98
98
98
106
106
106
106
106
106
106
106
106
106
106
106
98
98
98
98
98
98
98
98
98
106
106
106
98
98
98
106
106
106
106
106
106
123
123
123
106
106
106
98
98
98
106
106
106
106
106
106
106
106
106
106
106
106
106
106
106
106
106
106
106
106
106
106
106
106
106
106
106
98
98
98
98
98
98
106
106
106
98
98
98
123
123
123
106
106
106
106
106
106
98
98
98
106
106
106
106
106
106
106
106
106
98
98
98
123
123
123
98
98
98
106
106
106
106
106
106
98
98
98
106
106
106
106
106
106
106
106
106
98
98
98
106
106
106
98
98
98
106
106
106
106
106
106
98
98
98
106
106
106
106
106
106
106
106
106
106
106
106
106
106
106
106
106
106
98
98
98
98
98
98
106
106
106
98
98
98
106
106
106
106
106
106
106
106
106
106
106
106
106
106
106
106
106
106
106
106
106
98
98
98
98
98
98
106
106
106
98
98
98
106
106
106
98
98
98
106
106
106
123
123
123
98
98
98
123
123
123
106
106
106
98
98
98
106
106
106
106
106
106
106
106
106
106
106
106
106
106
106
106
106
106
123
123
123
106
106
106
106
106
106
98
98
98
98
98
98
98
98
98
123
123
123
106
106
106
106
106
106
98
98
98
106
106
106
98
98
98
98
98
98
106
106
106
106
106
106
98
98
98
106
106
106
106
106
106
98
98
98
106
106
106
106
106
106
106
106
106
98
98
98
106
106
106
106
106
106
98
98
98
106
106
106
123
123
123
106
106
106
106
106
106
106
106
106
106
106
106
98
98
98
106
106
106
98
98
98
98
98
98
106
106
106
106
106
106
98
98
98
98
98
98
106
106
106
98
98
98
106
106
106
106
106
106
98
98
98
98
98
98
98
98
98
106
106
106
98
98
98
106
106
106
106
106
106
98
98
98
106
106
106
98
98
98
98
98
98
123
123
123
106
106
106
106
106
106
106
106
106
106
106
106
106
106
106
123
123
123
106
106
106
123
123
123
106
106
106
106
106
106
106
106
106
106
106
106
106
106
106
106
106
106
106
106
106
106
106
106
106
106
106
106
106
106
106
106
106
106
106
106
106
106
106
98
98
98
106
106
106
106
106
106
106
106
106
106
106
106
98
98
98
98
98
98
106
106
106
106
106
106
106
106
106
98
98
98
123
123
123
106
106
106
98
98
98
106
106
106
106
106
106
106
106
106
98
98
98
98
98
98
106
106
106
98
98
98
106
106
106
106
106
106
123
123
123
98
98
98
106
106
106
98
98
98
123
123
123
106
106
106
98
98
98
106
106
106
106
106
106
106
106
106
98
98
98
106
106
106
98
98
98
106
106
106
106
106
106
106
106
106
98
98
98
106
106
106
98
98
98
123
123
123
106
106
106
98
98
98
123
123
123
106
106
106
123
123
123
123
123
123
123
123
123
106
106
106
106
106
106
98
98
98
98
98
98
106
106
106
98
98
98
106
106
106
106
106
106
98
98
98
106
106
106
98
98
98
98
98
98
106
106
106
106
106
106
106
106
106
106
106
106
106
106
106
106
106
106
106
106
106
106
106
106
98
98
98
123
123
123
106
106
106
98
98
98
106
106
106
106
106
106
106
106
106
98
98
98
106
106
106
106
106
106
98
98
98
106
106
106
106
106
106
106
106
106
106
106
106
106
106
106
106
106
106
106
106
106
98
98
98
106
106
106
106
106
106
106
106
106
90
90
90
106
106
106
98
98
98
98
98
98
98
98
98
106
106
106
106
106
106
98
98
98
123
123
123
106
106
106
98
98
98
106
106
106
106
106
106
106
106
106
123
123
123
106
106
106
98
98
98
106
106
106
106
106
106
106
106
106
106
106
106
106
106
106
98
98
98
98
98
98
106
106
106
106
106
106
106
106
106
106
106
106
123
123
123
98
98
98
106
106
106
106
106
106
98
98
98
98
98
98
106
106
106
106
106
106
106
106
106
106
106
106
106
106
106
98
98
98
106
106
106
98
98
98
106
106
106
98
98
98
98
98
98
123
123
123
106
106
106
98
98
98
98
98
98
106
106
106
106
106
106
106
106
106
106
106
106
106
106
106
106
106
106
106
106
106
106
106
106
106
106
106
98
98
98
106
106
106
98
98
98
106
106
106
106
106
106
106
106
106
98
98
98
123
123
123
106
106
106
106
106
106
106
106
106
106
106
106
106
106
106
106
106
106
106
106
106
106
106
106
106
106
106
98
98
98
106
106
106
106
106
106
123
123
123
106
106
106
98
98
98
106
106
106
98
98
98
106
106
106
106
106
106
106
106
106
106
106
106
98
98
98
98
98
98
106
106
106
106
106
106
98
98
98
106
106
106
106
106
106
106
106
106
106
106
106
106
106
106
106
106
106
98
98
98
106
106
106
106
106
106
106
106
106
106
106
106
98
98
98
98
98
98
106
106
106
106
106
106
98
98
98
106
106
106
106
106
106
106
106
106
98
98
98
98
98
98
106
106
106
98
98
98
106
106
106
106
106
106
98
98
98
106
106
106
106
106
106
98
98
98
98
98
98
106
106
106
123
123
123
106
106
106
106
106
106
106
106
106
98
98
98
106
106
106
98
98
98
123
123
123
106
106
106
106
106
106
106
106
106
98
98
98
106
106
106
98
98
98
98
98
98
98
98
98
106
106
106
106
106
106
106
106
106
123
123
123
106
106
106
98
98
98
106
106
106
106
106
106
98
98
98
106
106
106
106
106
106
106
106
106
106
106
106
106
106
106
106
106
106
123
123
123
106
106
106
106
106
106
106
106
106
106
106
106
98
98
98
106
106
106
98
98
98
106
106
106
106
106
106
98
98
98
98
98
98
106
106
106
98
98
98
106
106
106
106
106
106
98
98
98
106
106
106
106
106
106
106
106
106
106
106
106
106
106
106
106
106
106
106
106
106
106
106
106
106
106
106
106
106
106
98
98
98
106
106
106
106
106
106
106
106
106
106
106
106
106
106
106
98
98
98
106
106
106
106
106
106
106
106
106
98
98
98
106
106
106
106
106
106
106
106
106
98
98
98
106
106
106
106
106
106
98
98
98
106
106
106
106
106
106
106
106
106
106
106
106
106
106
106
106
106
106
106
106
106
123
123
123
106
106
106
98
98
98
106
106
106
106
106
106
98
98
98
106
106
106
98
98
98
106
106
106
106
106
106
106
106
106
106
106
106
98
98
98
106
106
106
106
106
106
106
106
106
98
98
98
106
106
106
98
98
98
106
106
106
106
106
106
106
106
106
106
106
106
106
106
106
106
106
106
106
106
106
98
98
98
106
106
106
106
106
106
106
106
106
106
106
106
106
106
106
106
106
106
106
106
106
106
106
106
98
98
98
106
106
106
123
123
123
106
106
106
106
106
106
98
98
98
98
98
98
106
106
106
106
106
106
106
106
106
98
98
98
106
106
106
106
106
106
106
106
106
98
98
98
106
106
106
98
98
98
123
123
123
98
98
98
98
98
98
98
98
98
106
106
106
106
106
106
106
106
106
106
106
106
98
98
98
106
106
106
106
106
106
106
106
106
123
123
123
106
106
106
98
98
98
106
106
106
106
106
106
98
98
98
123
123
123
98
98
98
106
106
106
123
123
123
98
98
98
106
106
106
123
123
123
106
106
106
106
106
106
106
106
106
106
106
106
123
123
123
106
106
106
106
106
106
98
98
98
106
106
106
106
106
106
106
106
106
98
98
98
106
106
106
98
98
98
106
106
106
98
98
98
123
123
123
98
98
98
106
106
106
98
98
98
98
98
98
106
106
106
98
98
98
123
123
123
106
106
106
106
106
106
123
123
123
106
106
106
98
98
98
106
106
106
106
106
106
98
98
98
106
106
106
98
98
98
106
106
106
106
106
106
106
106
106
98
98
98
106
106
106
98
98
98
106
106
106
98
98
98
106
106
106
106
106
106
106
106
106
106
106
106
98
98
98
106
106
106
98
98
98
106
106
106
98
98
98
123
123
123
106
106
106
98
98
98
98
98
98
106
106
106
123
123
123
98
98
98
106
106
106
123
123
123
106
106
106
106
106
106
123
123
123
98
98
98
98
98
98
106
106
106
123
123
123
106
106
106
106
106
106
106
106
106
123
123
123
106
106
106
98
98
98
106
106
106
106
106
106
106
106
106
98
98
98
106
106
106
106
106
106
106
106
106
106
106
106
106
106
106
106
106
106
106
106
106
98
98
98
98
98
98
106
106
106
106
106
106
98
98
98
106
106
106
106
106
106
106
106
106
123
123
123
106
106
106
106
106
106
123
123
123
106
106
106
106
106
106
98
98
98
106
106
106
98
98
98
106
106
106
106
106
106
106
106
106
123
123
123
98
98
98
106
106
106
106
106
106
106
106
106
98
98
98
106
106
106
106
106
106
98
98
98
98
98
98
106
106
106
123
123
123
106
106
106
98
98
98
106
106
106
106
106
106
106
106
106
106
106
106
106
106
106
106
106
106
106
106
106
98
98
98
106
106
106
98
98
98
106
106
106
106
106
106
98
98
98
123
123
123
98
98
98
106
106
106
106
106
106
106
106
106
106
106
106
98
98
98
123
123
123
106
106
106
106
106
106
123
123
123
98
98
98
98
98
98
106
106
106
106
106
106
106
106
106
123
123
123
106
106
106
106
106
106
123
123
123
98
98
98
106
106
106
98
98
98
106
106
106
106
106
106
106
106
106
98
98
98
123
123
123
98
98
98
106
106
106
106
106
106
98
98
98
106
106
106
106
106
106
106
106
106
98
98
98
106
106
106
106
106
106
106
106
106
98
98
98
106
106
106
106
106
106
98
98
98
98
98
98
106
106
106
106
106
106
90
90
90
106
106
106
123
123
123
106
106
106
98
98
98
106
106
106
106
106
106
106
106
106
98
98
98
98
98
98
106
106
106
98
98
98
106
106
106
123
123
123
98
98
98
106
106
106
98
98
98
98
98
98
106
106
106
98
98
98
106
106
106
98
98
98
106
106
106
106
106
106
98
98
98
106
106
106
98
98
98
106
106
106
106
106
106
106
106
106
106
106
106
106
106
106
106
106
106
106
106
106
106
106
106
106
106
106
106
106
106
98
98
98
98
98
98
106
106
106
98
98
98
106
106
106
98
98
98
106
106
106
123
123
123
106
106
106
98
98
98
106
106
106
106
106
106
106
106
106
123
123
123
106
106
106
106
106
106
106
106
106
106
106
106
106
106
106
98
98
98
106
106
106
106
106
106
106
106
106
98
98
98
106
106
106
106
106
106
106
106
106
90
90
90
106
106
106
123
123
123
106
106
106
98
98
98
106
106
106
106
106
106
106
106
106
98
98
98
98
98
98
106
106
106
106
106
106
98
98
98
106
106
106
98
98
98
106
106
106
106
106
106
98
98
98
106
106
106
98
98
98
98
98
98
106
106
106
106
106
106
98
98
98
106
106
106
106
106
106
106
106
106
106
106
106
98
98
98
106
106
106
106
106
106
98
98
98
106
106
106
106
106
106
106
106
106
106
106
106
98
98
98
123
123
123
106
106
106
106
106
106
106
106
106
106
106
106
106
106
106
98
98
98
98
98
98
106
106
106
98
98
98
106
106
106
106
106
106
98
98
98
106
106
106
106
106
106
106
106
106
106
106
106
106
106
106
106
106
106
98
98
98
98
98
98
98
98
98
98
98
98
98
98
98
106
106
106
106
106
106
106
106
106
106
106
106
98
98
98
123
123
123
106
106
106
98
98
98
106
106
106
123
123
123
106
106
106
106
106
106
106
106
106
106
106
106
98
98
98
106
106
106
106
106
106
106
106
106
106
106
106
106
106
106
106
106
106
98
98
98
106
106
106
106
106
106
98
98
98
106
106
106
106
106
106
106
106
106
98
98
98
106
106
106
123
123
123
106
106
106
106
106
106
106
106
106
98
98
98
106
106
106
106
106
106
106
106
106
106
106
106
98
98
98
106
106
106
106
106
106
106
106
106
123
123
123
106
106
106
106
106
106
106
106
106
106
106
106
106
106
106
106
106
106
98
98
98
106
106
106
98
98
98
106
106
106
106
106
106
106
106
106
98
98
98
106
106
106
106
106
106
106
106
106
106
106
106
98
98
98
106
106
106
98
98
98
106
106
106
106
106
106
106
106
106
106
106
106
98
98
98
123
123
123
106
106
106
98
98
98
106
106
106
106
106
106
106
106
106
106
106
106
106
106
106
98
98
98
106
106
106
106
106
106
98
98
98
106
106
106
106
106
106
123
123
123
98
98
98
106
106
106
106
106
106
98
98
98
123
123
123
106
106
106
106
106
106
106
106
106
98
98
98
98
98
98
106
106
106
106
106
106
106
106
106
123
123
123
106
106
106
106
106
106
106
106
106
98
98
98
106
106
106
106
106
106
106
106
106
106
106
106
123
123
123
106
106
106
106
106
106
98
98
98
106
106
106
106
106
106
106
106
106
106
106
106
98
98
98
98
98
98
106
106
106
106
106
106
106
106
106
106
106
106
106
106
106
106
106
106
98
98
98
106
106
106
98
98
98
106
106
106
106
106
106
106
106
106
106
106
106
106
106
106
106
106
106
90
90
90
106
106
106
123
123
123
106
106
106
98
98
98
106
106
106
98
98
98
106
106
106
106
106
106
106
106
106
98
98
98
123
123
123
106
106
106
98
98
98
106
106
106
106
106
106
106
106
106
106
106
106
106
106
106
98
98
98
106
106
106
106
106
106
106
106
106
106
106
106
106
106
106
106
106
106
106
106
106
106
106
106
98
98
98
106
106
106
106
106
106
98
98
98
123
123
123
98
98
98
98
98
98
106
106
106
98
98
98
106
106
106
98
98
98
106
106
106
106
106
106
106
106
106
98
98
98
106
106
106
106
106
106
98
98
98
106
106
106
106
106
106
98
98
98
98
98
98
98
98
98
98
98
98
106
106
106
98
98
98
106
106
106
98
98
98
106
106
106
106
106
106
106
106
106
106
106
106
98
98
98
106
106
106
106
106
106
106
106
106
98
98
98
106
106
106
123
123
123
106
106
106
98
98
98
106
106
106
106
106
106
106
106
106
106
106
106
98
98
98
123
123
123
106
106
106
98
98
98
98
98
98
106
106
106
98
98
98
98
98
98
98
98
98
106
106
106
98
98
98
106
106
106
106
106
106
106
106
106
106
106
106
98
98
98
106
106
106
98
98
98
98
98
98
98
98
98
106
106
106
98
98
98
106
106
106
123
123
123
98
98
98
106
106
106
98
98
98
106
106
106
106
106
106
106
106
106
106
106
106
106
106
106
98
98
98
106
106
106
106
106
106
98
98
98
106
106
106
123
123
123
98
98
98
98
98
98
106
106
106
98
98
98
106
106
106
106
106
106
106
106
106
106
106
106
106
106
106
98
98
98
106
106
106
98
98
98
98
98
98
98
98
98
106
106
106
98
98
98
106
106
106
106
106
106
106
106
106
123
123
123
106
106
106
98
98
98
106
106
106
123
123
123
106
106
106
106
106
106
98
98
98
123
123
123
106
106
106
98
98
98
106
106
106
106
106
106
98
98
98
123
123
123
106
106
106
98
98
98
106
106
106
106
106
106
106
106
106
106
106
106
106
106
106
106
106
106
106
106
106
98
98
98
106
106
106
106
106
106
106
106
106
98
98
98
106
106
106
98
98
98
106
106
106
106
106
106
106
106
106
98
98
98
98
98
98
106
106
106
106
106
106
106
106
106
98
98
98
123
123
123
106
106
106
106
106
106
106
106
106
106
106
106
98
98
98
106
106
106
106
106
106
106
106
106
106
106
106
98
98
98
106
106
106
106
106
106
98
98
98
106
106
106
106
106
106
106
106
106
106
106
106
90
90
90
106
106
106
98
98
98
90
90
90
106
106
106
98
98
98
123
123
123
106
106
106
98
98
98
98
98
98
106
106
106
106
106
106
98
98
98
106
106
106
123
123
123
106
106
106
98
98
98
106
106
106
106
106
106
106
106
106
98
98
98
106
106
106
106
106
106
106
106
106
106
106
106
106
106
106
123
123
123
106
106
106
106
106
106
98
98
98
98
98
98
106
106
106
106
106
106
98
98
98
106
106
106
98
98
98
106
106
106
106
106
106
106
106
106
98
98
98
98
98
98
98
98
98
106
106
106
106
106
106
106
106
106
106
106
106
106
106
106
106
106
106
106
106
106
98
98
98
106
106
106
106
106
106
106
106
106
106
106
106
98
98
98
98
98
98
106
106
106
98
98
98
106
106
106
106
106
106
106
106
106
106
106
106
106
106
106
106
106
106
106
106
106
106
106
106
98
98
98
106
106
106
106
106
106
98
98
98
123
123
123
106
106
106
98
98
98
98
98
98
106
106
106
98
98
98
98
98
98
106
106
106
106
106
106
98
98
98
106
106
106
98
98
98
98
98
98
106
106
106
106
106
106
106
106
106
98
98
98
98
98
98
106
106
106
106
106
106
106
106
106
106
106
106
98
98
98
106
106
106
106
106
106
106
106
106
98
98
98
106
106
106
98
98
98
123
123
123
106
106
106
98
98
98
106
106
106
98
98
98
106
106
106
106
106
106
123
123
123
106
106
106
106
106
106
98
98
98
106
106
106
106
106
106
106
106
106
106
106
106
106
106
106
98
98
98
106
106
106
106
106
106
106
106
106
98
98
98
106
106
106
106
106
106
98
98
98
98
98
98
98
98
98
98
98
98
98
98
98
106
106
106
106
106
106
98
98
98
106
106
106
106
106
106
106
106
106
106
106
106
123
123
123
106
106
106
98
98
98
98
98
98
106
106
106
98
98
98
106
106
106
106
106
106
106
106
106
98
98
98
106
106
106
98
98
98
106
106
106
98
98
98
98
98
98
98
98
98
98
98
98
106
106
106
106
106
106
106
106
106
106
106
106
106
106
106
106
106
106
106
106
106
106
106
106
106
106
106
106
106
106
106
106
106
98
98
98
106
106
106
98
98
98
106
106
106
123
123
123
98
98
98
106
106
106
106
106
106
106
106
106
106
106
106
98
98
98
106
106
106
106
106
106
98
98
98
106
106
106
106
106
106
106
106
106
106
106
106
98
98
98
106
106
106
106
106
106
98
98
98
106
106
106
106
106
106
106
106
106
98
98
98
98
98
98
98
98
98
98
98
98
98
98
98
98
98
98
98
98
98
98
98
98
106
106
106
106
106
106
98
98
98
123
123
123
106
106
106
123
123
123
123
123
123
123
123
123
123
123
123
123
123
123
123
123
123
123
123
123
123
123
123
123
123
123
123
123
123
123
123
123
123
123
123
123
123
123
123
123
123
123
123
123
123
123
123
123
123
123
123
123
123
123
123
123
123
123
123
123
123
123
123
123
123
123
123
123
123
123
123
123
123
123
123
123
123
123
123
123
123
123
123
123
123
123
123
123
123
123
123
123
123
123
123
123
123
123
123
123
123
123
123
123
123
123
123
123
123
123
123
123
123
123
123
123
123
123
123
123
123
123
123
123
123
123
123
123
123
123
123
123
123
123
123
123
123
123
123
123
123
123
123
123
123
123
123
123
123
123
123
123
123
123
123
123
123
123
123
123
123
123
123
123
123
123
123
123
123
123
123
123
123
123
123
123
123
123
123
123
123
123
123
123
123
106
106
106
106
106
106
106
106
106
106
106
106
106
106
106
106
106
106
106
106
106
106
106
106
106
106
106
106
106
106
106
106
106
106
106
106
106
106
106
106
106
106
106
106
106
106
106
106
106
106
106
106
106
106
106
106
106
106
106
106
106
106
106
106
106
106
106
106
106
106
106
106
106
106
106
106
106
106
106
106
106
106
106
106
106
106
106
106
106
106
106
106
106
106
106
106
106
106
106
106
106
106
106
106
106
106
106
106
106
106
106
106
106
106
106
106
106
106
106
106
106
106
106
106
106
106
106
106
106
106
106
106
106
106
106
106
106
106
106
106
106
106
106
106
106
106
106
106
106
106
106
106
106
106
106
106
106
106
106
106
106
106
106
106
106
106
106
106
106
106
106
106
106
106
106
106
106
106
106
106
106
106
106
106
106
106
106
106
106
106
106
106
106
106
106
106
106
106
98
98
98
98
98
98
98
98
98
98
98
98
98
98
98
98
98
98
98
98
98
98
98
98
98
98
98
98
98
98
98
98
98
98
98
98
98
98
98
98
98
98
98
98
98
98
98
98
98
98
98
98
98
98
98
98
98
98
98
98
98
98
98
98
98
98
98
98
98
98
98
98
98
98
98
98
98
98
98
98
98
98
98
98
98
98
98
98
98
98
98
98
98
98
98
98
98
98
98
98
98
98
98
98
98
98
98
98
98
98
98
98
98
98
98
98
98
98
98
98
98
98
98
98
98
98
98
98
98
98
98
98
98
98
98
98
98
98
98
98
98
98
98
98
98
98
98
98
98
98
98
98
98
98
98
98
98
98
98
98
98
98
98
98
98
98
98
98
98
98
98
98
98
98
98
98
98
98
98
98
98
98
98
98
98
98
106
106
106
106
106
106
98
98
98
106
106
106
106
106
106
98
98
98
106
106
106
106
106
106
106
106
106
106
106
106
106
106
106
106
106
106
98
98
98
98
98
98
106
106
106
106
106
106
106
106
106
106
106
106
106
106
106
106
106
106
98
98
98
106
106
106
98
98
98
98
98
98
98
98
98
106
106
106
98
98
98
106
106
106
98
98
98
98
98
98
106
106
106
98
98
98
106
106
106
106
106
106
98
98
98
106
106
106
106
106
106
106
106
106
106
106
106
98
98
98
106
106
106
106
106
106
106
106
106
98
98
98
98
98
98
106
106
106
98
98
98
106
106
106
106
106
106
98
98
98
106
106
106
106
106
106
98
98
98
106
106
106
98
98
98
106
106
106
98
98
98
98
98
98
98
98
98
106
106
106
106
106
106
106
106
106
98
98
98
98
98
98
123
123
123
106
106
106
98
98
98
106
106
106
106
106
106
98
98
98
106
106
106
98
98
98
123
123
123
106
106
106
106
106
106
106
106
106
106
106
106
106
106
106
106
106
106
106
106
106
106
106
106
106
106
106
106
106
106
106
106
106
106
106
106
98
98
98
98
98
98
98
98
98
106
106
106
106
106
106
98
98
98
106
106
106
98
98
98
106
106
106
98
98
98
98
98
98
106
106
106
106
106
106
106
106
106
106
106
106
98
98
98
98
98
98
106
106
106
106
106
106
106
106
106
98
98
98
98
98
98
106
106
106
106
106
106
106
106
106
106
106
106
98
98
98
106
106
106
106
106
106
98
98
98
106
106
106
98
98
98
98
98
98
106
106
106
106
106
106
106
106
106
106
106
106
106
106
106
106
106
106
98
98
98
106
106
106
98
98
98
98
98
98
123
123
123
106
106
106
98
98
98
106
106
106
98
98
98
106
106
106
106
106
106
98
98
98
106
106
106
90
90
90
106
106
106
106
106
106
98
98
98
106
106
106
106
106
106
106
106
106
106
106
106
98
98
98
106
106
106
106
106
106
98
98
98
106
106
106
106
106
106
106
106
106
106
106
106
98
98
98
98
98
98
106
106
106
98
98
98
98
98
98
98
98
98
106
106
106
98
98
98
106
106
106
106
106
106
98
98
98
106
106
106
106
106
106
98
98
98
106
106
106
106
106
106
106
106
106
106
106
106
106
106
106
98
98
98
106
106
106
106
106
106
98
98
98
98
98
98
98
98
98
98
98
98
106
106
106
98
98
98
106
106
106
98
98
98
106
106
106
98
98
98
106
106
106
106
106
106
106
106
106
98
98
98
98
98
98
106
106
106
106
106
106
123
123
123
106
106
106
98
98
98
106
106
106
98
98
98
106
106
106
106
106
106
98
98
98
98
98
98
98
98
98
106
106
106
106
106
106
98
98
98
106
106
106
106
106
106
106
106
106
123
123
123
106
106
106
106
106
106
106
106
106
106
106
106
106
106
106
106
106
106
106
106
106
98
98
98
106
106
106
106
106
106
123
123
123
98
98
98
106
106
106
98
98
98
106
106
106
106
106
106
98
98
98
123
123
123
98
98
98
106
106
106
98
98
98
106
106
106
106
106
106
106
106
106
98
98
98
106
106
106
106
106
106
106
106
106
98
98
98
98
98
98
98
98
98
106
106
106
106
106
106
106
106
106
98
98
98
98
98
98
106
106
106
98
98
98
106
106
106
98
98
98
98
98
98
98
98
98
106
106
106
98
98
98
98
98
98
106
106
106
106
106
106
123
123
123
106
106
106
98
98
98
106
106
106
106
106
106
106
106
106
106
106
106
98
98
98
106
106
106
106
106
106
106
106
106
106
106
106
98
98
98
106
106
106
106
106
106
98
98
98
106
106
106
106
106
106
106
106
106
106
106
106
98
98
98
106
106
106
106
106
106
98
98
98
106
106
106
106
106
106
106
106
106
106
106
106
98
98
98
90
90
90
106
106
106
106
106
106
98
98
98
123
123
123
98
98
98
106
106
106
98
98
98
106
106
106
98
98
98
98
98
98
98
98
98
98
98
98
106
106
106
106
106
106
98
98
98
106
106
106
106
106
106
106
106
106
106
106
106
98
98
98
98
98
98
106
106
106
90
90
90
98
98
98
106
106
106
106
106
106
106
106
106
98
98
98
106
106
106
98
98
98
98
98
98
106
106
106
106
106
106
98
98
98
123
123
123
106
106
106
98
98
98
106
106
106
106
106
106
98
98
98
98
98
98
106
106
106
106
106
106
106
106
106
98
98
98
106
106
106
106
106
106
106
106
106
106
106
106
106
106
106
106
106
106
106
106
106
98
98
98
106
106
106
106
106
106
106
106
106
98
98
98
106
106
106
106
106
106
106
106
106
106
106
106
98
98
98
98
98
98
98
98
98
106
106
106
123
123
123
106
106
106
106
106
106
106
106
106
98
98
98
106
106
106
106
106
106
106
106
106
98
98
98
106
106
106
98
98
98
106
106
106
106
106
106
106
106
106
106
106
106
106
106
106
98
98
98
106
106
106
106
106
106
98
98
98
98
98
98
98
98
98
98
98
98
106
106
106
106
106
106
98
98
98
106
106
106
98
98
98
106
106
106
98
98
98
98
98
98
98
98
98
98
98
98
123
123
123
106
106
106
98
98
98
98
98
98
106
106
106
98
98
98
98
98
98
106
106
106
98
98
98
98
98
98
98
98
98
98
98
98
106
106
106
106
106
106
106
106
106
98
98
98
98
98
98
106
106
106
106
106
106
123
123
123
106
106
106
98
98
98
106
106
106
106
106
106
106
106
106
106
106
106
106
106
106
98
98
98
106
106
106
106
106
106
106
106
106
106
106
106
98
98
98
106
106
106
106
106
106
98
98
98
106
106
106
106
106
106
98
98
98
98
98
98
106
106
106
98
98
98
106
106
106
98
98
98
106
106
106
98
98
98
98
98
98
106
106
106
98
98
98
98
98
98
98
98
98
106
106
106
98
98
98
98
98
98
106
106
106
106
106
106
98
98
98
98
98
98
106
106
106
106
106
106
98
98
98
106
106
106
98
98
98
106
106
106
123
123
123
106
106
106
98
98
98
123
123
123
98
98
98
98
98
98
106
106
106
106
106
106
106
106
106
98
98
98
98
98
98
106
106
106
98
98
98
106
106
106
98
98
98
98
98
98
106
106
106
98
98
98
106
106
106
106
106
106
98
98
98
106
106
106
106
106
106
106
106
106
106
106
106
106
106
106
98
98
98
98
98
98
106
106
106
98
98
98
106
106
106
98
98
98
98
98
98
123
123
123
98
98
98
98
98
98
106
106
106
98
98
98
106
106
106
106
106
106
106
106
106
106
106
106
106
106
106
106
106
106
98
98
98
106
106
106
98
98
98
106
106
106
98
98
98
98
98
98
106
106
106
106
106
106
98
98
98
106
106
106
98
98
98
98
98
98
98
98
98
98
98
98
106
106
106
106
106
106
98
98
98
106
106
106
98
98
98
98
98
98
123
123
123
106
106
106
98
98
98
106
106
106
98
98
98
106
106
106
106
106
106
106
106
106
98
98
98
106
106
106
98
98
98
106
106
106
106
106
106
98
98
98
106
106
106
98
98
98
106
106
106
98
98
98
98
98
98
106
106
106
106
106
106
106
106
106
106
106
106
98
98
98
106
106
106
98
98
98
98
98
98
106
106
106
98
98
98
106
106
106
106
106
106
98
98
98
106
106
106
106
106
106
106
106
106
106
106
106
98
98
98
106
106
106
106
106
106
106
106
106
98
98
98
106
106
106
106
106
106
106
106
106
106
106
106
98
98
98
106
106
106
106
106
106
98
98
98
106
106
106
98
98
98
106
106
106
98
98
98
106
106
106
106
106
106
106
106
106
106
106
106
98
98
98
106
106
106
106
106
106
98
98
98
98
98
98
106
106
106
106
106
106
123
123
123
106
106
106
98
98
98
106
106
106
98
98
98
98
98
98
98
98
98
106
106
106
106
106
106
106
106
106
98
98
98
106
106
106
98
98
98
106
106
106
106
106
106
106
106
106
98
98
98
106
106
106
98
98
98
98
98
98
106
106
106
106
106
106
106
106
106
106
106
106
106
106
106
106
106
106
98
98
98
98
98
98
106
106
106
106
106
106
98
98
98
106
106
106
106
106
106
106
106
106
98
98
98
106
106
106
106
106
106
106
106
106
106
106
106
98
98
98
98
98
98
106
106
106
98
98
98
106
106
106
98
98
98
106
106
106
106
106
106
98
98
98
106
106
106
123
123
123
98
98
98
98
98
98
98
98
98
106
106
106
98
98
98
106
106
106
98
98
98
98
98
98
98
98
98
106
106
106
106
106
106
90
90
90
106
106
106
98
98
98
123
123
123
106
106
106
106
106
106
106
106
106
106
106
106
98
98
98
98
98
98
106
106
106
123
123
123
98
98
98
106
106
106
106
106
106
106
106
106
98
98
98
98
98
98
106
106
106
98
98
98
106
106
106
106
106
106
98
98
98
98
98
98
98
98
98
98
98
98
106
106
106
106
106
106
98
98
98
106
106
106
106
106
106
106
106
106
98
98
98
123
123
123
98
98
98
106
106
106
98
98
98
106
106
106
98
98
98
106
106
106
98
98
98
98
98
98
106
106
106
106
106
106
106
106
106
106
106
106
98
98
98
106
106
106
106
106
106
98
98
98
98
98
98
98
98
98
98
98
98
106
106
106
98
98
98
98
98
98
98
98
98
106
106
106
106
106
106
98
98
98
98
98
98
106
106
106
106
106
106
106
106
106
98
98
98
106
106
106
98
98
98
123
123
123
106
106
106
98
98
98
106
106
106
106
106
106
98
98
98
106
106
106
106
106
106
106
106
106
98
98
98
106
106
106
106
106
106
106
106
106
106
106
106
98
98
98
106
106
106
106
106
106
106
106
106
98
98
98
98
98
98
106
106
106
106
106
106
98
98
98
98
98
98
106
106
106
98
98
98
106
106
106
106
106
106
106
106
106
98
98
98
106
106
106
106
106
106
98
98
98
106
106
106
98
98
98
106
106
106
98
98
98
106
106
106
98
98
98
98
98
98
106
106
106
106
106
106
106
106
106
98
98
98
98
98
98
106
106
106
106
106
106
98
98
98
98
98
98
98
98
98
98
98
98
98
98
98
106
106
106
106
106
106
98
98
98
106
106
106
98
98
98
98
98
98
106
106
106
98
98
98
106
106
106
98
98
98
106
106
106
106
106
106
123
123
123
106
106
106
98
98
98
106
106
106
106
106
106
98
98
98
98
98
98
98
98
98
106
106
106
106
106
106
106
106
106
98
98
98
106
106
106
98
98
98
106
106
106
98
98
98
98
98
98
123
123
123
98
98
98
106
106
106
123
123
123
98
98
98
106
106
106
98
98
98
106
106
106
106
106
106
98
98
98
98
98
98
106
106
106
98
98
98
106
106
106
98
98
98
106
106
106
98
98
98
106
106
106
106
106
106
106
106
106
106
106
106
98
98
98
98
98
98
106
106
106
98
98
98
106
106
106
98
98
98
106
106
106
106
106
106
98
98
98
106
106
106
98
98
98
98
98
98
106
106
106
98
98
98
90
90
90
98
98
98
98
98
98
106
106
106
106
106
106
106
106
106
98
98
98
106
106
106
106
106
106
98
98
98
106
106
106
98
98
98
123
123
123
106
106
106
98
98
98
106
106
106
106
106
106
98
98
98
106
106
106
106
106
106
98
98
98
106
106
106
106
106
106
98
98
98
106
106
106
106
106
106
98
98
98
106
106
106
106
106
106
106
106
106
98
98
98
106
106
106
106
106
106
98
98
98
106
106
106
106
106
106
106
106
106
106
106
106
98
98
98
106
106
106
106
106
106
98
98
98
98
98
98
106
106
106
106
106
106
106
106
106
98
98
98
106
106
106
98
98
98
106
106
106
98
98
98
106
106
106
106
106
106
106
106
106
98
98
98
106
106
106
106
106
106
106
106
106
98
98
98
123
123
123
106
106
106
106
106
106
106
106
106
98
98
98
106
106
106
90
90
90
106
106
106
106
106
106
106
106
106
98
98
98
106
106
106
123
123
123
98
98
98
98
98
98
106
106
106
106
106
106
123
123
123
106
106
106
98
98
98
106
106
106
98
98
98
106
106
106
106
106
106
106
106
106
98
98
98
106
106
106
106
106
106
106
106
106
106
106
106
98
98
98
106
106
106
106
106
106
106
106
106
98
98
98
106
106
106
106
106
106
106
106
106
98
98
98
106
106
106
106
106
106
106
106
106
106
106
106
106
106
106
106
106
106
98
98
98
106
106
106
98
98
98
106
106
106
106
106
106
98
98
98
106
106
106
106
106
106
106
106
106
98
98
98
106
106
106
106
106
106
106
106
106
106
106
106
106
106
106
98
98
98
106
106
106
98
98
98
106
106
106
106
106
106
106
106
106
106
106
106
98
98
98
98
98
98
98
98
98
98
98
98
98
98
98
106
106
106
98
98
98
98
98
98
98
98
98
106
106
106
106
106
106
106
106
106
106
106
106
90
90
90
123
123
123
106
106
106
98
98
98
98
98
98
98
98
98
106
106
106
106
106
106
106
106
106
98
98
98
98
98
98
98
98
98
123
123
123
98
98
98
106
106
106
98
98
98
106
106
106
106
106
106
106
106
106
106
106
106
106
106
106
106
106
106
98
98
98
98
98
98
106
106
106
106
106
106
106
106
106
106
106
106
106
106
106
98
98
98
98
98
98
106
106
106
106
106
106
98
98
98
106
106
106
106
106
106
106
106
106
98
98
98
106
106
106
106
106
106
106
106
106
98
98
98
98
98
98
106
106
106
106
106
106
106
106
106
98
98
98
106
106
106
98
98
98
106
106
106
106
106
106
106
106
106
90
90
90
106
106
106
98
98
98
106
106
106
98
98
98
106
106
106
106
106
106
98
98
98
98
98
98
106
106
106
106
106
106
106
106
106
106
106
106
123
123
123
106
106
106
98
98
98
106
106
106
106
106
106
98
98
98
106
106
106
98
98
98
106
106
106
98
98
98
98
98
98
106
106
106
123
123
123
106
106
106
98
98
98
106
106
106
106
106
106
106
106
106
98
98
98
106
106
106
106
106
106
98
98
98
106
106
106
106
106
106
98
98
98
98
98
98
106
106
106
106
106
106
106
106
106
106
106
106
106
106
106
98
98
98
106
106
106
106
106
106
106
106
106
98
98
98
106
106
106
123
123
123
98
98
98
106
106
106
98
98
98
98
98
98
106
106
106
106
106
106
98
98
98
98
98
98
98
98
98
106
106
106
98
98
98
98
98
98
90
90
90
98
98
98
98
98
98
106
106
106
106
106
106
106
106
106
98
98
98
106
106
106
90
90
90
106
106
106
98
98
98
98
98
98
98
98
98
106
106
106
123
123
123
106
106
106
98
98
98
98
98
98
98
98
98
98
98
98
106
106
106
106
106
106
106
106
106
106
106
106
98
98
98
106
106
106
123
123
123
106
106
106
98
98
98
106
106
106
106
106
106
106
106
106
106
106
106
123
123
123
106
106
106
98
98
98
106
106
106
106
106
106
106
106
106
106
106
106
98
98
98
98
98
98
106
106
106
98
98
98
90
90
90
106
106
106
123
123
123
106
106
106
98
98
98
106
106
106
123
123
123
98
98
98
98
98
98
106
106
106
98
98
98
106
106
106
98
98
98
98
98
98
98
98
98
106
106
106
98
98
98
106
106
106
98
98
98
106
106
106
106
106
106
98
98
98
106
106
106
98
98
98
98
98
98
106
106
106
106
106
106
106
106
106
106
106
106
98
98
98
106
106
106
98
98
98
98
98
98
106
106
106
123
123
123
106
106
106
98
98
98
106
106
106
106
106
106
106
106
106
98
98
98
106
106
106
106
106
106
106
106
106
98
98
98
106
106
106
106
106
106
106
106
106
98
98
98
106
106
106
106
106
106
98
98
98
106
106
106
98
98
98
98
98
98
106
106
106
98
98
98
98
98
98
106
106
106
98
98
98
106
106
106
98
98
98
98
98
98
98
98
98
90
90
90
106
106
106
123
123
123
106
106
106
98
98
98
123
123
123
106
106
106
106
106
106
106
106
106
106
106
106
106
106
106
106
106
106
98
98
98
106
106
106
98
98
98
106
106
106
106
106
106
98
98
98
106
106
106
123
123
123
106
106
106
106
106
106
98
98
98
106
106
106
98
98
98
98
98
98
106
106
106
98
98
98
106
106
106
106
106
106
98
98
98
106
106
106
98
98
98
98
98
98
123
123
123
106
106
106
98
98
98
98
98
98
106
106
106
123
123
123
98
98
98
106
106
106
123
123
123
106
106
106
98
98
98
98
98
98
106
106
106
98
98
98
106
106
106
106
106
106
98
98
98
90
90
90
106
106
106
106
106
106
98
98
98
106
106
106
106
106
106
106
106
106
106
106
106
98
98
98
106
106
106
106
106
106
90
90
90
106
106
106
106
106
106
106
106
106
98
98
98
106
106
106
106
106
106
98
98
98
98
98
98
98
98
98
106
106
106
106
106
106
98
98
98
106
106
106
98
98
98
106
106
106
98
98
98
98
98
98
106
106
106
98
98
98
98
98
98
106
106
106
98
98
98
106
106
106
90
90
90
98
98
98
106
106
106
98
98
98
106
106
106
106
106
106
123
123
123
98
98
98
106
106
106
106
106
106
98
98
98
98
98
98
123
123
123
106
106
106
98
98
98
106
106
106
98
98
98
98
98
98
98
98
98
106
106
106
98
98
98
106
106
106
106
106
106
106
106
106
98
98
98
106
106
106
106
106
106
98
98
98
98
98
98
98
98
98
98
98
98
106
106
106
106
106
106
90
90
90
106
106
106
98
98
98
98
98
98
106
106
106
106
106
106
106
106
106
98
98
98
98
98
98
106
106
106
106
106
106
106
106
106
98
98
98
106
106
106
98
98
98
98
98
98
106
106
106
106
106
106
106
106
106
106
106
106
98
98
98
106
106
106
106
106
106
98
98
98
106
106
106
106
106
106
106
106
106
106
106
106
106
106
106
98
98
98
106
106
106
98
98
98
106
106
106
106
106
106
106
106
106
106
106
106
106
106
106
98
98
98
106
106
106
106
106
106
98
98
98
106
106
106
106
106
106
123
123
123
106
106
106
98
98
98
98
98
98
106
106
106
106
106
106
98
98
98
106
106
106
90
90
90
106
106
106
98
98
98
106
106
106
106
106
106
98
98
98
106
106
106
98
98
98
90
90
90
106
106
106
106
106
106
98
98
98
98
98
98
98
98
98
98
98
98
106
106
106
98
98
98
106
106
106
98
98
98
106
106
106
106
106
106
98
98
98
106
106
106
106
106
106
98
98
98
106
106
106
106
106
106
106
106
106
98
98
98
98
98
98
106
106
106
98
98
98
98
98
98
90
90
90
106
106
106
106
106
106
98
98
98
106
106
106
106
106
106
98
98
98
106
106
106
98
98
98
98
98
98
106
106
106
106
106
106
106
106
106
106
106
106
106
106
106
90
90
90
98
98
98
106
106
106
106
106
106
106
106
106
98
98
98
106
106
106
98
98
98
123
123
123
106
106
106
98
98
98
106
106
106
98
98
98
106
106
106
106
106
106
98
98
98
90
90
90
106
106
106
106
106
106
106
106
106
106
106
106
106
106
106
106
106
106
98
98
98
98
98
98
106
106
106
106
106
106
106
106
106
106
106
106
106
106
106
98
98
98
106
106
106
106
106
106
106
106
106
98
98
98
106
106
106
123
123
123
90
90
90
98
98
98
98
98
98
106
106
106
106
106
106
98
98
98
106
106
106
106
106
106
98
98
98
98
98
98
106
106
106
90
90
90
98
98
98
98
98
98
106
106
106
98
98
98
106
106
106
106
106
106
106
106
106
98
98
98
98
98
98
98
98
98
98
98
98
98
98
98
106
106
106
106
106
106
106
106
106
90
90
90
106
106
106
98
98
98
98
98
98
98
98
98
106
106
106
106
106
106
106
106
106
123
123
123
106
106
106
98
98
98
106
106
106
98
98
98
98
98
98
98
98
98
106
106
106
98
98
98
106
106
106
106
106
106
98
98
98
98
98
98
106
106
106
106
106
106
98
98
98
106
106
106
98
98
98
106
106
106
98
98
98
98
98
98
106
106
106
98
98
98
106
106
106
106
106
106
106
106
106
98
98
98
98
98
98
106
106
106
90
90
90
106
106
106
98
98
98
98
98
98
106
106
106
106
106
106
106
106
106
98
98
98
106
106
106
106
106
106
106
106
106
98
98
98
106
106
106
106
106
106
106
106
106
106
106
106
98
98
98
98
98
98
106
106
106
98
98
98
106
106
106
98
98
98
98
98
98
98
98
98
106
106
106
98
98
98
106
106
106
98
98
98
90
90
90
106
106
106
106
106
106
98
98
98
98
98
98
106
106
106
106
106
106
123
123
123
106
106
106
98
98
98
106
106
106
106
106
106
98
98
98
98
98
98
98
98
98
106
106
106
98
98
98
90
90
90
106
106
106
106
106
106
98
98
98
106
106
106
106
106
106
106
106
106
98
98
98
106
106
106
90
90
90
106
106
106
106
106
106
98
98
98
106
106
106
98
98
98
106
106
106
98
98
98
106
106
106
98
98
98
106
106
106
106
106
106
106
106
106
106
106
106
98
98
98
106
106
106
98
98
98
106
106
106
106
106
106
106
106
106
123
123
123
98
98
98
98
98
98
98
98
98
98
98
98
106
106
106
106
106
106
106
106
106
106
106
106
106
106
106
98
98
98
98
98
98
106
106
106
106
106
106
98
98
98
98
98
98
106
106
106
98
98
98
106
106
106
106
106
106
106
106
106
98
98
98
106
106
106
98
98
98
98
98
98
123
123
123
106
106
106
98
98
98
123
123
123
106
106
106
98
98
98
106
106
106
106
106
106
106
106
106
98
98
98
98
98
98
106
106
106
106
106
106
98
98
98
98
98
98
106
106
106
98
98
98
98
98
98
98
98
98
98
98
98
106
106
106
106
106
106
98
98
98
106
106
106
98
98
98
106
106
106
106
106
106
98
98
98
98
98
98
106
106
106
106
106
106
106
106
106
106
106
106
106
106
106
98
98
98
106
106
106
106
106
106
106
106
106
98
98
98
106
106
106
98
98
98
98
98
98
106
106
106
98
98
98
106
106
106
98
98
98
98
98
98
106
106
106
98
98
98
90
90
90
98
98
98
106
106
106
106
106
106
90
90
90
106
106
106
106
106
106
98
98
98
90
90
90
106
106
106
98
98
98
106
106
106
106
106
106
98
98
98
98
98
98
123
123
123
106
106
106
98
98
98
106
106
106
123
123
123
90
90
90
98
98
98
98
98
98
106
106
106
106
106
106
98
98
98
123
123
123
106
106
106
98
98
98
98
98
98
106
106
106
98
98
98
106
106
106
106
106
106
98
98
98
106
106
106
106
106
106
98
98
98
98
98
98
98
98
98
98
98
98
106
106
106
98
98
98
106
106
106
98
98
98
106
106
106
98
98
98
98
98
98
106
106
106
106
106
106
98
98
98
106
106
106
106
106
106
106
106
106
106
106
106
106
106
106
90
90
90
106
106
106
98
98
98
106
106
106
98
98
98
98
98
98
106
106
106
98
98
98
98
98
98
98
98
98
106
106
106
106
106
106
98
98
98
106
106
106
98
98
98
98
98
98
98
98
98
106
106
106
90
90
90
106
106
106
106
106
106
98
98
98
98
98
98
123
123
123
106
106
106
98
98
98
98
98
98
98
98
98
106
106
106
98
98
98
106
106
106
106
106
106
90
90
90
98
98
98
98
98
98
106
106
106
98
98
98
106
106
106
106
106
106
98
98
98
98
98
98
106
106
106
106
106
106
106
106
106
106
106
106
98
98
98
106
106
106
98
98
98
106
106
106
98
98
98
106
106
106
106
106
106
98
98
98
106
106
106
98
98
98
106
106
106
106
106
106
106
106
106
98
98
98
98
98
98
106
106
106
106
106
106
106
106
106
98
98
98
98
98
98
98
98
98
106
106
106
98
98
98
98
98
98
98
98
98
98
98
98
106
106
106
98
98
98
98
98
98
106
106
106
98
98
98
98
98
98
98
98
98
98
98
98
106
106
106
106
106
106
106
106
106
106
106
106
106
106
106
106
106
106
106
106
106
98
98
98
123
123
123
106
106
106
123
123
123
123
123
123
123
123
123
123
123
123
123
123
123
123
123
123
123
123
123
123
123
123
123
123
123
123
123
123
123
123
123
123
123
123
123
123
123
123
123
123
123
123
123
123
123
123
123
123
123
123
123
123
123
123
123
123
123
123
123
123
123
123
123
123
123
123
123
123
123
123
123
123
123
123
123
123
123
123
123
123
123
123
123
123
123
123
123
123
123
123
123
123
123
123
123
123
123
123
123
123
123
123
123
123
123
123
123
123
123
123
123
123
123
123
123
123
123
123
123
123
123
123
123
123
123
123
123
123
123
123
123
123
123
123
123
123
123
123
123
123
123
123
123
123
123
123
123
123
123
123
123
123
123
123
123
123
123
123
123
123
123
123
123
123
123
123
123
123
123
123
123
123
123
123
123
123
123
123
123
123
123
123
123
123
123
123
123
106
106
106
106
106
106
106
106
106
106
106
106
106
106
106
106
106
106
106
106
106
106
106
106
106
106
106
106
106
106
106
106
106
106
106
106
106
106
106
106
106
106
106
106
106
106
106
106
106
106
106
106
106
106
106
106
106
106
106
106
106
106
106
106
106
106
106
106
106
106
106
106
106
106
106
106
106
106
106
106
106
106
106
106
106
106
106
106
106
106
106
106
106
106
106
106
106
106
106
106
106
106
106
106
106
106
106
106
106
106
106
106
106
106
106
106
106
106
106
106
106
106
106
106
106
106
106
106
106
106
106
106
106
106
106
106
106
106
106
106
106
106
106
106
106
106
106
106
106
106
106
106
106
106
106
106
106
106
106
106
106
106
106
106
106
106
106
106
106
106
106
106
106
106
106
106
106
106
106
106
106
106
106
106
106
106
106
106
106
123
123
123
