P3
# Created by GIMP version 2.10.38 PNM plug-in
64 64
255
24
24
24
98
98
98
123
123
123
90
90
90
82
82
57
90
90
90
115
115
115
123
123
98
123
123
98
106
115
82
106
115
82
90
98
65
90
98
65
123
123
123
65
65
65
16
16
16
41
41
41
41
41
41
41
41
41
57
65
41
82
65
49
82
65
49
90
74
49
106
82
65
106
82
65
106
82
65
172
148
123
172
148
123
139
115
82
115
90
57
82
57
41
115
90
74
82
57
41
115
90
57
139
115
82
172
148
123
172
148
123
106
82
65
106
82
65
106
82
65
90
74
49
82
65
49
82
65
49
57
65
41
41
41
41
41
41
41
41
41
41
16
16
16
65
65
65
123
123
123
90
98
65
90
98
65
106
115
82
106
115
82
123
123
98
123
123
98
115
115
115
90
90
90
82
82
57
90
90
90
123
123
123
98
98
98
24
24
24
24
16
8
32
32
32
106
115
82
123
123
98
90
98
65
90
98
65
106
115
82
156
131
106
156
131
106
139
115
90
139
115
90
139
115
90
90
98
65
98
106
74
98
98
98
41
41
41
82
65
49
106
106
106
139
139
139
106
115
82
164
139
115
238
148
148
189
164
139
238
148
148
238
148
148
238
148
148
156
131
106
148
123
98
139
115
82
115
90
74
106
82
65
82
82
57
90
90
90
82
82
57
106
82
65
115
90
74
139
115
82
148
123
98
156
131
106
238
148
148
238
148
148
238
148
148
189
164
139
238
148
148
164
139
115
106
115
82
139
139
139
106
106
106
82
65
49
41
41
41
98
98
98
98
106
74
90
98
65
139
115
90
139
115
90
139
115
90
156
131
106
156
131
106
106
115
82
90
98
65
90
98
65
123
123
98
106
115
82
32
32
32
41
32
8
24
24
24
98
106
74
106
115
82
98
106
74
164
139
115
148
123
98
49
57
32
74
74
74
115
90
74
90
90
90
115
90
74
123
123
123
57
57
57
16
8
0
82
82
57
189
164
139
148
148
148
148
148
148
98
106
74
82
82
57
131
106
82
139
115
82
139
115
90
131
106
74
131
106
74
139
115
90
148
123
98
106
115
82
82
82
57
106
82
65
106
82
65
65
65
65
106
82
65
106
82
65
82
82
57
106
115
82
148
123
98
139
115
90
131
106
74
131
106
74
139
115
90
139
115
82
131
106
82
82
82
57
98
106
74
148
148
148
148
148
148
189
164
139
82
82
57
16
8
0
57
57
57
123
123
123
115
90
74
90
90
90
115
90
74
74
74
74
49
57
32
148
123
98
164
139
115
98
106
74
106
115
82
98
106
74
24
24
24
24
16
8
0
0
0
16
8
0
82
82
57
156
156
156
180
180
180
57
57
57
41
41
41
156
131
106
164
139
115
131
131
131
172
148
123
180
180
180
82
82
57
49
41
16
139
115
90
189
164
139
139
115
90
49
41
16
49
57
32
65
74
49
65
74
49
90
74
49
106
82
65
106
82
65
90
98
65
82
82
57
57
65
41
57
65
41
82
65
49
115
90
57
106
82
65
82
57
41
106
82
65
115
90
57
82
65
49
57
65
41
57
65
41
82
82
57
90
98
65
106
82
65
106
82
65
90
74
49
65
74
49
65
74
49
49
57
32
49
41
16
139
115
90
189
164
139
139
115
90
49
41
16
82
82
57
180
180
180
172
148
123
131
131
131
164
139
115
156
131
106
41
41
41
57
57
57
180
180
180
156
156
156
82
82
57
16
8
0
0
0
0
24
16
8
0
0
0
0
0
0
65
65
65
180
180
180
156
156
156
57
57
57
49
41
16
139
115
90
131
106
74
115
90
57
131
106
82
90
98
65
16
16
16
24
16
8
106
82
65
115
90
57
189
164
139
148
123
98
41
41
41
49
57
32
65
74
49
106
82
65
57
41
16
82
65
49
98
82
49
90
98
65
82
65
49
74
57
32
74
57
32
82
65
49
82
57
41
65
49
24
82
57
41
82
65
49
74
57
32
74
57
32
82
65
49
90
98
65
98
82
49
82
65
49
57
41
16
106
82
65
65
74
49
49
57
32
41
41
41
148
123
98
189
164
139
115
90
57
106
82
65
24
16
8
16
16
16
90
98
65
131
106
82
115
90
57
131
106
74
139
115
90
49
41
16
57
57
57
156
156
156
180
180
180
65
65
65
0
0
0
0
0
0
24
16
8
0
0
0
0
0
0
57
57
57
164
164
164
123
123
123
32
32
32
41
41
41
148
123
98
98
106
74
82
82
57
98
106
74
57
65
41
8
8
8
0
0
0
0
0
0
82
65
49
189
164
139
164
139
115
49
57
32
0
0
0
32
32
32
115
90
74
131
106
82
82
82
57
90
98
65
90
98
65
57
65
41
49
41
16
41
32
8
24
24
24
57
65
41
74
74
74
57
65
41
24
24
24
41
32
8
49
41
16
57
65
41
90
98
65
90
98
65
82
82
57
131
106
82
115
90
74
32
32
32
0
0
0
49
57
32
164
139
115
189
164
139
82
65
49
0
0
0
0
0
0
8
8
8
57
65
41
98
106
74
82
82
57
98
106
74
148
123
98
41
41
41
32
32
32
123
123
123
164
164
164
57
57
57
0
0
0
0
0
0
24
16
8
0
0
0
0
0
0
49
57
32
172
148
123
131
106
82
32
32
32
41
41
41
123
123
98
90
98
65
82
82
57
90
98
65
49
57
32
8
8
8
24
16
8
24
24
24
41
41
41
106
115
82
82
82
57
24
16
8
24
16
8
106
82
65
148
123
98
115
90
74
106
106
106
82
82
57
57
65
41
41
41
41
24
24
24
32
32
32
32
32
32
106
115
82
164
164
164
106
115
82
32
32
32
32
32
32
24
24
24
41
41
41
57
65
41
82
82
57
106
106
106
115
90
74
148
123
98
106
82
65
24
16
8
24
16
8
82
82
57
106
115
82
41
41
41
24
24
24
24
16
8
8
8
8
49
57
32
90
98
65
82
82
57
90
98
65
123
123
98
41
41
41
32
32
32
131
106
82
172
148
123
49
57
32
0
0
0
0
0
0
24
16
8
0
0
0
0
0
0
32
32
32
123
123
98
106
115
82
24
24
24
41
41
41
106
115
82
82
82
57
82
82
57
98
106
74
41
41
41
8
8
8
65
65
65
164
164
164
98
106
74
49
57
32
41
41
41
16
16
16
41
41
41
123
123
123
106
106
106
139
139
139
82
82
82
57
57
57
148
148
148
205
205
205
82
82
82
41
41
41
90
90
90
164
164
164
180
180
180
164
164
164
90
90
90
41
41
41
82
82
82
205
205
205
148
148
148
57
57
57
82
82
82
139
139
139
106
106
106
123
123
123
41
41
41
16
16
16
41
41
41
49
57
32
98
106
74
164
164
164
65
65
65
8
8
8
41
41
41
98
106
74
82
82
57
82
82
57
106
115
82
41
41
41
24
24
24
106
115
82
123
123
98
32
32
32
0
0
0
0
0
0
24
16
8
0
0
0
0
0
0
24
24
24
98
106
74
90
98
65
24
24
24
41
41
41
106
115
82
74
74
74
65
65
65
98
106
74
41
41
41
8
8
8
82
82
57
255
205
180
172
148
123
90
98
65
139
139
139
57
57
57
49
57
32
123
123
98
123
123
98
156
131
106
41
41
41
8
8
8
65
65
65
123
123
123
90
98
65
90
98
65
90
98
65
156
131
106
164
139
115
156
131
106
90
98
65
90
98
65
90
98
65
123
123
123
65
65
65
8
8
8
41
41
41
156
131
106
123
123
98
123
123
98
49
57
32
57
57
57
139
139
139
90
98
65
172
148
123
255
205
180
82
82
57
8
8
8
41
41
41
98
106
74
65
65
65
74
74
74
106
115
82
41
41
41
24
24
24
90
98
65
98
106
74
24
24
24
0
0
0
0
0
0
24
16
8
0
0
0
0
0
0
16
16
16
82
82
57
90
98
65
24
24
24
49
41
16
115
90
74
82
82
57
65
65
65
90
98
65
41
32
8
0
0
0
49
57
32
164
139
115
98
106
74
123
123
98
164
139
115
49
57
32
49
57
32
106
115
82
172
148
123
90
98
65
24
16
8
24
16
8
16
16
16
65
74
49
82
82
57
82
82
57
57
65
41
106
115
82
106
115
82
106
115
82
57
65
41
82
82
57
82
82
57
65
74
49
16
16
16
24
16
8
24
16
8
90
98
65
172
148
123
106
115
82
49
57
32
49
57
32
164
139
115
123
123
98
98
106
74
164
139
115
49
57
32
0
0
0
41
32
8
90
98
65
65
65
65
82
82
57
115
90
74
49
41
16
24
24
24
90
98
65
82
82
57
16
16
16
0
0
0
0
0
0
24
16
8
0
0
0
0
0
0
16
16
16
65
74
49
90
90
90
24
24
24
32
32
32
106
115
82
90
98
65
65
74
49
90
98
65
32
32
32
0
0
0
65
49
24
148
123
98
106
115
82
156
131
106
90
98
65
24
24
24
82
82
57
123
123
98
180
156
131
57
57
57
16
16
16
57
57
57
32
32
32
41
41
41
65
74
49
115
90
74
65
74
49
106
115
82
82
82
57
106
115
82
65
74
49
115
90
74
65
74
49
41
41
41
32
32
32
57
57
57
16
16
16
57
57
57
180
156
131
123
123
98
82
82
57
24
24
24
90
98
65
156
131
106
106
115
82
148
123
98
65
49
24
0
0
0
32
32
32
90
98
65
65
74
49
90
98
65
106
115
82
32
32
32
24
24
24
90
90
90
65
74
49
16
16
16
0
0
0
0
0
0
24
16
8
0
0
0
0
0
0
16
16
16
65
74
49
90
98
65
24
24
24
32
32
32
106
115
82
82
82
57
90
90
90
98
98
98
32
32
32
0
0
0
49
57
32
156
131
106
139
115
90
172
148
123
115
90
74
24
24
24
82
65
49
148
123
98
148
148
148
57
57
57
57
65
41
123
123
98
41
41
41
24
24
24
65
74
49
131
106
82
82
65
49
148
123
98
139
115
90
148
123
98
82
65
49
131
106
82
65
74
49
24
24
24
41
41
41
123
123
98
57
65
41
57
57
57
148
148
148
148
123
98
82
65
49
24
24
24
115
90
74
172
148
123
139
115
90
156
131
106
49
57
32
0
0
0
32
32
32
98
98
98
90
90
90
82
82
57
106
115
82
32
32
32
24
24
24
90
98
65
65
74
49
16
16
16
0
0
0
0
0
0
24
16
8
0
0
0
0
0
0
16
16
16
74
74
74
106
115
82
32
32
32
24
16
8
82
82
57
82
82
57
98
98
98
65
65
65
16
16
16
0
0
0
57
57
57
164
164
164
164
164
164
189
164
139
148
123
98
49
41
16
57
65
41
156
131
106
172
148
123
82
65
49
57
65
41
115
90
74
32
32
32
24
24
24
57
65
41
49
57
32
65
49
24
123
123
98
148
123
98
123
123
98
65
49
24
49
57
32
57
65
41
24
24
24
32
32
32
115
90
74
57
65
41
82
65
49
172
148
123
156
131
106
57
65
41
49
41
16
148
123
98
189
164
139
164
164
164
164
164
164
57
57
57
0
0
0
16
16
16
65
65
65
98
98
98
82
82
57
82
82
57
24
16
8
32
32
32
106
115
82
74
74
74
16
16
16
0
0
0
0
0
0
24
16
8
0
0
0
0
0
0
24
24
24
90
98
65
156
131
106
41
41
41
32
32
32
98
98
98
65
74
49
49
57
32
24
16
8
16
8
0
0
0
0
41
41
41
123
123
123
123
123
123
156
131
106
115
90
74
24
24
24
41
41
41
139
115
90
180
156
131
148
148
148
57
65
41
0
0
0
0
0
0
16
8
0
49
41
16
57
41
16
57
65
41
82
82
57
82
82
57
82
82
57
57
65
41
57
41
16
49
41
16
16
8
0
0
0
0
0
0
0
57
65
41
148
148
148
180
156
131
139
115
90
41
41
41
24
24
24
115
90
74
156
131
106
123
123
123
123
123
123
41
41
41
0
0
0
16
8
0
24
16
8
49
57
32
65
74
49
98
98
98
32
32
32
41
41
41
156
131
106
90
98
65
24
24
24
0
0
0
0
0
0
24
16
8
0
0
0
0
0
0
16
16
16
82
82
57
164
139
115
41
41
41
16
16
16
57
57
57
24
24
24
8
8
8
57
41
16
115
90
57
41
32
8
8
8
8
57
65
41
172
148
123
205
205
205
131
106
82
24
16
8
24
24
24
115
90
74
123
123
98
189
164
139
156
156
156
65
65
65
8
8
8
0
0
0
24
24
24
32
32
32
41
41
41
32
32
32
57
57
57
32
32
32
41
41
41
32
32
32
24
24
24
0
0
0
8
8
8
65
65
65
156
156
156
189
164
139
123
123
98
115
90
74
24
24
24
24
16
8
131
106
82
205
205
205
172
148
123
57
65
41
8
8
8
41
32
8
115
90
57
57
41
16
8
8
8
24
24
24
57
57
57
16
16
16
41
41
41
164
139
115
82
82
57
16
16
16
0
0
0
0
0
0
24
16
8
0
0
0
0
0
0
8
8
8
74
57
32
148
123
98
41
41
41
0
0
0
24
16
8
16
16
16
41
41
41
90
98
65
164
139
115
49
57
32
0
0
0
32
32
32
123
123
98
156
131
106
82
57
41
16
8
0
16
16
16
57
57
57
82
82
57
139
115
90
180
156
131
172
148
123
82
65
49
82
65
49
139
139
139
57
57
57
16
16
16
8
8
8
16
16
16
8
8
8
16
16
16
57
57
57
139
139
139
82
65
49
82
65
49
172
148
123
180
156
131
139
115
90
82
82
57
57
57
57
16
16
16
16
8
0
82
57
41
156
131
106
123
123
98
32
32
32
0
0
0
49
57
32
164
139
115
90
98
65
41
41
41
16
16
16
24
16
8
0
0
0
41
41
41
148
123
98
74
57
32
8
8
8
0
0
0
0
0
0
24
16
8
0
0
0
0
0
0
0
0
0
41
32
8
82
82
57
24
24
24
0
0
0
16
8
0
32
32
32
131
106
82
164
164
164
131
131
131
41
41
41
0
0
0
24
24
24
57
57
57
74
57
32
32
32
32
24
24
24
32
32
32
49
41
16
41
32
8
65
74
49
123
123
98
123
123
98
164
139
115
180
156
131
139
139
139
74
74
74
82
65
49
74
74
74
82
65
49
74
74
74
82
65
49
74
74
74
139
139
139
180
156
131
164
139
115
123
123
98
123
123
98
65
74
49
41
32
8
49
41
16
32
32
32
24
24
24
32
32
32
74
57
32
57
57
57
24
24
24
0
0
0
41
41
41
131
131
131
164
164
164
131
106
82
32
32
32
16
8
0
0
0
0
24
24
24
82
82
57
41
32
8
0
0
0
0
0
0
0
0
0
24
16
8
0
0
0
0
0
0
0
0
0
24
16
8
16
16
16
0
0
0
24
16
8
74
57
32
82
82
57
90
98
65
164
164
164
164
164
164
57
57
57
8
8
8
49
41
16
131
106
82
148
123
98
74
74
74
65
49
24
24
16
8
49
57
32
49
41
16
24
24
24
57
65
41
90
98
65
131
106
82
156
131
106
172
148
123
172
148
123
172
148
123
164
164
164
180
156
131
164
164
164
172
148
123
172
148
123
172
148
123
156
131
106
131
106
82
90
98
65
57
65
41
24
24
24
41
41
41
49
57
32
24
16
8
65
49
24
74
74
74
148
123
98
131
106
82
49
41
16
8
8
8
57
57
57
164
164
164
164
164
164
90
98
65
82
82
57
74
57
32
24
16
8
0
0
0
16
16
16
24
16
8
0
0
0
0
0
0
0
0
0
24
16
8
0
0
0
0
0
0
0
0
0
24
16
8
24
16
8
24
24
24
49
57
32
106
82
65
164
139
115
139
115
90
82
57
41
90
74
49
41
41
41
8
8
8
32
32
32
139
115
90
148
148
148
82
82
57
49
57
32
65
74
49
98
106
74
90
98
65
57
65
41
24
16
8
24
16
8
57
65
41
90
74
49
90
74
49
98
82
49
98
82
49
82
57
41
90
74
49
82
57
41
98
82
49
98
82
49
90
74
49
90
74
49
57
65
41
24
16
8
24
16
8
57
65
41
98
106
74
98
106
74
65
74
49
49
57
32
82
82
57
148
148
148
139
115
90
32
32
32
8
8
8
41
41
41
90
74
49
82
57
41
139
115
90
164
139
115
106
82
65
49
57
32
24
24
24
24
16
8
24
16
8
0
0
0
0
0
0
0
0
0
24
16
8
0
0
0
16
8
0
8
8
8
16
8
0
16
16
16
57
57
57
123
123
98
131
131
131
131
106
82
139
115
90
65
74
49
24
16
8
8
8
8
0
0
0
0
0
0
24
24
24
49
57
32
74
57
32
82
82
57
90
98
65
98
106
74
106
115
82
98
106
74
65
74
49
41
41
41
24
24
24
8
8
8
8
8
8
41
41
41
65
49
24
49
41
16
65
49
24
49
41
16
65
49
24
41
41
41
8
8
8
8
8
8
24
24
24
41
41
41
65
74
49
98
106
74
106
115
82
98
106
74
90
98
65
82
82
57
74
57
32
49
57
32
24
24
24
0
0
0
0
0
0
8
8
8
24
16
8
65
74
49
139
115
90
131
106
82
131
131
131
123
123
98
57
57
57
16
16
16
16
8
0
8
8
8
16
8
0
0
0
0
24
16
8
0
0
0
16
8
0
24
16
8
16
16
16
41
32
8
57
65
41
123
123
98
148
148
148
106
115
82
57
65
41
49
57
32
16
16
16
0
0
0
0
0
0
0
0
0
0
0
0
16
8
0
65
49
24
57
65
41
49
57
32
65
49
24
82
65
49
82
82
57
65
74
49
57
65
41
41
41
41
41
32
8
16
8
0
16
8
0
16
8
0
16
8
0
8
8
8
16
8
0
16
8
0
16
8
0
16
8
0
41
32
8
41
41
41
57
65
41
65
74
49
82
82
57
82
65
49
65
49
24
49
57
32
57
65
41
65
49
24
16
8
0
0
0
0
0
0
0
0
0
0
0
0
0
16
16
16
49
57
32
57
65
41
106
115
82
148
148
148
123
123
98
57
65
41
41
32
8
16
16
16
24
16
8
16
8
0
0
0
0
24
16
8
0
0
0
0
0
0
8
8
8
24
16
8
74
57
32
164
139
115
189
164
139
106
115
82
65
74
49
57
41
16
24
16
8
24
16
8
0
0
0
0
0
0
0
0
0
0
0
0
0
0
0
0
0
0
0
0
0
0
0
0
8
8
8
24
16
8
24
16
8
24
16
8
24
16
8
24
16
8
41
32
8
24
16
8
24
16
8
16
16
16
24
16
8
24
16
8
24
16
8
16
16
16
24
16
8
24
16
8
41
32
8
24
16
8
24
16
8
24
16
8
24
16
8
24
16
8
8
8
8
0
0
0
0
0
0
0
0
0
0
0
0
0
0
0
0
0
0
0
0
0
0
0
0
24
16
8
24
16
8
57
41
16
65
74
49
106
115
82
189
164
139
164
139
115
74
57
32
24
16
8
8
8
8
0
0
0
0
0
0
24
16
8
0
0
0
24
16
8
24
16
8
49
41
16
106
82
65
123
123
98
156
131
106
90
98
65
57
65
41
41
32
8
16
16
16
24
16
8
0
0
0
0
0
0
0
0
0
0
0
0
0
0
0
0
0
0
0
0
0
0
0
0
0
0
0
0
0
0
0
0
0
16
16
16
16
16
16
24
16
8
41
41
41
57
57
57
57
57
57
41
41
41
24
16
8
16
8
0
24
16
8
41
41
41
57
57
57
57
57
57
41
41
41
24
16
8
16
16
16
16
16
16
0
0
0
0
0
0
0
0
0
0
0
0
0
0
0
0
0
0
0
0
0
0
0
0
0
0
0
0
0
0
0
0
0
24
16
8
16
16
16
41
32
8
57
65
41
90
98
65
156
131
106
123
123
98
106
82
65
49
41
16
24
16
8
24
16
8
0
0
0
24
16
8
0
0
0
8
8
8
24
16
8
74
57
32
148
123
98
164
164
164
123
123
98
82
82
57
41
41
41
24
16
8
24
16
8
0
0
0
0
0
0
0
0
0
0
0
0
0
0
0
0
0
0
0
0
0
0
0
0
0
0
0
0
0
0
0
0
0
0
0
0
16
16
16
24
16
8
24
16
8
49
41
16
57
65
41
65
74
49
65
74
49
82
82
57
90
98
65
82
82
57
65
74
49
65
65
65
57
65
41
49
41
16
24
16
8
24
16
8
16
16
16
0
0
0
0
0
0
0
0
0
0
0
0
0
0
0
0
0
0
0
0
0
0
0
0
0
0
0
0
0
0
0
0
0
0
0
0
24
16
8
24
16
8
41
41
41
82
82
57
123
123
98
164
164
164
148
123
98
74
57
32
24
16
8
8
8
8
0
0
0
24
16
8
0
0
0
24
16
8
49
41
16
82
82
57
106
115
82
123
123
98
90
98
65
65
74
49
24
24
24
16
16
16
24
16
8
0
0
0
0
0
0
0
0
0
0
0
0
0
0
0
0
0
0
0
0
0
0
0
0
0
0
0
0
0
0
24
16
8
16
16
16
16
16
16
24
16
8
24
16
8
49
41
16
57
65
41
65
74
49
65
74
49
82
82
57
98
106
74
82
82
57
65
74
49
65
74
49
57
65
41
49
41
16
24
16
8
24
16
8
16
16
16
16
16
16
24
16
8
0
0
0
0
0
0
0
0
0
0
0
0
0
0
0
0
0
0
0
0
0
0
0
0
0
0
0
0
0
0
24
16
8
16
16
16
24
24
24
65
74
49
90
98
65
123
123
98
106
115
82
82
82
57
49
41
16
24
16
8
0
0
0
24
16
8
0
0
0
24
16
8
65
49
24
123
123
98
172
148
123
164
139
115
90
98
65
41
41
41
24
16
8
16
16
16
0
0
0
0
0
0
0
0
0
0
0
0
8
8
8
0
0
0
0
0
0
0
0
0
0
0
0
0
0
0
0
0
0
24
16
8
24
16
8
16
16
16
24
16
8
24
16
8
49
41
16
57
65
41
65
74
49
65
74
49
82
82
57
98
106
74
82
82
57
65
74
49
65
74
49
57
65
41
49
41
16
24
16
8
24
16
8
16
16
16
24
16
8
24
16
8
0
0
0
0
0
0
0
0
0
0
0
0
0
0
0
0
0
0
8
8
8
0
0
0
0
0
0
0
0
0
0
0
0
16
16
16
24
16
8
41
41
41
90
98
65
164
139
115
172
148
123
123
123
98
65
49
24
24
16
8
0
0
0
24
16
8
0
0
0
24
16
8
82
57
41
115
90
74
106
115
82
98
106
74
82
82
57
49
41
16
24
16
8
24
16
8
0
0
0
0
0
0
0
0
0
32
32
32
65
65
65
24
24
24
0
0
0
0
0
0
0
0
0
0
0
0
0
0
0
0
0
0
0
0
0
24
16
8
24
16
8
24
16
8
49
41
16
57
65
41
65
74
49
65
74
49
82
82
57
98
106
74
82
82
57
65
74
49
65
74
49
57
65
41
49
41
16
24
16
8
24
16
8
24
16
8
0
0
0
0
0
0
0
0
0
0
0
0
0
0
0
0
0
0
0
0
0
24
24
24
65
65
65
32
32
32
0
0
0
0
0
0
0
0
0
24
16
8
24
16
8
49
41
16
82
82
57
98
106
74
106
115
82
115
90
74
82
57
41
24
16
8
0
0
0
24
16
8
0
0
0
41
32
8
90
74
49
131
106
82
139
115
90
131
106
82
65
74
49
41
32
8
24
16
8
24
16
8
0
0
0
0
0
0
32
32
32
106
106
106
115
115
115
41
41
41
8
8
8
0
0
0
0
0
0
16
8
0
16
16
16
0
0
0
0
0
0
24
16
8
16
16
16
24
16
8
49
41
16
57
65
41
65
74
49
65
74
49
82
82
57
98
106
74
82
82
57
65
74
49
65
74
49
57
65
41
49
41
16
24
16
8
16
16
16
24
16
8
0
0
0
0
0
0
16
16
16
16
8
0
0
0
0
0
0
0
8
8
8
41
41
41
115
115
115
106
106
106
32
32
32
0
0
0
0
0
0
24
16
8
24
16
8
41
32
8
65
74
49
131
106
82
139
115
90
131
106
82
90
74
49
41
32
8
0
0
0
24
16
8
16
8
0
41
32
8
82
82
57
139
115
90
148
123
98
139
115
90
90
74
49
41
32
8
24
16
8
24
16
8
0
0
0
0
0
0
57
65
41
172
148
123
123
123
98
65
74
49
41
32
8
0
0
0
8
8
8
41
41
41
106
106
106
32
32
32
0
0
0
16
8
0
0
0
0
0
0
0
49
57
32
82
82
57
90
98
65
57
65
41
49
57
32
65
74
49
49
57
32
57
65
41
90
98
65
82
82
57
49
57
32
0
0
0
0
0
0
16
8
0
0
0
0
32
32
32
106
106
106
41
41
41
8
8
8
0
0
0
41
32
8
65
74
49
123
123
98
172
148
123
57
65
41
0
0
0
0
0
0
24
16
8
24
16
8
41
32
8
90
74
49
139
115
90
148
123
98
139
115
90
82
82
57
41
32
8
16
8
0
41
32
8
16
8
0
24
16
8
65
74
49
115
90
74
131
106
82
115
90
74
82
65
49
16
49
8
24
16
8
8
8
8
0
0
0
24
16
8
82
82
57
156
156
156
98
98
98
65
65
65
65
74
49
24
24
24
0
0
0
57
57
57
156
156
156
74
74
74
8
8
8
32
32
32
148
123
98
189
189
189
246
172
172
246
172
172
205
205
205
246
172
172
197
197
197
180
180
180
197
197
197
246
172
172
205
205
205
246
172
172
246
172
172
189
189
189
148
123
98
32
32
32
8
8
8
74
74
74
156
156
156
57
57
57
0
0
0
24
24
24
65
74
49
65
65
65
98
98
98
156
156
156
82
82
57
24
16
8
0
0
0
8
8
8
24
16
8
16
49
8
82
65
49
115
90
74
131
106
82
115
90
74
65
74
49
24
16
8
16
8
0
24
16
8
24
16
8
24
24
24
65
74
49
106
115
82
148
123
98
139
115
90
90
98
65
49
41
16
16
16
16
24
16
8
0
0
0
24
24
24
90
98
65
156
131
106
90
98
65
65
65
65
65
74
49
24
24
24
0
0
0
65
65
65
180
180
180
82
82
82
41
41
41
131
131
131
189
189
189
156
156
156
164
139
115
156
131
106
164
139
115
156
131
106
164
139
115
131
131
131
164
139
115
156
131
106
164
139
115
156
131
106
164
139
115
156
156
156
189
189
189
131
131
131
41
41
41
82
82
82
180
180
180
65
65
65
0
0
0
24
24
24
65
74
49
65
65
65
90
98
65
156
131
106
90
98
65
24
24
24
0
0
0
24
16
8
16
16
16
49
41
16
90
98
65
139
115
90
148
123
98
106
115
82
65
74
49
24
24
24
24
16
8
41
32
8
24
16
8
24
16
8
49
57
32
82
82
57
98
106
74
98
106
74
82
82
57
49
41
16
16
16
16
24
16
8
0
0
0
16
16
16
74
74
74
123
123
98
74
74
74
41
41
41
65
65
65
49
41
16
8
8
8
24
24
24
90
90
90
65
65
65
148
123
98
139
139
139
123
123
98
115
90
74
98
82
49
98
82
49
98
82
49
98
82
49
98
82
49
98
82
49
98
82
49
98
82
49
98
82
49
98
82
49
98
82
49
115
90
74
123
123
98
139
139
139
148
123
98
65
65
65
90
90
90
24
24
24
8
8
8
49
41
16
65
65
65
41
41
41
74
74
74
123
123
98
74
74
74
16
16
16
0
0
0
24
16
8
16
16
16
49
41
16
82
82
57
98
106
74
98
106
74
82
82
57
49
57
32
24
16
8
24
16
8
41
32
8
0
0
0
24
16
8
41
32
8
82
82
57
148
123
98
164
139
115
123
123
98
65
74
49
24
24
24
24
16
8
0
0
0
0
0
0
41
41
41
106
115
82
82
82
57
49
57
32
65
74
49
57
57
57
16
16
16
0
0
0
41
41
41
131
131
131
123
123
98
131
106
74
115
90
57
123
82
41
115
74
41
82
65
49
65
74
49
65
74
49
57
65
41
57
65
41
65
74
49
82
65
49
115
74
41
123
82
41
123
82
41
131
82
49
115
90
57
139
115
90
148
148
148
131
131
131
41
41
41
0
0
0
16
16
16
57
57
57
65
74
49
49
57
32
82
82
57
106
115
82
41
41
41
0
0
0
0
0
0
24
16
8
24
24
24
65
74
49
123
123
98
164
139
115
148
123
98
82
82
57
41
32
8
24
16
8
8
8
8
24
16
8
0
0
0
24
16
8
24
16
8
82
57
41
106
82
65
115
90
74
98
106
74
65
74
49
41
32
8
16
16
16
0
0
0
0
0
0
32
32
32
106
82
65
74
74
74
49
57
32
57
65
41
57
57
57
8
8
8
8
8
8
74
57
32
148
123
98
131
106
74
156
98
57
156
90
16
156
90
16
90
65
32
57
41
16
49
41
16
41
32
8
41
32
8
49
41
16
65
49
24
106
65
32
131
65
0
156
90
16
156
90
16
156
90
16
156
90
16
156
98
57
139
115
90
148
123
98
74
57
32
8
8
8
8
8
8
57
57
57
57
65
41
49
57
32
74
74
74
106
82
65
32
32
32
0
0
0
0
0
0
16
16
16
41
32
8
65
74
49
98
106
74
115
90
74
106
82
65
82
57
41
24
16
8
24
16
8
0
0
0
24
16
8
0
0
0
16
8
0
24
16
8
49
57
32
115
90
74
148
123
98
139
115
90
82
82
57
65
49
24
24
24
24
16
8
0
0
0
0
16
16
16
82
82
57
106
115
82
57
65
41
49
41
16
32
32
32
8
8
8
8
8
8
41
41
41
131
106
82
131
106
74
164
106
57
156
98
57
115
74
41
90
65
32
65
49
24
65
49
24
65
49
24
65
49
24
90
65
32
115
74
41
123
82
41
156
90
16
172
123
24
172
123
24
172
123
24
172
123
24
156
98
57
131
106
74
131
106
74
41
41
41
8
8
8
8
8
8
32
32
32
49
41
16
57
65
41
106
115
82
82
82
57
16
16
16
0
0
0
16
8
0
24
24
24
65
49
24
82
82
57
139
115
90
148
123
98
115
90
74
49
57
32
24
16
8
16
8
0
0
0
0
24
16
8
0
0
0
16
8
0
16
16
16
41
41
41
90
74
49
131
106
82
148
123
98
131
106
82
82
65
49
41
32
8
24
16
8
0
0
0
0
0
0
41
41
41
106
106
106
90
90
90
41
41
41
16
16
16
0
0
0
8
8
8
41
41
41
106
115
82
131
106
74
139
90
49
123
82
41
90
65
32
90
65
32
90
65
32
82
57
24
90
65
32
106
65
32
123
82
41
156
98
57
172
123
24
172
123
24
172
123
24
172
123
24
164
106
57
156
98
57
131
82
49
115
90
57
98
106
74
41
41
41
8
8
8
0
0
0
16
16
16
41
41
41
90
90
90
106
106
106
41
41
41
0
0
0
0
0
0
24
16
8
41
32
8
82
65
49
131
106
82
148
123
98
131
106
82
90
74
49
41
41
41
16
16
16
16
8
0
0
0
0
24
16
8
0
0
0
16
8
0
16
8
0
24
16
8
65
74
49
115
90
74
139
115
90
131
106
82
115
90
74
65
74
49
24
24
24
0
0
0
0
0
0
8
8
8
57
57
57
90
90
90
41
41
41
24
16
8
0
0
0
8
8
8
41
41
41
98
106
74
106
82
65
98
82
49
98
82
49
90
74
49
90
74
49
90
74
49
90
74
49
115
74
41
156
90
16
172
123
24
197
156
41
197
156
41
197
156
41
197
156
41
197
156
41
164
106
57
131
82
49
98
82
49
106
82
65
98
106
74
41
41
41
8
8
8
0
0
0
24
16
8
41
41
41
90
90
90
57
57
57
8
8
8
0
0
0
0
0
0
24
24
24
65
74
49
115
90
74
131
106
82
139
115
90
115
90
74
65
74
49
24
16
8
16
8
0
16
8
0
0
0
0
24
16
8
0
0
0
0
0
0
16
8
0
24
16
8
41
41
41
57
65
41
90
98
65
156
131
106
106
115
82
65
74
49
24
16
8
16
8
0
16
8
0
0
0
0
8
8
8
41
41
41
57
57
57
57
65
41
8
8
8
8
8
8
41
41
41
131
106
74
106
82
65
98
82
49
98
82
49
98
82
49
98
82
49
98
82
49
123
82
41
172
123
24
172
123
24
197
156
41
197
156
41
197
156
41
197
156
41
197
156
41
172
123
24
139
90
49
98
82
49
98
82
49
106
82
65
131
106
74
41
41
41
8
8
8
8
8
8
57
65
41
57
57
57
41
41
41
8
8
8
0
0
0
16
8
0
16
8
0
24
16
8
65
74
49
106
115
82
156
131
106
90
98
65
57
65
41
41
41
41
24
16
8
16
8
0
0
0
0
0
0
0
24
16
8
0
0
0
0
0
0
0
0
0
8
8
8
24
16
8
49
57
32
82
82
57
98
106
74
106
115
82
139
115
90
98
106
74
49
41
16
24
16
8
0
0
0
0
0
0
16
8
0
49
57
32
74
74
74
16
16
16
8
8
8
49
57
32
131
106
74
106
82
65
115
90
57
115
90
57
115
90
57
115
90
57
139
90
49
172
123
24
197
156
41
213
189
65
213
189
65
213
189
65
213
189
65
197
156
41
172
123
24
139
90
49
115
90
57
115
90
57
115
90
57
106
82
65
131
106
74
49
57
32
8
8
8
16
16
16
74
74
74
49
57
32
16
8
0
0
0
0
0
0
0
24
16
8
49
41
16
98
106
74
139
115
90
106
115
82
98
106
74
82
82
57
49
57
32
24
16
8
8
8
8
0
0
0
0
0
0
0
0
0
24
16
8
0
0
0
0
0
0
0
0
0
24
16
8
16
16
16
24
16
8
65
49
24
106
82
65
123
123
98
98
106
74
82
65
49
65
74
49
65
74
49
24
24
24
0
0
0
0
0
0
24
16
8
49
41
16
8
8
8
8
8
8
57
57
57
131
106
82
106
82
65
123
82
41
123
82
41
123
82
41
139
90
49
172
123
24
197
156
41
213
189
65
213
189
65
213
189
65
213
189
65
197
156
41
172
123
24
139
90
49
123
82
41
123
82
41
123
82
41
123
82
41
106
82
65
131
106
82
57
57
57
8
8
8
8
8
8
49
41
16
24
16
8
0
0
0
0
0
0
24
24
24
65
74
49
65
74
49
82
65
49
98
106
74
123
123
98
106
82
65
65
49
24
24
16
8
16
16
16
24
16
8
0
0
0
0
0
0
0
0
0
24
16
8
0
0
0
0
0
0
0
0
0
0
0
0
0
0
0
24
16
8
49
41
16
65
49
24
82
57
41
131
106
74
156
131
106
106
115
82
65
74
49
57
57
57
24
16
8
0
0
0
0
0
0
16
16
16
0
0
0
8
8
8
49
57
32
106
115
82
106
82
65
123
82
41
123
82
41
139
90
49
164
106
57
197
156
41
213
189
65
213
189
65
213
189
65
213
189
65
197
156
41
172
123
24
139
90
49
123
82
41
123
82
41
123
82
41
123
82
41
123
82
41
106
82
65
106
115
82
49
57
32
8
8
8
0
0
0
16
16
16
0
0
0
0
0
0
24
16
8
57
57
57
65
74
49
106
115
82
156
131
106
131
106
74
82
57
41
65
49
24
49
41
16
24
16
8
0
0
0
0
0
0
0
0
0
0
0
0
0
0
0
24
16
8
0
0
0
0
0
0
0
0
0
0
0
0
24
16
8
24
16
8
24
16
8
41
32
8
90
74
49
98
106
74
82
82
57
106
115
82
131
131
131
106
115
82
49
57
32
24
24
24
8
8
8
0
0
0
0
0
0
0
0
0
32
32
32
90
98
65
82
82
57
106
82
65
106
82
65
139
90
49
197
156
41
213
189
65
213
189
65
213
189
65
213
189
65
197
156
41
164
106
57
139
115
82
115
90
74
106
82
65
115
90
57
115
90
57
115
90
57
98
82
49
82
82
57
90
98
65
32
32
32
0
0
0
0
0
0
0
0
0
8
8
8
24
24
24
49
57
32
106
115
82
131
131
131
106
115
82
82
82
57
98
106
74
90
74
49
41
32
8
24
16
8
24
16
8
24
16
8
0
0
0
0
0
0
0
0
0
0
0
0
24
16
8
0
0
0
0
0
0
0
0
0
0
0
0
0
0
0
8
8
8
24
16
8
24
16
8
24
16
8
65
49
24
106
115
82
156
131
106
131
106
82
115
115
115
98
106
74
65
74
49
49
57
32
49
41
16
16
8
0
0
0
0
0
0
0
41
32
8
49
57
32
65
74
49
98
82
49
115
90
57
131
106
74
139
115
90
156
131
106
156
131
106
164
139
115
164
139
115
156
131
106
123
123
123
115
115
115
98
98
98
90
98
65
82
82
57
82
82
57
65
74
49
49
57
32
41
32
8
0
0
0
0
0
0
16
8
0
49
41
16
49
57
32
65
74
49
98
106
74
115
115
115
131
106
82
156
131
106
106
115
82
65
49
24
24
16
8
24
16
8
24
16
8
8
8
8
0
0
0
0
0
0
0
0
0
0
0
0
0
0
0
24
16
8
57
57
57
24
24
24
0
0
0
0
0
0
0
0
0
16
8
0
8
8
8
24
16
8
16
16
16
49
41
16
65
74
49
57
65
41
131
106
82
156
156
156
106
115
82
82
82
57
123
123
98
115
115
115
65
74
49
16
8
0
0
0
0
0
0
0
24
16
8
49
57
32
82
65
49
65
74
49
65
74
49
90
90
90
98
98
98
98
98
98
98
98
98
106
106
106
98
98
98
98
98
98
98
98
98
90
90
90
65
74
49
65
74
49
82
65
49
49
57
32
24
16
8
0
0
0
0
0
0
16
8
0
65
74
49
115
115
115
123
123
98
82
82
57
106
115
82
156
156
156
131
106
82
57
65
41
65
74
49
49
41
16
16
16
16
24
16
8
8
8
8
16
8
0
0
0
0
0
0
0
0
0
0
24
24
24
57
57
57
65
49
24
82
82
82
41
41
41
24
16
8
0
0
0
0
0
0
0
0
0
16
8
0
24
16
8
24
16
8
16
8
0
24
16
8
65
74
49
115
90
74
82
82
57
115
90
74
131
106
82
148
123
98
156
131
106
148
123
98
90
98
65
16
49
8
0
0
0
0
0
0
16
8
0
24
16
8
24
24
24
0
0
0
0
0
0
0
0
0
0
0
0
0
0
0
16
16
16
0
0
0
0
0
0
0
0
0
0
0
0
0
0
0
24
24
24
24
16
8
16
8
0
0
0
0
0
0
0
16
49
8
90
98
65
148
123
98
156
131
106
148
123
98
131
106
82
115
90
74
82
82
57
115
90
74
65
74
49
24
16
8
16
8
0
24
16
8
24
16
8
16
8
0
0
0
0
0
0
0
0
0
0
24
16
8
41
41
41
82
82
82
82
65
49
65
74
49
57
65
41
32
32
32
8
8
8
0
0
0
0
0
0
8
8
8
16
8
0
24
16
8
24
16
8
24
16
8
32
32
32
41
32
8
98
82
49
115
90
57
106
82
65
139
115
90
123
123
98
123
123
98
98
106
74
49
57
32
16
32
8
0
0
0
0
0
0
0
0
0
0
0
0
0
0
0
0
0
0
0
0
0
0
0
0
0
0
0
0
0
0
0
0
0
0
0
0
0
0
0
0
0
0
0
0
0
0
0
0
0
0
0
0
0
0
0
0
0
16
32
8
49
57
32
98
106
74
123
123
98
123
123
98
139
115
90
106
82
65
115
90
57
98
82
49
41
32
8
32
32
32
24
16
8
24
16
8
24
16
8
16
8
0
8
8
8
0
0
0
0
0
0
8
8
8
32
32
32
57
65
41
65
74
49
82
65
49
41
41
41
65
65
65
57
57
57
24
24
24
0
0
0
0
0
0
0
0
0
0
0
0
24
16
8
24
16
8
8
8
8
24
16
8
41
32
8
57
41
16
65
49
24
106
115
82
98
106
74
90
98
65
139
115
90
82
82
57
41
41
41
115
115
115
164
164
164
57
57
57
65
65
65
180
180
180
98
106
74
41
41
41
131
131
131
180
180
180
57
57
57
32
32
32
57
57
57
180
180
180
131
131
131
41
41
41
98
106
74
180
180
180
65
65
65
57
57
57
164
164
164
115
115
115
41
41
41
82
82
57
139
115
90
90
98
65
98
106
74
106
115
82
65
49
24
57
41
16
41
32
8
24
16
8
8
8
8
24
16
8
24
16
8
0
0
0
0
0
0
0
0
0
0
0
0
24
24
24
57
57
57
65
65
65
49
57
32
82
65
49
49
41
16
57
57
57
74
74
74
57
57
57
8
8
8
8
8
8
16
16
16
24
24
24
32
32
32
41
41
41
57
57
57
57
57
57
24
24
24
16
8
0
49
41
16
65
74
49
32
32
32
74
74
74
164
164
164
82
82
82
49
57
32
148
123
98
172
148
123
74
57
32
82
65
49
180
156
131
115
90
74
41
41
41
123
123
123
139
139
139
74
74
74
82
82
57
74
74
74
139
139
139
123
123
123
41
41
41
115
90
74
180
156
131
82
65
49
74
57
32
172
148
123
148
123
98
49
57
32
82
82
82
164
164
164
74
74
74
32
32
32
65
74
49
49
41
16
16
8
0
24
24
24
57
57
57
57
57
57
41
41
41
32
32
32
24
24
24
16
16
16
8
8
8
8
8
8
57
57
57
74
74
74
57
57
57
49
57
32
74
57
32
65
65
65
74
74
74
41
41
41
41
41
41
82
82
82
98
98
98
123
123
98
123
123
123
139
139
139
148
148
148
189
189
189
205
205
205
74
74
74
8
8
8
8
8
8
24
24
24
32
32
32
90
98
65
189
164
139
98
106
74
49
41
16
131
106
74
148
123
98
74
57
32
74
57
32
156
131
106
90
98
65
49
57
32
90
98
65
106
115
82
65
74
49
57
65
41
65
74
49
106
115
82
90
98
65
49
57
32
90
98
65
156
131
106
74
57
32
74
57
32
148
123
98
131
106
74
49
41
16
98
106
74
189
164
139
90
98
65
32
32
32
24
24
24
8
8
8
8
8
8
74
74
74
205
205
205
189
189
189
148
148
148
139
139
139
123
123
123
123
123
98
98
98
98
82
82
82
41
41
41
41
41
41
74
74
74
65
65
65
82
65
49
32
32
32
32
32
32
82
82
57
123
123
98
189
189
189
197
197
197
180
180
180
180
180
180
164
164
164
172
148
123
123
123
123
65
65
65
0
0
0
0
0
0
8
8
8
41
41
41
74
74
74
106
106
106
180
180
180
82
82
57
49
57
32
148
123
98
156
131
106
57
65
41
65
74
49
164
139
115
82
82
57
57
65
41
106
106
106
106
115
82
49
57
32
57
65
41
49
57
32
106
115
82
106
106
106
57
65
41
82
82
57
164
139
115
65
74
49
57
65
41
156
131
106
148
123
98
49
57
32
82
82
57
180
180
180
106
106
106
74
74
74
41
41
41
8
8
8
0
0
0
0
0
0
65
65
65
123
123
123
172
148
123
164
164
164
180
180
180
180
180
180
197
197
197
189
189
189
123
123
98
82
82
57
32
32
32
32
32
32
49
41
16
41
41
41
106
82
65
164
139
115
164
139
115
139
115
82
90
98
65
65
74
49
106
115
82
98
106
74
65
74
49
115
90
74
123
123
123
123
123
123
82
65
49
24
16
8
24
24
24
82
82
82
115
115
115
90
98
65
82
82
57
65
74
49
82
82
57
82
82
57
82
82
57
82
82
57
82
82
57
90
74
49
82
82
57
82
82
57
82
82
57
65
74
49
82
82
57
65
74
49
82
82
57
82
82
57
82
82
57
90
74
49
82
82
57
82
82
57
82
82
57
82
82
57
82
82
57
65
74
49
82
82
57
90
98
65
115
115
115
82
82
82
24
24
24
24
16
8
82
65
49
123
123
123
123
123
123
115
90
74
65
74
49
98
106
74
106
115
82
65
74
49
90
98
65
139
115
82
164
139
115
164
139
115
106
82
65
41
41
41
49
41
16
131
106
82
148
123
98
106
115
82
90
98
65
90
98
65
90
98
65
82
82
57
90
98
65
90
98
65
106
115
82
164
139
115
164
164
164
180
180
180
131
106
82
24
24
24
16
16
16
82
82
57
106
115
82
65
74
49
65
74
49
65
74
49
57
65
41
57
65
41
65
74
49
57
65
41
74
57
32
57
65
41
82
65
49
65
74
49
57
65
41
82
65
49
65
74
49
82
65
49
57
65
41
65
74
49
82
65
49
57
65
41
74
57
32
57
65
41
65
74
49
57
65
41
57
65
41
65
74
49
65
74
49
65
74
49
106
115
82
82
82
57
16
16
16
24
24
24
131
106
82
180
180
180
164
164
164
164
139
115
106
115
82
90
98
65
90
98
65
82
82
57
90
98
65
90
98
65
90
98
65
106
115
82
148
123
98
131
106
82
115
90
74
131
106
82
90
98
65
82
82
57
82
82
57
82
82
57
82
82
57
82
82
57
98
82
49
82
82
57
82
82
57
82
82
57
82
82
57
90
98
65
82
82
57
24
16
8
24
16
8
106
82
65
123
123
98
82
82
57
65
74
49
65
74
49
65
74
49
90
74
49
98
82
49
65
74
49
82
65
49
98
82
49
90
98
65
82
65
49
90
74
49
90
98
65
90
74
49
90
98
65
90
74
49
82
65
49
90
98
65
98
82
49
82
65
49
65
74
49
98
82
49
90
74
49
65
74
49
65
74
49
65
74
49
82
82
57
123
123
98
106
82
65
24
16
8
24
16
8
82
82
57
90
98
65
82
82
57
82
82
57
82
82
57
82
82
57
98
82
49
82
82
57
82
82
57
82
82
57
82
82
57
82
82
57
90
98
65
131
106
82
131
106
82
90
98
65
65
74
49
32
32
32
49
41
16
32
32
32
32
32
32
49
41
16
65
49
24
49
41
16
32
32
32
32
32
32
49
41
16
49
57
32
41
41
41
8
8
8
24
16
8
82
82
57
106
115
82
82
65
49
57
65
41
90
65
32
90
65
32
90
74
49
90
74
49
90
65
32
90
65
32
90
74
49
90
74
49
82
65
49
90
74
49
90
74
49
90
74
49
90
74
49
90
74
49
82
65
49
90
74
49
90
74
49
90
65
32
90
65
32
90
74
49
90
74
49
90
65
32
90
65
32
57
65
41
82
65
49
106
115
82
82
82
57
24
16
8
8
8
8
41
41
41
49
57
32
49
41
16
32
32
32
32
32
32
49
41
16
65
49
24
49
41
16
32
32
32
32
32
32
49
41
16
32
32
32
65
74
49
90
98
65
106
82
65
65
74
49
24
24
24
0
0
0
0
0
0
0
0
0
0
0
0
0
0
0
0
0
0
0
0
0
0
0
0
0
0
0
0
0
0
0
0
0
0
0
0
0
0
0
24
16
8
106
82
65
148
123
98
115
90
57
98
82
49
115
90
57
115
90
74
98
106
74
90
98
65
115
90
57
98
106
74
115
90
57
98
106
74
115
90
57
115
90
57
115
90
57
90
98
65
115
90
57
115
90
57
115
90
57
98
106
74
115
90
57
98
106
74
115
90
57
90
98
65
98
106
74
115
90
74
115
90
57
98
82
49
115
90
57
148
123
98
106
82
65
24
16
8
0
0
0
0
0
0
0
0
0
0
0
0
0
0
0
0
0
0
0
0
0
0
0
0
0
0
0
0
0
0
0
0
0
0
0
0
0
0
0
24
24
24
65
74
49
82
65
49
24
24
24
16
16
16
24
24
24
24
24
24
32
32
32
41
41
41
32
32
32
32
32
32
41
41
41
32
32
32
24
24
24
32
32
32
32
32
32
32
32
32
24
24
24
24
24
24
74
57
32
106
82
65
65
74
49
74
57
32
57
65
41
65
74
49
65
74
49
57
65
41
57
65
41
74
57
32
65
74
49
65
74
49
74
57
32
57
65
41
57
65
41
65
74
49
57
65
41
57
65
41
74
57
32
65
74
49
65
74
49
74
57
32
57
65
41
57
65
41
65
74
49
65
74
49
57
65
41
74
57
32
65
74
49
106
82
65
74
57
32
24
16
8
16
16
16
24
24
24
32
32
32
32
32
32
24
24
24
32
32
32
41
41
41
32
32
32
32
32
32
41
41
41
32
32
32
24
24
24
24
24
24
16
16
16
41
32
8
49
41
16
65
74
49
90
90
90
115
115
115
115
115
115
115
115
115
115
115
115
123
123
123
123
123
123
123
123
123
115
115
115
98
98
98
98
98
98
115
115
115
123
123
123
115
115
115
90
90
90
82
65
49
49
57
32
49
57
32
49
57
32
49
57
32
49
57
32
49
57
32
49
57
32
49
57
32
49
57
32
49
57
32
49
57
32
49
57
32
49
57
32
49
57
32
49
57
32
49
57
32
49
57
32
49
57
32
49
57
32
49
57
32
49
57
32
49
57
32
49
57
32
49
57
32
49
57
32
49
57
32
49
57
32
49
57
32
49
57
32
65
74
49
65
65
65
90
90
90
98
98
98
115
115
115
98
98
98
98
98
98
115
115
115
123
123
123
123
123
123
123
123
123
115
115
115
115
115
115
115
115
115
115
115
115
90
90
90
65
74
49
32
32
32
65
74
49
98
98
98
123
123
123
106
106
106
82
82
57
90
90
90
123
123
123
123
123
98
123
123
98
123
123
98
106
115
82
98
106
74
123
123
98
123
123
98
123
123
98
123
123
98
123
123
98
123
123
98
123
123
98
123
123
98
123
123
98
123
123
98
123
123
98
123
123
98
123
123
98
123
123
98
123
123
98
123
123
98
123
123
98
123
123
98
123
123
98
123
123
98
123
123
98
123
123
98
123
123
98
123
123
98
123
123
98
123
123
98
123
123
98
123
123
98
123
123
98
123
123
98
123
123
98
123
123
98
123
123
98
123
123
98
106
115
82
98
106
74
106
115
82
98
106
74
106
115
82
106
115
82
98
106
74
123
123
98
123
123
98
123
123
98
123
123
123
90
90
90
82
82
57
106
106
106
123
123
123
98
98
98
57
65
41
32
32
32
65
74
49
98
106
74
106
115
82
90
98
65
115
90
74
123
123
98
148
123
98
148
123
98
131
106
82
131
106
82
131
106
82
82
82
57
115
90
74
131
106
82
131
106
82
131
106
82
131
106
82
131
106
82
131
106
82
131
106
82
131
106
82
131
106
82
131
106
82
131
106
82
131
106
82
131
106
82
131
106
82
131
106
82
131
106
82
131
106
82
131
106
82
131
106
82
131
106
82
131
106
82
131
106
82
131
106
82
131
106
82
131
106
82
131
106
82
131
106
82
131
106
82
131
106
82
131
106
82
131
106
82
131
106
82
131
106
82
131
106
82
82
82
57
131
106
82
82
82
57
131
106
82
131
106
82
82
82
57
131
106
82
131
106
82
148
123
98
148
123
98
123
123
98
115
90
74
90
98
65
106
115
82
98
106
74
57
65
41
32
32
32
57
65
41
90
98
65
90
98
65
98
106
74
148
148
148
139
115
90
49
57
32
82
82
82
131
106
82
98
98
98
123
123
98
139
139
139
123
123
98
131
106
82
98
98
98
131
106
82
98
98
98
131
106
82
131
106
82
98
98
98
131
106
82
131
106
82
98
98
98
131
106
82
98
98
98
131
106
82
98
98
98
131
106
82
98
98
98
131
106
82
131
106
82
131
106
82
131
106
82
98
98
98
131
106
82
98
98
98
131
106
82
98
98
98
131
106
82
98
98
98
131
106
82
131
106
82
98
98
98
131
106
82
131
106
82
98
98
98
123
123
98
139
139
139
123
123
98
139
139
139
106
106
106
123
123
98
139
139
139
106
106
106
131
106
82
82
82
82
49
57
32
139
115
90
148
148
148
98
106
74
90
98
65
90
98
65
57
65
41
32
32
32
57
65
41
65
74
49
90
98
65
164
164
164
180
180
180
57
57
57
41
41
41
148
123
98
156
131
106
148
123
98
164
139
115
164
164
164
164
139
115
156
131
106
148
123
98
156
131
106
148
123
98
164
139
115
156
131
106
148
123
98
164
139
115
156
131
106
148
123
98
156
131
106
148
123
98
156
131
106
148
123
98
156
131
106
148
123
98
156
131
106
156
131
106
156
131
106
156
131
106
148
123
98
156
131
106
148
123
98
156
131
106
148
123
98
156
131
106
148
123
98
164
139
115
156
131
106
148
123
98
164
139
115
156
131
106
148
123
98
164
139
115
164
164
164
172
148
123
164
164
164
131
131
131
164
139
115
164
164
164
131
131
131
156
131
106
148
123
98
41
41
41
57
57
57
180
180
180
164
164
164
90
98
65
65
74
49
57
65
41
32
32
32
57
65
41
65
74
49
82
82
82
180
180
180
156
156
156
41
41
41
49
41
16
139
115
90
115
90
74
106
82
65
106
115
82
106
115
82
115
90
74
106
115
82
106
82
65
115
90
74
106
82
65
131
106
82
115
90
74
106
82
65
131
106
82
115
90
74
106
82
65
115
90
74
106
82
65
115
90
74
106
82
65
115
90
74
106
82
65
115
90
74
115
90
74
115
90
74
115
90
74
106
82
65
115
90
74
106
82
65
115
90
74
106
82
65
115
90
74
106
82
65
131
106
82
115
90
74
106
82
65
131
106
82
115
90
74
106
82
65
106
115
82
106
115
82
106
115
82
106
115
82
106
82
65
106
115
82
106
115
82
106
82
65
115
90
74
139
115
90
49
41
16
41
41
41
156
156
156
180
180
180
98
106
74
65
74
49
57
65
41
32
32
32
57
65
41
65
74
49
82
82
82
164
164
164
123
123
123
32
32
32
41
41
41
148
123
98
98
106
74
82
82
57
106
115
82
106
115
82
98
106
74
106
115
82
82
82
57
90
98
65
82
82
57
106
115
82
90
98
65
82
82
57
106
115
82
90
98
65
82
82
57
90
98
65
82
82
57
90
98
65
82
82
57
90
98
65
82
82
57
90
98
65
90
98
65
90
98
65
90
98
65
82
82
57
90
98
65
82
82
57
90
98
65
82
82
57
90
98
65
82
82
57
106
115
82
90
98
65
82
82
57
106
115
82
90
98
65
82
82
57
106
115
82
106
115
82
106
115
82
106
115
82
90
98
65
106
115
82
106
115
82
82
82
57
98
106
74
148
123
98
41
41
41
32
32
32
123
123
123
164
164
164
98
106
74
65
74
49
57
65
41
32
32
32
57
65
41
65
74
49
82
82
57
172
148
123
131
106
82
32
32
32
41
41
41
123
123
98
90
98
65
82
82
57
90
98
65
106
115
82
90
98
65
106
115
82
82
82
57
90
98
65
82
82
57
90
98
65
90
98
65
82
82
57
90
98
65
90
98
65
82
82
57
90
98
65
82
82
57
90
98
65
82
82
57
90
98
65
82
82
57
90
98
65
90
98
65
90
98
65
90
98
65
82
82
57
90
98
65
82
82
57
90
98
65
82
82
57
90
98
65
82
82
57
90
98
65
90
98
65
82
82
57
90
98
65
90
98
65
82
82
57
90
98
65
106
115
82
98
106
74
106
115
82
82
82
57
90
98
65
106
115
82
82
82
57
90
98
65
123
123
98
41
41
41
32
32
32
131
106
82
172
148
123
90
98
65
65
74
49
57
65
41
32
32
32
