P3
# Created by GIMP version 2.10.38 PNM plug-in
64 64
255
41
41
41
41
41
41
41
41
41
41
41
41
41
41
41
16
32
8
24
16
8
24
16
8
41
41
41
24
16
8
41
41
41
16
32
8
24
16
8
41
41
41
24
16
8
24
16
8
16
32
8
16
32
8
41
41
41
41
41
41
41
41
41
41
41
41
41
41
41
49
49
49
49
49
49
49
49
49
49
49
49
49
49
49
49
49
49
41
41
41
24
16
8
24
16
8
24
16
8
24
16
8
24
16
8
24
16
8
24
16
8
24
16
8
24
16
8
24
16
8
24
16
8
24
16
8
24
16
8
24
16
8
24
16
8
24
16
8
24
16
8
24
16
8
41
41
41
65
65
65
49
49
49
65
65
65
49
49
49
49
49
49
65
65
65
49
49
49
49
49
49
49
49
49
49
49
49
41
41
41
49
49
49
41
41
41
16
32
8
16
32
8
16
32
8
41
41
41
49
49
49
41
41
41
16
32
8
41
41
41
16
32
8
41
41
41
41
41
41
24
16
8
41
41
41
41
41
41
24
16
8
24
16
8
16
32
8
16
32
8
41
41
41
41
41
41
41
41
41
41
41
41
49
49
49
41
41
41
41
41
41
41
41
41
49
49
49
49
49
49
49
49
49
49
49
49
41
41
41
24
16
8
24
16
8
41
41
41
41
41
41
41
41
41
41
41
41
41
41
41
41
41
41
41
41
41
41
41
41
41
41
41
41
41
41
41
41
41
41
41
41
41
41
41
41
41
41
41
41
41
41
41
41
41
41
41
24
16
8
41
41
41
49
49
49
65
65
65
65
65
65
49
49
49
49
49
49
65
65
65
49
49
49
49
49
49
49
49
49
41
41
41
41
41
41
41
41
41
41
41
41
41
41
41
41
41
41
41
41
41
49
49
49
49
49
49
41
41
41
16
32
8
41
41
41
16
32
8
16
32
8
41
41
41
41
41
41
41
41
41
41
41
41
41
41
41
41
41
41
16
49
8
41
41
41
41
41
41
41
41
41
41
41
41
41
41
41
41
41
41
49
49
49
49
49
49
49
49
49
49
49
49
49
49
49
41
41
41
24
16
8
24
16
8
41
41
41
49
49
49
49
49
49
49
49
49
49
49
49
65
65
65
65
65
65
65
65
65
90
90
90
90
90
90
90
90
90
90
90
90
65
65
65
65
65
65
49
49
49
49
49
49
16
49
8
41
41
41
41
41
41
24
16
8
41
41
41
49
49
49
65
65
65
65
65
65
65
65
65
65
65
65
65
65
65
65
65
65
49
49
49
49
49
49
41
41
41
49
49
49
49
49
49
41
41
41
49
49
49
49
49
49
49
49
49
41
41
41
41
41
41
41
41
41
41
41
41
41
41
41
41
41
41
41
41
41
41
41
41
41
41
41
49
49
49
41
41
41
41
41
41
41
41
41
41
41
41
41
41
41
41
41
41
41
41
41
49
49
49
49
49
49
49
49
49
49
49
49
49
49
49
65
65
65
41
41
41
24
16
8
24
16
8
41
41
41
49
49
49
49
49
49
49
49
49
49
49
49
49
49
49
49
49
49
65
65
65
65
65
65
65
65
65
65
65
65
49
49
49
49
49
49
49
49
49
49
49
49
49
49
49
49
49
49
16
49
8
49
49
49
41
41
41
41
41
41
24
16
8
41
41
41
49
49
49
65
65
65
65
65
65
65
65
65
65
65
65
65
65
65
49
49
49
49
49
49
49
49
49
49
49
49
49
49
49
49
49
49
49
49
49
49
49
49
49
49
49
41
41
41
49
49
49
49
49
49
49
49
49
49
49
49
65
65
65
41
41
41
41
41
41
49
49
49
49
49
49
49
49
49
41
41
41
41
41
41
41
41
41
41
41
41
41
41
41
49
49
49
49
49
49
49
49
49
49
49
49
49
49
49
65
65
65
41
41
41
24
16
8
24
16
8
41
41
41
49
49
49
49
49
49
49
49
49
16
49
8
49
49
49
41
41
41
49
49
49
65
65
65
65
65
65
65
65
65
65
65
65
65
65
65
49
49
49
49
49
49
49
49
49
49
49
49
49
49
49
49
49
49
49
49
49
49
49
49
49
49
49
41
41
41
24
16
8
41
41
41
49
49
49
65
65
65
65
65
65
65
65
65
65
65
65
49
49
49
49
49
49
49
49
49
49
49
49
49
49
49
49
49
49
65
65
65
65
65
65
65
65
65
41
41
41
49
49
49
49
49
49
49
49
49
49
49
49
49
49
49
49
49
49
41
41
41
49
49
49
49
49
49
49
49
49
41
41
41
41
41
41
41
41
41
41
41
41
41
41
41
49
49
49
49
49
49
65
65
65
65
65
65
65
65
65
41
41
41
24
16
8
24
16
8
41
41
41
49
49
49
49
49
49
49
49
49
49
49
49
41
41
41
49
49
49
49
49
49
49
49
49
65
65
65
65
65
65
65
65
65
65
65
65
49
49
49
41
41
41
49
49
49
49
49
49
49
49
49
49
49
49
16
49
8
49
49
49
49
49
49
49
49
49
65
65
65
41
41
41
24
16
8
41
41
41
49
49
49
65
65
65
65
65
65
65
65
65
65
65
65
65
65
65
65
65
65
82
82
82
65
65
65
65
65
65
65
65
65
65
65
65
65
65
65
65
65
65
49
49
49
65
65
65
65
65
65
65
65
65
65
65
65
65
65
65
49
49
49
49
49
49
49
49
49
49
49
49
49
49
49
41
41
41
41
41
41
41
41
41
49
49
49
49
49
49
49
49
49
65
65
65
65
65
65
41
41
41
24
16
8
24
16
8
41
41
41
65
65
65
49
49
49
41
41
41
49
49
49
49
49
49
49
49
49
49
49
49
49
49
49
49
49
49
49
49
49
65
65
65
65
65
65
65
65
65
65
65
65
49
49
49
49
49
49
49
49
49
49
49
49
49
49
49
49
49
49
49
49
49
49
49
49
49
49
49
49
49
49
65
65
65
41
41
41
24
16
8
41
41
41
49
49
49
65
65
65
65
65
65
65
65
65
65
65
65
65
65
65
90
90
90
65
65
65
65
65
65
90
90
90
82
82
82
90
90
90
65
65
65
65
65
65
82
82
82
82
82
82
65
65
65
65
65
65
65
65
65
65
65
65
49
49
49
49
49
49
49
49
49
49
49
49
41
41
41
41
41
41
49
49
49
49
49
49
49
49
49
65
65
65
65
65
65
41
41
41
24
16
8
24
16
8
41
41
41
65
65
65
49
49
49
41
41
41
41
41
41
49
49
49
49
49
49
49
49
49
49
49
49
49
49
49
49
49
49
65
65
65
65
65
65
65
65
65
49
49
49
49
49
49
49
49
49
41
41
41
49
49
49
49
49
49
16
49
8
49
49
49
49
49
49
49
49
49
49
49
49
49
49
49
49
49
49
65
65
65
41
41
41
24
16
8
41
41
41
49
49
49
65
65
65
65
65
65
90
90
90
65
65
65
90
90
90
90
90
90
90
90
90
90
90
90
90
90
90
90
90
90
90
90
90
90
90
90
82
82
82
82
82
82
65
65
65
65
65
65
65
65
65
65
65
65
65
65
65
65
65
65
65
65
65
49
49
49
49
49
49
41
41
41
49
49
49
49
49
49
49
49
49
65
65
65
41
41
41
24
16
8
24
16
8
41
41
41
65
65
65
41
41
41
41
41
41
41
41
41
49
49
49
49
49
49
49
49
49
65
65
65
49
49
49
49
49
49
49
49
49
49
49
49
49
49
49
49
49
49
49
49
49
49
49
49
49
49
49
49
49
49
49
49
49
49
49
49
49
49
49
49
49
49
49
49
49
49
49
49
49
49
49
49
49
49
49
49
49
49
49
49
65
65
65
41
41
41
24
16
8
41
41
41
49
49
49
82
82
82
90
90
90
90
90
90
98
98
98
90
90
90
90
90
90
90
90
90
90
90
90
90
90
90
90
90
90
90
90
90
90
90
90
90
90
90
82
82
82
82
82
82
65
65
65
65
65
65
65
65
65
65
65
65
49
49
49
65
65
65
49
49
49
49
49
49
49
49
49
65
65
65
65
65
65
41
41
41
24
16
8
24
16
8
41
41
41
65
65
65
41
41
41
41
41
41
41
41
41
49
49
49
49
49
49
49
49
49
49
49
49
65
65
65
65
65
65
65
65
65
49
49
49
49
49
49
49
49
49
65
65
65
49
49
49
49
49
49
49
49
49
49
49
49
49
49
49
49
49
49
49
49
49
49
49
49
49
49
49
49
49
49
49
49
49
49
49
49
49
49
49
49
49
49
49
49
49
65
65
65
41
41
41
24
16
8
41
41
41
49
49
49
90
90
90
90
90
90
90
90
90
98
98
98
98
98
98
90
90
90
98
98
98
98
98
98
106
106
106
98
98
98
98
98
98
90
90
90
98
98
98
82
82
82
82
82
82
65
65
65
65
65
65
65
65
65
65
65
65
65
65
65
49
49
49
49
49
49
49
49
49
49
49
49
41
41
41
24
16
8
24
16
8
41
41
41
49
49
49
41
41
41
41
41
41
49
49
49
49
49
49
49
49
49
49
49
49
65
65
65
65
65
65
65
65
65
65
65
65
65
65
65
65
65
65
65
65
65
65
65
65
49
49
49
65
65
65
49
49
49
49
49
49
65
65
65
49
49
49
49
49
49
49
49
49
49
49
49
49
49
49
49
49
49
49
49
49
49
49
49
49
49
49
49
49
49
49
49
49
49
49
49
65
65
65
41
41
41
24
16
8
41
41
41
49
49
49
98
98
98
98
98
98
90
90
90
90
90
90
98
98
98
106
106
106
106
106
106
106
106
106
98
98
98
106
106
106
98
98
98
98
98
98
90
90
90
82
82
82
82
82
82
82
82
82
65
65
65
65
65
65
65
65
65
49
49
49
49
49
49
49
49
49
41
41
41
24
16
8
24
16
8
41
41
41
49
49
49
41
41
41
49
49
49
41
41
41
49
49
49
49
49
49
49
49
49
49
49
49
65
65
65
49
49
49
65
65
65
65
65
65
65
65
65
65
65
65
65
65
65
65
65
65
65
65
65
49
49
49
65
65
65
49
49
49
65
65
65
65
65
65
65
65
65
65
65
65
49
49
49
49
49
49
65
65
65
65
65
65
65
65
65
49
49
49
49
49
49
41
41
41
49
49
49
49
49
49
49
49
49
41
41
41
24
16
8
41
41
41
41
41
41
90
90
90
90
90
90
98
98
98
106
106
106
106
106
106
106
106
106
106
106
106
106
106
106
106
106
106
106
106
106
106
106
106
98
98
98
98
98
98
90
90
90
82
82
82
65
65
65
65
65
65
65
65
65
49
49
49
49
49
49
41
41
41
24
16
8
24
16
8
41
41
41
49
49
49
41
41
41
49
49
49
49
49
49
49
49
49
65
65
65
49
49
49
49
49
49
49
49
49
49
49
49
49
49
49
65
65
65
49
49
49
65
65
65
65
65
65
65
65
65
65
65
65
82
82
82
65
65
65
65
65
65
65
65
65
65
65
65
65
65
65
65
65
65
65
65
65
65
65
65
65
65
65
49
49
49
65
65
65
65
65
65
65
65
65
65
65
65
41
41
41
49
49
49
49
49
49
49
49
49
49
49
49
41
41
41
24
16
8
41
41
41
41
41
41
90
90
90
98
98
98
106
106
106
106
106
106
106
106
106
123
123
123
106
106
106
106
106
106
106
106
106
106
106
106
98
98
98
98
98
98
90
90
90
90
90
90
82
82
82
65
65
65
65
65
65
49
49
49
41
41
41
24
16
8
24
16
8
41
41
41
49
49
49
41
41
41
49
49
49
49
49
49
49
49
49
49
49
49
41
41
41
41
41
41
49
49
49
49
49
49
49
49
49
49
49
49
65
65
65
65
65
65
65
65
65
65
65
65
65
65
65
65
65
65
82
82
82
65
65
65
82
82
82
65
65
65
65
65
65
65
65
65
65
65
65
65
65
65
65
65
65
65
65
65
49
49
49
65
65
65
65
65
65
65
65
65
65
65
65
49
49
49
41
41
41
49
49
49
49
49
49
49
49
49
49
49
49
41
41
41
24
16
8
41
41
41
41
41
41
90
90
90
82
82
82
123
123
123
123
123
123
123
123
123
123
123
123
123
123
123
106
106
106
106
106
106
106
106
106
98
98
98
98
98
98
90
90
90
90
90
90
82
82
82
65
65
65
41
41
41
24
16
8
24
16
8
41
41
41
41
41
41
41
41
41
41
41
41
49
49
49
49
49
49
49
49
49
49
49
49
41
41
41
49
49
49
49
49
49
49
49
49
49
49
49
49
49
49
65
65
65
65
65
65
65
65
65
65
65
65
65
65
65
82
82
82
90
90
90
90
90
90
90
90
90
82
82
82
65
65
65
65
65
65
65
65
65
65
65
65
65
65
65
65
65
65
49
49
49
49
49
49
65
65
65
65
65
65
65
65
65
49
49
49
49
49
49
49
49
49
41
41
41
49
49
49
49
49
49
49
49
49
41
41
41
24
16
8
41
41
41
41
41
41
41
41
41
82
82
82
123
123
123
123
123
123
123
123
123
123
123
123
131
131
131
131
131
131
131
131
131
123
123
123
123
123
123
106
106
106
98
98
98
82
82
82
41
41
41
41
41
41
24
16
8
41
41
41
41
41
41
41
41
41
41
41
41
41
41
41
49
49
49
49
49
49
49
49
49
65
65
65
49
49
49
49
49
49
49
49
49
49
49
49
49
49
49
49
49
49
65
65
65
65
65
65
65
65
65
65
65
65
65
65
65
82
82
82
90
90
90
90
90
90
90
90
90
82
82
82
82
82
82
65
65
65
65
65
65
65
65
65
65
65
65
65
65
65
65
65
65
65
65
65
49
49
49
65
65
65
49
49
49
49
49
49
41
41
41
41
41
41
49
49
49
41
41
41
49
49
49
49
49
49
41
41
41
41
41
41
24
16
8
41
41
41
24
16
8
24
16
8
24
16
8
24
16
8
24
16
8
24
16
8
24
16
8
24
16
8
24
16
8
24
16
8
24
16
8
24
16
8
24
16
8
24
16
8
24
16
8
24
16
8
24
16
8
41
41
41
41
41
41
41
41
41
41
41
41
49
49
49
49
49
49
41
41
41
49
49
49
49
49
49
49
49
49
49
49
49
49
49
49
49
49
49
49
49
49
65
65
65
65
65
65
65
65
65
65
65
65
65
65
65
82
82
82
82
82
82
90
90
90
90
90
90
90
90
90
90
90
90
82
82
82
82
82
82
82
82
82
82
82
82
65
65
65
65
65
65
65
65
65
65
65
65
65
65
65
49
49
49
49
49
49
41
41
41
41
41
41
41
41
41
49
49
49
49
49
49
49
49
49
41
41
41
41
41
41
41
41
41
41
41
41
24
16
8
41
41
41
41
41
41
41
41
41
41
41
41
41
41
41
41
41
41
41
41
41
41
41
41
41
41
41
41
41
41
41
41
41
41
41
41
41
41
41
41
41
41
41
41
41
41
41
41
24
16
8
41
41
41
49
49
49
41
41
41
49
49
49
49
49
49
41
41
41
41
41
41
49
49
49
49
49
49
49
49
49
49
49
49
49
49
49
49
49
49
49
49
49
65
65
65
65
65
65
65
65
65
65
65
65
65
65
65
82
82
82
82
82
82
90
90
90
90
90
90
90
90
90
90
90
90
82
82
82
90
90
90
82
82
82
65
65
65
65
65
65
65
65
65
65
65
65
65
65
65
65
65
65
41
41
41
49
49
49
49
49
49
49
49
49
41
41
41
41
41
41
41
41
41
41
41
41
24
16
8
41
41
41
24
16
8
24
16
8
41
41
41
49
49
49
65
65
65
90
90
90
90
90
90
106
106
106
106
106
106
106
106
106
106
106
106
98
98
98
90
90
90
90
90
90
82
82
82
65
65
65
65
65
65
65
65
65
49
49
49
41
41
41
24
16
8
41
41
41
49
49
49
41
41
41
49
49
49
41
41
41
49
49
49
49
49
49
49
49
49
49
49
49
49
49
49
49
49
49
49
49
49
49
49
49
65
65
65
65
65
65
65
65
65
65
65
65
65
65
65
65
65
65
82
82
82
90
90
90
90
90
90
90
90
90
90
90
90
90
90
90
82
82
82
82
82
82
65
65
65
65
65
65
65
65
65
65
65
65
65
65
65
49
49
49
49
49
49
49
49
49
41
41
41
41
41
41
41
41
41
41
41
41
41
41
41
24
16
8
24
16
8
24
16
8
24
16
8
41
41
41
49
49
49
49
49
49
65
65
65
65
65
65
65
65
65
82
82
82
82
82
82
90
90
90
82
82
82
65
65
65
65
65
65
65
65
65
65
65
65
65
65
65
65
65
65
49
49
49
65
65
65
65
65
65
41
41
41
24
16
8
41
41
41
49
49
49
41
41
41
41
41
41
41
41
41
49
49
49
49
49
49
49
49
49
49
49
49
49
49
49
49
49
49
49
49
49
65
65
65
65
65
65
65
65
65
65
65
65
65
65
65
65
65
65
65
65
65
82
82
82
82
82
82
90
90
90
90
90
90
82
82
82
82
82
82
65
65
65
65
65
65
65
65
65
65
65
65
65
65
65
49
49
49
65
65
65
49
49
49
49
49
49
41
41
41
41
41
41
41
41
41
49
49
49
24
16
8
41
41
41
24
16
8
24
16
8
41
41
41
49
49
49
49
49
49
49
49
49
65
65
65
65
65
65
65
65
65
82
82
82
82
82
82
90
90
90
82
82
82
82
82
82
65
65
65
65
65
65
65
65
65
65
65
65
65
65
65
65
65
65
49
49
49
65
65
65
65
65
65
41
41
41
24
16
8
41
41
41
49
49
49
41
41
41
41
41
41
41
41
41
49
49
49
49
49
49
49
49
49
49
49
49
49
49
49
49
49
49
65
65
65
49
49
49
65
65
65
65
65
65
65
65
65
65
65
65
82
82
82
82
82
82
82
82
82
82
82
82
82
82
82
82
82
82
65
65
65
65
65
65
82
82
82
65
65
65
65
65
65
49
49
49
65
65
65
49
49
49
41
41
41
49
49
49
41
41
41
49
49
49
49
49
49
41
41
41
41
41
41
24
16
8
24
16
8
41
41
41
49
49
49
49
49
49
49
49
49
49
49
49
65
65
65
65
65
65
82
82
82
82
82
82
90
90
90
90
90
90
90
90
90
82
82
82
82
82
82
65
65
65
65
65
65
65
65
65
65
65
65
65
65
65
49
49
49
49
49
49
65
65
65
65
65
65
41
41
41
24
16
8
41
41
41
49
49
49
41
41
41
41
41
41
41
41
41
49
49
49
49
49
49
49
49
49
49
49
49
49
49
49
65
65
65
65
65
65
65
65
65
65
65
65
65
65
65
65
65
65
65
65
65
82
82
82
82
82
82
65
65
65
65
65
65
65
65
65
65
65
65
65
65
65
65
65
65
65
65
65
65
65
65
49
49
49
49
49
49
49
49
49
41
41
41
41
41
41
41
41
41
41
41
41
41
41
41
41
41
41
24
16
8
24
16
8
41
41
41
49
49
49
49
49
49
49
49
49
49
49
49
49
49
49
65
65
65
65
65
65
65
65
65
82
82
82
90
90
90
98
98
98
90
90
90
90
90
90
82
82
82
65
65
65
65
65
65
65
65
65
65
65
65
65
65
65
65
65
65
49
49
49
49
49
49
65
65
65
65
65
65
41
41
41
24
16
8
41
41
41
49
49
49
41
41
41
41
41
41
16
32
8
49
49
49
49
49
49
49
49
49
49
49
49
49
49
49
65
65
65
65
65
65
65
65
65
65
65
65
65
65
65
65
65
65
65
65
65
65
65
65
65
65
65
65
65
65
65
65
65
65
65
65
65
65
65
65
65
65
49
49
49
49
49
49
41
41
41
16
32
8
49
49
49
41
41
41
16
32
8
41
41
41
41
41
41
49
49
49
24
16
8
24
16
8
41
41
41
49
49
49
49
49
49
49
49
49
41
41
41
49
49
49
49
49
49
65
65
65
65
65
65
65
65
65
65
65
65
90
90
90
90
90
90
90
90
90
90
90
90
82
82
82
65
65
65
65
65
65
65
65
65
65
65
65
65
65
65
65
65
65
65
65
65
49
49
49
49
49
49
49
49
49
65
65
65
41
41
41
24
16
8
41
41
41
41
41
41
41
41
41
41
41
41
41
41
41
49
49
49
49
49
49
41
41
41
49
49
49
49
49
49
49
49
49
65
65
65
65
65
65
65
65
65
65
65
65
65
65
65
65
65
65
49
49
49
65
65
65
49
49
49
65
65
65
65
65
65
65
65
65
49
49
49
49
49
49
41
41
41
16
32
8
41
41
41
41
41
41
41
41
41
41
41
41
49
49
49
8
16
0
24
16
8
41
41
41
49
49
49
41
41
41
49
49
49
49
49
49
49
49
49
49
49
49
49
49
49
65
65
65
65
65
65
65
65
65
65
65
65
82
82
82
90
90
90
82
82
82
82
82
82
82
82
82
82
82
82
65
65
65
65
65
65
65
65
65
65
65
65
65
65
65
65
65
65
65
65
65
49
49
49
49
49
49
49
49
49
65
65
65
41
41
41
24
16
8
41
41
41
41
41
41
41
41
41
41
41
41
41
41
41
49
49
49
41
41
41
49
49
49
49
49
49
49
49
49
49
49
49
65
65
65
65
65
65
65
65
65
49
49
49
65
65
65
49
49
49
65
65
65
49
49
49
49
49
49
49
49
49
49
49
49
41
41
41
41
41
41
16
32
8
16
32
8
41
41
41
41
41
41
41
41
41
49
49
49
24
16
8
24
16
8
41
41
41
41
41
41
41
41
41
41
41
41
49
49
49
49
49
49
49
49
49
49
49
49
49
49
49
65
65
65
65
65
65
65
65
65
65
65
65
82
82
82
82
82
82
82
82
82
65
65
65
65
65
65
82
82
82
65
65
65
65
65
65
65
65
65
49
49
49
49
49
49
49
49
49
49
49
49
65
65
65
49
49
49
49
49
49
49
49
49
65
65
65
41
41
41
24
16
8
41
41
41
41
41
41
41
41
41
41
41
41
41
41
41
41
41
41
41
41
41
49
49
49
49
49
49
49
49
49
49
49
49
65
65
65
49
49
49
49
49
49
65
65
65
65
65
65
49
49
49
49
49
49
41
41
41
49
49
49
49
49
49
49
49
49
16
32
8
16
32
8
16
32
8
16
32
8
41
41
41
49
49
49
24
16
8
24
16
8
41
41
41
41
41
41
41
41
41
41
41
41
41
41
41
49
49
49
41
41
41
49
49
49
49
49
49
49
49
49
49
49
49
65
65
65
65
65
65
65
65
65
65
65
65
65
65
65
65
65
65
65
65
65
65
65
65
65
65
65
65
65
65
65
65
65
49
49
49
49
49
49
49
49
49
49
49
49
49
49
49
49
49
49
65
65
65
65
65
65
41
41
41
41
41
41
49
49
49
41
41
41
24
16
8
41
41
41
41
41
41
41
41
41
41
41
41
41
41
41
41
41
41
41
41
41
41
41
41
49
49
49
49
49
49
49
49
49
49
49
49
49
49
49
49
49
49
41
41
41
41
41
41
41
41
41
41
41
41
41
41
41
41
41
41
41
41
41
41
41
41
16
32
8
16
32
8
41
41
41
49
49
49
24
16
8
24
16
8
41
41
41
49
49
49
41
41
41
41
41
41
41
41
41
41
41
41
41
41
41
41
41
41
49
49
49
49
49
49
49
49
49
49
49
49
49
49
49
49
49
49
65
65
65
65
65
65
65
65
65
65
65
65
65
65
65
65
65
65
65
65
65
49
49
49
49
49
49
49
49
49
49
49
49
49
49
49
49
49
49
49
49
49
41
41
41
49
49
49
49
49
49
49
49
49
41
41
41
41
41
41
41
41
41
41
41
41
24
16
8
41
41
41
41
41
41
41
41
41
41
41
41
41
41
41
41
41
41
41
41
41
41
41
41
49
49
49
49
49
49
49
49
49
49
49
49
41
41
41
16
32
8
41
41
41
41
41
41
41
41
41
16
32
8
41
41
41
41
41
41
16
32
8
41
41
41
41
41
41
41
41
41
8
16
0
24
16
8
41
41
41
49
49
49
41
41
41
41
41
41
41
41
41
41
41
41
41
41
41
41
41
41
49
49
49
49
49
49
49
49
49
49
49
49
49
49
49
49
49
49
49
49
49
65
65
65
65
65
65
65
65
65
65
65
65
65
65
65
65
65
65
65
65
65
49
49
49
49
49
49
49
49
49
49
49
49
49
49
49
49
49
49
41
41
41
16
32
8
41
41
41
49
49
49
49
49
49
49
49
49
41
41
41
41
41
41
41
41
41
41
41
41
24
16
8
41
41
41
41
41
41
16
32
8
41
41
41
41
41
41
41
41
41
41
41
41
41
41
41
41
41
41
41
41
41
49
49
49
49
49
49
49
49
49
41
41
41
41
41
41
41
41
41
41
41
41
41
41
41
41
41
41
16
32
8
41
41
41
16
32
8
8
16
0
24
16
8
41
41
41
49
49
49
41
41
41
41
41
41
41
41
41
41
41
41
41
41
41
41
41
41
41
41
41
41
41
41
49
49
49
49
49
49
49
49
49
49
49
49
49
49
49
49
49
49
49
49
49
49
49
49
65
65
65
65
65
65
65
65
65
49
49
49
49
49
49
49
49
49
49
49
49
49
49
49
65
65
65
49
49
49
41
41
41
16
32
8
41
41
41
41
41
41
41
41
41
49
49
49
49
49
49
41
41
41
41
41
41
41
41
41
41
41
41
41
41
41
24
16
8
41
41
41
41
41
41
16
32
8
16
32
8
41
41
41
16
32
8
16
32
8
41
41
41
41
41
41
41
41
41
41
41
41
41
41
41
41
41
41
41
41
41
41
41
41
41
41
41
41
41
41
41
41
41
16
32
8
41
41
41
8
16
0
24
16
8
41
41
41
49
49
49
41
41
41
41
41
41
41
41
41
41
41
41
41
41
41
41
41
41
41
41
41
41
41
41
49
49
49
41
41
41
41
41
41
49
49
49
49
49
49
49
49
49
49
49
49
49
49
49
49
49
49
65
65
65
65
65
65
49
49
49
49
49
49
49
49
49
49
49
49
65
65
65
65
65
65
49
49
49
49
49
49
49
49
49
41
41
41
41
41
41
41
41
41
16
32
8
49
49
49
49
49
49
41
41
41
41
41
41
41
41
41
41
41
41
41
41
41
41
41
41
24
16
8
41
41
41
41
41
41
41
41
41
41
41
41
41
41
41
41
41
41
41
41
41
41
41
41
41
41
41
41
41
41
41
41
41
41
41
41
41
41
41
41
41
41
41
41
41
41
41
41
41
41
41
41
41
41
8
16
0
24
16
8
41
41
41
49
49
49
41
41
41
41
41
41
41
41
41
16
32
8
16
32
8
41
41
41
41
41
41
41
41
41
41
41
41
41
41
41
41
41
41
41
41
41
49
49
49
49
49
49
49
49
49
49
49
49
65
65
65
65
65
65
65
65
65
49
49
49
49
49
49
41
41
41
49
49
49
65
65
65
65
65
65
49
49
49
49
49
49
49
49
49
41
41
41
16
32
8
41
41
41
16
32
8
41
41
41
41
41
41
41
41
41
41
41
41
41
41
41
41
41
41
41
41
41
41
41
41
41
41
41
41
41
41
24
16
8
41
41
41
41
41
41
16
32
8
41
41
41
41
41
41
41
41
41
49
49
49
49
49
49
65
65
65
65
65
65
65
65
65
49
49
49
49
49
49
41
41
41
41
41
41
16
32
8
8
16
0
24
16
8
41
41
41
49
49
49
41
41
41
41
41
41
41
41
41
41
41
41
16
32
8
24
24
24
16
32
8
41
41
41
41
41
41
41
41
41
41
41
41
49
49
49
41
41
41
41
41
41
49
49
49
49
49
49
49
49
49
65
65
65
49
49
49
49
49
49
65
65
65
49
49
49
49
49
49
49
49
49
65
65
65
65
65
65
49
49
49
49
49
49
49
49
49
49
49
49
41
41
41
41
41
41
16
32
8
16
32
8
41
41
41
41
41
41
41
41
41
41
41
41
41
41
41
41
41
41
41
41
41
41
41
41
41
41
41
41
41
41
24
16
8
24
16
8
24
16
8
24
16
8
24
16
8
24
16
8
24
16
8
24
16
8
24
16
8
24
16
8
24
16
8
24
16
8
24
16
8
24
16
8
24
16
8
24
16
8
24
16
8
24
16
8
49
49
49
41
41
41
41
41
41
41
41
41
16
32
8
16
32
8
16
32
8
24
24
24
16
32
8
24
24
24
41
41
41
41
41
41
41
41
41
41
41
41
49
49
49
41
41
41
41
41
41
41
41
41
49
49
49
49
49
49
41
41
41
49
49
49
65
65
65
65
65
65
65
65
65
49
49
49
49
49
49
49
49
49
49
49
49
49
49
49
41
41
41
16
32
8
41
41
41
16
32
8
41
41
41
41
41
41
41
41
41
41
41
41
41
41
41
41
41
41
41
41
41
41
41
41
41
41
41
41
41
41
24
16
8
24
16
8
41
41
41
41
41
41
41
41
41
41
41
41
49
49
49
49
49
49
65
65
65
65
65
65
65
65
65
65
65
65
65
65
65
65
65
65
65
65
65
49
49
49
49
49
49
41
41
41
41
41
41
24
16
8
41
41
41
41
41
41
41
41
41
41
41
41
16
32
8
24
16
8
41
41
41
16
32
8
16
32
8
24
24
24
41
41
41
41
41
41
41
41
41
41
41
41
41
41
41
41
41
41
16
32
8
16
32
8
41
41
41
49
49
49
41
41
41
49
49
49
49
49
49
49
49
49
49
49
49
49
49
49
49
49
49
49
49
49
16
49
8
49
49
49
41
41
41
41
41
41
41
41
41
49
49
49
41
41
41
41
41
41
41
41
41
41
41
41
41
41
41
41
41
41
41
41
41
41
41
41
41
41
41
24
16
8
24
16
8
41
41
41
49
49
49
49
49
49
41
41
41
41
41
41
41
41
41
41
41
41
41
41
41
41
41
41
41
41
41
41
41
41
41
41
41
41
41
41
41
41
41
41
41
41
41
41
41
41
41
41
41
41
41
41
41
41
24
16
8
41
41
41
41
41
41
41
41
41
41
41
41
16
32
8
16
32
8
24
24
24
24
24
24
16
32
8
16
32
8
41
41
41
41
41
41
41
41
41
41
41
41
41
41
41
16
32
8
16
32
8
41
41
41
41
41
41
41
41
41
49
49
49
41
41
41
49
49
49
49
49
49
49
49
49
49
49
49
49
49
49
41
41
41
41
41
41
41
41
41
41
41
41
41
41
41
49
49
49
49
49
49
41
41
41
41
41
41
41
41
41
41
41
41
41
41
41
41
41
41
41
41
41
24
16
8
24
16
8
41
41
41
49
49
49
41
41
41
41
41
41
41
41
41
41
41
41
41
41
41
41
41
41
41
41
41
41
41
41
41
41
41
41
41
41
41
41
41
41
41
41
41
41
41
41
41
41
41
41
41
41
41
41
41
41
41
41
41
41
41
41
41
24
16
8
41
41
41
41
41
41
41
41
41
41
41
41
16
32
8
24
24
24
24
24
24
24
16
8
16
32
8
24
16
8
41
41
41
41
41
41
41
41
41
41
41
41
41
41
41
41
41
41
49
49
49
41
41
41
41
41
41
41
41
41
49
49
49
49
49
49
49
49
49
49
49
49
41
41
41
41
41
41
16
32
8
41
41
41
41
41
41
41
41
41
16
32
8
41
41
41
49
49
49
41
41
41
41
41
41
41
41
41
41
41
41
41
41
41
41
41
41
24
16
8
24
16
8
41
41
41
49
49
49
41
41
41
41
41
41
41
41
41
41
41
41
41
41
41
41
41
41
41
41
41
41
41
41
41
41
41
41
41
41
41
41
41
41
41
41
41
41
41
41
41
41
41
41
41
41
41
41
41
41
41
41
41
41
41
41
41
49
49
49
41
41
41
24
16
8
41
41
41
41
41
41
41
41
41
41
41
41
16
32
8
24
24
24
24
24
24
16
32
8
24
16
8
41
41
41
41
41
41
41
41
41
41
41
41
41
41
41
41
41
41
49
49
49
49
49
49
49
49
49
49
49
49
49
49
49
49
49
49
49
49
49
41
41
41
41
41
41
41
41
41
41
41
41
41
41
41
41
41
41
41
41
41
49
49
49
41
41
41
49
49
49
49
49
49
49
49
49
41
41
41
41
41
41
41
41
41
24
24
24
24
16
8
41
41
41
49
49
49
41
41
41
41
41
41
49
49
49
49
49
49
49
49
49
49
49
49
49
49
49
41
41
41
41
41
41
41
41
41
41
41
41
41
41
41
41
41
41
41
41
41
41
41
41
41
41
41
41
41
41
41
41
41
41
41
41
41
41
41
41
41
41
49
49
49
41
41
41
24
16
8
41
41
41
41
41
41
41
41
41
16
32
8
16
32
8
16
32
8
41
41
41
16
32
8
41
41
41
41
41
41
41
41
41
41
41
41
49
49
49
49
49
49
49
49
49
49
49
49
49
49
49
49
49
49
49
49
49
49
49
49
41
41
41
16
32
8
41
41
41
16
32
8
41
41
41
16
32
8
41
41
41
41
41
41
49
49
49
49
49
49
65
65
65
49
49
49
49
49
49
41
41
41
41
41
41
24
24
24
24
16
8
41
41
41
49
49
49
49
49
49
49
49
49
49
49
49
49
49
49
49
49
49
49
49
49
41
41
41
41
41
41
49
49
49
41
41
41
41
41
41
41
41
41
41
41
41
49
49
49
49
49
49
49
49
49
41
41
41
49
49
49
41
41
41
41
41
41
41
41
41
41
41
41
41
41
41
49
49
49
41
41
41
24
16
8
41
41
41
41
41
41
41
41
41
41
41
41
41
41
41
41
41
41
41
41
41
41
41
41
41
41
41
41
41
41
41
41
41
41
41
41
41
41
41
49
49
49
41
41
41
41
41
41
49
49
49
41
41
41
41
41
41
16
32
8
16
32
8
41
41
41
16
32
8
41
41
41
41
41
41
41
41
41
41
41
41
49
49
49
65
65
65
65
65
65
65
65
65
49
49
49
49
49
49
24
24
24
24
16
8
41
41
41
65
65
65
65
65
65
65
65
65
65
65
65
49
49
49
49
49
49
49
49
49
49
49
49
49
49
49
41
41
41
49
49
49
49
49
49
41
41
41
41
41
41
41
41
41
49
49
49
49
49
49
49
49
49
49
49
49
41
41
41
41
41
41
16
49
8
16
49
8
41
41
41
41
41
41
41
41
41
65
65
65
41
41
41
24
16
8
41
41
41
41
41
41
41
41
41
41
41
41
41
41
41
41
41
41
41
41
41
41
41
41
41
41
41
41
41
41
41
41
41
16
32
8
41
41
41
41
41
41
16
32
8
41
41
41
41
41
41
41
41
41
41
41
41
41
41
41
16
32
8
16
32
8
41
41
41
41
41
41
41
41
41
49
49
49
65
65
65
65
65
65
65
65
65
65
65
65
49
49
49
24
24
24
24
16
8
41
41
41
82
82
82
65
65
65
65
65
65
65
65
65
65
65
65
65
65
65
49
49
49
49
49
49
49
49
49
49
49
49
49
49
49
65
65
65
49
49
49
49
49
49
49
49
49
65
65
65
49
49
49
49
49
49
49
49
49
49
49
49
49
49
49
49
49
49
65
65
65
65
65
65
16
49
8
41
41
41
41
41
41
41
41
41
65
65
65
41
41
41
24
16
8
41
41
41
41
41
41
41
41
41
41
41
41
41
41
41
41
41
41
41
41
41
41
41
41
41
41
41
41
41
41
16
32
8
16
32
8
41
41
41
41
41
41
41
41
41
41
41
41
41
41
41
41
41
41
41
41
41
16
32
8
41
41
41
16
32
8
41
41
41
41
41
41
49
49
49
65
65
65
65
65
65
65
65
65
49
49
49
24
24
24
24
16
8
41
41
41
82
82
82
65
65
65
65
65
65
65
65
65
65
65
65
65
65
65
65
65
65
65
65
65
65
65
65
65
65
65
65
65
65
65
65
65
65
65
65
65
65
65
65
65
65
49
49
49
49
49
49
49
49
49
49
49
49
49
49
49
49
49
49
65
65
65
49
49
49
65
65
65
49
49
49
49
49
49
16
49
8
41
41
41
49
49
49
49
49
49
49
49
49
41
41
41
24
16
8
41
41
41
41
41
41
41
41
41
41
41
41
41
41
41
41
41
41
41
41
41
41
41
41
41
41
41
16
32
8
16
32
8
16
32
8
41
41
41
41
41
41
41
41
41
41
41
41
41
41
41
41
41
41
16
32
8
41
41
41
41
41
41
41
41
41
49
49
49
49
49
49
49
49
49
65
65
65
49
49
49
24
24
24
24
16
8
41
41
41
65
65
65
49
49
49
65
65
65
65
65
65
65
65
65
82
82
82
82
82
82
65
65
65
65
65
65
65
65
65
65
65
65
65
65
65
65
65
65
65
65
65
65
65
65
49
49
49
49
49
49
49
49
49
65
65
65
65
65
65
49
49
49
49
49
49
49
49
49
49
49
49
65
65
65
49
49
49
49
49
49
49
49
49
41
41
41
49
49
49
49
49
49
49
49
49
49
49
49
41
41
41
24
16
8
41
41
41
41
41
41
41
41
41
41
41
41
41
41
41
41
41
41
41
41
41
16
32
8
41
41
41
16
32
8
16
32
8
41
41
41
41
41
41
41
41
41
41
41
41
41
41
41
16
32
8
16
32
8
41
41
41
41
41
41
49
49
49
49
49
49
49
49
49
49
49
49
49
49
49
24
24
24
24
16
8
41
41
41
65
65
65
49
49
49
65
65
65
65
65
65
65
65
65
65
65
65
82
82
82
82
82
82
82
82
82
82
82
82
65
65
65
65
65
65
65
65
65
65
65
65
65
65
65
49
49
49
49
49
49
65
65
65
65
65
65
65
65
65
65
65
65
65
65
65
65
65
65
65
65
65
49
49
49
49
49
49
49
49
49
41
41
41
41
41
41
41
41
41
49
49
49
49
49
49
49
49
49
49
49
49
41
41
41
41
41
41
24
16
8
41
41
41
41
41
41
41
41
41
41
41
41
41
41
41
41
41
41
16
32
8
41
41
41
16
32
8
41
41
41
41
41
41
41
41
41
41
41
41
16
32
8
16
32
8
41
41
41
41
41
41
41
41
41
41
41
41
49
49
49
49
49
49
49
49
49
41
41
41
24
24
24
24
16
8
41
41
41
65
65
65
49
49
49
65
65
65
65
65
65
65
65
65
65
65
65
82
82
82
82
82
82
90
90
90
90
90
90
90
90
90
82
82
82
82
82
82
65
65
65
65
65
65
65
65
65
65
65
65
65
65
65
65
65
65
65
65
65
65
65
65
65
65
65
65
65
65
65
65
65
65
65
65
49
49
49
49
49
49
49
49
49
49
49
49
41
41
41
41
41
41
49
49
49
49
49
49
49
49
49
49
49
49
49
49
49
41
41
41
41
41
41
24
16
8
41
41
41
41
41
41
41
41
41
41
41
41
41
41
41
16
32
8
41
41
41
16
32
8
16
32
8
16
32
8
41
41
41
41
41
41
41
41
41
41
41
41
41
41
41
16
32
8
16
32
8
41
41
41
49
49
49
49
49
49
41
41
41
24
24
24
24
16
8
41
41
41
65
65
65
49
49
49
65
65
65
49
49
49
65
65
65
65
65
65
82
82
82
82
82
82
82
82
82
90
90
90
90
90
90
90
90
90
90
90
90
90
90
90
90
90
90
90
90
90
82
82
82
82
82
82
90
90
90
90
90
90
90
90
90
90
90
90
82
82
82
65
65
65
65
65
65
65
65
65
65
65
65
65
65
65
49
49
49
49
49
49
49
49
49
41
41
41
41
41
41
49
49
49
49
49
49
49
49
49
49
49
49
49
49
49
41
41
41
41
41
41
24
16
8
41
41
41
41
41
41
41
41
41
41
41
41
41
41
41
41
41
41
41
41
41
41
41
41
41
41
41
41
41
41
41
41
41
41
41
41
41
41
41
41
41
41
41
41
41
41
41
41
41
41
41
41
41
41
41
41
41
24
24
24
24
16
8
41
41
41
49
49
49
49
49
49
65
65
65
49
49
49
65
65
65
65
65
65
65
65
65
82
82
82
82
82
82
90
90
90
90
90
90
90
90
90
90
90
90
90
90
90
90
90
90
90
90
90
90
90
90
90
90
90
90
90
90
90
90
90
90
90
90
90
90
90
90
90
90
90
90
90
90
90
90
65
65
65
65
65
65
65
65
65
65
65
65
49
49
49
49
49
49
49
49
49
49
49
49
41
41
41
49
49
49
49
49
49
49
49
49
41
41
41
41
41
41
41
41
41
41
41
41
41
41
41
24
16
8
41
41
41
41
41
41
41
41
41
41
41
41
41
41
41
41
41
41
41
41
41
41
41
41
41
41
41
41
41
41
41
41
41
41
41
41
41
41
41
41
41
41
41
41
41
41
41
41
41
41
41
24
24
24
24
16
8
41
41
41
49
49
49
49
49
49
65
65
65
49
49
49
65
65
65
65
65
65
65
65
65
65
65
65
82
82
82
82
82
82
90
90
90
90
90
90
90
90
90
90
90
90
98
98
98
98
98
98
98
98
98
90
90
90
90
90
90
98
98
98
90
90
90
90
90
90
98
98
98
90
90
90
82
82
82
90
90
90
82
82
82
65
65
65
65
65
65
65
65
65
65
65
65
65
65
65
49
49
49
49
49
49
49
49
49
41
41
41
41
41
41
41
41
41
41
41
41
41
41
41
41
41
41
41
41
41
41
41
41
41
41
41
24
16
8
41
41
41
24
16
8
24
16
8
24
16
8
24
16
8
24
16
8
24
16
8
24
16
8
24
16
8
24
16
8
24
16
8
24
16
8
24
16
8
24
16
8
24
16
8
24
16
8
24
16
8
24
16
8
41
41
41
49
49
49
65
65
65
49
49
49
65
65
65
49
49
49
49
49
49
65
65
65
65
65
65
65
65
65
82
82
82
90
90
90
98
98
98
98
98
98
90
90
90
98
98
98
98
98
98
98
98
98
98
98
98
98
98
98
106
106
106
106
106
106
98
98
98
106
106
106
98
98
98
98
98
98
90
90
90
90
90
90
82
82
82
65
65
65
65
65
65
65
65
65
82
82
82
49
49
49
65
65
65
49
49
49
49
49
49
41
41
41
41
41
41
41
41
41
49
49
49
49
49
49
49
49
49
41
41
41
41
41
41
24
16
8
24
16
8
49
49
49
41
41
41
49
49
49
49
49
49
49
49
49
65
65
65
65
65
65
49
49
49
49
49
49
49
49
49
49
49
49
41
41
41
41
41
41
41
41
41
41
41
41
41
41
41
24
16
8
41
41
41
41
41
41
49
49
49
65
65
65
49
49
49
49
49
49
49
49
49
65
65
65
65
65
65
65
65
65
82
82
82
90
90
90
98
98
98
90
90
90
98
98
98
98
98
98
106
106
106
106
106
106
106
106
106
106
106
106
123
123
123
106
106
106
106
106
106
106
106
106
106
106
106
106
106
106
106
106
106
90
90
90
90
90
90
65
65
65
82
82
82
65
65
65
65
65
65
65
65
65
49
49
49
49
49
49
49
49
49
49
49
49
65
65
65
49
49
49
49
49
49
49
49
49
41
41
41
41
41
41
41
41
41
24
16
8
49
49
49
49
49
49
49
49
49
41
41
41
41
41
41
41
41
41
41
41
41
41
41
41
41
41
41
41
41
41
41
41
41
41
41
41
41
41
41
41
41
41
41
41
41
41
41
41
41
41
41
49
49
49
24
16
8
41
41
41
41
41
41
49
49
49
49
49
49
49
49
49
49
49
49
65
65
65
65
65
65
65
65
65
65
65
65
82
82
82
90
90
90
90
90
90
98
98
98
98
98
98
106
106
106
106
106
106
106
106
106
106
106
106
123
123
123
123
123
123
131
131
131
106
106
106
106
106
106
106
106
106
106
106
106
106
106
106
90
90
90
65
65
65
82
82
82
82
82
82
65
65
65
65
65
65
65
65
65
49
49
49
49
49
49
49
49
49
49
49
49
49
49
49
49
49
49
49
49
49
41
41
41
41
41
41
24
16
8
49
49
49
49
49
49
41
41
41
41
41
41
41
41
41
41
41
41
41
41
41
41
41
41
41
41
41
41
41
41
41
41
41
41
41
41
41
41
41
41
41
41
41
41
41
41
41
41
41
41
41
41
41
41
41
41
41
49
49
49
24
16
8
41
41
41
41
41
41
49
49
49
49
49
49
49
49
49
65
65
65
65
65
65
65
65
65
82
82
82
82
82
82
90
90
90
98
98
98
98
98
98
106
106
106
106
106
106
106
106
106
106
106
106
106
106
106
106
106
106
106
106
106
123
123
123
123
123
123
123
123
123
106
106
106
106
106
106
106
106
106
90
90
90
98
98
98
82
82
82
90
90
90
82
82
82
65
65
65
65
65
65
65
65
65
49
49
49
65
65
65
49
49
49
49
49
49
41
41
41
41
41
41
41
41
41
24
16
8
49
49
49
49
49
49
41
41
41
41
41
41
41
41
41
41
41
41
41
41
41
41
41
41
41
41
41
41
41
41
41
41
41
41
41
41
41
41
41
41
41
41
41
41
41
41
41
41
41
41
41
41
41
41
49
49
49
49
49
49
65
65
65
49
49
49
24
16
8
41
41
41
41
41
41
49
49
49
65
65
65
49
49
49
65
65
65
65
65
65
65
65
65
82
82
82
90
90
90
90
90
90
98
98
98
106
106
106
106
106
106
106
106
106
106
106
106
106
106
106
106
106
106
123
123
123
123
123
123
123
123
123
106
106
106
106
106
106
106
106
106
106
106
106
106
106
106
90
90
90
90
90
90
82
82
82
82
82
82
65
65
65
49
49
49
65
65
65
65
65
65
49
49
49
49
49
49
41
41
41
49
49
49
41
41
41
24
16
8
49
49
49
49
49
49
41
41
41
41
41
41
49
49
49
41
41
41
41
41
41
41
41
41
41
41
41
41
41
41
41
41
41
41
41
41
41
41
41
41
41
41
41
41
41
41
41
41
41
41
41
41
41
41
49
49
49
49
49
49
49
49
49
65
65
65
65
65
65
49
49
49
24
16
8
41
41
41
41
41
41
49
49
49
49
49
49
65
65
65
65
65
65
65
65
65
65
65
65
82
82
82
90
90
90
98
98
98
98
98
98
106
106
106
106
106
106
106
106
106
123
123
123
106
106
106
123
123
123
123
123
123
123
123
123
106
106
106
106
106
106
106
106
106
106
106
106
106
106
106
98
98
98
90
90
90
82
82
82
82
82
82
82
82
82
65
65
65
65
65
65
49
49
49
49
49
49
41
41
41
49
49
49
41
41
41
24
16
8
49
49
49
49
49
49
41
41
41
41
41
41
41
41
41
49
49
49
41
41
41
41
41
41
41
41
41
41
41
41
41
41
41
41
41
41
41
41
41
41
41
41
41
41
41
41
41
41
41
41
41
41
41
41
41
41
41
41
41
41
49
49
49
49
49
49
65
65
65
49
49
49
65
65
65
49
49
49
24
16
8
41
41
41
41
41
41
49
49
49
49
49
49
65
65
65
65
65
65
65
65
65
65
65
65
82
82
82
90
90
90
90
90
90
98
98
98
106
106
106
106
106
106
106
106
106
106
106
106
106
106
106
123
123
123
106
106
106
106
106
106
106
106
106
106
106
106
98
98
98
98
98
98
98
98
98
90
90
90
82
82
82
65
65
65
65
65
65
65
65
65
49
49
49
49
49
49
41
41
41
49
49
49
41
41
41
24
16
8
49
49
49
49
49
49
41
41
41
49
49
49
49
49
49
41
41
41
49
49
49
41
41
41
41
41
41
41
41
41
41
41
41
41
41
41
41
41
41
41
41
41
41
41
41
41
41
41
41
41
41
41
41
41
41
41
41
41
41
41
41
41
41
49
49
49
49
49
49
49
49
49
65
65
65
65
65
65
90
90
90
49
49
49
24
16
8
41
41
41
41
41
41
49
49
49
49
49
49
65
65
65
65
65
65
65
65
65
65
65
65
82
82
82
90
90
90
90
90
90
90
90
90
98
98
98
106
106
106
98
98
98
106
106
106
106
106
106
106
106
106
98
98
98
98
98
98
98
98
98
98
98
98
98
98
98
90
90
90
82
82
82
82
82
82
65
65
65
65
65
65
49
49
49
49
49
49
41
41
41
49
49
49
41
41
41
24
16
8
49
49
49
49
49
49
49
49
49
49
49
49
41
41
41
49
49
49
41
41
41
16
32
8
41
41
41
41
41
41
41
41
41
41
41
41
41
41
41
41
41
41
41
41
41
41
41
41
41
41
41
41
41
41
41
41
41
41
41
41
41
41
41
41
41
41
49
49
49
49
49
49
49
49
49
49
49
49
65
65
65
49
49
49
90
90
90
49
49
49
24
16
8
41
41
41
41
41
41
49
49
49
49
49
49
65
65
65
65
65
65
65
65
65
65
65
65
82
82
82
90
90
90
82
82
82
90
90
90
90
90
90
90
90
90
90
90
90
98
98
98
98
98
98
98
98
98
98
98
98
90
90
90
90
90
90
90
90
90
82
82
82
82
82
82
65
65
65
65
65
65
49
49
49
49
49
49
41
41
41
49
49
49
41
41
41
24
16
8
49
49
49
49
49
49
41
41
41
41
41
41
41
41
41
41
41
41
41
41
41
49
49
49
41
41
41
41
41
41
41
41
41
41
41
41
41
41
41
41
41
41
41
41
41
41
41
41
41
41
41
41
41
41
41
41
41
41
41
41
49
49
49
41
41
41
49
49
49
41
41
41
49
49
49
49
49
49
49
49
49
49
49
49
65
65
65
65
65
65
90
90
90
49
49
49
24
16
8
41
41
41
41
41
41
49
49
49
49
49
49
65
65
65
65
65
65
82
82
82
82
82
82
82
82
82
65
65
65
82
82
82
82
82
82
82
82
82
90
90
90
90
90
90
90
90
90
90
90
90
90
90
90
90
90
90
82
82
82
82
82
82
82
82
82
65
65
65
65
65
65
49
49
49
49
49
49
41
41
41
49
49
49
41
41
41
24
16
8
49
49
49
49
49
49
49
49
49
41
41
41
49
49
49
49
49
49
49
49
49
49
49
49
41
41
41
41
41
41
41
41
41
41
41
41
41
41
41
41
41
41
41
41
41
41
41
41
41
41
41
41
41
41
41
41
41
41
41
41
41
41
41
41
41
41
41
41
41
41
41
41
41
41
41
49
49
49
49
49
49
49
49
49
49
49
49
65
65
65
65
65
65
65
65
65
90
90
90
49
49
49
24
16
8
41
41
41
41
41
41
49
49
49
65
65
65
65
65
65
65
65
65
65
65
65
65
65
65
65
65
65
65
65
65
65
65
65
65
65
65
65
65
65
65
65
65
82
82
82
90
90
90
65
65
65
82
82
82
82
82
82
65
65
65
65
65
65
65
65
65
65
65
65
65
65
65
41
41
41
49
49
49
41
41
41
24
16
8
49
49
49
49
49
49
49
49
49
41
41
41
49
49
49
49
49
49
49
49
49
41
41
41
41
41
41
41
41
41
41
41
41
41
41
41
41
41
41
41
41
41
41
41
41
41
41
41
16
32
8
41
41
41
41
41
41
41
41
41
41
41
41
41
41
41
41
41
41
41
41
41
41
41
41
41
41
41
49
49
49
49
49
49
49
49
49
49
49
49
49
49
49
49
49
49
65
65
65
65
65
65
82
82
82
49
49
49
24
16
8
41
41
41
49
49
49
65
65
65
65
65
65
65
65
65
65
65
65
65
65
65
65
65
65
65
65
65
65
65
65
65
65
65
65
65
65
65
65
65
65
65
65
65
65
65
82
82
82
65
65
65
82
82
82
65
65
65
65
65
65
65
65
65
65
65
65
65
65
65
49
49
49
41
41
41
24
16
8
49
49
49
49
49
49
41
41
41
49
49
49
41
41
41
41
41
41
41
41
41
41
41
41
41
41
41
41
41
41
41
41
41
41
41
41
41
41
41
41
41
41
41
41
41
41
41
41
41
41
41
16
32
8
41
41
41
41
41
41
41
41
41
24
24
24
24
24
24
41
41
41
41
41
41
41
41
41
41
41
41
41
41
41
49
49
49
49
49
49
41
41
41
49
49
49
49
49
49
65
65
65
49
49
49
65
65
65
65
65
65
49
49
49
24
16
8
41
41
41
49
49
49
65
65
65
65
65
65
65
65
65
65
65
65
65
65
65
65
65
65
65
65
65
65
65
65
65
65
65
65
65
65
65
65
65
65
65
65
65
65
65
65
65
65
65
65
65
65
65
65
65
65
65
65
65
65
65
65
65
49
49
49
41
41
41
24
16
8
49
49
49
49
49
49
49
49
49
49
49
49
41
41
41
41
41
41
41
41
41
41
41
41
41
41
41
41
41
41
41
41
41
41
41
41
41
41
41
41
41
41
41
41
41
16
32
8
16
32
8
16
32
8
41
41
41
16
32
8
41
41
41
41
41
41
24
24
24
24
24
24
41
41
41
41
41
41
41
41
41
41
41
41
41
41
41
49
49
49
41
41
41
49
49
49
41
41
41
49
49
49
49
49
49
49
49
49
49
49
49
49
49
49
65
65
65
49
49
49
24
16
8
41
41
41
49
49
49
65
65
65
65
65
65
65
65
65
65
65
65
65
65
65
65
65
65
65
65
65
49
49
49
65
65
65
65
65
65
65
65
65
65
65
65
65
65
65
65
65
65
49
49
49
49
49
49
49
49
49
49
49
49
41
41
41
24
16
8
49
49
49
49
49
49
49
49
49
49
49
49
49
49
49
49
49
49
41
41
41
41
41
41
49
49
49
41
41
41
41
41
41
41
41
41
41
41
41
41
41
41
41
41
41
41
41
41
41
41
41
16
32
8
16
32
8
41
41
41
41
41
41
41
41
41
41
41
41
24
24
24
24
24
24
24
24
24
41
41
41
41
41
41
41
41
41
41
41
41
41
41
41
41
41
41
41
41
41
41
41
41
41
41
41
49
49
49
41
41
41
49
49
49
49
49
49
49
49
49
65
65
65
49
49
49
24
16
8
41
41
41
49
49
49
65
65
65
65
65
65
65
65
65
65
65
65
65
65
65
65
65
65
65
65
65
49
49
49
49
49
49
49
49
49
65
65
65
65
65
65
65
65
65
49
49
49
49
49
49
49
49
49
41
41
41
24
16
8
49
49
49
49
49
49
49
49
49
49
49
49
49
49
49
49
49
49
49
49
49
41
41
41
41
41
41
41
41
41
41
41
41
41
41
41
41
41
41
41
41
41
16
32
8
16
32
8
41
41
41
41
41
41
41
41
41
16
32
8
41
41
41
41
41
41
41
41
41
41
41
41
24
24
24
41
41
41
41
41
41
24
24
24
41
41
41
41
41
41
41
41
41
41
41
41
41
41
41
41
41
41
41
41
41
41
41
41
41
41
41
41
41
41
49
49
49
49
49
49
49
49
49
49
49
49
65
65
65
41
41
41
24
16
8
41
41
41
49
49
49
65
65
65
65
65
65
65
65
65
65
65
65
65
65
65
49
49
49
49
49
49
49
49
49
49
49
49
65
65
65
65
65
65
65
65
65
65
65
65
49
49
49
41
41
41
24
16
8
49
49
49
65
65
65
49
49
49
49
49
49
65
65
65
49
49
49
49
49
49
49
49
49
49
49
49
41
41
41
49
49
49
41
41
41
41
41
41
41
41
41
41
41
41
