P3
# Created by GIMP version 2.10.38 PNM plug-in
64 64
255
16
16
16
16
16
16
24
24
24
74
74
74
82
82
57
74
74
74
82
82
82
82
82
57
49
57
32
32
32
32
24
24
24
24
24
24
41
41
41
49
49
49
57
57
57
57
57
57
32
32
32
24
24
24
32
32
32
65
74
49
41
41
41
57
65
41
82
82
57
65
74
49
57
57
57
57
57
57
41
41
41
57
65
41
98
82
57
98
98
98
98
82
57
82
82
57
98
82
57
98
82
57
82
82
57
65
74
49
65
74
49
90
98
65
90
98
65
90
98
65
106
82
65
82
82
57
90
98
65
82
82
57
82
82
57
82
82
57
82
82
57
82
82
57
82
82
57
82
82
57
82
82
57
98
98
98
98
98
98
82
82
57
98
98
98
82
82
57
57
57
57
65
74
49
82
82
57
65
74
49
41
41
41
41
41
41
24
24
24
16
16
16
0
0
0
0
0
0
16
16
16
74
74
74
98
106
74
98
106
74
98
106
74
98
82
57
74
57
32
41
32
8
24
24
24
41
32
8
49
41
16
49
57
32
65
74
49
65
74
49
57
65
41
57
65
41
74
57
32
41
41
41
41
41
41
65
74
49
90
98
65
82
82
57
90
98
65
98
106
74
82
82
57
82
82
57
98
106
74
106
115
82
106
115
82
123
123
98
106
115
82
98
106
74
90
98
65
123
123
98
82
82
57
65
74
49
65
74
49
82
82
57
82
82
57
90
98
65
106
115
82
98
106
74
98
106
74
98
106
74
98
82
57
82
82
82
98
106
74
90
98
65
82
82
82
106
115
82
98
106
74
82
82
57
82
82
57
90
98
65
115
90
74
123
123
98
98
106
74
98
106
74
57
65
41
32
32
32
41
41
41
16
16
16
0
0
0
0
0
0
16
16
16
65
74
49
98
106
74
106
115
82
98
106
74
65
74
49
49
41
16
32
32
32
24
24
24
41
32
8
49
41
16
49
57
32
57
65
41
65
74
49
65
74
49
65
74
49
65
74
49
74
57
32
24
24
24
16
16
16
49
57
32
82
82
57
98
106
74
98
106
74
82
82
57
65
74
49
82
82
57
90
98
65
90
98
65
98
106
74
98
106
74
90
98
65
98
106
74
98
106
74
98
106
74
98
106
74
82
82
57
82
82
57
90
98
65
106
115
82
106
115
82
106
115
82
106
115
82
106
115
82
106
115
82
106
115
82
98
106
74
98
106
74
106
115
82
106
115
82
106
115
82
90
98
65
82
82
57
90
98
65
90
98
65
98
106
74
98
106
74
90
98
65
90
98
65
82
82
57
41
41
41
16
16
16
16
8
0
16
16
16
24
24
24
82
82
57
98
106
74
106
115
82
98
106
74
74
74
74
49
41
16
57
65
41
57
57
57
49
49
49
49
57
32
49
57
32
82
82
57
82
82
57
65
74
49
65
74
49
65
74
49
65
74
49
74
57
32
49
41
16
65
74
49
65
74
49
65
74
49
90
98
65
90
98
65
65
74
49
65
74
49
82
82
57
82
82
57
90
98
65
90
98
65
98
106
74
90
98
65
98
106
74
106
115
82
106
115
82
90
98
65
65
74
49
82
82
57
106
115
82
106
115
82
106
115
82
106
106
106
106
115
82
106
115
82
98
106
74
98
106
74
98
106
74
106
115
82
106
115
82
106
115
82
98
106
74
82
82
57
82
82
57
82
82
57
90
98
65
90
98
65
82
82
57
82
82
57
65
74
49
32
32
32
16
16
16
16
16
16
41
41
41
65
74
49
90
98
65
98
98
98
82
82
82
90
98
65
90
98
65
82
82
57
65
74
49
57
57
57
65
74
49
57
65
41
57
65
41
65
74
49
82
82
57
82
82
57
65
74
49
49
57
32
65
74
49
65
74
49
65
74
49
82
82
57
74
74
74
74
74
74
65
74
49
65
74
49
65
74
49
65
74
49
65
74
49
82
82
57
65
74
49
82
82
57
90
98
65
106
115
82
106
115
82
98
106
74
90
98
65
82
82
57
82
82
57
90
98
65
106
115
82
106
115
82
106
115
82
106
115
82
106
115
82
98
106
74
98
106
74
98
106
74
98
106
74
90
98
65
98
106
74
98
106
74
90
98
65
90
98
65
82
82
57
82
82
57
82
82
57
82
82
57
65
74
49
90
98
65
74
74
74
32
32
32
16
16
16
24
24
24
65
74
49
57
65
41
98
106
74
98
106
74
98
106
74
90
98
65
98
106
74
90
98
65
65
74
49
49
57
32
65
74
49
82
82
57
82
82
57
65
74
49
65
74
49
65
74
49
65
74
49
65
74
49
65
74
49
65
74
49
65
74
49
82
82
57
65
74
49
65
74
49
82
82
57
65
74
49
65
74
49
65
74
49
65
74
49
82
82
57
82
82
57
82
82
57
90
98
65
98
106
74
98
106
74
90
98
65
90
98
65
90
98
65
90
98
65
90
98
65
98
106
74
98
106
74
98
106
74
106
115
82
106
115
82
98
106
74
90
98
65
90
98
65
98
106
74
90
98
65
82
82
57
74
74
74
82
82
57
82
82
57
82
82
57
90
98
65
90
98
65
90
98
65
82
82
57
65
74
49
57
65
41
24
24
24
16
16
16
32
32
32
65
74
49
57
65
41
98
106
74
98
106
74
106
115
82
98
106
74
82
82
82
74
74
74
65
74
49
65
74
49
65
74
49
49
49
49
65
74
49
57
65
41
65
74
49
65
74
49
65
74
49
65
74
49
65
74
49
82
82
57
82
82
57
82
82
57
82
82
57
65
74
49
65
74
49
82
82
57
65
74
49
65
74
49
65
74
49
65
74
49
82
82
57
65
74
49
82
82
57
98
106
74
90
98
65
82
82
57
82
82
57
98
106
74
98
106
74
98
106
74
98
106
74
106
115
82
98
106
74
98
106
74
98
106
74
98
106
74
106
115
82
98
106
74
82
82
57
82
82
57
82
82
57
65
74
49
57
65
41
57
65
41
65
74
49
82
82
57
65
74
49
65
74
49
57
65
41
49
41
16
41
32
8
24
24
24
0
0
0
16
16
16
32
32
32
57
57
57
82
82
57
82
82
82
82
82
82
82
82
57
65
74
49
65
74
49
82
82
57
82
82
57
90
98
65
65
74
49
57
57
57
65
74
49
65
74
49
57
65
41
57
65
41
65
74
49
82
82
57
82
82
57
82
82
57
65
74
49
82
82
57
82
82
57
65
74
49
82
82
57
82
82
57
82
82
57
65
74
49
65
74
49
65
74
49
65
74
49
82
82
57
82
82
57
82
82
57
65
74
49
82
82
57
106
115
82
123
123
98
106
115
82
106
115
82
98
106
74
98
106
74
106
115
82
106
115
82
106
115
82
106
115
82
90
98
65
65
74
49
90
98
65
98
106
74
90
98
65
82
82
57
65
74
49
65
74
49
57
57
57
41
41
41
41
41
41
41
41
41
32
32
32
49
57
32
24
24
24
16
16
16
24
24
24
57
65
41
65
74
49
90
98
65
90
98
65
98
106
74
74
74
74
57
65
41
57
65
41
65
74
49
65
74
49
82
82
57
65
74
49
65
74
49
65
74
49
65
74
49
65
74
49
65
74
49
82
82
57
90
98
65
90
98
65
82
82
57
82
82
57
90
98
65
90
98
65
65
74
49
65
74
49
82
82
57
90
98
65
90
98
65
65
74
49
82
82
57
82
82
57
82
82
57
65
74
49
57
57
57
57
65
41
82
82
57
98
106
74
106
115
82
106
115
82
98
106
74
90
98
65
98
106
74
98
106
74
98
106
74
98
106
74
90
98
65
82
82
57
82
82
57
98
106
74
106
115
82
90
98
65
82
82
57
65
74
49
57
65
41
57
57
57
49
49
49
57
57
57
57
57
57
57
57
57
65
74
49
57
65
41
24
24
24
32
32
32
65
74
49
82
82
57
82
82
57
82
82
57
82
82
57
82
82
57
65
74
49
65
74
49
65
74
49
65
74
49
65
74
49
57
65
41
57
57
57
65
74
49
82
82
57
65
74
49
65
74
49
82
82
57
82
82
57
82
82
57
90
98
65
90
98
65
90
98
65
98
106
74
98
106
74
90
98
65
82
82
57
82
82
57
82
82
57
65
74
49
65
74
49
82
82
57
90
98
65
90
98
65
82
82
57
49
49
49
65
74
49
98
106
74
106
115
82
106
115
82
106
115
82
98
106
74
98
106
74
106
115
82
106
115
82
98
106
74
90
98
65
82
82
57
82
82
57
90
98
65
90
98
65
82
82
57
82
82
57
98
106
74
90
98
65
98
106
74
82
82
57
65
74
49
82
82
57
82
82
57
82
82
57
57
65
41
24
24
24
32
32
32
65
74
49
57
65
41
98
106
74
90
98
65
74
74
74
65
74
49
65
74
49
82
82
57
65
74
49
65
74
49
65
74
49
57
57
57
57
65
41
57
65
41
65
74
49
65
74
49
90
98
65
82
82
57
82
82
57
82
82
57
82
82
57
65
74
49
82
82
57
90
98
65
82
82
57
82
82
57
82
82
57
65
74
49
65
74
49
82
82
57
82
82
57
90
98
65
90
98
65
90
98
65
82
82
57
82
82
57
90
98
65
98
106
74
98
106
74
98
106
74
98
106
74
98
106
74
90
98
65
98
106
74
106
115
82
98
106
74
98
106
74
90
98
65
90
98
65
90
98
65
90
98
65
65
74
49
82
82
57
90
98
65
90
98
65
98
106
74
90
98
65
90
98
65
90
98
65
90
98
65
90
98
65
57
65
41
24
24
24
41
41
41
82
82
57
65
74
49
106
115
82
106
115
82
82
82
57
82
82
57
82
82
57
74
74
74
82
82
57
74
74
74
65
74
49
41
41
41
49
57
32
65
74
49
65
74
49
65
74
49
65
74
49
82
82
57
82
82
57
82
82
57
74
74
74
82
82
57
82
82
57
82
82
57
82
82
57
82
82
57
82
82
57
82
82
57
65
74
49
90
98
65
98
106
74
98
106
74
82
82
57
82
82
57
90
98
65
90
98
65
90
98
65
90
98
65
98
106
74
98
106
74
98
106
74
98
106
74
98
106
74
106
115
82
98
106
74
98
106
74
106
115
82
98
106
74
98
106
74
98
106
74
82
82
57
65
74
49
74
74
74
82
82
57
90
98
65
90
98
65
98
106
74
90
98
65
82
82
57
90
98
65
82
82
57
57
65
41
24
24
24
65
74
49
90
98
65
90
98
65
90
98
65
82
82
57
82
82
57
74
74
74
74
74
74
57
57
57
57
57
57
65
74
49
57
65
41
65
74
49
49
57
32
49
57
32
49
57
32
74
57
32
82
82
57
90
98
65
82
82
57
65
74
49
65
74
49
65
74
49
82
82
57
82
82
57
65
74
49
65
74
49
65
74
49
82
82
57
57
57
57
74
74
74
90
98
65
82
82
57
57
65
41
57
57
57
65
74
49
82
82
57
82
82
57
82
82
57
82
82
57
90
98
65
90
98
65
82
82
57
82
82
57
90
98
65
90
98
65
90
98
65
82
82
57
90
98
65
82
82
57
74
74
74
82
82
57
82
82
57
82
82
57
82
82
57
82
82
57
82
82
57
82
82
57
90
98
65
82
82
57
82
82
57
82
82
57
57
65
41
24
24
24
49
57
32
57
65
41
57
65
41
41
41
41
32
32
32
49
41
16
41
41
41
49
57
32
32
32
32
24
24
24
32
32
32
24
24
24
32
32
32
41
41
41
24
24
24
24
24
24
32
32
32
32
32
32
57
65
41
49
57
32
41
41
41
49
57
32
32
32
32
41
41
41
41
41
41
41
41
41
49
41
16
32
32
32
49
41
16
32
32
32
32
32
32
32
32
32
32
32
32
49
57
32
41
41
41
49
57
32
41
41
41
41
41
41
49
49
49
41
41
41
49
57
32
41
41
41
49
57
32
49
41
16
49
57
32
49
57
32
41
41
41
49
57
32
41
41
41
41
41
41
41
41
41
32
32
32
49
57
32
49
49
49
57
65
41
49
57
32
49
57
32
49
57
32
41
41
41
41
41
41
49
57
32
41
41
41
49
57
32
32
32
32
90
98
65
98
106
74
98
106
74
98
106
74
106
115
82
98
106
74
98
106
74
82
82
57
90
98
65
82
82
57
90
98
65
98
106
74
90
98
65
90
98
65
41
41
41
24
24
24
57
65
41
90
98
65
90
98
65
90
98
65
106
115
82
90
98
65
90
98
65
106
115
82
98
106
74
98
106
74
106
115
82
131
106
82
115
90
74
90
98
65
90
98
65
98
106
74
106
115
82
98
106
74
106
115
82
106
115
82
90
98
65
82
82
57
82
82
57
98
106
74
90
98
65
90
98
65
98
106
74
90
98
65
90
98
65
98
106
74
90
98
65
98
106
74
131
106
82
98
106
74
106
115
82
106
115
82
90
98
65
98
106
74
106
115
82
106
115
82
90
98
65
90
98
65
90
98
65
82
82
57
90
98
65
82
82
57
106
115
82
106
115
82
98
106
74
90
98
65
106
115
82
106
115
82
106
115
82
90
98
65
90
98
65
90
98
65
90
98
65
90
98
65
90
98
65
90
98
65
90
98
65
82
82
57
32
32
32
24
24
24
57
57
57
82
82
57
82
82
57
82
82
57
65
74
49
82
82
57
90
98
65
90
98
65
90
98
65
106
115
82
98
106
74
82
82
57
90
98
65
90
98
65
82
82
57
90
98
65
98
106
74
106
115
82
98
106
74
82
82
57
90
98
65
98
106
74
90
98
65
82
82
57
90
98
65
90
98
65
98
106
74
82
82
57
82
82
57
90
98
65
90
98
65
106
115
82
90
98
65
90
98
65
90
98
65
90
98
65
82
82
57
82
82
57
82
82
57
82
82
57
82
82
57
65
74
49
65
74
49
65
74
49
65
74
49
82
82
57
90
98
65
90
98
65
98
106
74
90
98
65
90
98
65
90
98
65
82
82
57
90
98
65
98
106
74
98
106
74
98
106
74
90
98
65
90
98
65
82
82
57
90
98
65
82
82
57
24
24
24
24
24
24
57
65
41
65
74
49
82
82
57
57
65
41
65
74
49
82
82
57
90
98
65
90
98
65
90
98
65
82
82
57
82
82
57
82
82
57
82
82
57
90
98
65
90
98
65
90
98
65
98
106
74
90
98
65
82
82
57
82
82
57
90
98
65
90
98
65
82
82
57
82
82
57
90
98
65
90
98
65
90
98
65
82
82
57
82
82
57
90
98
65
98
106
74
90
98
65
65
74
49
65
74
49
90
98
65
90
98
65
82
82
57
82
82
57
82
82
57
82
82
57
65
74
49
82
82
57
82
82
57
65
74
49
82
82
57
82
82
57
98
82
57
98
106
74
82
82
57
82
82
57
90
98
65
82
82
57
90
98
65
82
82
57
90
98
65
98
106
74
98
106
74
90
98
65
82
82
57
82
82
57
90
98
65
82
82
57
32
32
32
24
24
24
49
57
32
65
74
49
82
82
57
65
74
49
82
82
57
82
82
57
65
74
49
82
82
57
82
82
57
82
82
57
82
82
57
82
82
57
90
98
65
106
115
82
98
106
74
82
82
57
82
82
57
82
82
57
82
82
57
82
82
57
82
82
57
82
82
57
90
98
65
82
82
57
90
98
65
90
98
65
98
106
74
82
82
57
90
74
49
82
82
57
82
82
57
82
82
57
82
82
57
82
82
57
82
82
57
65
74
49
82
82
57
90
98
65
82
82
57
65
74
49
65
74
49
82
82
57
82
82
57
57
65
41
90
74
49
65
74
49
82
82
57
123
123
98
82
82
57
82
82
57
82
82
57
65
74
49
98
106
74
90
98
65
90
98
65
98
106
74
98
106
74
90
98
65
90
98
65
98
106
74
90
98
65
82
82
57
57
65
41
24
24
24
41
41
41
65
74
49
82
82
57
65
74
49
65
74
49
82
82
57
82
82
57
82
82
57
82
82
57
65
74
49
82
82
57
82
82
57
90
98
65
98
106
74
82
82
57
82
82
57
90
98
65
82
82
57
82
82
57
90
98
65
98
106
74
90
98
65
90
98
65
90
98
65
90
98
65
90
98
65
98
106
74
90
98
65
82
82
57
82
82
57
82
82
57
82
82
57
90
98
65
98
106
74
90
98
65
82
82
57
82
82
57
82
82
57
82
82
57
82
82
57
65
74
49
65
74
49
65
74
49
65
74
49
82
82
57
74
74
74
82
82
57
90
98
65
82
82
57
90
98
65
90
98
65
98
106
74
90
98
65
90
98
65
90
98
65
82
82
57
90
98
65
98
106
74
90
98
65
90
98
65
98
106
74
82
82
57
49
57
32
24
24
24
57
65
41
82
82
57
82
82
57
82
82
57
82
82
57
82
82
57
90
98
65
82
82
57
82
82
57
82
82
57
82
82
57
65
74
49
82
82
57
90
98
65
90
98
65
90
98
65
82
82
57
82
82
57
90
98
65
90
98
65
98
106
74
106
115
82
90
98
65
82
82
57
82
82
57
90
98
65
90
98
65
98
106
74
82
82
57
82
82
57
82
82
57
90
98
65
90
98
65
98
106
74
90
98
65
82
82
57
65
74
49
65
74
49
82
82
57
90
98
65
65
74
49
65
74
49
65
74
49
82
82
57
65
74
49
82
82
57
90
98
65
90
98
65
82
82
57
90
98
65
90
98
65
98
106
74
98
106
74
90
98
65
98
106
74
90
98
65
90
98
65
90
98
65
90
98
65
90
98
65
90
98
65
98
106
74
57
65
41
24
24
24
57
57
57
82
82
57
65
74
49
65
74
49
82
82
57
90
98
65
82
82
57
65
74
49
82
82
57
82
82
57
90
98
65
82
82
57
65
74
49
82
82
57
82
82
57
82
82
57
90
98
65
90
98
65
90
98
65
90
98
65
90
98
65
106
115
82
90
98
65
90
98
65
98
106
74
106
115
82
106
115
82
98
106
74
90
98
65
82
82
57
90
98
65
90
98
65
82
82
57
82
82
57
90
98
65
98
106
74
82
82
57
82
82
57
90
98
65
82
82
57
65
74
49
65
74
49
82
82
57
82
82
57
82
82
57
90
98
65
98
106
74
98
106
74
90
98
65
82
82
57
90
98
65
90
98
65
98
106
74
90
98
65
98
106
74
90
98
65
90
98
65
90
98
65
98
106
74
98
106
74
90
98
65
90
98
65
57
65
41
24
24
24
74
57
32
82
82
57
65
74
49
65
74
49
65
74
49
65
74
49
65
74
49
82
82
57
82
82
57
82
82
57
82
82
57
82
82
57
82
82
57
82
82
57
90
98
65
90
98
65
90
98
65
90
98
65
98
106
74
98
106
74
98
106
74
90
98
65
90
98
65
90
98
65
98
106
74
98
106
74
98
106
74
98
106
74
90
98
65
90
98
65
82
82
57
82
82
57
82
82
57
82
82
57
90
98
65
98
106
74
98
106
74
82
82
57
82
82
57
82
82
57
65
74
49
65
74
49
90
98
65
98
106
74
90
98
65
98
106
74
98
106
74
90
98
65
98
106
74
90
98
65
98
106
74
90
98
65
98
106
74
90
98
65
106
115
82
90
98
65
90
98
65
90
98
65
98
106
74
90
98
65
98
106
74
90
98
65
57
65
41
24
24
24
57
65
41
57
65
41
57
65
41
65
74
49
65
74
49
65
74
49
82
82
57
82
82
57
82
82
57
82
82
57
82
82
57
82
82
57
82
82
57
90
98
65
98
106
74
90
98
65
90
98
65
98
106
74
106
115
82
98
106
74
98
106
74
90
98
65
90
98
65
90
98
65
90
98
65
90
98
65
98
106
74
90
98
65
90
98
65
90
98
65
82
82
57
65
74
49
82
82
57
90
98
65
90
98
65
90
98
65
82
82
57
82
82
57
90
98
65
82
82
57
82
82
57
82
82
57
90
98
65
98
106
74
90
98
65
98
106
74
98
106
74
90
98
65
82
82
57
90
98
65
90
98
65
90
98
65
90
98
65
98
106
74
90
98
65
90
98
65
90
98
65
90
98
65
90
98
65
98
106
74
90
98
65
82
82
57
57
65
41
24
24
24
57
65
41
57
65
41
57
65
41
65
74
49
65
74
49
82
82
57
82
82
57
82
82
57
90
98
65
90
98
65
82
82
57
90
98
65
90
98
65
98
106
74
98
106
74
90
98
65
98
106
74
98
106
74
98
106
74
98
106
74
98
106
74
90
98
65
98
106
74
98
106
74
90
98
65
90
98
65
90
98
65
90
98
65
90
98
65
90
98
65
90
98
65
90
98
65
90
98
65
90
98
65
98
106
74
90
98
65
90
98
65
90
98
65
82
82
57
82
82
57
82
82
57
82
82
57
82
82
57
90
98
65
90
98
65
90
98
65
98
106
74
90
98
65
82
82
57
82
82
57
82
82
57
90
98
65
90
98
65
90
98
65
90
98
65
90
98
65
82
82
57
90
98
65
90
98
65
90
98
65
90
98
65
90
98
65
57
65
41
24
24
24
57
65
41
65
74
49
65
74
49
65
74
49
82
82
57
82
82
57
82
82
57
90
98
65
90
98
65
90
98
65
90
98
65
90
98
65
90
98
65
90
98
65
90
98
65
90
98
65
90
98
65
90
98
65
90
98
65
90
98
65
90
98
65
82
82
57
82
82
57
90
98
65
90
98
65
90
98
65
90
98
65
90
98
65
90
98
65
90
98
65
98
106
74
106
115
82
98
106
74
90
98
65
90
98
65
90
98
65
90
98
65
65
74
49
82
82
57
82
82
57
82
82
57
74
57
32
65
74
49
82
82
57
82
82
57
90
98
65
90
98
65
82
82
57
57
65
41
49
57
32
49
57
32
49
57
32
49
49
49
49
57
32
49
57
32
49
57
32
49
49
49
49
57
32
49
57
32
49
57
32
49
57
32
49
57
32
41
41
41
24
24
24
57
65
41
41
41
41
49
57
32
49
57
32
49
57
32
49
57
32
49
57
32
57
65
41
49
57
32
57
65
41
57
65
41
57
65
41
49
49
49
49
57
32
49
57
32
49
57
32
57
65
41
49
57
32
41
41
41
49
57
32
49
57
32
49
57
32
49
57
32
49
57
32
57
65
41
49
57
32
49
57
32
49
57
32
49
57
32
49
57
32
49
57
32
57
65
41
57
65
41
57
65
41
57
65
41
57
65
41
49
57
32
49
57
32
49
49
49
57
65
41
49
49
49
49
57
32
49
57
32
49
57
32
57
65
41
49
57
32
49
57
32
41
41
41
24
24
24
32
32
32
41
41
41
49
49
49
32
32
32
32
32
32
49
41
16
57
41
16
49
41
16
41
41
41
65
74
49
65
74
49
57
57
57
90
98
65
90
98
65
98
106
74
90
98
65
90
98
65
82
82
57
82
82
57
82
82
57
82
82
57
82
82
57
98
106
74
106
115
82
98
106
74
98
106
74
90
98
65
82
82
57
82
82
57
82
82
57
90
98
65
98
106
74
90
98
65
82
82
57
82
82
57
90
98
65
82
82
57
90
98
65
82
82
57
90
98
65
90
98
65
82
82
57
82
82
57
90
98
65
82
82
57
90
98
65
90
98
65
106
115
82
106
115
82
90
98
65
82
82
57
82
82
57
90
98
65
98
106
74
90
98
65
98
106
74
82
82
57
98
106
74
98
106
74
106
115
82
106
115
82
57
65
41
24
24
24
0
0
0
41
32
8
41
32
8
57
41
16
41
41
41
49
41
16
57
41
16
49
49
49
57
41
16
57
41
16
82
57
41
74
57
32
65
74
49
90
98
65
90
98
65
98
106
74
90
98
65
82
82
57
65
74
49
82
82
57
82
82
57
90
98
65
90
98
65
90
98
65
98
106
74
82
82
57
82
82
57
90
98
65
90
98
65
82
82
57
90
98
65
98
106
74
98
106
74
90
98
65
82
82
57
90
98
65
106
115
82
90
98
65
82
82
57
90
98
65
90
98
65
90
98
65
65
74
49
65
74
49
90
98
65
98
106
74
106
115
82
82
82
57
82
82
57
65
74
49
65
74
49
82
82
57
65
74
49
65
74
49
90
98
65
98
106
74
106
115
82
106
115
82
106
115
82
106
115
82
98
106
74
90
98
65
57
65
41
24
24
24
0
0
0
41
32
8
41
32
8
41
32
8
41
32
8
57
41
16
49
41
16
49
57
32
74
57
32
57
65
41
57
65
41
65
74
49
82
82
57
82
82
57
82
82
57
90
98
65
90
98
65
82
82
57
65
74
49
65
74
49
82
82
57
82
82
57
90
98
65
90
98
65
82
82
57
82
82
57
82
82
57
90
98
65
98
106
74
98
106
74
98
106
74
90
98
65
90
98
65
82
82
57
82
82
57
106
115
82
90
98
65
82
82
57
82
82
57
90
98
65
90
98
65
90
98
65
82
82
57
82
82
57
90
98
65
90
98
65
82
82
57
82
82
57
82
82
57
82
82
57
74
74
74
90
98
65
90
98
65
90
98
65
82
82
57
82
82
57
82
82
57
90
98
65
90
98
65
98
106
74
82
82
57
57
57
57
49
49
49
24
24
24
16
16
16
41
32
8
49
41
16
41
32
8
41
32
8
41
32
8
57
41
16
74
57
32
57
65
41
74
57
32
65
74
49
82
57
41
90
74
49
65
74
49
65
74
49
82
82
57
82
82
57
82
82
57
65
74
49
65
74
49
82
82
57
82
82
57
82
82
57
82
82
57
82
82
57
82
82
57
82
82
57
98
106
74
106
115
82
90
98
65
65
74
49
82
82
57
82
82
57
82
82
57
98
106
74
123
123
98
106
115
82
90
98
65
90
98
65
90
98
65
90
98
65
106
115
82
90
98
65
65
74
49
82
82
57
82
82
57
82
82
57
90
98
65
90
98
65
90
98
65
90
98
65
90
98
65
90
98
65
98
106
74
90
98
65
82
82
57
82
82
57
82
82
57
82
82
57
82
82
57
82
82
57
41
41
41
24
24
24
16
16
16
16
16
16
49
41
16
57
41
16
49
41
16
49
41
16
32
32
32
41
41
41
49
57
32
57
41
16
74
57
32
74
57
32
82
57
41
90
74
49
90
74
49
82
57
41
65
74
49
82
82
57
82
82
57
82
82
57
65
74
49
82
82
57
82
82
57
82
82
57
82
82
57
82
82
57
82
82
57
82
82
57
82
82
57
90
98
65
90
98
65
82
82
57
82
82
57
90
98
65
90
98
65
106
115
82
123
123
98
123
123
98
90
98
65
82
82
57
90
98
65
90
98
65
90
98
65
90
98
65
82
82
57
82
82
57
82
82
57
82
82
57
90
98
65
98
106
74
65
74
49
74
74
74
65
74
49
82
82
57
106
115
82
98
106
74
90
98
65
90
98
65
90
98
65
82
82
57
82
82
57
82
82
57
49
49
49
49
57
32
16
16
16
16
16
16
49
41
16
57
41
16
49
41
16
49
41
16
41
41
41
57
41
16
41
41
41
49
41
16
49
41
16
57
41
16
74
57
32
49
57
32
74
57
32
82
57
41
82
82
57
74
74
74
74
74
74
82
82
57
82
82
57
90
98
65
82
82
57
82
82
57
82
82
57
82
82
57
90
98
65
90
74
49
65
74
49
82
82
57
90
98
65
82
82
57
82
82
57
90
98
65
90
98
65
98
106
74
106
115
82
123
123
98
98
106
74
82
82
57
90
98
65
98
106
74
98
106
74
98
106
74
90
98
65
90
98
65
90
98
65
90
98
65
90
98
65
82
82
57
82
82
57
65
74
49
74
74
74
82
82
57
90
98
65
98
106
74
98
106
74
90
98
65
82
82
57
82
82
57
82
82
57
82
82
57
82
82
57
57
65
41
24
24
24
24
24
24
49
57
32
57
41
16
41
41
41
32
32
32
49
41
16
49
41
16
41
41
41
49
41
16
57
41
16
49
41
16
49
41
16
57
41
16
74
57
32
74
57
32
57
65
41
65
74
49
65
74
49
65
74
49
82
82
57
82
82
57
65
74
49
65
74
49
82
82
57
82
82
57
82
82
57
65
74
49
65
74
49
82
82
57
82
82
57
90
98
65
90
98
65
90
98
65
90
98
65
90
98
65
106
115
82
106
115
82
90
98
65
90
98
65
98
106
74
98
106
74
98
106
74
98
106
74
90
98
65
82
82
57
82
82
57
82
82
57
82
82
57
82
82
57
82
82
57
82
82
57
98
106
74
90
98
65
82
82
57
90
98
65
90
98
65
90
98
65
90
98
65
90
98
65
82
82
57
82
82
57
82
82
57
57
65
41
24
24
24
24
24
24
57
65
41
49
41
16
41
41
41
32
32
32
49
41
16
49
41
16
49
49
49
49
57
32
41
41
41
49
41
16
41
41
41
49
41
16
49
41
16
57
41
16
74
57
32
57
65
41
65
74
49
82
82
57
65
74
49
65
74
49
82
82
57
82
82
57
82
82
57
82
82
57
82
82
57
82
82
57
82
82
57
90
98
65
98
106
74
90
98
65
90
98
65
98
106
74
106
115
82
106
115
82
106
115
82
98
106
74
90
98
65
90
98
65
90
98
65
90
98
65
98
106
74
98
106
74
90
98
65
90
98
65
82
82
57
82
82
57
82
82
57
90
98
65
65
74
49
57
57
57
74
74
74
65
74
49
90
98
65
98
106
74
98
106
74
98
106
74
82
82
57
82
82
57
82
82
57
82
82
57
65
74
49
41
41
41
16
16
16
24
24
24
57
65
41
57
57
57
49
41
16
49
41
16
57
41
16
74
57
32
49
57
32
57
65
41
65
74
49
74
57
32
57
41
16
49
41
16
32
32
32
32
32
32
49
57
32
49
41
16
49
41
16
57
65
41
65
74
49
82
82
57
82
82
57
82
82
57
82
82
57
82
82
57
82
82
57
82
82
57
90
98
65
98
106
74
98
106
74
90
98
65
90
98
65
98
106
74
106
115
82
106
115
82
98
106
74
90
98
65
90
98
65
90
98
65
90
98
65
90
98
65
90
98
65
90
98
65
90
98
65
90
98
65
90
98
65
82
82
57
90
98
65
90
98
65
82
82
57
82
82
57
82
82
57
90
98
65
90
98
65
98
106
74
106
115
82
106
115
82
98
106
74
82
82
57
82
82
57
65
74
49
57
65
41
49
57
32
16
16
16
24
24
24
49
41
16
41
41
41
49
41
16
74
57
32
74
57
32
74
57
32
57
65
41
65
74
49
65
74
49
74
57
32
74
57
32
57
41
16
49
41
16
49
41
16
49
41
16
41
32
8
49
41
16
57
65
41
65
74
49
82
82
57
82
82
57
82
82
57
82
82
57
82
82
57
82
82
57
82
82
57
90
98
65
90
98
65
106
115
82
98
106
74
98
106
74
106
115
82
123
123
98
106
115
82
90
98
65
90
98
65
106
115
82
98
106
74
90
98
65
90
98
65
90
98
65
90
98
65
98
106
74
98
106
74
90
98
65
90
98
65
90
98
65
90
98
65
82
82
57
82
82
57
90
98
65
98
106
74
90
98
65
90
98
65
90
98
65
106
115
82
106
115
82
90
98
65
90
98
65
82
82
57
65
74
49
41
41
41
16
16
16
16
16
16
32
32
32
24
24
24
41
32
8
49
57
32
57
65
41
57
65
41
65
74
49
57
65
41
65
74
49
65
74
49
65
74
49
57
65
41
57
65
41
49
57
32
32
32
32
41
32
8
32
32
32
49
41
16
65
74
49
82
82
57
65
74
49
65
74
49
82
82
57
82
82
57
82
82
57
82
82
57
90
98
65
90
98
65
90
98
65
98
106
74
98
106
74
98
106
74
106
115
82
106
115
82
106
115
82
98
106
74
98
106
74
98
106
74
90
98
65
90
98
65
98
106
74
98
106
74
106
115
82
98
106
74
90
98
65
98
106
74
98
106
74
90
98
65
90
98
65
90
98
65
90
98
65
90
98
65
90
98
65
90
98
65
90
98
65
98
106
74
90
98
65
90
98
65
90
98
65
90
98
65
82
82
57
57
65
41
24
24
24
24
24
24
57
65
41
49
41
16
49
41
16
41
41
41
57
65
41
49
57
32
49
49
49
57
57
57
65
74
49
57
65
41
57
65
41
57
65
41
57
65
41
49
41
16
41
32
8
32
32
32
49
41
16
49
41
16
57
65
41
65
74
49
65
74
49
65
74
49
65
74
49
82
82
57
82
82
57
82
82
57
90
98
65
90
98
65
98
106
74
98
106
74
98
106
74
90
98
65
98
106
74
106
115
82
98
106
74
106
115
82
98
106
74
90
98
65
90
98
65
82
82
57
90
98
65
90
98
65
90
98
65
90
98
65
90
98
65
98
106
74
90
98
65
82
82
57
90
98
65
90
98
65
90
98
65
90
98
65
98
106
74
90
98
65
90
98
65
90
98
65
90
98
65
90
98
65
82
82
82
98
106
74
90
98
65
57
65
41
24
24
24
32
32
32
65
74
49
65
74
49
82
82
57
65
74
49
65
74
49
65
74
49
65
74
49
65
74
49
65
74
49
57
65
41
57
65
41
57
65
41
57
65
41
49
57
32
32
32
32
32
32
32
32
32
32
49
41
16
57
41
16
74
57
32
57
65
41
65
74
49
65
74
49
82
82
57
82
82
57
90
98
65
90
98
65
90
98
65
90
98
65
90
98
65
82
82
57
82
82
57
90
98
65
82
82
57
82
82
57
82
82
57
82
82
57
82
82
57
82
82
57
82
82
57
82
82
57
90
98
65
90
98
65
90
98
65
90
98
65
98
106
74
90
98
65
90
98
65
90
98
65
90
98
65
90
98
65
90
98
65
90
98
65
90
98
65
90
98
65
82
82
57
82
82
57
82
82
57
65
74
49
82
82
57
90
98
65
49
57
32
24
24
24
24
24
24
32
32
32
49
41
16
65
74
49
82
82
57
65
74
49
65
74
49
57
57
57
49
57
32
32
32
32
16
16
16
32
32
32
49
57
32
57
65
41
49
57
32
32
32
32
24
24
24
32
32
32
32
32
32
49
41
16
57
41
16
49
41
16
49
57
32
49
57
32
57
65
41
82
82
57
82
82
57
65
74
49
57
57
57
49
57
32
57
65
41
49
57
32
49
57
32
49
57
32
49
57
32
49
57
32
49
57
32
49
57
32
49
57
32
57
57
57
57
65
41
57
65
41
57
65
41
65
74
49
57
65
41
65
74
49
82
82
57
65
74
49
65
74
49
82
82
57
82
82
57
65
74
49
65
74
49
82
82
57
82
82
57
57
65
41
65
74
49
65
74
49
57
57
57
57
65
41
65
74
49
82
82
57
49
57
32
24
24
24
82
82
57
82
82
57
57
65
41
82
82
57
65
74
49
82
82
57
82
82
57
82
82
57
90
98
65
90
98
65
90
98
65
82
82
57
82
82
57
90
98
65
82
82
57
106
82
65
82
82
57
57
65
41
82
82
57
57
65
41
57
65
41
65
74
49
65
74
49
57
65
41
65
74
49
57
65
41
57
57
57
57
65
41
82
82
57
90
98
65
82
82
57
82
82
57
82
82
57
65
74
49
82
82
57
98
82
57
98
82
57
98
82
57
82
82
57
82
82
57
98
82
57
82
82
57
82
82
57
98
82
57
82
82
57
82
82
57
65
74
49
49
57
32
24
24
24
32
32
32
65
74
49
74
74
74
65
74
49
65
74
49
65
74
49
65
74
49
65
74
49
82
82
57
82
82
57
82
82
57
82
82
57
82
82
57
90
98
65
57
65
41
90
98
65
98
106
74
82
57
41
82
82
57
82
82
57
65
74
49
82
82
57
82
82
57
90
98
65
90
98
65
82
82
57
90
98
65
98
106
74
98
106
74
98
106
74
98
106
74
98
106
74
90
98
65
90
98
65
90
98
65
90
98
65
98
106
74
90
98
65
90
98
65
90
98
65
90
98
65
98
106
74
98
106
74
98
106
74
106
115
82
106
115
82
106
115
82
98
106
74
90
98
65
82
82
57
90
98
65
98
106
74
106
115
82
106
115
82
98
106
74
90
98
65
90
98
65
90
98
65
90
98
65
82
82
57
90
98
65
82
82
57
57
57
57
24
24
24
32
32
32
82
82
57
90
98
65
90
98
65
90
98
65
90
98
65
90
98
65
90
98
65
98
106
74
98
106
74
106
115
82
106
115
82
98
106
74
90
98
65
98
106
74
82
82
57
82
82
57
65
74
49
65
74
49
65
74
49
82
82
57
65
74
49
82
82
57
82
82
57
82
82
57
82
82
57
82
82
57
90
98
65
90
98
65
82
82
57
82
82
57
106
115
82
98
106
74
90
98
65
65
74
49
65
74
49
90
98
65
90
98
65
90
98
65
82
82
57
90
98
65
98
106
74
90
98
65
82
82
57
90
98
65
98
106
74
90
98
65
90
98
65
82
82
57
90
98
65
90
98
65
82
82
57
82
82
57
98
106
74
90
98
65
90
98
65
90
98
65
82
82
57
82
82
57
65
74
49
82
82
57
65
74
49
49
49
49
24
24
24
24
24
24
82
82
57
90
98
65
90
98
65
90
98
65
98
106
74
98
106
74
98
106
74
98
106
74
90
98
65
98
106
74
98
106
74
98
106
74
98
106
74
98
106
74
90
98
65
90
98
65
82
82
57
90
74
49
65
74
49
82
82
57
82
82
57
90
74
49
82
82
57
82
82
57
82
82
57
82
82
57
82
82
57
82
82
57
82
82
57
82
82
57
82
82
57
90
98
65
90
98
65
82
82
57
82
82
57
90
98
65
90
98
65
90
98
65
82
82
57
82
82
57
82
82
57
82
82
57
82
82
57
82
82
57
90
98
65
90
98
65
90
98
65
98
106
74
98
106
74
90
98
65
82
82
57
82
82
57
82
82
57
90
98
65
90
98
65
82
82
57
82
82
57
65
74
49
65
74
49
82
82
57
65
74
49
49
57
32
24
24
24
24
24
24
82
82
57
90
98
65
82
82
57
90
98
65
90
98
65
98
106
74
98
106
74
90
98
65
90
98
65
90
98
65
82
82
57
90
98
65
90
98
65
90
98
65
82
82
57
65
74
49
65
74
49
82
82
57
57
65
41
82
82
57
90
98
65
90
98
65
82
82
57
82
82
57
82
82
57
82
82
57
82
82
57
82
82
57
90
98
65
90
98
65
82
82
57
82
82
57
82
82
57
65
74
49
90
98
65
106
115
82
90
98
65
90
98
65
90
98
65
90
98
65
90
98
65
90
98
65
90
98
65
82
82
57
82
82
57
82
82
57
65
74
49
90
98
65
106
115
82
98
106
74
82
82
57
82
82
57
82
82
57
82
82
57
82
82
57
82
82
57
82
82
57
65
74
49
65
74
49
65
74
49
65
74
49
49
57
32
24
24
24
49
57
32
82
82
57
90
98
65
90
98
65
90
98
65
90
98
65
90
98
65
98
106
74
90
98
65
82
82
82
90
98
65
82
82
57
82
82
57
82
82
57
82
82
57
90
98
65
82
82
57
82
82
57
65
74
49
82
82
57
82
82
57
82
82
57
82
82
57
90
98
65
82
82
57
65
74
49
65
74
49
82
82
57
82
82
57
98
106
74
90
98
65
82
82
57
82
82
57
82
82
57
82
82
57
90
98
65
90
98
65
90
98
65
90
98
65
82
82
57
90
98
65
98
106
74
106
115
82
98
106
74
90
98
65
82
82
57
82
82
57
82
82
57
90
98
65
90
98
65
82
82
57
82
82
57
82
82
57
82
82
57
82
82
57
82
82
57
82
82
57
82
82
57
65
74
49
65
74
49
82
82
57
65
74
49
49
57
32
24
24
24
49
57
32
82
82
57
90
98
65
90
98
65
98
106
74
90
98
65
90
98
65
90
98
65
90
98
65
90
98
65
90
98
65
90
98
65
82
82
57
82
82
57
82
82
57
90
98
65
90
98
65
82
82
57
65
74
49
82
82
57
82
82
57
65
74
49
65
74
49
82
82
57
90
98
65
82
82
57
65
74
49
82
82
57
90
98
65
82
82
57
90
98
65
90
98
65
90
98
65
90
98
65
90
98
65
98
106
74
98
106
74
98
106
74
90
98
65
82
82
57
98
106
74
106
115
82
90
98
65
90
98
65
90
98
65
90
98
65
82
82
57
82
82
57
90
98
65
82
82
57
65
74
49
90
74
49
90
98
65
82
82
57
82
82
57
82
82
57
82
82
57
90
98
65
82
82
57
82
82
57
74
74
74
65
74
49
57
57
57
24
24
24
57
65
41
90
98
65
90
98
65
90
98
65
90
98
65
90
98
65
82
82
57
82
82
57
90
98
65
90
98
65
98
106
74
98
106
74
90
98
65
82
82
57
82
82
57
98
106
74
98
106
74
90
98
65
90
98
65
90
98
65
90
98
65
82
82
57
82
82
57
90
98
65
82
82
57
65
74
49
90
98
65
106
115
82
90
98
65
82
82
57
82
82
57
82
82
57
82
82
57
82
82
57
90
98
65
98
106
74
98
106
74
98
106
74
98
106
74
90
98
65
90
98
65
98
106
74
90
98
65
90
98
65
90
98
65
90
98
65
90
98
65
90
98
65
82
82
57
82
82
57
65
74
49
65
74
49
82
82
57
82
82
57
82
82
57
65
74
49
65
74
49
82
82
57
82
82
57
65
74
49
65
74
49
82
82
57
82
57
41
24
24
24
57
65
41
90
98
65
90
98
65
98
106
74
98
106
74
90
98
65
98
106
74
98
106
74
98
106
74
90
98
65
90
98
65
98
106
74
90
98
65
90
98
65
90
98
65
90
98
65
98
106
74
98
106
74
90
98
65
106
115
82
90
98
65
90
98
65
90
98
65
90
98
65
90
98
65
90
98
65
90
98
65
90
98
65
90
98
65
90
98
65
82
82
57
82
82
57
82
82
57
90
98
65
90
98
65
98
106
74
98
106
74
90
98
65
90
98
65
90
98
65
90
98
65
90
98
65
98
106
74
106
115
82
106
115
82
98
106
74
90
98
65
90
98
65
98
106
74
90
98
65
82
82
57
82
82
57
82
82
57
82
82
57
82
82
57
82
82
57
82
82
57
65
74
49
65
74
49
82
82
57
65
74
49
65
74
49
57
65
41
24
24
24
57
65
41
90
98
65
90
98
65
90
98
65
98
106
74
90
98
65
90
98
65
90
98
65
98
106
74
90
98
65
98
106
74
90
98
65
98
106
74
90
98
65
98
106
74
90
98
65
98
106
74
90
98
65
90
98
65
98
106
74
90
98
65
90
98
65
90
98
65
90
98
65
90
98
65
90
98
65
90
98
65
90
98
65
90
98
65
90
98
65
90
98
65
82
82
57
90
98
65
90
98
65
90
98
65
90
98
65
90
98
65
90
98
65
90
98
65
90
98
65
90
98
65
90
98
65
98
106
74
98
106
74
98
106
74
98
106
74
90
98
65
90
98
65
98
106
74
98
106
74
90
98
65
82
82
57
82
82
57
82
82
57
82
82
57
82
82
57
82
82
57
65
74
49
65
74
49
65
74
49
49
41
16
49
41
16
57
65
41
24
24
24
57
65
41
90
98
65
98
106
74
98
106
74
90
98
65
90
98
65
90
98
65
90
98
65
98
106
74
98
106
74
98
106
74
90
98
65
90
98
65
90
98
65
90
98
65
90
98
65
90
98
65
90
98
65
90
98
65
90
98
65
90
98
65
90
98
65
90
98
65
90
98
65
90
98
65
90
98
65
90
98
65
90
98
65
90
98
65
90
98
65
98
106
74
98
106
74
90
98
65
98
106
74
90
98
65
90
98
65
90
98
65
90
98
65
90
98
65
90
98
65
98
106
74
90
98
65
90
98
65
90
98
65
90
98
65
98
106
74
90
98
65
90
98
65
90
98
65
90
98
65
90
98
65
90
98
65
90
98
65
90
98
65
98
106
74
90
98
65
82
82
57
82
82
57
82
82
57
82
82
57
65
74
49
65
74
49
57
65
41
24
24
24
57
65
41
90
98
65
90
98
65
90
98
65
90
98
65
90
98
65
90
98
65
90
98
65
90
98
65
90
98
65
90
98
65
90
98
65
90
98
65
90
98
65
82
82
57
65
74
49
65
74
49
65
74
49
65
74
49
65
74
49
65
74
49
65
74
49
65
74
49
65
74
49
65
74
49
65
74
49
65
74
49
90
74
49
65
74
49
65
74
49
65
74
49
65
74
49
65
74
49
65
74
49
65
74
49
65
74
49
65
74
49
65
74
49
65
74
49
65
74
49
65
74
49
65
74
49
65
74
49
65
74
49
65
74
49
82
82
57
82
82
57
65
74
49
82
82
57
82
82
57
82
82
57
82
82
57
82
82
57
82
82
57
82
82
57
82
82
57
65
74
49
65
74
49
65
74
49
57
65
41
57
65
41
57
65
41
57
65
41
24
24
24
49
57
32
82
82
57
82
82
57
82
82
57
82
82
57
82
82
57
65
74
49
82
82
57
82
82
57
65
74
49
82
82
57
82
82
57
65
74
49
65
74
49
65
74
49
82
82
82
65
74
49
65
74
49
74
74
74
57
65
41
57
57
57
82
82
57
82
82
57
82
82
57
82
82
57
82
82
57
82
82
57
82
82
57
82
82
57
106
82
65
82
57
41
32
32
32
49
57
32
82
82
57
82
82
82
82
82
57
82
82
57
57
65
41
57
65
41
82
82
57
82
82
57
65
74
49
57
65
41
65
74
49
57
65
41
65
74
49
41
41
41
49
49
49
57
65
41
49
49
49
65
74
49
57
65
41
65
74
49
65
74
49
65
74
49
65
74
49
65
74
49
65
74
49
65
74
49
65
74
49
65
74
49
65
74
49
65
74
49
65
74
49
65
74
49
82
82
57
90
98
65
82
82
57
82
82
57
82
82
57
115
90
74
82
82
57
90
98
65
90
98
65
82
82
57
65
74
49
57
65
41
41
41
41
65
74
49
82
57
41
74
57
32
57
65
41
49
57
32
49
41
16
32
32
32
57
65
41
65
74
49
82
82
57
90
98
65
98
106
74
98
106
74
106
115
82
106
115
82
106
115
82
82
82
57
32
32
32
57
65
41
98
106
74
98
106
74
106
115
82
98
106
74
90
98
65
106
115
82
90
98
65
90
98
65
90
98
65
106
115
82
98
106
74
98
106
74
131
106
82
98
106
74
90
98
65
106
115
82
98
106
74
106
115
82
123
123
98
106
115
82
106
115
82
106
115
82
106
115
82
106
115
82
106
115
82
106
115
82
106
115
82
106
115
82
106
115
82
106
115
82
106
115
82
106
115
82
106
115
82
98
106
74
98
106
74
106
115
82
106
115
82
106
115
82
106
115
82
106
115
82
106
115
82
98
106
74
65
74
49
57
65
41
90
98
65
82
82
57
49
57
32
57
65
41
57
65
41
41
41
41
57
57
57
57
57
57
65
74
49
82
82
57
90
98
65
90
98
65
90
98
65
98
106
74
90
98
65
90
98
65
131
106
82
90
74
49
32
32
32
57
65
41
65
74
49
90
98
65
106
115
82
106
115
82
98
106
74
98
106
74
90
98
65
82
82
57
90
98
65
98
106
74
106
115
82
90
98
65
65
74
49
57
65
41
65
74
49
65
74
49
82
82
57
90
98
65
106
115
82
90
98
65
98
106
74
106
115
82
106
115
82
106
115
82
106
115
82
123
123
98
123
123
98
123
123
98
106
115
82
106
115
82
90
98
65
90
98
65
98
106
74
98
106
74
106
115
82
98
106
74
90
98
65
98
106
74
98
106
74
90
98
65
82
82
57
82
82
57
90
74
49
90
98
65
106
115
82
106
115
82
65
74
49
65
74
49
57
65
41
57
65
41
57
65
41
74
74
74
90
98
65
98
106
74
98
106
74
98
106
74
90
98
65
90
98
65
98
106
74
106
115
82
106
115
82
65
74
49
24
24
24
32
32
32
57
57
57
65
74
49
90
98
65
90
98
65
82
82
57
74
74
74
74
74
74
82
82
57
98
106
74
123
123
98
115
90
74
57
65
41
49
57
32
57
65
41
65
74
49
65
74
49
98
106
74
106
115
82
106
115
82
106
115
82
106
115
82
98
106
74
106
115
82
123
123
98
123
123
98
123
123
98
123
123
98
123
123
98
123
123
98
98
106
74
82
82
57
90
98
65
123
123
98
123
123
98
106
115
82
131
106
82
123
123
98
139
115
90
98
106
74
82
82
57
65
74
49
65
74
49
82
82
57
98
106
74
106
115
82
82
82
57
57
57
57
57
65
41
65
74
49
57
65
41
82
82
57
82
82
57
65
74
49
90
98
65
98
106
74
98
106
74
106
115
82
90
98
65
65
74
49
98
106
74
106
115
82
65
74
49
24
24
24
32
32
32
41
41
41
82
82
57
82
82
57
82
82
57
82
82
57
90
98
65
82
82
57
98
106
74
106
115
82
106
115
82
82
82
57
49
57
32
57
65
41
65
74
49
82
82
57
82
82
57
98
106
74
106
115
82
106
115
82
90
98
65
98
106
74
106
115
82
106
115
82
123
123
98
123
123
98
123
123
98
123
123
98
123
123
98
123
123
98
98
106
74
90
98
65
106
115
82
123
123
98
123
123
98
106
115
82
106
115
82
106
115
82
106
115
82
82
82
57
90
74
49
65
74
49
57
65
41
65
74
49
82
82
57
82
82
57
65
74
49
82
82
57
57
65
41
65
74
49
57
65
41
65
74
49
65
74
49
57
65
41
98
106
74
90
98
65
90
98
65
90
98
65
98
106
74
65
74
49
98
106
74
106
115
82
82
82
57
32
32
32
57
65
41
57
57
57
82
82
57
82
82
57
82
82
57
82
82
57
90
98
65
90
98
65
106
115
82
98
106
74
123
123
98
82
82
57
49
41
16
49
57
32
57
65
41
65
74
49
82
82
57
82
82
57
82
82
57
98
106
74
90
98
65
106
115
82
98
106
74
98
106
74
106
115
82
123
123
98
123
123
98
123
123
98
106
115
82
98
106
74
90
98
65
106
115
82
106
115
82
98
106
74
106
115
82
123
123
98
98
106
74
82
82
57
82
82
57
82
82
57
82
82
57
57
65
41
57
65
41
82
82
57
65
74
49
82
82
57
74
74
74
82
82
57
65
74
49
65
74
49
49
57
32
65
74
49
65
74
49
82
82
57
90
98
65
98
106
74
98
106
74
98
106
74
90
98
65
90
98
65
90
98
65
98
106
74
65
74
49
32
32
32
57
65
41
82
82
57
82
82
57
82
82
57
82
82
57
82
82
57
90
98
65
98
106
74
90
98
65
98
106
74
106
115
82
82
82
57
41
41
41
65
74
49
82
82
57
65
74
49
74
57
32
49
57
32
65
74
49
82
82
57
90
98
65
98
106
74
98
106
74
98
106
74
106
115
82
106
115
82
106
115
82
106
115
82
106
115
82
106
115
82
98
106
74
106
115
82
98
106
74
90
98
65
90
98
65
90
98
65
106
115
82
82
82
57
82
82
57
82
82
57
65
74
49
65
74
49
90
98
65
90
98
65
65
74
49
65
74
49
57
65
41
90
98
65
82
82
57
65
74
49
65
74
49
82
82
57
90
98
65
90
98
65
90
98
65
106
115
82
90
98
65
90
98
65
90
98
65
98
106
74
82
82
57
65
74
49
57
57
57
24
24
24
49
49
49
82
82
57
82
82
57
82
82
57
82
82
57
82
82
57
98
106
74
98
106
74
90
98
65
82
82
57
90
98
65
65
74
49
57
65
41
65
74
49
82
82
57
82
82
57
49
57
32
57
65
41
65
74
49
82
82
57
98
106
74
90
98
65
106
115
82
123
123
98
106
115
82
90
98
65
90
98
65
98
106
74
106
115
82
106
115
82
98
106
74
98
106
74
90
98
65
65
74
49
65
74
49
82
82
57
90
98
65
82
82
57
65
74
49
82
82
57
90
98
65
82
82
57
65
74
49
82
82
57
82
82
57
65
74
49
74
74
74
98
106
74
82
82
57
90
74
49
98
82
57
90
98
65
90
98
65
90
98
65
90
98
65
106
115
82
98
106
74
98
106
74
90
98
65
90
98
65
90
98
65
98
106
74
65
74
49
24
24
24
49
57
32
65
74
49
74
74
74
65
74
49
82
82
57
82
82
57
106
115
82
98
106
74
98
106
74
106
115
82
131
131
131
106
115
82
82
82
57
49
57
32
82
82
57
82
82
57
82
82
57
90
98
65
106
115
82
123
123
98
90
98
65
57
65
41
82
82
57
98
106
74
106
115
82
106
115
82
106
115
82
106
115
82
106
115
82
106
115
82
123
123
98
106
115
82
106
115
82
82
82
57
65
74
49
57
65
41
82
82
57
90
98
65
82
82
57
65
74
49
65
74
49
82
82
57
82
82
57
82
82
57
65
74
49
65
74
49
82
82
57
98
106
74
98
106
74
90
98
65
90
98
65
98
106
74
106
115
82
98
106
74
98
106
74
98
106
74
98
106
74
98
106
74
90
98
65
98
106
74
98
106
74
98
106
74
65
74
49
24
24
24
32
32
32
57
65
41
82
82
57
82
82
57
90
98
65
106
115
82
106
115
82
98
106
74
90
98
65
98
106
74
123
123
98
106
115
82
90
98
65
82
82
57
65
74
49
90
98
65
90
98
65
90
98
65
82
82
57
98
106
74
98
106
74
90
98
65
82
82
57
82
82
57
98
106
74
106
115
82
123
123
98
106
115
82
98
106
74
106
115
82
123
123
98
106
115
82
106
115
82
57
65
41
49
41
16
57
65
41
65
74
49
82
82
57
82
82
57
82
82
57
82
82
57
82
82
57
82
82
57
82
82
57
82
82
57
90
98
65
82
82
57
98
106
74
98
106
74
98
106
74
98
106
74
106
115
82
106
115
82
106
115
82
98
106
74
98
106
74
90
98
65
90
98
65
98
106
74
106
115
82
106
115
82
106
115
82
65
74
49
24
24
24
57
65
41
82
82
57
90
98
65
90
98
65
90
98
65
98
106
74
98
106
74
90
98
65
90
98
65
98
106
74
106
115
82
98
106
74
90
98
65
90
98
65
82
82
57
82
82
57
106
115
82
82
82
57
65
74
49
82
82
57
90
98
65
90
98
65
90
98
65
90
98
65
98
106
74
123
123
98
106
115
82
90
98
65
106
115
82
106
115
82
106
115
82
106
115
82
98
106
74
57
65
41
57
65
41
90
98
65
82
82
57
82
82
57
82
82
57
82
82
57
82
82
57
65
74
49
65
74
49
82
82
57
90
98
65
98
106
74
98
106
74
82
82
57
82
82
57
82
82
57
90
98
65
90
98
65
82
82
57
90
98
65
82
82
57
82
82
57
82
82
57
82
82
57
90
98
65
90
98
65
90
98
65
82
82
57
57
65
41
24
24
24
49
57
32
65
74
49
65
74
49
82
82
57
65
74
49
82
82
57
82
82
57
65
74
49
82
82
57
82
82
57
82
82
57
82
82
57
65
74
49
65
74
49
65
74
49
57
65
41
65
74
49
49
57
32
41
41
41
57
65
41
65
74
49
82
82
57
82
82
57
82
82
57
82
82
57
82
82
57
82
82
57
82
82
57
90
98
65
90
98
65
82
82
57
82
82
57
82
82
57
65
74
49
57
65
41
65
74
49
65
74
49
65
74
49
65
74
49
65
74
49
57
57
57
65
74
49
65
74
49
82
82
57
65
74
49
57
65
41
65
74
49
